<?xml version="1.0" encoding="utf-8"?>
<!-- Generator: Adobe Illustrator 24.0.1, SVG Export Plug-In . SVG Version: 6.00 Build 0)  -->
<svg version="1.1" id="Capa_1" xmlns="http://www.w3.org/2000/svg" xmlns:xlink="http://www.w3.org/1999/xlink" x="0px" y="0px"
     viewBox="0 0 24 24" style="enable-background:new 0 0 24 24;" xml:space="preserve">
<style type="text/css">
	.st0{fill:#B4CA74;}
</style>
    <path class="st0" d="M19,6H16V5a2,2,0,0,0-2-2H10A2,2,0,0,0,8,5V6H5A3,3,0,0,0,2,9v9a3,3,0,0,0,3,3H19a3,3,0,0,0,3-3V9A3,3,0,0,0,19,6ZM10,5h4V6H10ZM20,18a1,1,0,0,1-1,1H5a1,1,0,0,1-1-1V12.39L8.68,14A1.19,1.19,0,0,0,9,14h6a1.19,1.19,0,0,0,.32-.05L20,12.39Zm0-7.72L14.84,12H9.16L4,10.28V9A1,1,0,0,1,5,8H19a1,1,0,0,1,1,1Z"/>
</svg>
