<?xml version="1.0" encoding="utf-8"?>
<!-- Generator: Adobe Illustrator 24.0.1, SVG Export Plug-In . SVG Version: 6.00 Build 0)  -->
<svg version="1.1" id="Capa_1" xmlns="http://www.w3.org/2000/svg" xmlns:xlink="http://www.w3.org/1999/xlink" x="0px" y="0px"
	 viewBox="0 0 24 24" style="enable-background:new 0 0 24 24;" xml:space="preserve">
<style type="text/css">
	.st0{fill:#B4CA74;}
</style>
<path class="st0" d="M17.1,2.8c-1.9-1.5-4.3-2.1-6.7-1.7C7.2,1.8,4.8,4.3,4.1,7.5c-0.4,2.4,0.2,4.8,1.7,6.7C6.6,14.9,7,15.9,7,17v3
	c0,1.7,1.3,3,3,3h4c1.7,0,3-1.3,3-3v-2.8c0-1.2,0.5-2.3,1.2-3.2C21,10.6,20.5,5.6,17.1,2.8L17.1,2.8z M15,20c0,0.6-0.4,1-1,1h-4
	c-0.6,0-1-0.4-1-1v-1h6V20z M16.7,12.8c-1,1.2-1.6,2.7-1.7,4.2h-2v-3c0-0.6-0.4-1-1-1s-1,0.4-1,1v3H9c0-1.5-0.6-3-1.6-4.2
	c-2.1-2.5-1.8-6.3,0.8-8.5C9,3.7,9.9,3.2,10.8,3c3.2-0.7,6.4,1.4,7.1,4.7C18,8.2,18,8.6,18,9C18,10.4,17.5,11.7,16.7,12.8z"/>
</svg>
