<?xml version="1.0" encoding="utf-8"?>
<!-- Generator: Adobe Illustrator 24.0.1, SVG Export Plug-In . SVG Version: 6.00 Build 0)  -->
<svg version="1.1" id="Capa_1" xmlns="http://www.w3.org/2000/svg" xmlns:xlink="http://www.w3.org/1999/xlink" x="0px" y="0px"
	 viewBox="0 0 24 24" style="enable-background:new 0 0 24 24;" xml:space="preserve">
<style type="text/css">
	.st0{fill:#B4CA74;}
</style>
<path class="st0" d="M21.3,10.1C20.7,9.4,19.9,9,19,9h-4.6L15,7.6c0.8-2.1-0.3-4.5-2.4-5.3c-0.5-0.2-1-0.3-1.5-0.3
	c-0.4,0-0.7,0.2-0.9,0.6L7.3,9H5c-1.7,0-3,1.3-3,3v7c0,1.7,1.3,3,3,3h12.7c1.4,0,2.7-1,3-2.5l1.3-7C22.1,11.7,21.9,10.8,21.3,10.1z
	 M7,20H5c-0.6,0-1-0.4-1-1v-7c0-0.6,0.4-1,1-1h2V20z M20,12.2l-1.3,7c-0.1,0.5-0.5,0.8-1,0.8H9v-9.8l2.7-6.1
	c1.1,0.3,1.8,1.5,1.4,2.6c0,0.1,0,0.1-0.1,0.2l-0.5,1.4c-0.4,1,0.1,2.2,1.2,2.6C14,11,14.2,11,14.4,11H19c0.3,0,0.6,0.1,0.8,0.4
	C20,11.6,20,11.9,20,12.2z"/>
</svg>
