<?xml version="1.0" encoding="utf-8"?>
<!-- Generator: Adobe Illustrator 24.0.1, SVG Export Plug-In . SVG Version: 6.00 Build 0)  -->
<svg version="1.1" id="Layer_1" xmlns="http://www.w3.org/2000/svg" xmlns:xlink="http://www.w3.org/1999/xlink" x="0px" y="0px"
	 viewBox="0 0 474.6 321.2" style="enable-background:new 0 0 474.6 321.2;" xml:space="preserve">
<style type="text/css">
	.st0{fill:#FFAF00;}
	.st1{fill:#000006;}
</style>
<title>caracteristica-renovable</title>
<path id="color_2" class="st0" d="M287.4,180.5h-32.6h-0.2c-1.3-5.3-2.4-10.6-2-15.9c0-0.2,0-0.5,0.1-0.7c0-0.1,0-0.1,0-0.2
	c0.8-4.9,5.1-6.3,9.8-6.5c2.6,0.1,5.4,0.3,8.1,0.5l1.4,0.1c4,0.4,8.2,0.7,11.9,2.5c4.7,2.3,4.5,7.2,3.2,11.5c-0.1,0.1-0.1,0.3,0,0.4
	C287.2,175,287.3,177.8,287.4,180.5z M227.6,98.5c0-0.1-0.1-0.2-0.1-0.3v-42c-18.1,2.4-31.6,17.7-31.9,36c5.2,4,12.7,4.9,19,5.6
	C219,98.1,223.3,98.3,227.6,98.5L227.6,98.5z M239.9,98.5c-0.1-0.1-0.1-0.2-0.1-0.4V49.8h-9.3v48.1c0,0.2-0.1,0.5-0.3,0.6
	c1.8,0,3.7,0.1,5.5,0.1C237.1,98.6,238.5,98.6,239.9,98.5L239.9,98.5z M245.9,110.5l1.6-0.4c-1.2,0.1-2.4,0.2-3.7,0.3L245.9,110.5z
	 M268.9,97.3c-11.7,2.3-23.5,3.4-35.4,3.5c-7.5,0.1-15-0.3-22.5-1.3c-4.4-0.5-8.7-1.5-12.9-3c0.5,0.6,1,1.2,1.6,1.8
	c1.2,1.1,2.5,2.2,4,3.3c1.9,1.3,3.9,2.3,6.1,3.2c0.5,0,1,0.1,1.1,0.4c6.7,2.4,14.3,3.3,20.8,3.6s13.6,0.7,20-0.6
	C259,106.7,264.2,102.5,268.9,97.3L268.9,97.3z M205.6,65.3c-2.4,1.6-4.3,3.8-5.8,6.3C201.6,69.2,203.5,67.1,205.6,65.3z
	 M264.3,69.1c-5.3-7.1-13-10.9-21.6-12.5v41.4c0,0.2-0.1,0.3-0.1,0.5c9.3-0.6,18.6-1.8,27.7-3.5C270.8,86,269.7,76.4,264.3,69.1
	L264.3,69.1z M294.2,270.8c-0.1,0.1-0.1,0.1-0.1,0.2c-0.4,1.7-0.9,3.3-1.4,5l-1.1,0.3l-6.6,1c-0.3,0-0.7,0-1,0c-0.1,0-0.2,0-0.3,0
	c0.4-1,0.8-2.1,1-3.2c0.2-0.8,0.1-1.7-0.2-2.5c0.2-0.2,0.3-0.4,0.3-0.6c0.6-5.4-3.5-10.4-8.2-12.6c-0.9-0.4-2-0.7-3-0.7l-0.2-0.2
	v-0.8c2-4.5,3.2-9.3,3.6-14.1c0.8-10.7-2.3-21.6-9.3-29.8c-2.7-3.1-5.9-5.7-9.5-7.5c0.2-1.9,0.3-3.9,0.2-5.8l0.8-2.9h29.4
	c1,8.5,2.9,16.8,5.5,24.9C299.4,237.7,298.4,254.6,294.2,270.8L294.2,270.8z M281.7,224.5l8.2-8.2c1.3-1.3-1.6-1.6-2.4-0.7l-8.2,8.2
	C278.1,225,280.9,225.3,281.7,224.5L281.7,224.5z M289.1,259.5l-7.5-7.5c-0.6-0.5-3.2,0.5-2.7,1c2.5,2.5,5,5,7.5,7.6
	C287,261.1,289.6,260,289.1,259.5L289.1,259.5z M292.5,238.6h-10.7c-0.7,0-1.4,0.2-2,0.6c-0.4,0.3-0.4,0.7,0.2,0.7h10.7
	c0.7,0,1.4-0.2,2-0.6C293.1,238.9,293.1,238.6,292.5,238.6L292.5,238.6z M166.7,238.6c-0.6,2.8-0.3,6.8,0.3,11
	C166.6,246,166.5,242.3,166.7,238.6L166.7,238.6z M213.2,198.7c-0.4,3.2-0.5,6.4-0.5,9.6c0,0.3,0.1,0.5,0.3,0.7
	c-8.6,6.4-14.1,16.3-15,28.6c-0.7,10.8,2.6,20.1,8.1,28.9c-0.6-0.1-1.3-0.2-1.9-0.2c0.2-0.2,0.3-0.6,0.1-0.9c-1.2-2.9-3.7-5.3-7-4
	c-3.1,1.2-4.2,4.8-3.9,7.8c0,0.2,0.1,0.3,0.1,0.5c-1.5,1.2-2.4,3-2.5,4.9l-0.2,0.5l0.3,0.2c0,0.5,0.1,1.1,0.3,1.6
	c0.1,0.2,0.2,0.3,0.5,0.3c-0.4,1-0.6,2.1-0.5,3.1c-5.8,2.3-11.4,0.2-17.2-1.2c0.2-0.2,0.3-0.4,0.3-0.7c0-1.6-0.2-3.1-0.2-4.7
	c0-0.1,0-0.1,0-0.2c0.3-0.2,0.4-0.5,0.3-0.8c-5.1-17.1-7.1-35.5-1.9-52.8c2.2-6.9,3.9-14,5.1-21.1h0.2h34c0.3,0,0.5-0.1,0.7-0.2
	L213.2,198.7z M180.2,215.6l8.2,8.2c1,1,3.4-0.5,2.2-1.8l-8.2-8.2C181.4,212.8,179,214.3,180.2,215.6L180.2,215.6z M177.9,238.7
	h10.7c1,0,3.1-1.4,1.2-1.4h-10.7C178.1,237.2,175.9,238.7,177.9,238.7L177.9,238.7z M190.6,250.2c-0.7-0.2-1.5,0-2,0.5
	c-2.5,2.5-5,5-7.6,7.6c-0.3,0.4-0.3,1,0.1,1.3c0.1,0.1,0.2,0.2,0.3,0.2c0.7,0.2,1.5,0,2.1-0.5l7.6-7.6c0.3-0.4,0.3-1-0.1-1.3
	C190.9,250.3,190.8,250.2,190.6,250.2z M173,281.2l3,0.4c-1-0.3-2-0.5-3-0.8V281.2z M208,155.6c-2.2-0.6-4.4-0.9-6.6-1
	c-3.6,0.3-7.1,0.8-10.6,1.6l-1-0.1c-0.4,0.1-0.9,0.3-1.3,0.4c-4.3,1.5-10.9,4.6-8.9,10.2c0.1,0.4,0,0.8-0.3,1c0,4.9,0,9.7-0.1,14.6
	H215l1.1-6.6C216.5,168.2,216.9,158.1,208,155.6L208,155.6z"/>
<path id="color_1" class="st1" d="M218.2,129.9c-0.6-1.4-0.9-3-1-4.5c0-0.9,2.9-1.4,2.9-0.8c0.1,1.5,0.4,3.1,1,4.5
	C221.3,129.8,218.4,130.7,218.2,129.9z M246.6,124.1c-0.4,1.6-0.6,3.2-0.5,4.8c0,0.6,2.9,0.2,2.9-0.8c-0.1-1.5,0.1-3,0.5-4.4
	C249.6,122.8,246.8,123.2,246.6,124.1L246.6,124.1z M232.4,141.4c1.4,0.4,2.8,0.6,4.2,0.6c0.6,0,1.2-0.4,1.5-0.9
	c1.5-5.2,0.2-10.5,0.1-15.8c0-1.6-3-1.2-2.9,0.2c0.1,4.7,1.3,9.6,0.3,14.3c-0.5-0.1-1-0.2-1.5-0.4
	C232.7,138.9,230.6,140.8,232.4,141.4L232.4,141.4z M223.5,142.6c-0.5-1-3.3,0-2.7,1.2c1.4,2.3,3.5,3.9,6,4.8
	c1.1,0.5,3.4-1.1,1.7-1.8C226.4,146.1,224.6,144.6,223.5,142.6L223.5,142.6z M225.4,117.3c1.6-0.1,2.2-2.2,0.3-2.1
	c-4.8,0.3-8.8-3.3-13.8-3c-1.6,0.1-2.2,2.2-0.3,2.1C216.4,114,220.5,117.5,225.4,117.3L225.4,117.3z M247.2,116.2
	c2-2.2,4.2-2.6,7-1.8c0.7,0.1,1.4,0,2-0.3c0.3-0.1,1-0.7,0.3-0.9c-4.4-1.2-8.9-0.3-12,3.2C243.9,117.1,246.7,116.8,247.2,116.2
	L247.2,116.2z M251.2,286.8H233c-1.1,0-3.1,1.7-1.1,1.7h18.2C251.3,288.5,253.2,286.8,251.2,286.8L251.2,286.8z M177.8,238.7h10.7
	c1,0,3.1-1.4,1.2-1.4h-10.6C178.1,237.2,175.9,238.7,177.8,238.7L177.8,238.7z M188.3,223.7c1,1,3.4-0.5,2.2-1.8l-8.2-8.2
	c-1-1-3.4,0.5-2.2,1.8L188.3,223.7z M188.5,250.7c-2.5,2.5-5,5-7.6,7.6c-0.3,0.4-0.3,1,0.1,1.3c0.1,0.1,0.2,0.2,0.3,0.2
	c0.7,0.2,1.5,0,2.1-0.5l7.6-7.6c0.3-0.4,0.3-1-0.1-1.3c-0.1-0.1-0.2-0.2-0.3-0.2C189.9,249.9,189.1,250.1,188.5,250.7L188.5,250.7z
	 M292.5,238.6h-10.7c-0.7,0-1.4,0.2-2,0.6c-0.4,0.3-0.4,0.7,0.2,0.7h10.7c0.7,0,1.4-0.2,2-0.6C293.1,238.9,293.1,238.6,292.5,238.6
	L292.5,238.6z M281.8,224.5l8.2-8.2c1.3-1.3-1.6-1.6-2.4-0.7l-8.2,8.2C278.1,225,280.9,225.3,281.8,224.5z M281.6,251.9
	c-0.6-0.5-3.2,0.5-2.7,1c2.5,2.5,5,5,7.5,7.6c0.6,0.6,3.2-0.5,2.7-1L281.6,251.9z M103.7,271.8c0.6,1,1.6,2.1,0,2.7
	c-0.3,0.1-0.5,0.2-0.8,0.2c-12.2,9.1-24.4,18-36.7,26.9l-4.5,3.2l0,0c0.1,0.3-0.3,0.7-0.6,0.8l0,0c-0.4,0.2-0.8,0.3-1.2,0.4
	c-5.5,3.9-11,7.8-16.7,11.5c-0.3,0.2-9.1,5.7-8.6,2.8c-11.8-26.2-23.5-52.5-34.4-79.1c-0.3-0.2-0.4-0.6,0-1.3
	c0.6-0.7,1.5-0.8,2.3-0.4c0.3-0.1,0.6-0.1,0.9-0.2c1-0.2,2-0.4,3-0.7c3.2-0.8,6.3-1.7,9.5-2.6c8.8-2.6,17.5-5.3,26.2-8.1
	c8.1-2.6,16.2-5.2,24.2-7.8c0.1-0.7,1.9-1.3,2.6-0.9l9.6-3.1c1.2-0.4,1.8,0.3,1.6,1c0.1,0.1,0.1,0.1,0.1,0.2
	c6,15.1,12,30.3,18.7,45.1c1.3,2.9,2.6,5.9,4.1,8.7l0.3,0.5C103.4,271.6,103.5,271.7,103.7,271.8L103.7,271.8z M71.5,268.3l13.1-6.4
	c-0.3-0.6-0.6-1.3-0.9-1.9c-2.9-6.4-5.9-12.9-8.7-19.4l-13.3,5.1C64.8,253.2,68,260.8,71.5,268.3L71.5,268.3z M59,246.7l-21.3,8.2
	c3.4,8.2,7,16.4,10.8,24.5l20.3-9.9C65.3,262,62.1,254.4,59,246.7z M87.3,260.5l5.2-2.5c0.3-0.2,0.7-0.2,1.1-0.1
	c-3.1-7-6-14-8.8-21.1l-7,2.7C80.9,246.4,84,253.4,87.3,260.5L87.3,260.5z M70,221.1c2.3,5.5,4.6,11,7,16.4l7-2.7
	c-2.1-5.4-4.2-10.8-6.3-16.2L70,221.1z M54,226.3c2.3,5.8,4.6,11.6,7,17.4l13.2-5.1c-2.4-5.5-4.8-11-7.1-16.6
	C62.8,223.4,58.4,224.9,54,226.3z M29.2,234.2c2.5,6.3,5.1,12.6,7.7,18.9l21.3-8.3c-2.4-5.9-4.7-11.7-7-17.6
	c-5.3,1.7-10.6,3.4-15.9,5.1L29.2,234.2z M3.5,241.3c2.9,7.1,5.9,14.1,8.9,21.2l21.7-8.4c-2.7-6.3-5.3-12.7-7.8-19.1
	c-5.9,1.8-11.8,3.6-17.8,5.2C6.9,240.7,5.2,241.1,3.5,241.3z M13.2,264.4c3.8,8.9,7.7,17.7,11.6,26.6l21-10.3
	c-3.8-8.1-7.4-16.4-10.9-24.7l-21.3,8.3C13.5,264.4,13.4,264.4,13.2,264.4z M37.7,320C37.7,320,37.7,319.9,37.7,320L37.7,320
	L37.7,320z M37.6,319.4c0.1,0.1,0.1,0.3,0.1,0.4l0,0C37.7,319.7,37.7,319.5,37.6,319.4L37.6,319.4z M57.9,304.8
	c-3.1-3.9-5.3-9.8-7.3-14c-1.3-2.7-2.6-5.4-3.9-8.2l-20.9,10.2l-0.2,0.1c3.8,8.6,7.7,17.2,11.5,25.8l0.2-0.1c0.9-0.5,1.7-1,2.6-1.6
	c2.8-1.8,5.5-3.6,8.2-5.5C51.4,309.3,54.7,307,57.9,304.8L57.9,304.8z M78.9,289.6c-2.1-2-3.5-6.2-4.5-8.3c-1.6-3.2-3.2-6.5-4.7-9.8
	l-20.3,9.9c1.3,2.7,2.5,5.3,3.8,7.9c2,4.1,4,9.9,7,13.8c3.4-2.5,6.9-4.9,10.3-7.4L78.9,289.6z M92.5,279.6c0-0.1,0.1-0.3,0.2-0.4
	c-0.3-1.5-2.1-4.2-2.6-5.3c-1.5-3.4-3.1-6.7-4.7-10.1l-13.2,6.4c1.5,3.3,3.1,6.6,4.7,9.8c0.9,1.7,2.7,6,4.1,7.9
	C84.9,285.1,88.7,282.3,92.5,279.6L92.5,279.6z M100.9,273.4c-0.3-0.5-0.5-1-0.7-1.5c-2.1-4.1-4-8.3-5.9-12.5
	c-0.2,0.1-0.3,0.3-0.5,0.4l-5.6,2.7c1.9,4,3.7,8.1,5.6,12.1c0.3,0.7,1,1.8,1.5,2.9C97.1,276.1,99,274.7,100.9,273.4L100.9,273.4z
	 M474,241.2c-3,7.4-6.1,14.8-9.3,22.2l0.2,0.1c1.5,0.6,0.1,2-1.1,2c-7.8,18.2-15.8,36.3-24,54.3c0.9,4.1-8.4-1.8-8.7-2
	c-5.7-3.8-11.3-7.7-16.9-11.7c-0.3,0.1-0.7,0-1-0.1l0,0c-0.2-0.1-0.4-0.3-0.3-0.5c0-0.1,0.1-0.2,0.1-0.3l-4.8-3.4
	c-12.4-8.9-24.7-17.9-36.9-27c-0.3,0-0.5,0-0.8,0c-1.3-0.2,0-1.9,0.4-2.4c0.1-0.1,0.2-0.2,0.4-0.3c0.7-1.3,1.3-2.7,1.9-4
	c5-10.7,9.5-21.6,14-32.5c0-0.3,0.1-0.5,0.3-0.7c2.3-5.6,4.5-11.3,6.8-17c0,0,0-0.1,0.1-0.1c-0.6-0.7,1.1-2,2.2-1.6
	c3.3,1.1,6.6,2.2,9.9,3.3c0.9-0.3,2-0.2,1.7,0.4c0,0.1,0,0.1-0.1,0.2c8.2,2.7,16.5,5.4,24.8,8.1c8.7,2.8,17.4,5.5,26.2,8.1
	c3.1,0.9,6.3,1.9,9.5,2.6c1,0.3,2,0.5,3,0.7l0.7,0.1c0.7-0.4,1.6-0.4,2,0.2l0.1,0.1l0.1,0.1C474.8,240.6,474.5,240.9,474,241.2
	L474,241.2z M471.5,240.7L471.5,240.7c0-0.3,0.1-0.5,0.2-0.7C471.5,240.1,471.4,240.4,471.5,240.7L471.5,240.7z M423,227.3
	c-2.3,5.8-4.6,11.5-6.9,17.3l21.7,8.4c2.6-6.2,5.1-12.4,7.6-18.6c-2.3-0.7-4.5-1.4-6.8-2.1C433.4,230.6,428.2,228.9,423,227.3
	L423,227.3z M412.8,245.9l-13.7-5.3c-2.8,6.3-5.6,12.5-8.4,18.7l-1,2.2l13.6,6.6C406.6,260.8,409.8,253.4,412.8,245.9L412.8,245.9z
	 M405.6,269.3l20.7,10.1c3.7-8,7.2-16,10.6-24.2l-21.7-8.4C412.1,254.3,408.9,261.9,405.6,269.3L405.6,269.3z M407.1,222.1
	c-2.2,5.4-4.6,10.9-6.9,16.3l13.6,5.3c2.3-5.7,4.6-11.4,6.9-17.1C416.1,225,411.6,223.6,407.1,222.1L407.1,222.1z M390.3,234.6
	l7.5,2.9c2.3-5.3,4.6-10.7,6.9-16.2c-2.7-0.9-5.4-1.8-8.1-2.6C394.5,223.9,392.4,229.2,390.3,234.6z M380.5,258.1
	c0.5-0.4,1.1-0.5,1.7-0.3l5.3,2.6c3.2-6.9,6.3-13.8,9.3-20.8l-7.4-2.9C386.6,243.9,383.6,251.1,380.5,258.1z M373.5,273
	c2,1.5,4,3,6,4.5c0.5-1.1,1.3-2.3,1.6-3c1.8-3.9,3.6-7.8,5.4-11.7l-5.9-2.9c-0.2-0.1-0.4-0.3-0.6-0.5c-1.8,4-3.7,8-5.6,11.9
	C374.1,271.8,373.8,272.4,373.5,273z M381.9,279.2c3.9,2.9,7.8,5.7,11.6,8.6c1.5-2.5,2.9-5.1,4.2-7.7c1.6-3.2,3.1-6.4,4.5-9.6
	l-13.6-6.6c-1.5,3.2-2.9,6.3-4.4,9.5c-0.5,1.1-2.4,3.9-2.6,5.4C382,278.8,382,279,381.9,279.2L381.9,279.2z M414.6,303.1
	c2.6-3.8,5.1-10.2,7-14c1.2-2.5,2.4-5,3.6-7.5l-20.7-10.1c-1.5,3.1-2.9,6.3-4.5,9.4c-1.1,2.2-2.5,6.2-4.6,8.3
	c2.9,2.1,5.8,4.3,8.7,6.4C407.7,298,411.2,300.6,414.6,303.1z M436.8,320.3L436.8,320.3c0-0.3,0.1-0.7,0.4-0.9l0.1-0.2
	C437,319.3,436.7,319.6,436.8,320.3L436.8,320.3z M449,293.1c-0.2,0-0.4,0-0.5-0.1l-21-10.3c-1.3,2.8-2.6,5.5-4,8.2
	c-2,4-4,9.6-7,13.4c3.3,2.4,6.7,4.8,10.1,7.1c2.7,1.9,5.4,3.7,8.2,5.5c1,0.6,1.9,1.2,2.9,1.7C441.4,310.1,445.2,301.6,449,293.1
	L449,293.1z M461.3,264.7l-22.1-8.6c-3.4,8.2-7,16.3-10.8,24.3L450,291C453.8,282.2,457.6,273.5,461.3,264.7L461.3,264.7z
	 M471.1,241.3c-2-0.2-3.9-0.6-5.9-1.1c-5.9-1.6-11.7-3.3-17.5-5.1c-2.5,6.3-5,12.5-7.6,18.8l22.1,8.6
	C465.3,255.4,468.3,248.4,471.1,241.3L471.1,241.3z M367.4,223.9c-5.1,12.3-10.4,24.5-15.7,36.7c0,0.1-0.1,0.1-0.1,0.2
	c-0.7,0.6-1.6,0.9-2.5,0.7c-5.2-3-10.2-6.4-14.9-10c-0.4,0.1-0.8,0-1.1-0.2l0,0c-0.1-0.1-0.1-0.2-0.1-0.4c0-0.1,0.1-0.1,0.1-0.2l0,0
	l0,0l-4.4-3.3c1.4,4.3,2.8,8.7,4.2,13c0.1,0.5-0.3,0.9-0.8,1.1c3.5,2.7,6.1,6.3,4.9,10.7c1.8,2.9,3.5,6.6-0.1,8.8
	c-0.9,0.5-1.8,0.8-2.7,1.1c-1,7.3-3.1,15.4-8.8,20.3c-4.6,3.9-10.2,5.5-16.2,5.7c-14.8,0.6-29-5.6-43.7-6.5c-8.4,0.6-8.2-9.6-8.9-17
	c-2,4.6-3,9.6-3,14.6c0,0.8-1.4,1.3-2.3,1.1c-0.3,0.2-0.6,0.3-1,0.3h-0.3c-0.6,1.5-1.7,2.6-3.2,3.2c0.2,0,0.4,0,0.3,0.1
	c-1.2,6.8-21,7.8-20.9,0.1c0,0,0,0,0-0.1c-1.5-0.6-2.6-1.9-2.9-3.4h-3.3c-1,0-1-0.5-0.6-0.9c0-8.1-2.3-14.8-5.8-21.3
	c1.5,6.4,3.3,12.6-1.3,18.4c0,0-0.1,0.1-0.1,0.1c-2,5-7.4,8.1-13,8.5h-0.1c-18,5-66.1,19.5-65.7-12.9c-0.4-0.1-0.9-0.2-1.3-0.3
	c-4.1-1.4-3.5-6-2.7-9.4c0-0.1,0.1-0.2,0.1-0.2c-3.1-6.2-5.4-13.1,2.3-16.8c0.9-0.4,1.8-0.8,2.7-1.2c-1.5-2.1,0.2-7.4,1.5-10.9
	c-3.4,2.6-6.8,5-10.5,7.2c-0.5,0.7-2.5,1.1-2.8,0.3c-5.5-12.5-10.8-25-16.1-37.7c-0.8-0.1-1.2-0.5-0.4-1c-2.1-5-4.2-10.1-6.2-15.1
	c-0.4-0.2-0.5-0.5-0.2-1.1c0.5-0.7,1.4-1,2.3-0.7l0.7-0.2c0.8-0.2,1.6-0.4,2.3-0.6c2.2-0.6,4.5-1.3,6.7-2c5.6-1.7,11.2-3.5,16.8-5.4
	l5.4-1.8l0.3-0.1c3.2-1.1,6.4-2.1,9.6-3.2c0.4-0.3,0.9-0.4,1.4-0.5l6.6-2.3c0.5-0.2,1-0.2,1.4,0.2c4.1-12.2,10.6-23.9,22.7-24.9
	c-0.3-11,23.6-13.4,30.7-12c3.8,0.8,6.5,2.1,8.3,4.2c-1.9-4.8-6.9-8.3-9.8-13.1c-1.4-2.5-2.5-5.3-3.2-8.1c-0.1,0.1-0.3,0.1-0.4,0.1
	c-3.5,0.7-7.6,0.8-10.2-2.1c-2.2-2.6-3.1-5.9-2.6-9.3c0.4-3.7,2.5-6.9,5.3-8.3c-3-2.3-4.3-7-4.7-10.4c-0.6-4.7-0.3-9.7,3.1-13.2
	c0-0.1,0-0.1,0.1-0.2c0.1-7.6,2.6-15,7.1-21.1c1.7-2.3,3.6-4.3,5.8-6.1c6.2-5.3,13.8-8.8,21.9-10.1v-5.4c0-0.8,1.1-1.2,1.9-1.2
	c0.3-0.2,0.7-0.3,1.1-0.4h11.5c1,0,0.9,0.4,0.5,0.8c0.1,0.1,0.1,0.3,0.1,0.5v5.6c0.2,0,0.3,0,0.5,0c8.6,1.3,17.7,4.7,23.1,12
	c6.1,8.2,7.5,18.1,6.8,28.1c4.7,3.7,5.6,10.4,3.9,16c-0.5,2-1.5,3.8-2.8,5.3c2.8,1.3,4.8,4.6,5,8.6c0.5,8-5.8,12.5-13.3,11
	c-0.6,2.3-1.5,4.6-2.7,6.6c-3.2,5.4-9.1,9.5-10.5,15.4l0,0c6.5-5,17.8-2.9,25.2-1.7c6.5,1,11.6,3.5,12.7,8.6c0.1,0,0.3,0,0.4,0
	c7.5,2,14.8,5.5,18.4,12.9c3.8,7.7,4,16.5,5.9,24.8c0.1,0.4,0.2,0.9,0.3,1.3l0.3-0.8l0.1-0.4c1.5-3.8,3-7.7,4.5-11.6c0,0,0,0,0-0.1
	c-0.4-0.8,1.2-1.9,2.3-1.6c2.2,0.8,4.4,1.5,6.6,2.2c0.8-0.1,1.5,0,1.3,0.5c5.2,1.8,10.3,3.5,15.5,5.2c5.8,1.9,11.7,3.8,17.6,5.6
	c2.1,0.6,4.3,1.3,6.4,1.9c0.7,0.2,1.4,0.4,2.1,0.5h0.2c0.7-0.3,1.5-0.3,1.8,0.3c0,0,0,0.1,0,0.1c0.1,0.1,0.1,0.1,0.1,0.2
	c0.2,0.4,0.1,0.9-0.3,1.1c0,0-0.1,0.1-0.2,0.1c-1.9,4.9-3.9,9.8-5.9,14.6C369.3,222.5,368.4,223.6,367.4,223.9z M371.6,206.7
	L371.6,206.7c0-0.4,0.2-0.7,0.4-0.9C371.7,205.9,371.5,206.3,371.6,206.7C371.6,206.7,371.6,206.7,371.6,206.7z M356.8,203.4
	c-1.6,4-3.1,8.1-4.8,12.1l13.8,5.5c1.9-4.5,3.7-9,5.5-13.5c-0.8-0.1-1.5-0.2-2.2-0.4C365,205.9,360.9,204.7,356.8,203.4L356.8,203.4
	z M340.4,198c-1.4,3.7-2.9,7.4-4.4,11.1l13.6,5.4c1.6-4,3.2-7.9,4.7-11.9l-2.4-0.8C348.2,200.6,344.3,199.3,340.4,198L340.4,198z
	 M323.5,231.7c0.8-1.6,1.5-3.2,2.2-4.8l-4.4-2.2C322.1,227,322.8,229.4,323.5,231.7L323.5,231.7z M326.6,224.9
	c2.1-4.8,4.2-9.6,6.2-14.5l-8.2-3.3c-1.4,3.3-2.8,6.5-4.2,9.8c-0.3,0.4-0.7,0.7-1.1,0.8c0.4,1.6,0.9,3.1,1.4,4.6
	c0.3-0.1,0.6-0.1,0.9,0L326.6,224.9z M328.9,226.1l13.2,6.6c2.4-5.2,4.6-10.5,6.8-15.9l-13.6-5.4C333.1,216.3,331,221.2,328.9,226.1
	L328.9,226.1z M329.9,194.5c-1.4,3.5-2.8,6.9-4.3,10.4l8.2,3.3c1.5-3.6,2.9-7.3,4.3-10.9L329.9,194.5z M319,202.3l4.2,1.7
	c1.4-3.4,2.8-6.8,4.2-10.3l-4.5-1.5C321.6,195.5,320.4,198.9,319,202.3L319,202.3z M316.3,207.1c0.7,2.7,1.4,5.3,2.1,7.9
	c1.3-2.9,2.5-5.9,3.8-8.8l-4.2-1.7l-0.7,1.8C317.2,206.7,316.8,207,316.3,207.1L316.3,207.1z M270.3,265.4c-0.2-0.1-0.3-0.3-0.4-0.5
	c-0.1-0.3-0.2-0.7-0.2-1.1c-1.2,1.9-2.5,3.8-3.9,5.6c1,3.7,2.4,8.4,6.1,10.3l0.1,0.1c0.7-1.7,0.3-3.8-1-5.1
	c-1.3-1.4-2.6-2.8-3.1-4.8C267.4,267.4,268.6,266,270.3,265.4L270.3,265.4z M272.6,265.1c0.3,0,0.5,0,0.8,0c3,0.2,5.8,1.3,8.3,3
	c-0.9-2.7-2.6-5-5-6.6c-0.9-0.6-2.6-1.9-3.8-1.5s-0.2,3.5-0.1,4.2C273,264.5,272.9,264.8,272.6,265.1L272.6,265.1z M285,277.3
	c2.2-0.1,4.4-0.5,6.6-1l1.1-0.3c0.5-1.6,1-3.3,1.4-5c0-0.1,0-0.2,0.1-0.2c4.1-16.2,5.1-33.1-0.1-49.2c-2.6-8.1-4.5-16.5-5.5-25
	h-29.6c-0.2,0-0.5,0-0.7-0.1c0.1,1,0.2,2,0.3,3c0.1,1.9,0.1,3.9-0.2,5.8c3.6,1.9,6.9,4.4,9.5,7.6c7,8.2,10,19.1,9.3,29.8
	c-0.3,4.9-1.5,9.7-3.5,14.2c-0.1,0.3-0.3,0.7-0.5,1h0.7c1,0,2.1,0.2,3,0.7c4.7,2.2,8.8,7.2,8.2,12.6c0,0.2-0.1,0.4-0.3,0.6
	c0.3,0.8,0.3,1.7,0.2,2.5c-0.2,1.1-0.6,2.2-1,3.2h0.3C284.4,277.3,284.8,277.3,285,277.3L285,277.3z M206,269.2
	c-0.8-1.5-3.1-1.6-4.5-1.5c-2,0.1-3.8,0.8-5.4,2c-0.1,0.2-0.2,0.3-0.4,0.4c-1.1,1.1-1.8,2.6-1.8,4.1c2.9-2.8,7.2-3.4,10.7-1.7
	c0.1,0,0.2,0.1,0.3,0.3C205.9,271.7,206.8,270.4,206,269.2L206,269.2z M165.4,278.5c2-0.3,4.1-0.3,6.1,0c0-1.1-0.1-2.2-0.1-3.4
	C169.3,276.1,167.3,277.3,165.4,278.5L165.4,278.5z M174.4,278.5c0,0.3-0.1,0.5-0.3,0.7c5.8,1.4,11.3,3.5,17.2,1.2
	c-0.1-1.1,0.1-2.1,0.5-3.1c-0.2,0-0.4-0.1-0.5-0.3c-0.2-0.5-0.3-1.1-0.3-1.6c0-0.2,0-0.5,0-0.7c0.1-1.9,1-3.7,2.5-4.8
	c-0.1-0.1-0.1-0.3-0.1-0.5c-0.2-3,0.8-6.6,3.9-7.8c3.3-1.3,5.8,1.1,7,4c0.1,0.3,0.1,0.6-0.1,0.9c0.7,0,1.3,0.1,1.9,0.2
	c-5.5-8.8-8.8-18.1-8.1-28.9c0.9-12.4,6.4-22.3,15-28.6c-0.2-0.2-0.3-0.4-0.3-0.7c0-3.2,0.1-6.4,0.5-9.6c0-0.1,0-0.3,0-0.4
	c-0.1,0.2-0.3,0.3-0.5,0.4c-0.2,0.1-0.5,0.2-0.7,0.1h-34.2c-1.2,7.2-2.8,14.2-5,21.1c-5.2,17.4-3.3,35.7,1.9,52.8
	c0.1,0.3-0.1,0.6-0.3,0.8c0,0.1,0,0.1,0,0.2C174.3,275.3,174.5,276.9,174.4,278.5L174.4,278.5z M215.3,183.7
	c-0.3,0.2-0.7,0.3-1.1,0.3h-35.1c-0.1,3.6-0.4,7.1-0.7,10.6c-0.1,0.8-0.2,1.5-0.3,2.3h0.2h34c0.4,0,0.8,0.1,1.1,0.4
	C214,192.7,214.7,188.2,215.3,183.7L215.3,183.7z M201.5,266.5c-0.1-0.1-0.1-0.2-0.1-0.2c-0.4-1-1.9-3.8-3.4-2.6
	c-1.2,1.1-1.8,2.8-1.7,4.4C198,267.3,199.7,266.8,201.5,266.5z M215.6,207.3c6.6-4,14.2-6,21.9-6.1c0.2,0,0.4,0,0.4,0.1
	c0.4-0.3,0.8-0.5,1.3-0.5c5.6,0,11.2,1.2,16.4,3.3c0.5-8.8-3.1-18.1-4.7-26.5c-0.7-3-1.1-6-1.4-9.1c-7.2,8.3-23.1,6.3-30.5-1.4
	c0,0.2,0.1,0.4,0.1,0.7C220.3,180.9,215.6,194,215.6,207.3z M288.4,195.1c-0.5-4.4-0.8-8.8-1-13.3c-0.2,0.1-0.3,0.1-0.5,0.1h-32
	c1.3,4.7,2.4,9.4,3.2,14.1c0.5-0.6,1.2-0.9,1.9-1L288.4,195.1z M262.6,157.2c-4.7,0.2-9,1.5-9.8,6.5c0,0.1,0,0.1,0,0.2
	c0,0.2-0.1,0.5-0.1,0.7c-0.4,5.4,0.6,10.6,2,15.9h0.2h32.6c-0.1-2.7-0.1-5.4-0.1-8.2c-0.1-0.1-0.1-0.3,0-0.4
	c1.3-4.3,1.5-9.2-3.2-11.5c-3.7-1.8-7.9-2.1-12-2.5l-1.4-0.1C268.1,157.4,265.3,157.2,262.6,157.2L262.6,157.2z M251.8,108.2
	c7.2-1.4,12.4-5.6,17.2-10.8c-11.7,2.1-23.5,3.6-35.4,3.5c-7.5,0.1-15-0.3-22.5-1.3c-4.4-0.5-8.7-1.5-12.9-3c0.5,0.6,1,1.2,1.6,1.8
	c1.2,1.2,2.6,2.3,4,3.3c1.9,1.3,3.9,2.3,6.1,3.2c0.5,0,1,0.1,1.1,0.4c6.7,2.4,14.3,3.3,20.8,3.6S245.3,109.5,251.8,108.2
	L251.8,108.2z M264.4,69.1c-5.3-7.1-13.1-10.9-21.6-12.5v41.4c0,0.2-0.1,0.3-0.1,0.5c9.3-0.6,18.6-1.8,27.7-3.5
	C270.8,86,269.7,76.4,264.4,69.1z M230.2,98.5c1.8,0,3.7,0.1,5.5,0.1c1.4,0,2.8,0,4.1-0.1c-0.1-0.1-0.1-0.2-0.1-0.4V49.8h-9.3v48.1
	C230.5,98.2,230.4,98.4,230.2,98.5z M268.9,118.5c-1,5.2-1.4,10.8-2.6,16.1c0.3-0.2,0.7-0.2,1.1-0.2c6.2,1.3,9.5-3.6,8.8-9.4
	C275.8,121.1,273.2,115.9,268.9,118.5z M195.6,92.1c5.2,4,12.7,4.9,19,5.6c4.3,0.4,8.6,0.7,12.9,0.8c0-0.1-0.1-0.2-0.1-0.3v-42
	C209.5,58.6,195.9,73.9,195.6,92.1z M201.9,134.3c-1.1-5.1-1.6-10.4-2.6-15.6c-1.8-1.2-3.9-1.8-5.3,0.3c-1.3,1.9-2,4-2,6.3
	c-0.1,5.8,3.4,10.4,9.5,9.1C201.6,134.4,201.8,134.3,201.9,134.3L201.9,134.3z M209.3,144.6c2.1,2.7,4.6,5.2,6.5,7.8
	c0.3,0,0.5,0.1,0.7,0.3c8.1,8.2,20.3,11,30.1,3.9c1-0.7,3.4-0.2,1.8,0.9c-9.2,6.7-20.9,6.2-29.9,0.3c0.4,1.7,0.5,3.4,0.2,5.1
	c0.3,0,0.6,0.1,0.8,0.3c5.6,9.2,23.9,13.5,29.3,2c0.2-0.3,0.4-0.5,0.7-0.6c0-0.4,0.1-0.7,0.2-1.1c-1.3-7.1,3.3-11.4,7.6-16.5
	c6.1-7.2,6.6-16.1,8.1-24.9c-0.1,0-0.1,0-0.2-0.1c-4.9-3.3-5.6-9.4-6-14.9c-1.3,0.6-2.8,1.2-4.2,1.6c-2.4,0.7-4.9,1.1-7.4,1.4
	c-1.2,0.1-2.4,0.2-3.7,0.3c-4,0.2-8.1,0.2-12.1-0.1c-6.5-0.3-14.1-1-20.9-3.1c-0.9,5.8-4.8,10.8-7.3,16c-0.1,0.2-0.3,0.3-0.4,0.4
	C204.1,131,204.8,138.7,209.3,144.6L209.3,144.6z M189.9,156.2c-0.4,0.1-0.9,0.3-1.3,0.4c-4.3,1.5-10.9,4.6-8.9,10.2
	c0.1,0.4,0,0.8-0.3,1c0,4.9,0,9.7-0.1,14.6h36.3c0.3-2.1,0.5-4.3,0.6-6.4c0,0,0-0.1,0-0.1c0.4-7.6,0.8-17.8-8.1-20.3
	c-2.2-0.6-4.4-0.9-6.6-1C197.5,154.5,193.6,155.1,189.9,156.2L189.9,156.2z M147.1,193.5c1,2.6,2.1,5.1,3.1,7.7
	c0.6-2.2,1.1-4.5,1.8-6.8c-0.3-0.8-0.6-1.5-0.9-2.3L147.1,193.5z M141.9,237.5c0.8-3.3,1.5-6.6,2.2-9.9c-3.7,1.9-7.4,4-11.1,6
	c0.8,1.7,1.6,3.5,2.4,5.2c1.1,2.4,2.3,4.9,3.6,7.2C140.2,243.2,141.1,240.4,141.9,237.5L141.9,237.5z M144.6,225
	c-0.1-0.1-0.2-0.2-0.3-0.4c-2-4.6-3.9-9.3-5.7-14l-13,5.4c2.2,5.6,4.5,11.1,7,16.5c3.7-2,7.4-4,11.1-6c0.2-0.1,0.4-0.1,0.6-0.2
	C144.4,225.9,144.5,225.5,144.6,225z M148.1,210c0.3-1.1,0.6-2.3,0.9-3.5l-7.5,3c1.4,3.5,2.8,7,4.3,10.5
	C146.4,216.7,147.2,213.4,148.1,210L148.1,210z M136.6,197c1.4,3.8,2.9,7.5,4.3,11.3c2.6-1.1,5.2-2.1,7.8-3.1
	c-1.5-3.6-3-7.1-4.4-10.7L136.6,197z M120.2,202.4c1.6,4.1,3.2,8.3,4.9,12.4l13.1-5.4c-1.5-3.8-2.9-7.6-4.4-11.5
	c-3.7,1.2-7.3,2.4-11,3.6L120.2,202.4z M102.7,205.8c0.1,0.1,0.1,0.2,0.1,0.4l0,0C102.8,206.1,102.8,205.9,102.7,205.8L102.7,205.8z
	 M109,221.4c4.5-1.8,8.9-3.6,13.4-5.4c-1.7-4.2-3.4-8.4-5-12.6c-4,1.3-8,2.6-12.1,3.6c-0.2,0-1,0.3-2,0.4
	C105.1,212.1,107.1,216.8,109,221.4L109,221.4z M109.5,222.7c2.5,6.1,5.1,12.2,7.7,18.3c4.3-2.2,8.5-4.6,12.8-6.9
	c-2.5-5.6-4.8-11.2-7.1-16.8C118.4,219,114,220.9,109.5,222.7L109.5,222.7z M137.2,250.8l0.5-1.3c-1.9-1.3-4-7.4-4.5-8.5
	c-0.9-2-1.8-3.9-2.7-5.9c-4.1,2.3-8.2,4.5-12.4,6.7c-0.1,0.1-0.3,0.1-0.4,0.1c2.5,5.8,5,11.7,7.6,17.5
	C129.3,256.7,133.2,253.7,137.2,250.8L137.2,250.8z M136.6,290.8c5.1-0.7,10-3.3,14.5-5.7c6.7-3.6,13.2-8.8,20.4-11.5
	c0-0.1,0.1-0.2,0.2-0.3c-2.4-7.7-3.9-15.7-4.7-23.8c-0.3-3.7-0.4-7.3-0.3-11c0.2-6.2,1.3-12.4,3.2-18.3c5.8-17.4,6.5-34.8,6.5-53
	c0-0.1,0.1-0.3,0.2-0.4l-0.1-0.2c-0.1,0.1-0.3,0.1-0.5,0.1c-9.6,0.7-14.8,11.4-17.9,19.3c-1.1,2.7-2,5.4-2.8,8.1v0.1
	c0.1,0.4,0,0.9-0.4,1.1c-1.4,4.7-2.6,9.5-3.9,14.3c-3.1,11.3-4.1,23.2-8.3,34.1c-1.5,4-3.2,7.9-4.4,12c-0.1,0.5-2.1,7.9-0.9,7.6
	c0.1,0,0.2,0,0.4,0c3.8-1.2,7.6-2.2,11.3-3.7c5.4-2.3,10.6-4.4,16.5-4.6c1.9-0.1-0.1,1.6-1.1,1.6c-6.2,0.3-11.7,3.2-17.3,5.4
	c-2.6,1-5.4,1.7-8.1,2.5c-0.2,0.4-0.6,0.7-1,0.7c-0.5,0.1-1,0.2-1.6,0.1l-1.5,0.6c-8.3,3.5-5,10.5-1.8,16.8c0.2,0.4-0.3,0.8-0.9,1
	C131.5,287.4,131.9,291.5,136.6,290.8L136.6,290.8z M208.4,288.8c-2-2.5-5.1-3.8-7.1-6.3c-1.7-2.2-1.7-4.6-0.4-7.1
	c1.1-2.2-1.4-3.5-3.6-1.9c-1.4,0.9-2.4,2.4-2.8,4c-0.6,2.6,0.3,5.4,2.4,7.1c0.8,0.8-1.9,1.9-2.7,1.1c-1.2-1-2.1-2.4-2.5-3.9
	c-3.6,1.4-7.6,1.6-11.4,0.8c-1.4-0.3-2.9-0.7-4.3-1.1c-1-0.3-2-0.5-3-0.8c-3.9-0.9-7.7-1.3-11.7,0.3h-0.1l-1.1,0.7
	c-5.2,3.2-10.7,6-16.4,8.4c-2.4,1-4.9,1.8-7.4,2.2c0,29,42,17,60.2,11.9c0.4-0.4,1-0.6,1.5-0.6h0.7c0.2,0,0.4,0,0.7,0
	C206.3,303.1,213.8,295.5,208.4,288.8L208.4,288.8z M209.4,271.6L209.4,271.6c-0.2-0.3-0.4-0.5-0.5-0.8c-0.9,1.5-2.1,2.8-3.6,3.8
	c-0.4,0.2-0.9,0.4-1.4,0.4c-1.6,3.6-0.7,6,2.9,8.7c2,1.5,4.4,3.4,5.5,5.8C212.6,283.7,209.6,277.6,209.4,271.6L209.4,271.6z
	 M214.2,273.5c1.5,2.2,2.8,4.6,4,7h16c0.5-3.1,0.6-6.2,0.5-9.3c-0.4,0.2-0.8,0.3-1.3,0.2c-4.9-1.7-8.5-6-9.3-11.1
	c-0.2-1.2,1.9-1.5,2.6-1.1c2.8,1.2,5.4,3,7.4,5.3c-0.7-7.7-1.5-15.4,1.3-22.9c0-0.1,0-0.2,0.1-0.4c1.9-3.8,4.1-7.3,6.7-10.7
	c0.6-0.7,1.6-1,2.5-0.7c13.1,7-1.1,24.5-6.5,32.1c-0.4,0.4-0.8,0.6-1.3,0.6c0.2,2.6,0.5,5.2,0.6,7.8c0,0.2,0.1,0.3,0.1,0.5
	c0.1,0.2,0,0.4-0.1,0.6c0.1,2.9-0.1,5.9-0.6,8.8c0,0.1-0.1,0.2-0.2,0.3h17.7c0.4,0,0.7,0.1,0.8,0.2c1.2-2.3,2.6-4.4,4.1-6.5
	c1.2-1.6,2.4-3.2,3.7-4.9l0.2-0.3c4.7-6.2,9.1-12.6,10.4-20.6c1.9-11,0.2-23.6-6.9-32.6s-17.3-13.1-28.6-13.2
	c-1.1,0-1.1-0.6-0.6-1.1c-0.6,0.3-1.3,0.6-1.9,0.7c-25.5,0.4-39.6,25.1-33.5,48.5C204.3,259.4,209.3,266.2,214.2,273.5L214.2,273.5z
	 M236.4,254.6l4.4-11.8c0.3-0.8,3.1-1.1,2.9-0.5l-6,16c-0.1,0.3-0.6,0.5-1.1,0.6c0,0.4,0.1,0.9,0.1,1.3c5.4-7.4,16-21.6,7.1-28.1
	c-2.1,2.9-3.9,5.9-5.5,9.1l-0.1,0.1C236.7,245.6,236.1,250.1,236.4,254.6L236.4,254.6z M227.9,262.5c1.1,2.9,3.2,5.3,6,6.7
	C232.5,266.5,230.4,264.2,227.9,262.5L227.9,262.5z M244.2,304.7c-2.7,0.6-5.4,0.9-8.1,0.8c-2.2,0-4.4-0.2-6.5-0.5
	C231.9,309.3,243.2,309.4,244.2,304.7L244.2,304.7z M247.1,300.5h-20.8C228.5,305.1,245.7,305,247.1,300.5L247.1,300.5z
	 M254.6,281.7c-0.4,0.3-0.9,0.5-1.4,0.5H219c1.5,3.4,2.5,7,3,10.7h17.3c1.9,0-0.3,1.3-1.2,1.3h-16c0.2,1.5,0.2,3,0.2,4.4h2
	c0.4-0.1,0.8-0.1,1.2,0h25C250.6,292.8,252,287,254.6,281.7z M331.2,282.4c-0.9,0-1.7,0-2.6-0.1c-4.5-0.6-8.8-1.9-12.7-4.1
	c-6-3.2-12.4-5.4-19-6.7c-0.3,1.3-0.7,2.5-1,3.7c3.9-0.9,7.7-1.3,11.5,0.6c1.1,0.6-1.6,1.7-2.3,1.3c-6.7-3.4-14.7,1.8-21.9,1.6
	c-1.7,3.6-3.8,6.9-2.9,11.3c0.1,0.7-2.8,1.4-2.9,0.8c-0.9-4.4,0.9-7.9,2.9-11.7c2.3-4.6,2.5-8.4-2.8-10.9c-2-0.9-8.2-3.9-6.5,0.9
	c0.7,1.7,1.7,3.2,3,4.5c2.9,3.4,0.9,6.6-1.4,9.9c-0.5,0.7-3,0.8-2.9,0.5c0.7-0.9,1.4-2,1.9-3c-0.6,0.3-1.2,0.4-1.9,0.2
	c-3.3-1.6-5-5.4-6.1-8.9c-1.8,2.4-3.4,4.9-4.9,7.5c1.2,4.9-0.1,18.3,6,20.2c0.4-0.3,0.9-0.5,1.4-0.5c13.2,0.8,25.9,5.6,39.1,6.5
	c6.1,0.4,13,0,17.8-4.4C328.3,296.7,330.2,289.5,331.2,282.4L331.2,282.4z M320.6,257.6c-6.1-2.7-13.4-5.6-20.3-5.6
	c-0.5,6.1-1.6,12.2-3.1,18.1c8.9,1.4,16.2,4.8,24.3,8.6c3.1,1.5,6.4,2.3,9.8,2.4l0,0v-0.3c0.1-1.1,3.1-1.6,2.9-0.3c0,0,0,0.1,0,0.1
	c2.9-1.2,1.7-4.6-0.1-7.6c0,0,0,0,0-0.1v0c0,0,0-0.1,0-0.1s0,0,0,0C336.2,265.2,326.1,260,320.6,257.6z M321.8,235.9
	c-0.1-0.1-0.1-0.2-0.1-0.2c-3.1-9.6-6.1-19.1-8.5-28.9c-2-8.1-2.3-16.7-5.2-24.5c-3-8.3-9.1-12.6-17.2-15.1c0,1.5-0.3,3-0.7,4.4l0,0
	c-0.1,7.9,0.2,15.7,1,23.6c0.6,0.1,0.5,0.4,0.1,0.7c0.1,1.2,0.3,2.4,0.5,3.5c1.3,8.5,4.1,16.4,6.3,24.6c2.3,8.6,3.1,17.5,2.4,26.4
	c7.8-0.3,16.6,2.9,23.5,6.2c1.9,0.9,3.8,1.9,5.6,3C327.1,251.8,324.4,243.9,321.8,235.9z M334.5,248.6c1.5-2.8,2.9-5.6,4.1-8.5
	c0.9-1.8,1.7-3.7,2.5-5.5l-13.2-6.7c-1.1,2.4-2.2,4.8-3.3,7.1l2.7,8.1c0,0,0.1,0,0.1,0.1C329.8,245.1,332.2,246.8,334.5,248.6z
	 M356.9,242.3c-0.2,0.1-0.5,0-0.8-0.1l-12.8-6.4c-0.7,1.6-1.5,3.2-2.2,4.7c-1.4,3-2.8,6.7-4.8,9.5c4.3,3.3,8.7,6.3,13.3,9.1
	C352.1,253.5,354.5,247.9,356.9,242.3L356.9,242.3z M364.9,223.3l-13.8-5.5c-2.2,5.4-4.5,10.8-6.9,16.1l13.4,6.8
	C360.1,234.8,362.6,229.1,364.9,223.3L364.9,223.3z M20.6,108.9c-0.1,0-0.1-0.1-0.1-0.2c0,0,0,0,0,0c4.5-8.8,16.6-11,25-14.1
	c0.4-0.1,0.7-0.2,1.1-0.2c0-2.5,0.8-4.9,2.4-6.8c0.3-0.3,0.7-0.5,1.2-0.5c-0.4-0.3-0.4-0.8,0.6-1.2l0.6-0.3
	C51.3,76.7,49,65.3,55.5,58c0.4-0.4,2.2-1.1,2.7-0.6c7.5,7.5,2.5,19.7,1.5,28.9c0.7,0.5,1.3,1.1,1.8,1.8c1.1,1.6,1.7,3.6,1.4,5.5
	c0.4-0.2,0.9-0.3,1.3-0.2c8.2,3.1,19.8,5.1,24.2,13.6c0.1,0.2-0.5,0.5-0.6,0.6c-10.2,4.3-18.9-2.7-27.5-7.6
	c1.4,30.9,2.8,61.9,4.2,92.8h13.8c2,0,1.5,2.2-0.2,2.2H64.4c-0.6,0.7-2.3,0.9-2.7,0H47.4c-0.7,0.7-2.3,0.9-2.6,0h-10
	c-2,0-1.5-2.2,0.2-2.2h9.8c1.4-30.9,2.8-61.7,4.2-92.6C40.4,104.9,30.6,113.2,20.6,108.9z M57.3,100.1c-1.7,0.7-3.6,1-5.5,0.7
	c-1.4,30.7-2.8,61.3-4.2,92h13.8C60.2,161.9,58.8,131,57.3,100.1L57.3,100.1z M60.8,97.9c3.9,2,7.5,4.5,11.3,6.6
	c2.3,1.4,4.9,2.4,7.5,3.1c3.7,0.8,7,0.1,3.4-3.2c-5.7-5.1-13.3-7-20.4-9.5C62.3,95.9,61.7,97,60.8,97.9L60.8,97.9z M54.3,84.9
	c0,0,0,0.1,0,0.1c0.9-0.1,1.9,0,2.8,0.2c1.3-8.2,4.7-18.4-0.4-25.4C52.3,66.9,54.2,77,54.3,84.9L54.3,84.9z M50.4,96.9
	c0,0,0.1,0.1,0.1,0.1c0.8-0.1,1.5,0.2,1.5,0.9c0,0.2,0,0.3,0,0.4c1.6,1,3.7,0.9,5.3-0.1v-0.1c0-0.6,0.7-1.1,1.4-1.2
	c0,0,0.1-0.1,0.1-0.1c2.4-3,1.2-7.2-1.5-9.2c-0.3,0-0.6,0-0.6-0.2v-0.2c-1.5-0.9-3.3-1-4.8-0.3h-0.1c0.1,0.1,0.1,0.3-0.1,0.5
	C49.8,90.1,48.5,94,50.4,96.9L50.4,96.9z M34.8,106.9c2-1,4-2.1,6-3.3c2.6-1.6,5.2-3.2,7.9-4.6c-1.1-1.1-1.7-2.5-1.9-4
	c-0.1,0-0.1,0.1-0.2,0.1c-7,2.6-17.7,4.3-22,11C21.6,110.7,33.3,107.7,34.8,106.9z M123.6,133.1c0.8,17.9,1.6,35.7,2.4,53.5h7.6
	c2,0,1.5,2.2-0.2,2.2h-7.9c-0.6,0.4-1.5,0.4-2.1,0h-7.9c-0.6,0.4-1.5,0.4-2.1,0h-5.6c-2,0-1.5-2.2,0.2-2.2h5.2l2.4-53.6
	c-5.1,2.9-10.8,7.2-16.8,4.7c-0.1,0-0.1-0.1-0.1-0.2c0,0,0,0,0,0c2.8-5.3,10-6.7,15.2-8.6l0.3-0.1c0-1.5,0.5-2.9,1.5-4
	c0.1-0.2,0.3-0.3,0.4-0.4c0-0.4,0.6-0.8,0.9-0.9l0,0c-0.1-5.3-1.3-11.8,2.5-16.1c0.4-0.4,2.2-1.1,2.7-0.6c4.4,4.5,1.6,11.6,0.9,17.1
	c0.4,0.3,0.7,0.6,1,1c0.7,0.9,1,2,0.9,3.1c0.2,0,0.4,0,0.6,0c5,1.9,11.8,3,14.5,8.2c0.1,0.2-0.5,0.5-0.6,0.6
	C133.5,139.3,128.6,136,123.6,133.1L123.6,133.1z M120.6,131.1c0.1-0.5,0.6-0.9,1.1-1c0.9-1.7,0.5-3.7-1-4.9c-0.3,0-0.5-0.1-0.4-0.1
	s0-0.1,0-0.1c-0.5-0.3-1.1-0.3-1.7-0.1c0,0.1-0.1,0.1-0.1,0.2c-1.1,1.3-1.9,3.4-0.9,5c0.6,0,1.1,0.3,1.1,0.9c0,0,0,0.1,0,0.1
	C119.3,131.3,120,131.3,120.6,131.1L120.6,131.1z M120,122.9h0.6c0.8-4.4,2.3-9.6,0.2-13.4C119,113.5,119.9,118.8,120,122.9
	L120,122.9z M115.4,131.8c-0.5-0.6-0.9-1.3-1-2.1c-3.9,1.4-8.9,2.3-11.6,5.6c-2.3,2.8,3.2,1.8,4.7,1c1.3-0.6,2.5-1.3,3.8-2.1
	S114,132.6,115.4,131.8L115.4,131.8z M123.1,186.6l-2.4-53.8c-0.7,0.2-1.4,0.3-2.1,0.3c-0.8,17.8-1.6,35.7-2.4,53.5L123.1,186.6z
	 M124,130.8c3.4,1.8,9,6.7,13.1,5.9c-2.4-4.2-7.9-5.6-12.4-7C124.5,130.1,124.2,130.5,124,130.8L124,130.8z M387.6,108.9
	c-0.1,0-0.1-0.1-0.1-0.2c0,0,0,0,0,0c4.5-8.8,16.6-11,25-14.1c0.1,0,0.3-0.1,0.4-0.1c-0.1-2,0.6-4,2-5.5c0.4-0.4,0.8-0.9,1.3-1.2
	c-1.1-9.2-5.9-21.2,1.6-28.8c0.4-0.4,2.2-1.1,2.7-0.6c6.4,7.2,4.2,18.6,4.1,27.4c0,0.2-0.1,0.3-0.3,0.4c0.5,0.1,1,0.3,1.5,0.5
	c0.6,0.3,0.3,0.7-0.3,1.1c0.5-0.2,1-0.1,1.4,0.2c1.9,2.2,2.7,5,2.3,7.9c0.6-0.4,1.4-0.6,2.1-0.5c8.2,3.1,19.8,5.1,24.2,13.6
	c0.1,0.2-0.5,0.5-0.6,0.6c-10.3,4.4-19.1-2.9-27.9-7.8c1.4,30.7,2.8,61.3,4.2,92h10.1c2,0,1.5,2.2-0.2,2.2h-10
	c-0.6,0.7-2.3,0.9-2.6,0h-14.3c-0.6,0.7-2.3,0.9-2.6,0h-13.8c-2,0-1.5-2.2,0.2-2.2h13.6c1.4-31.1,2.8-62.3,4.2-93.4
	C407.2,105.1,397.5,113.2,387.6,108.9z M424.1,101.6c-1.8,0.5-3.7,0.4-5.5-0.2c-1.4,30.8-2.8,61.6-4.2,92.4h13.8L424.1,101.6z
	 M427.4,99.6c0.1,0,0.1,0,0.2,0.1c4,2,7.7,4.6,11.7,6.7c2.3,1.4,4.8,2.4,7.5,3.1c3.7,0.8,7,0.1,3.4-3.2c-5.8-5.3-13.8-7.1-21-9.7
	C428.8,97.7,428.2,98.8,427.4,99.6L427.4,99.6z M419.1,86.3c0.8-0.3,1.7-0.4,2.6-0.4c0.2-8,2-18.2-2.8-25.2
	C414.2,67.9,417.9,78.3,419.1,86.3L419.1,86.3z M417.6,98c0.5,0,0.9,0.3,1,0.8c1.6,1.1,3.7,1.6,5.3,1v-0.6c0-0.7,1-1.2,1.8-1.2
	c0.1-0.2,0.2-0.5,0.3-0.7c0.8-2.8,0.1-5.9-1.8-8.1c-0.3-0.4-0.1-0.8,0.4-1c-0.4,0.1-0.7,0.1-1.1,0C417.5,85.7,413.1,93.9,417.6,98z
	 M401.8,107c2-1,4-2.1,6-3.3c2.5-1.5,4.9-3,7.4-4.3l-0.2-0.2c-1-1-1.7-2.4-2-3.8c-7,2.5-17.3,4.3-21.6,10.9
	C388.6,110.7,400.3,107.7,401.8,107L401.8,107z M361.6,129.8c0.4-0.2,0.8-0.2,1.2-0.1c4.9,1.8,11.7,3,14.3,8.1
	c0.1,0.2-0.5,0.5-0.6,0.6c-6.1,2.6-11-0.9-16.2-3.8c0.8,17.7,1.6,35.3,2.4,53h5.4c2,0,1.5,2.2-0.2,2.2h-5.6c-0.6,0.4-1.5,0.4-2.1,0
	h-7.9c-0.6,0.4-1.5,0.4-2.1,0h-7.8c-2,0-1.5-2.2,0.2-2.2h7.4c0.8-18,1.6-36.1,2.5-54.2c-5.1,2.9-10.7,7.1-16.5,4.6
	c-0.1,0-0.1-0.1-0.1-0.2c0,0,0,0,0,0c2.7-5.3,9.9-6.6,15-8.5c0-1.2,0.4-2.4,1.3-3.3c0.2-0.2,0.4-0.4,0.6-0.6c-0.7-5.5-3.4-12.4,1-17
	c0.4-0.4,2.2-1.1,2.7-0.6c3.8,4.3,2.5,11,2.5,16.3c0,0.1,0,0.1-0.1,0.2c0.2,0.1,0.4,0.1,0.6,0.2c0.2,0.1,0.4,0.3,0.3,0.5
	c0,0,0,0,0,0.1c0.2,0,0.3,0.1,0.5,0.3C361.3,126.5,361.8,128.2,361.6,129.8z M357.3,132.3c0,0,0-0.1,0-0.1c0-0.6,0.6-1,1.3-1.1
	c0.5-1.6,0.1-3.3-1-4.6c-0.1-0.1-0.2-0.3-0.1-0.5c-0.1,0-0.2,0-0.2-0.1c-3-1.3-4.4,3.1-2.5,5.1c0.4,0,0.7,0.3,0.8,0.6
	C356,132.1,356.6,132.3,357.3,132.3L357.3,132.3z M355.6,124.1h0.4c0.1-4.3,0.9-9.6-1.1-13.5C353.2,114.5,354.9,119.8,355.6,124.1
	L355.6,124.1z M352.1,132.4L352.1,132.4c-0.6-0.6-1-1.3-1.1-2.1c-3.8,1.3-8.6,2.3-11.2,5.4c-2.3,2.8,3.2,1.8,4.7,1
	c1.3-0.6,2.5-1.4,3.8-2.1S350.8,133.1,352.1,132.4L352.1,132.4z M359.8,187.6c-0.8-17.9-1.6-35.7-2.4-53.6c-0.7,0.1-1.4,0.1-2.1,0
	c-0.8,17.9-1.6,35.7-2.4,53.6L359.8,187.6z M361.3,131.1c-0.2,0.4-0.4,0.8-0.7,1.1c3.4,1.7,9.2,6.9,13.4,6
	C371.6,133.9,365.9,132.6,361.3,131.1L361.3,131.1z M96.7,29.4c-1.2-5.8,3.6-9.1,8.8-9.2c-0.5-2.9,0.9-5.8,3.4-7.4
	c3-1.7,6.5-2.4,9.9-2c-0.1-14.7,28.6-12.4,27.8,2.2c6.5-0.8,14.1,1.7,15.5,9c1.1,5.9-3.2,9.1-8.2,9.9c-2.6,8.2-14.7,10.5-21,4.6
	c-6.3,4-16.7,4.5-21.7-1.1C105.5,36.7,98.1,36,96.7,29.4z M99.7,29.2c1.6,4.4,6,5.1,10,4.3c-0.1-0.1-0.1-0.2-0.2-0.4
	c-0.7-1.3,2.1-2.3,2.7-1.3c0.2,0.3,0.4,0.6,0.6,0.9c0.5,0,0.8,0.4,0.8,0.9c0,0,0,0.1,0,0.1c4.2,4.6,12.9,4.7,17.9,1.1
	c0.1-0.1,0.2-0.2,0.3-0.3c0.2-0.2,0.4-0.3,0.6-0.5c0.9-0.8,3.5-0.5,2.5,0.7c2.8,3.2,7.9,5.4,11.9,2.9c2.2-1.3,3.7-3.3,4.3-5.8
	c-0.3,0-0.5,0-0.8,0c-1.9-0.1,0-1.5,1.1-1.5c0.1-0.5,0.1-1,0.1-1.5c0-0.8,2.9-1.2,2.9-0.8c0,0.7,0,1.5-0.2,2.2
	c2-0.3,3.8-1.1,4.6-3.2c0.7-1.9,0.7-4.1-0.1-6c-2.1-5-7.1-7.5-12.3-6.9c0,0,0,0.1,0,0.1c-0.3,1.4-3.2,1.7-2.9,0.2
	c2.4-13-22.4-16.2-21.7-3.5c0,0.6-0.5,1-1.1,1.2c-0.4,0.4-1,0.6-1.5,0.5c-2.8-0.5-6.4-0.6-8.7,1.3c-2.6,2-2.3,5.2-1.3,8
	c0.4,1.1-2.5,1.9-2.9,0.8c-0.1-0.2-0.2-0.5-0.2-0.7h-0.2C101.5,22,98.2,25,99.7,29.2z M127.5,42.5c-1.3,3.1-1.7,6.4-2.8,9.6
	c-0.2,0.7,0.9,0.8,1.3,0.7c2.1-0.4,4.3,0.7,6.5,1.2l-3.8,9.5c-0.4,1.1,2.5,0.7,2.9-0.3c1.3-3.3,2.7-6.7,4-10
	c0.2-0.5-0.6-0.7-0.9-0.7c-2.4-0.2-4.5-1.3-6.8-1.4c0.8-2.8,1.2-5.6,2.3-8.3C130.8,41.3,127.9,41.5,127.5,42.5z M114.8,45.9
	c0.9-1,1.4-2.3,1.4-3.7c0-0.7-2.9-0.2-2.9,0.8c0,1.1-0.5,2.2-1.2,3c-0.5,0.5,0.4,0.7,0.7,0.7C113.6,46.6,114.3,46.4,114.8,45.9z
	 M109.5,57.2c1.1-1.2,1.6-2.7,1.5-4.3c0-0.6-2.9-0.2-2.9,0.8c0.1,1.3-0.3,2.7-1.2,3.7c-0.5,0.5,0.4,0.6,0.7,0.6
	C108.3,57.9,109,57.6,109.5,57.2z M145.6,49.4c1.1-1.7,1.5-3.7,2.1-5.6c0.2-0.7-0.9-0.9-1.3-0.9c-0.7,0-1.4,0.5-1.6,1.1
	c-0.4,1.8-1.1,3.5-1.9,5.1c-0.4,0.6,0.3,1.1,0.9,1.2C144.4,50.3,145.2,50,145.6,49.4z M142.3,59.6c0.4-0.9,1.3-1.8,1.4-2.8
	c0-0.4-2.9,0-2.9,0.8c-0.1,0.4-0.2,0.7-0.4,1c-0.3,0.5-0.6,1-0.9,1.5s1,0.3,1.1,0.2C141,60.3,142,60.1,142.3,59.6z M318.6,18.7
	c0.1-0.1,0.3-0.2,0.4-0.3l0.3-0.2c7.8-4.7,18.4-5.6,24.5,2.4c5.5,7.2,5.4,17.8-1.6,24.2c-7.3,6.7-18.1,8.5-25.6,1
	C308.1,37.3,309.7,26,318.6,18.7z M318.6,43.9c7.1,7.1,18.3,6.4,23.7-2.6c3.6-5.8,3.4-13.2-0.7-18.8c-5.3-7-13.5-7.7-20.8-3.1
	C312.9,25.5,311,36.4,318.6,43.9L318.6,43.9z M330.5,8.9V0.2c0-0.4-2.9,0-2.9,0.8v8.7C327.5,10,330.4,9.6,330.5,8.9L330.5,8.9z
	 M326.9,56v8.7c0,1.5,2.9,1.1,2.9-0.2v-8.7C329.8,54.3,326.9,54.7,326.9,56z M296,33.5l8.7-0.2c0.8,0,3.2-1.3,1.2-1.3l-8.7,0.2
	C296.4,32.2,294.1,33.5,296,33.5z M351,33l8.7-0.2c0.7,0,1.4-0.2,2-0.5c0.5-0.3,0.4-0.6-0.2-0.6l-8.7,0.2c-0.7,0-1.4,0.2-2,0.5
	C350.4,32.7,350.5,33,351,33z M311.3,16.1c0.5,0.5,3.1-0.5,2.7-1l-6-6.2c-0.5-0.5-3.1,0.5-2.7,1L311.3,16.1z M352,55.2l-6-6.2
	c-0.6-0.7-3.4,0.4-2.7,1.1c2,2.1,4,4.2,6,6.2C350,57,352.6,55.9,352,55.2L352,55.2z M312.6,48.2c-0.7,0-1.4,0.3-1.9,0.7
	c-2,2.1-4,4.1-6.1,6.2c-0.5,0.5,0.4,0.6,0.7,0.6c0.7,0,1.4-0.3,1.9-0.7l6.1-6.2C313.8,48.3,312.9,48.2,312.6,48.2L312.6,48.2z
	 M344.6,16.8c0.7,0,1.4-0.3,1.9-0.7l6.1-6.2c0.5-0.5-0.4-0.5-0.7-0.4c-0.7,0-1.4,0.3-2,0.7l-6.1,6.1
	C343.5,16.8,344.4,16.8,344.6,16.8z"/>
</svg>
