<?xml version="1.0" encoding="utf-8"?>
<!-- Generator: Adobe Illustrator 24.0.1, SVG Export Plug-In . SVG Version: 6.00 Build 0)  -->
<svg version="1.1" id="Layer_1" xmlns="http://www.w3.org/2000/svg" xmlns:xlink="http://www.w3.org/1999/xlink" x="0px" y="0px"
	 viewBox="0 0 512 512" style="enable-background:new 0 0 512 512;" xml:space="preserve">
<style type="text/css">
	.st0{fill:#47CEAC;}
	.st1{fill:#1565C0;}
	.st2{fill:#F4F6F9;}
</style>
<path id="SVGCleanerId_0" class="st0" d="M512,256c0,141.4-114.6,256-256,256C114.6,512,0,397.4,0,256C0,114.6,114.6,0,256,0
	C397.4,0,512,114.6,512,256z"/>
<g>
	<path id="SVGCleanerId_0_1_" class="st1" d="M512,256c0,141.4-114.6,256-256,256C114.6,512,0,397.4,0,256C0,114.6,114.6,0,256,0
		C397.4,0,512,114.6,512,256z"/>
</g>
<g>
	<path class="st2" d="M309.9,188c8.3,0,16.2-3.2,22.1-9c5.9-5.8,9.2-13.6,9.2-21.8s-3.2-16-9.2-21.8c-11.8-11.7-32.4-11.7-44.2,0
		c-5.9,5.8-9.2,13.6-9.2,21.8s3.2,16,9.2,21.8C293.7,184.7,301.5,188,309.9,188z M298.8,146.2c3-2.9,6.9-4.5,11-4.5
		c4.2,0,8.1,1.6,11,4.5c3,2.9,4.6,6.8,4.6,10.9c0,4.1-1.6,8-4.6,10.9c-5.9,5.8-16.2,5.8-22.1,0c-3-2.9-4.6-6.8-4.6-10.9
		C294.3,153,295.9,149.1,298.8,146.2z"/>
	<path class="st2" d="M411,180.9L380.1,91v-3.4c0-4.3-3.5-7.7-7.8-7.7H270c-2.1,0-4.1,0.8-5.5,2.3L67.6,276.9
		c-4.8,4.7-7.6,11.5-7.6,18.6c0,7.1,2.8,13.9,7.6,18.6l76.2,74.9c2.9,2.9,6.5,4.9,10.2,6.1c0.4,2.3,1.8,4.4,4.1,5.6l96.4,47.2
		c3.6,1.7,7.4,2.6,11.3,2.6c2.8,0,5.6-0.5,8.3-1.4c6.5-2.2,11.8-6.8,14.8-13l0.4-0.8l83.1,7.4c11.8,0,23.4-11.1,23.4-22.3V218.8
		c0-0.4-0.2-0.8-0.2-1.2l15.1-30.9C411.5,184.9,411.6,182.8,411,180.9z M78.6,303.1c-1.9-1.8-3-4.6-3-7.7c0-3,1.1-5.8,3-7.7
		L273.2,95.3h91.3v91.5L169.6,378c-4,3.9-10.8,3.9-14.8,0L78.6,303.1z M269,434.4c-2.5,0.8-5.2,0.7-7.6-0.5l-85-41.6
		c1.5-1,2.9-2.1,4.2-3.4l197.3-193.5c1.5-1.4,2.3-3.4,2.3-5.5v-50.9l15,43.8L274.8,429.3C273.6,431.8,271.5,433.6,269,434.4z
		 M380.1,420.4c0,2.4-4.1,6.9-7.1,6.9l-76.6-6.9l83.7-171.3V420.4z"/>
</g>
</svg>
