<?xml version="1.0" encoding="utf-8"?>
<!-- Generator: Adobe Illustrator 24.0.1, SVG Export Plug-In . SVG Version: 6.00 Build 0)  -->
<svg version="1.1" id="Layer_1" xmlns="http://www.w3.org/2000/svg" xmlns:xlink="http://www.w3.org/1999/xlink" x="0px" y="0px"
	 viewBox="0 0 512 512" style="enable-background:new 0 0 512 512;" xml:space="preserve">
<style type="text/css">
	.st0{fill:#44AF69;}
	.st1{fill:#F4F6F9;}
</style>
<path class="st0" d="M512,256c0,141.4-114.6,256-256,256C114.6,512,0,397.4,0,256C0,114.6,114.6,0,256,0C397.4,0,512,114.6,512,256z
	"/>
<path class="st1" d="M403.5,121.3h-295c-12.5,0-22.6,10.1-22.6,22.6v224.1c0,12.5,10.2,22.6,22.6,22.6h295
	c12.5,0,22.6-10.1,22.6-22.6V143.9C426.1,131.5,416,121.3,403.5,121.3z M100.1,145.6L213,260.5L100.1,366.8V145.6z M265.8,274.1
	c-5.5,5.3-14,5.3-19.4,0.1L110,135.5h292L265.8,274.1z M222.9,270.6l13.4,13.7c5.5,5.3,12.5,8,19.6,8c7.1,0,14.2-2.7,19.8-8.1
	l10.1-10.2l115.5,102.6H110.4L222.9,270.6z M295.8,263.8l116.2-118.1V367L295.8,263.8z"/>
</svg>
