<?xml version="1.0" encoding="utf-8"?>
<!-- Generator: Adobe Illustrator 24.0.1, SVG Export Plug-In . SVG Version: 6.00 Build 0)  -->
<svg version="1.1" id="Layer_1" xmlns="http://www.w3.org/2000/svg" xmlns:xlink="http://www.w3.org/1999/xlink" x="0px" y="0px"
	 viewBox="0 0 512 512" style="enable-background:new 0 0 512 512;" xml:space="preserve">
<style type="text/css">
	.st0{fill:#FFAF00;}
	.st1{fill:#F4F6F9;}
</style>
<path class="st0" d="M512,256c0,141.4-114.6,256-256,256C114.6,512,0,397.4,0,256C0,114.6,114.6,0,256,0C397.4,0,512,114.6,512,256z
	"/>
<g>
	<path class="st1" d="M256,67.1c-67.9,0-123.2,59.6-123.2,132.8c0,70.6,111.7,234.5,116.4,241.4c1.5,2.2,4.1,3.6,6.8,3.6
		c2.7,0,5.2-1.3,6.8-3.6c4.8-6.9,116.4-170.9,116.4-241.4C379.2,126.7,323.9,67.1,256,67.1z M256,421.9
		c-24.5-37.1-106.8-165.9-106.8-222c0-64.2,47.9-116.4,106.8-116.4s106.8,52.2,106.8,116.4C362.8,256,280.5,384.8,256,421.9z"/>
	<path class="st1" d="M256,124.6c-36.2,0-65.7,29.5-65.7,65.7S219.8,256,256,256s65.7-29.5,65.7-65.7S292.2,124.6,256,124.6z
		 M256,239.6c-27.2,0-49.3-22.1-49.3-49.3S228.8,141,256,141s49.3,22.1,49.3,49.3S283.2,239.6,256,239.6z"/>
</g>
</svg>
