<?xml version="1.0" encoding="utf-8"?>
<!-- Generator: Adobe Illustrator 24.0.1, SVG Export Plug-In . SVG Version: 6.00 Build 0)  -->
<svg version="1.1" id="Layer_1" xmlns="http://www.w3.org/2000/svg" xmlns:xlink="http://www.w3.org/1999/xlink" x="0px" y="0px"
	 viewBox="0 0 512 512" style="enable-background:new 0 0 512 512;" xml:space="preserve">
<style type="text/css">
	.st0{fill:#44AF69;}
	.st1{fill:#F4F6F9;}
</style>
<path class="st0" d="M0,256c0,141.4,114.6,256,256,256c141.4,0,256-114.6,256-256C512,114.6,397.4,0,256,0C114.6,0,0,114.6,0,256z"
	/>
<g>
	<path class="st1" d="M149,335.7c0-12.7-10.4-23.1-23.2-23.1s-23.2,10.4-23.2,23.1s10.4,23.1,23.2,23.1
		C138.6,358.8,149,348.5,149,335.7z M116.5,335.7c0-5,4.2-9.1,9.3-9.1c5.1,0,9.3,4.1,9.3,9.1s-4.2,9.1-9.3,9.1
		C120.6,344.8,116.5,340.7,116.5,335.7z"/>
	<path class="st1" d="M393.3,133.3c0-12.7-10.4-23.1-23.2-23.1s-23.2,10.4-23.2,23.1s10.4,23.1,23.2,23.1S393.3,146,393.3,133.3z
		 M360.8,133.3c0-5,4.2-9.1,9.3-9.1s9.3,4.1,9.3,9.1s-4.2,9.1-9.3,9.1C364.9,142.4,360.8,138.3,360.8,133.3z"/>
	<path class="st1" d="M369.9,231.5c0.1,0,0.1,0,0.1,0c1.8,0,3.6-0.7,4.9-2c2.1-2.1,50.8-50.9,50.8-96.2c0-30.5-25-55.3-55.7-55.3
		c-30.7,0-55.7,24.8-55.7,55.3c0,33.4,26.5,68.7,41.2,85.8c-8.8,2.1-14.9,6.4-16.5,12.3c-1.1,4.2,0.1,9.8,6.7,13.3
		c9,4.8,10.9,8.1,10.8,8.9c-0.5,6.6-31,17.5-47.4,23.3C279,287.7,252.9,297,251.5,313c-1,12.1,12.7,19.8,17.3,22.4
		c7.1,4,15.3,10.1,14.2,16.6c-4.1,24.2-93.6,52-137.6,63.3c15-18.5,36-49.8,36-79.6c0-30.5-25-55.3-55.7-55.3
		C95,280.4,70,305.2,70,335.7c0,42.1,42,87.2,49.6,95.1c1.1,1.7,2.8,3,5,3.2c0.1,0,0.2,0,0.3,0c0.2,0,0.5,0,0.7-0.1c0,0,0.1,0,0.1,0
		c0.1,0,0.2,0,0.3-0.1c16.5-1.7,156.8-36.2,169.9-76.3c2.9-8.9,1.7-22-20.3-34.4c-10.3-5.8-10.2-9-10.2-9c0.6-7,31.7-18.2,48.4-24.1
		c31-11.1,55.5-19.8,56.6-35.5c0.7-10.2-9.3-17.2-15.6-20.8c2.6-1.2,7.4-2.5,14.8-2.2C369.8,231.6,369.8,231.5,369.9,231.5z
		 M125.8,294.4c23,0,41.8,18.5,41.8,41.3c0,31.7-29.8,67.8-41.8,81.1c-12-13.2-41.8-49.3-41.8-81.1
		C84,312.9,102.7,294.4,125.8,294.4z M370.1,92c23,0,41.8,18.5,41.8,41.3c0,31.7-29.8,67.8-41.8,81.1c-12-13.2-41.8-49.3-41.8-81.1
		C328.3,110.5,347,92,370.1,92z"/>
</g>
</svg>
