<?xml version="1.0" encoding="utf-8"?>
<!-- Generator: Adobe Illustrator 24.0.1, SVG Export Plug-In . SVG Version: 6.00 Build 0)  -->
<svg version="1.1" id="Layer_1" xmlns="http://www.w3.org/2000/svg" xmlns:xlink="http://www.w3.org/1999/xlink" x="0px" y="0px"
	 viewBox="0 0 512 512" style="enable-background:new 0 0 512 512;" xml:space="preserve">
<style type="text/css">
	.st0{fill:#FFAF00;}
	.st1{fill:#F4F6F9;}
</style>
<path class="st0" d="M0,256c0,141.4,114.6,256,256,256c141.4,0,256-114.6,256-256C512,114.6,397.4,0,256,0C114.6,0,0,114.6,0,256z"
	/>
<g>
	<path class="st1" d="M213.4,248.2c1.8,0,3.6-0.1,5.4-0.4c12.1-1.7,22.4-9,30.9-21.5c21.3,38.9,28.8,69.5,28.9,70
		c0.8,3.4,3.7,5.8,7.2,6c0.1,0,0.3,0,0.4,0c3.3,0,6.2-2.1,7.3-5.2c0.1-0.4,7.5-21.5,22.5-43.2c9,17.2,20.6,23,29.1,24.7
		c2.1,0.4,4.3,0.6,6.5,0.6c12.4,0,25.7-6.4,36.7-17.9c20.3-21.2,27.8-79.3,14.1-109c-1-2.1-2.9-3.7-5.1-4.3
		c-2.3-0.6-4.7-0.1-6.5,1.3c-14,10.5-26.6,13.7-40,17.2c-11.5,3-23.4,6-35.4,14l0,0c-13.6,9-21.7,22.1-21.7,35.1
		c0,7,2.4,16.6,12,26.2c-7.8,10.8-13.9,21.5-18.2,30.3c-5.1-14.6-13.8-35.7-27.3-59.3c18-9.2,29-21.4,32.4-36.3
		c5.3-22.7-8.5-43.3-17.3-53.6c-14.6-17.2-35.2-22.1-57.1-27.3c-19.3-4.6-39.3-9.4-55.7-23.3c-1.8-1.5-4.2-2.2-6.5-1.7
		c-2.3,0.4-4.3,1.9-5.4,4C129.2,115,140.2,192,164,220C179.4,238.2,197.1,248.2,213.4,248.2z M309,215.6c0-7.8,5.6-16.1,14.8-22.3
		c9.8-6.5,20-9.1,30.7-11.9c11.2-2.9,23.6-6.1,36.9-14c7.2,27.3-0.9,69.1-14.3,83.2c-7.2,7.5-18.5,14.8-29.1,12.7
		c-10.8-2.1-17.6-13.6-21.3-22.8c0-0.1-0.1-0.2-0.2-0.3c8.9-10.3,19.6-19.7,32.3-26c3.8-1.9,5.4-6.5,3.5-10.4
		c-1.9-3.8-6.5-5.4-10.4-3.5c-14.6,7.2-26.7,17.9-36.7,29.3C311.7,225.7,309,221,309,215.6z M160.5,90.3
		c17.3,11.7,36.7,16.3,54,20.4c20.2,4.8,37.6,9,48.9,22.3l0,0c11.6,13.7,16.7,28.3,14,40.1c-2.4,10.5-11,19.4-25.3,26.5
		c-15.1-23.9-35.1-49.5-61.5-73c-3.2-2.9-8.1-2.6-10.9,0.6c-2.8,3.2-2.6,8.1,0.6,10.9c26.2,23.4,46,49.2,60.6,73.1
		c-6.8,12.9-15,20-24.3,21.4c-12.2,1.8-27.5-6.7-40.9-22.5C156.8,187.8,147.2,127,160.5,90.3z"/>
	<path class="st1" d="M445.9,355l-1.8-1.8c-15.4-15.4-23.9-23.9-44.4-18.1L332.1,354c0-0.5,0.1-1,0.1-1.4c0-13.4-8.6-27-24.9-27
		c-11.8,0-20.3,0-27.6,0c-10.7,0-18.6,0.1-29.5,0c-0.5-0.5-1-1-1.6-1.5c-8.4-8.1-22.5-21.7-55.9-21.7h-38.2v-7.7
		c0-4.3-3.5-7.7-7.7-7.7H84.9c-4.3,0-7.7,3.5-7.7,7.7v115.9c0,4.3,3.5,7.7,7.7,7.7h61.8c4.3,0,7.7-3.5,7.7-7.7V407
		c14.2,4.8,26.7,9.2,37.7,13.1c39.4,13.8,61.7,21.5,82.4,21.5c26,0,49.5-12.1,101.2-39.2c18.1-9.5,40.6-21.3,68-35
		c2.2-1.1,3.8-3.2,4.2-5.7C448.4,359.2,447.6,356.7,445.9,355z M139,402.8H92.7V302.3H139V402.8z M368.7,388.6
		c-87.9,46-87.9,46-171.3,16.8c-12.3-4.3-26.5-9.3-42.9-14.8v-72.9h38.2c27.1,0,38,10.4,45.2,17.4c1.7,1.6,3.2,3,4.6,4.1
		c1.4,1.1,3,1.7,4.7,1.7c12.6,0.1,20.9,0.1,32.6,0c7.3,0,15.8,0,27.6,0c9.2,0,9.5,10.4,9.5,11.6c0,3.3-1,6.4-2.6,8.5
		c-1.7,2.1-3.9,3.1-6.8,3.1H224c-4.3,0-7.7,3.5-7.7,7.7s3.5,7.7,7.7,7.7h83.3c7.9,0,13.9-3.2,18-7.9c0.4,0,0.8,0,1.3-0.1l77.3-21.6
		c9.8-2.8,13.3-1.5,23.5,8.4C404.1,370.1,384.7,380.3,368.7,388.6z"/>
</g>
</svg>
