<svg xmlns="http://www.w3.org/2000/svg" viewBox="0 0 1627.29032 389.61274"><defs><style>.cls-1{fill:#1d5cb8;}.cls-2{fill:#3b3b3d;}.cls-3{fill:#f0592a;}.cls-4{fill:#9dcb40;}.cls-5{fill:#fad439;}.cls-6{fill:#ed2b30;}.cls-7{fill:#da3232;}.cls-8{fill:#cb2730;}.cls-9{fill:#d9b327;}</style></defs><title>Recurso 2</title><g id="Capa_2" data-name="Capa 2"><g id="Capa_1-2" data-name="Capa 1"><path class="cls-1" d="M490.4267,216.96586c.06834-2.8708-.00823-5.75469.24939-8.60845.2164-2.39653-.53943-3.0246-2.96825-3.01337-22.19317.10172-44.38718.0337-66.58067.10689-1.86851.00613-2.8983-.356-2.85446-2.35485.50452-6.89386.18193-13.79806.14862-20.69466-.01148-2.35677.52884-3.03794,2.9754-3.02147,17.18544.11589,34.372.06139,51.55831.06139,6.11614,0,6.11614,0,5.34589-6.32813a126.95363,126.95363,0,0,0,.02355-16.27091c.03982-3.90666.03388-7.81567.24237-11.71327.11882-2.2218-.61442-2.67527-2.72984-2.66436-17.28582.08934-34.57242.05035-51.85875.05035-5.38437,0-5.37882-.00019-5.4972-5.253a16.25853,16.25853,0,0,0-.21122-1.69723c.06726-4.12261.32316-8.2539.13522-12.36489-.12393-2.71158.5439-3.54648,3.418-3.5283,21.33671.13485,42.67494.03478,64.01222.12827,2.31025.01015,2.831-.65742,2.80954-2.87233q-.16617-17.14479-.00453-34.29208c.01647-2.02257-.31735-2.77-2.60584-2.76487q-55.218.12378-110.43639-.00089c-2.44419-.00562-2.80022.89444-2.78854,2.9842.07147,12.77541.01736,25.5514.04435,38.32713.01015,4.79523.12533,9.59019.19266,14.38529-.35705,7.22372-.31755,14.4475-.04812,21.67129a128.06962,128.06962,0,0,0,.04946,15.87537q-.53021,14.99035-.00428,29.98071A94.38247,94.38247,0,0,0,373.044,216.967a101.09265,101.09265,0,0,0,.00012,13.829c-.0536,3.54942.05393,7.1109-.2132,10.6441-.20389,2.69831.50223,3.57016,3.39785,3.56187q55.545-.15968,111.0905-.07039c.57714,0,1.1557-.029,1.73093.00287,1.06763.059,1.60432-.35864,1.58147-1.4899-.08525-4.2191-.13854-8.4389-.20389-12.65838A95.18714,95.18714,0,0,0,490.4267,216.96586Z"/><path class="cls-2" d="M1561.861,319.48292c3.88035-7.389,7.64145-14.32846,11.15917-21.389,1.01718-2.04187,2.03819-2.93893,4.45843-2.84759,5.87825.22189,5.884.06955,5.884,5.96278,0,11.32724-.05794,22.655.05147,33.98122.02059,2.13953-.60749,2.668-2.68082,2.6404-5.80356-.07742-5.80488.01837-5.80488-5.78V310.03816c-1.71908,3.22879-3.04346,5.67541-4.32961,8.142-1.80129,3.45446-3.6283,6.89742-5.33488,10.39862a3.40306,3.40306,0,0,1-3.57052,2.03883,3.1138,3.1138,0,0,1-3.164-2.08942c-2.958-5.82782-6.06914-11.57812-9.22525-17.54909-.86321,1.20165-.53557,2.21408-.53984,3.14906-.03294,7.117-.05191,14.23443.00824,21.351.01323,1.575-.28235,2.29819-2.11393,2.35007-6.06589.17188-6.06354.25455-6.06354-5.82261,0-11.42747.0522-22.85543-.04912-34.282-.01779-2.009.66161-2.21669,2.48671-2.5039,4.827-.75957,7.2669,1.15877,9.17025,5.56783C1554.92405,307.0921,1558.479,313.03617,1561.861,319.48292Z"/><path class="cls-2" d="M847.9058,310.68225c0,7.95912-.00007,15.13072-.00007,22.30228,0,4.8101.00007,4.81006-4.94232,4.79518a5.98682,5.98682,0,0,0-.90248.00588c-1.90717.28824-2.35-.60746-2.34076-2.39423q.097-18.96127-.00044-37.92314c-.00875-1.70888.508-2.14619,2.19863-2.21155,2.66332-.103,4.53843.46262,6.30971,2.81688,5.70473,7.58237,11.74967,14.90942,17.68418,22.31841.46161.57626.69572,1.46656,1.81018,1.53251.5966-.87773.3247-1.89457.32815-2.83278.02537-6.92241.07912-13.846-.02728-20.76683-.03073-2.00344.396-2.80794,2.61627-2.77881,5.57466.07312,5.57613-.04218,5.57613,5.42171,0,11.43726-.04448,22.8748.04353,34.31139.01485,1.92713-.46271,2.46676-2.45723,2.58819-3.00817.183-4.90121-.84415-6.74573-3.24062C860.98765,326.74185,854.6469,319.06619,847.9058,310.68225Z"/><path class="cls-2" d="M1396.03485,311.496c0,7.78886-.0972,15.57971.05868,23.36545.0475,2.36766-.59175,3.04864-2.9667,2.97659-5.23915-.159-5.24312-.02921-5.24312-5.22764,0-11.13626-.03324-22.2727.04617-33.40841.009-1.25967-.91483-3.41823.716-3.678,2.1423-.34126,4.72622-1.20548,6.60985,1.2115,4.85107,6.22475,9.78214,12.38755,14.68851,18.56923,1.79584,2.26273,3.61257,4.50886,5.44958,6.79958,1.26542-.78264.7694-1.89222.775-2.78388.04441-7.0226.1025-14.0469-.02221-21.06756-.0375-2.11069.57955-2.72847,2.6945-2.70143,5.50238.07036,5.50371-.03138,5.50371,5.4887,0,10.93561.04558,21.87166-.06147,32.80624-.0125,1.27183,1.12174,3.56226-.93895,3.76111-2.243.21649-4.8271,1.2205-6.87427-1.40792-6.27-8.05032-12.76222-15.92788-19.16473-23.87532-.24529-.30445-.45587-.63678-.68263-.95611Q1396.32875,311.432,1396.03485,311.496Z"/><path class="cls-2" d="M414.2211,310.67483c0,8.48972-.11536,16.17346.06456,23.85022.06051,2.58033-.49374,3.46292-3.24067,3.32734-4.96621-.24507-4.97533-.06066-4.97533-4.90578,0-11.33691-.03169-22.674.04662-34.01039.00831-1.19732-.93241-3.30008.96424-3.47383,2.07723-.19029,4.51924-1.11876,6.34508,1.242,4.82821,6.24249,9.78178,12.38817,14.68983,18.56891,1.79974,2.26644,3.61169,4.52325,5.44091,6.8131,1.3199-.72166.79079-1.84957.79682-2.7309.04765-6.92219.11816-13.8468-.025-20.76635-.04786-2.31222.5069-3.12716,2.96634-3.04883,5.232.16667,5.23657.02411,5.23657,5.16367,0,11.53756-.05088,23.07552.04839,34.61224.0172,1.99745-.55757,2.47576-2.50252,2.53477a6.97246,6.97246,0,0,1-6.55383-3.00978C427.47714,326.88323,421.07419,319.19622,414.2211,310.67483Z"/><path class="cls-2" d="M1486.38583,311.16673c0,7.99106-.111,15.672.06265,23.3466.05779,2.55465-.45426,3.48041-3.227,3.34064-4.97725-.25088-4.9868-.06169-4.9868-5.19674,0-11.23657-.03177-22.47339.04617-33.7094.00838-1.20081-.92513-3.29839.9538-3.485,2.07731-.20627,4.53123-1.09815,6.34251,1.23711,4.89754,6.31433,9.89023,12.55506,14.86233,18.81152a36.16486,36.16486,0,0,0,6.10516,6.3762v-7.33583c0-5.51794.06059-11.037-.03485-16.55327-.03088-1.78.422-2.42826,2.33318-2.44556,5.85355-.05287,5.85282-.1408,5.85282,5.74129,0,11.33691-.04971,22.67423.04691,34.01029.01691,1.97548-.52176,2.49784-2.48951,2.5466-2.78891.06907-4.71828-.56307-6.55941-2.99978-5.9062-7.817-12.177-15.35922-18.31667-22.99954A5.802,5.802,0,0,0,1486.38583,311.16673Z"/><path class="cls-2" d="M967.1674,323.1061c0-8.68934.075-16.60519-.04779-24.51794-.03471-2.22518.37293-3.13837,2.88244-3.05207,5.3112.18269,5.3165.03006,5.3165,5.45074,0,11.02258.03367,22.04538-.04735,33.06737-.009,1.22267.94306,3.384-.92792,3.5515-2.1829.19554-4.772,1.26176-6.6903-1.17564-4.31417-5.48182-8.71952-10.892-13.09207-16.32771a75.22788,75.22788,0,0,0-7.55234-8.43335v6.37708c0,5.71168-.09823,11.42593.05015,17.13379.05662,2.1794-.70043,2.67079-2.74244,2.6468-5.458-.06426-5.459.02689-5.459-5.51621,0-11.223-.02059-22.44606.03279-33.66877.00523-1.08614-.64322-3.05717.605-3.12547,2.0801-.11379,4.54549-1.35619,6.37266.94776q7.90725,9.97065,15.87,19.89773C963.39469,318.43573,965.06671,320.4977,967.1674,323.1061Z"/><path class="cls-2" d="M1292.714,316.27948c.00015-6.21024.064-12.4215-.03971-18.63-.03029-1.80966.41749-2.46981,2.32584-2.36752,4.99459.2677,9.99595-.06838,15.006.25841,13.42162.87538,19.98472,11.52264,18.74533,23.675-1.18836,11.65278-9.00451,18.497-20.68984,18.5606-4.109.02238-8.22806-.16717-12.324.065-2.63612.14947-3.14111-.83552-3.07758-3.23284C1292.82209,328.50242,1292.714,322.38952,1292.714,316.27948Zm8.15115.11934v9.00907c0,5.11036,0,5.11032,5.18988,5.1101,9.47612-.00041,13.7197-3.88611,14.47983-13.25849.69617-8.58165-4.49284-14.43923-13.053-14.70616-1.601-.04994-3.21125.08248-4.80548-.03333-1.47129-.10685-1.86981.44848-1.84,1.86731C1300.9206,308.38961,1300.86589,312.39476,1300.86516,316.39882Z"/><path class="cls-2" d="M1211.71739,316.40455q0-9.47226.00279-18.94452c.00088-1.05524-.32646-2.20935,1.51217-2.169,4.91137.10784,9.83729-.1394,14.73762.12345,18.70077,1.00288,22.48,17.93856,18.56784,29.5517-2.636,7.82476-9.8495,12.65386-18.79474,12.8002-4.51211.07385-9.02863-.06863-13.53868.05177-1.90466.05085-2.58789-.41089-2.54024-2.47036C1211.81062,329.0364,1211.71739,322.71939,1211.71739,316.40455Zm8.15114-.17515V324.65c0,5.869.01162,5.63754,5.73914,5.92409,7.92233.39645,13.74235-4.212,14.00117-13.89626.22073-8.24659-4.32476-13.39061-12.28429-14.09859-1.89114-.16825-3.81507.06084-5.71341-.0603-1.58805-.10141-1.77834.68829-1.76055,1.98195C1219.90427,308.40978,1219.87,312.31981,1219.86853,316.2294Z"/><path class="cls-2" d="M758.84494,337.77578c-3.02317,0-5.49437-.05287-7.96181.02054-1.40578.04178-1.85011-.92789-2.42113-1.87653a96.59394,96.59394,0,0,1-5.21672-8.73373c-1.40681-3.02226-3.40235-3.72294-6.56589-3.69608-3.03339.02583-4.22844.65813-3.88491,3.87259.307,2.873.01139,5.806.08742,8.70981.03441,1.31287-.45543,1.64862-1.725,1.74069-6.45236.46777-6.4495.50837-6.4495-5.79229,0-11.32247.06831-22.64567-.057-33.96674-.02529-2.28607.60307-2.87427,2.84214-2.78984,4.80549.18129,9.62274.04277,14.43506.05857,6.90624.02271,12.08562,3.66364,14.14579,9.91649,2.04871,6.21836.18323,11.79949-5.56951,15.8663-1.38769.98094-.849,1.55842-.2644,2.51052C753.03889,328.176,755.801,332.75867,758.84494,337.77578ZM733.03013,309.4282c-.17124,6.961-.17124,6.961,6.69037,6.96095.89866,0,1.79945-.04082,2.69546.00761,2.79464.151,4.45909-1.34208,5.52473-3.72823,1.70724-3.823-.07345-10.57829-6.64515-10.12115-2.75222.19147-5.96274-.99259-8.08423.58755C732.16677,303.91294,733.03013,307.24943,733.03013,309.4282Z"/><path class="cls-2" d="M798.59908,337.7756c-3.03155,0-5.50437-.05129-7.97365.01991-1.4074.04056-1.84482-.94041-2.4148-1.88634a94.0778,94.0778,0,0,1-5.2157-8.73395c-1.40629-3.03979-3.42323-3.69622-6.57258-3.68491-3.05817.01095-4.2166.69417-3.87146,3.88424.3,2.77311-.02286,5.608.09529,8.40856.06772,1.604-.50851,1.98856-2.049,2.03584-6.13708.18853-6.13539.2457-6.13539-5.81018,0-11.32247.07059-22.64575-.05838-33.96675-.02639-2.309.63969-2.85718,2.85546-2.77631,4.806.17537,9.62287.04089,14.4352.05713,6.899.0233,12.08334,3.6736,14.1391,9.92719,2.04143,6.21.17389,11.78373-5.58554,15.86141-1.40247.99292-.82373,1.57282-.24639,2.5143C792.79707,328.18549,795.55958,332.76565,798.59908,337.7756ZM772.61339,308.931c0,1.97067.12029,3.57883-.03169,5.16088-.17419,1.81267.36683,2.479,2.27929,2.3411,2.48325-.17908,4.9907-.09733,7.485-.02888a5.304,5.304,0,0,0,5.18122-3.34846c2.07179-4.17516.02433-11.06807-6.6539-10.52112-2.65973.21784-5.80238-.93994-7.84579.49142C771.60827,304.02008,772.82611,307.14309,772.61339,308.931Z"/><path class="cls-2" d="M521.522,337.77552c-3.03457,0-5.50805-.05074-7.97807.01966-1.40835.04016-1.84275-.94582-2.41178-1.89083-1.95746-3.25065-4.06381-6.42021-5.85546-9.75894-1.02778-1.91526-2.21238-2.91589-4.43542-2.55369a8.942,8.942,0,0,1-2.69987.00169c-2.08319-.30676-2.78884.42254-2.65546,2.58037.1975,3.19418-.02963,6.41243.08485,9.61473.05765,1.61037-.52145,1.98338-2.05524,2.03-6.13171.18639-6.13.24268-6.13-5.815,0-11.32247.07147-22.64579-.059-33.96679-.02669-2.31861.65557-2.84972,2.86119-2.77039,4.80622.1728,9.623.04012,14.43527.05654,6.89573.02355,12.08261,3.67819,14.13631,9.93174,2.03819,6.20686.17014,11.77616-5.59267,15.85925-1.40879.99817-.81285,1.579-.2386,2.516C515.72221,328.18971,518.48472,332.76881,521.522,337.77552Zm-26.082-28.4006.09742.004c0,1.69642.111,3.40218-.03139,5.08659-.14007,1.657.5441,2.01938,2.0512,1.95317,2.49134-.10952,4.99335-.09615,7.48668-.01212,2.93236.09884,4.66107-1.414,5.64811-3.97679,1.97158-5.119-1.20769-9.88038-6.66838-9.8551-2.758.01275-5.9573-.99042-8.10674.52714C494.82479,303.87275,495.54117,307.20214,495.44,309.37492Z"/><path class="cls-2" d="M556.25794,333.48874c-10.178,6.0995-16.88691,5.9591-24.41564-.04835-8.75746-6.98792-10.12192-21.34225-2.90523-30.56387,6.64934-8.49678,19.48031-10.33,27.93527-3.99116,5.65311,4.23821,5.50723,5.28048-1.37262,9.808-5.271-6.53658-11.59916-8.1557-17.11021-4.37794-5.21423,3.57428-7.28705,11.55868-4.78916,18.10584,3.17544,8.32321,13.17317,12.00349,21.484,3.87391a3.251,3.251,0,0,0,.8552-3.31881c-.36713-1.40865-1.65423-.72128-2.54951-.82541a10.17363,10.17363,0,0,0-2.7031-.00125c-2.56833.39862-3.16111-.7-3.15978-3.15174.00132-2.40368.70108-3.10971,3.06081-2.978,3.501.19536,7.02206.10156,10.53227.02649,1.40527-.03,1.9279.37529,1.90945,1.861q-.11227,9.02364.00059,18.0493c.01919,1.503-.53963,1.99161-1.92276,1.8252a4.265,4.265,0,0,0-.60167-.0018C557.8682,337.84026,554.79739,338.43968,556.25794,333.48874Z"/><path class="cls-2" d="M1471.64659,316.87955c-.01073,11.79575-9.16421,21.17962-20.66308,21.18326-11.26637.00356-20.61484-9.65551-20.60411-21.39625.00956-10.21466,7.35852-21.29735,20.77734-21.594C1462.41282,294.82359,1471.65762,304.89069,1471.64659,316.87955Zm-32.84149-.29555c0,.50054-.029,1.00306.00441,1.50136.59146,8.83285,7.76086,14.46,15.76951,12.13,5.73179-1.66762,7.93571-6.32671,8.78687-11.748,1.36527-8.69474-4.90033-16.23093-13.12971-15.92115C1443.70661,302.792,1438.79,308.82772,1438.8051,316.584Z"/><path class="cls-2" d="M1111.73044,316.82058c-.00177,11.81937-9.13186,21.23959-20.58808,21.24223-11.27108.00261-20.60514-9.61954-20.69147-21.33008-.086-11.65862,9.41892-21.5969,20.74514-21.691C1102.39094,294.94873,1111.7322,304.856,1111.73044,316.82058Zm-20.33574-14.27485a11.10049,11.10049,0,0,0-9.20538,4.14757,16.48819,16.48819,0,0,0,.35337,20.25636,11.56978,11.56978,0,0,0,16.37229.87325,14.92357,14.92357,0,0,0,4.64446-10.69645C1103.93649,309.05755,1098.48337,302.57626,1091.3947,302.54573Z"/><path class="cls-2" d="M718.40273,316.84259c-.00221,11.80592-9.1484,21.22268-20.61043,21.22015-11.26292-.0025-20.59809-9.64585-20.66948-21.35213-.0711-11.65054,9.47634-21.61241,20.76734-21.66892C709.11131,294.98555,718.405,304.863,718.40273,316.84259Zm-32.81046-.2371a14.9729,14.9729,0,0,0,.90152,5.62894c2.33716,6.692,8.78422,10.20032,15.21357,7.91474,5.64708-2.00744,7.9049-6.741,8.49775-12.34137.89822-8.48542-5.08018-15.45192-12.95744-15.26192C690.58458,302.70655,685.62263,308.58328,685.59227,316.60549Z"/><path class="cls-2" d="M1051.07117,338.31773a33.97186,33.97186,0,0,1-15.756-4.36394c-1.462-.86969-1.92923-1.5596-.90734-2.96469a3.60079,3.60079,0,0,0,.25279-.54235c2.16672-4.40245,2.13393-4.33367,6.476-2.23937,3.63757,1.75441,7.45528,3.00114,11.57828,2.60653,2.30436-.22056,4.80166-.51332,5.35032-3.37921.56043-2.9274-1.2835-4.45091-3.77683-5.29191-3.692-1.24526-7.4566-2.28521-11.11461-3.61965-5.52694-2.01619-7.925-5.17392-7.94189-10.05137a12.23543,12.23543,0,0,1,8.25026-11.99408c7.30941-2.688,14.12117-1.18273,20.67647,2.51452,1.1313.638,1.34438,1.3092.59351,2.33078a5.60209,5.60209,0,0,0-.31322.50741c-.80131,1.37941-1.28718,3.33766-2.48451,3.98788-1.37762.748-2.65479-1.2471-4.12006-1.77806-3.12522-1.13247-6.231-2.05356-9.63067-1.51547-2.48024.39259-4.13844,1.69429-4.47064,4.13291-.31234,2.29289,1.13,3.82309,3.186,4.50966,3.88389,1.29685,7.88557,2.25288,11.73872,3.62869,8.97951,3.20627,11.29946,14.28426,4.25049,20.08452C1059.56613,337.63058,1055.448,338.04275,1051.07117,338.31773Z"/><path class="cls-2" d="M803.93315,316.30321c-.00007-6.119.08816-12.23992-.04956-18.3558-.046-2.04444.40073-2.72432,2.58657-2.68409q11.73933.21632,23.48471.00481c2.13841-.03571,2.90912.60026,2.59737,2.67689a7.64143,7.64143,0,0,0-.00177,2.10213c.2472,1.88767-.35764,2.61083-2.42127,2.54973-5.21459-.1544-10.43808.01017-15.65554-.086-1.7093-.03149-2.44708.22585-2.47524,2.2344-.11257,8.0332-.19559,8.03206,7.78137,8.03206,2.60965,0,5.22945.14157,7.82557-.04622,1.96709-.14223,2.29885.61326,2.27407,2.37825-.0603,4.29053.03036,4.2917-4.223,4.29185-3.91447.00015-7.8302.05824-11.74269-.02932-1.46048-.03266-1.93892.45424-1.88128,1.88759.09272,2.30344.12728,4.61934-.00845,6.91848-.1075,1.82087.46984,2.44839,2.35465,2.40845,5.41746-.11493,10.84087.03961,16.2581-.08183,1.97842-.04434,2.75693.56686,2.52127,2.54414a16.94493,16.94493,0,0,0-.01353,3.00614c.08052,1.33782-.56675,1.7124-1.80621,1.70825-8.53136-.02873-17.06345-.06551-25.59393.02646-1.84591.01987-1.82863-.92477-1.82327-2.22673C803.94771,329.1431,803.93323,322.7231,803.93315,316.30321Z"/><path class="cls-2" d="M451.56426,316.44912c0-6.21928.07029-12.43988-.04235-18.65709-.03427-1.89524.38727-2.557,2.43325-2.52408q11.89077.19119,23.78625.003c2.02194-.0305,2.71972.60422,2.43649,2.52712a4.94028,4.94028,0,0,0,.001,1.50114c.42058,2.54554-.41712,3.46876-3.17809,3.3205-4.90394-.2634-9.83648.04358-14.74865-.12746-2.19209-.07631-2.77318.66967-2.59671,2.71249.20588,2.38189-.73682,5.53823.46888,6.98252,1.41439,1.69411,4.68292.45913,7.14169.565a66.29581,66.29581,0,0,0,7.82424-.0219c2.08679-.15758,2.65582.66691,2.38715,2.53492a5.059,5.059,0,0,0,.001,1.50128c.32683,2.03-.34021,2.78646-2.54163,2.69016-4.3077-.18849-8.63254.04133-12.94384-.1-1.88128-.06161-2.5248.514-2.32407,2.35984.31029,2.85289-1.24,6.58192.67874,8.33416,1.50607,1.37555,5.146.45479,7.83873.486,3.41213.03953,6.82889.10523,10.23624-.02752,1.86408-.07264,2.62252.55345,2.34819,2.3917a2.26531,2.26531,0,0,0-.00177.30062c-.06816,5.42259.54462,4.49823-4.36358,4.53545-7.427.05626-14.85629-.07212-22.28106.06831-2.17576.04111-2.64935-.65864-2.60693-2.69916C451.64646,328.88936,451.56426,322.66839,451.56426,316.44912Z"/><path class="cls-2" d="M1175.88831,316.23649c0-6.11768.04765-12.236-.02985-18.35268-.02221-1.76447.17779-2.6626,2.36877-2.62233q12.03791.22123,24.082.00423c2.02892-.03336,2.22921.74811,2.21892,2.43193-.02971,4.84769.03868,4.848-4.86372,4.84805-4.51578,0-9.03348.07959-13.54617-.03986-1.74173-.046-2.24893.52192-2.1354,2.1949.175,2.57982-.80381,5.96495.49278,7.54258,1.37042,1.66744,4.88152.42408,7.45425.514,2.60583.09112,5.22092.10269,7.82513-.01047,1.56291-.068,2.20907.42316,2.03172,2.01538a11.95825,11.95825,0,0,0,.00088,2.70364c.19661,1.66357-.59072,1.99-2.08142,1.96383-4.51447-.07925-9.03275.04306-13.54589-.06529-1.67849-.04027-2.28921.41434-2.18186,2.14971.17867,2.89234-.94395,6.69663.50322,8.45132,1.52556,1.84971,5.47047.47016,8.35467.55746,3.30846.10019,6.62633.12113,9.93229-.01525,1.81452-.07485,2.391.42158,2.37759,2.31626-.03514,4.92687.06927,4.92764-4.84166,4.92764-7.12484,0-14.25277-.12173-21.37277.06368-2.60406.06782-3.16463-.80345-3.09846-3.22714C1175.99978,328.47494,1175.88816,322.35417,1175.88831,316.23649Z"/><path class="cls-2" d="M370.55992,316.33048c.00007-6.218.0572-12.43679-.03655-18.65335-.02639-1.75311.32654-2.43468,2.2812-2.40617q12.03922.17571,24.08235.00188c1.87268-.02569,2.34664.48084,2.32627,2.33114-.05456,4.94068.04353,4.94171-4.78313,4.94171-4.51571,0-9.03275.0621-13.5464-.033-1.60673-.03387-2.41914.27832-2.22289,2.09456.28676,2.65411-1.10512,6.11115.60278,7.75653,1.32049,1.27209,4.75056.37977,7.24323.40718,2.60876.02866,5.22378.11206,7.82512-.02994,1.7718-.09671,2.33039.57582,2.12407,2.22793a8.24858,8.24858,0,0,0,.00081,2.10228c.2425,1.7993-.37279,2.44063-2.28708,2.37663-4.41042-.1473-8.83319.06253-13.24273-.09667-1.93893-.07-2.45127.57318-2.26524,2.37013.29565,2.854-1.23924,6.67862.617,8.31773,1.6068,1.41865,5.34047.46648,8.1346.49793,3.41147.03839,6.82721.10258,10.234-.02866,1.761-.0679,2.14738.56928,2.15878,2.221.03456,5.02277.10728,5.02225-5.037,5.02225-7.12478,0-14.25116-.083-21.37351.0492-2.20238.04089-2.951-.50844-2.89089-2.8178C370.66638,328.76917,370.55992,322.54843,370.55992,316.33048Z"/><path class="cls-2" d="M1283.0501,337.77957c-2.81582.88129-4.05315-.92716-5.04136-3.75829-2.3848-6.83375-2.49818-6.79425-9.84052-6.79425-7.42734,0-7.39822.01087-10.01155,7.02925-.4572,1.22778-.29955,3.17394-1.92437,3.404a21.40005,21.40005,0,0,1-6.88544-.047c-1.12409-.21358-.19441-1.60647.13235-2.46352q6.77567-17.76708,13.53133-35.54177c1.57173-4.13787,3.83609-5.31535,8.08291-4.3081,1.036.24573,1.11556.98557,1.38938,1.70135q7.1714,18.74292,14.3366,37.488C1288.07117,337.77023,1288.04617,337.77979,1283.0501,337.77957Zm-14.79982-32.92044c-1.99158,5.443-3.65625,10.13452-5.43842,14.78112-.57351,1.49529-.25543,1.92172,1.31336,1.87109,2.70141-.08715,5.40812-.04824,8.11188-.0169,1.35791.01573,1.78584-.37411,1.26541-1.78879C1271.79093,315.05357,1270.1867,310.36215,1268.25028,304.85913Z"/><path class="cls-2" d="M1363.34189,327.22707c-7.431,0-7.4022.01072-10.014,7.02554-.45749,1.22866-.30235,3.175-1.922,3.40637a21.36077,21.36077,0,0,1-6.88544-.04424c-1.12732-.21347-.19985-1.60527.12662-2.46158q6.77544-17.76714,13.53162-35.54155c1.575-4.1465,3.82138-5.31564,8.08056-4.31214,1.03644.24427,1.12041.981,1.39232,1.69786,4.85092,12.78764,9.63641,25.60081,14.61042,38.34039.88615,2.2696.28808,2.47139-1.74379,2.47749-5.78811.01741-5.788.08325-7.67939-4.94028-2.12657-5.64786-2.12657-5.6479-8.29232-5.6479Zm-5.999-5.74468c3.6786,0,6.96823-.00683,10.25786.00426.97837.00327,1.61291-.29427,1.21983-1.40315-1.71643-4.84269-3.459-9.67608-5.42179-15.15335C1361.25,310.80328,1359.35947,315.97073,1357.3429,321.48239Z"/><path class="cls-2" d="M1622.41053,337.7796c-2.80186.83243-3.98433-.88582-4.95593-3.795-2.2748-6.8117-2.43715-6.75758-9.81434-6.75758-7.38675,0-7.33852.01841-10.0092,7.00809-.462,1.20955-.38087,3.17048-1.956,3.40144a30.12621,30.12621,0,0,1-6.89368.0172c-1.017-.08756-.48955-1.08492-.25984-1.68625q7.47491-19.56824,14.95114-39.13585a2.06393,2.06393,0,0,1,2.15393-1.55056c5.50282-.29077,5.48708-.33578,7.4241,4.767,4.38814,11.55964,8.67907,23.15837,13.26545,34.63909,1.15585,2.89344.5269,3.47864-2.21525,3.09986A16.03708,16.03708,0,0,0,1622.41053,337.7796ZM1607.687,304.91031c-2.01731,5.42252-3.732,10.06982-5.47856,14.70506-.57631,1.52947.04147,1.927,1.49718,1.88987,2.59421-.06617,5.19194-.06294,7.78659-.00525,1.49409.03321,1.9504-.41063,1.40041-1.91313C1611.18753,314.92865,1609.569,310.23873,1607.687,304.91031Z"/><path class="cls-2" d="M582.8881,337.7796c2.54708-6.71176,4.90828-12.94632,7.27889-19.17732,2.66347-7.00089,5.45988-13.95508,7.93357-21.02218.81851-2.33835,2.25179-2.47224,4.12058-2.24789,1.851.22226,3.8341-.8864,4.95562,2.24161,4.48042,12.497,9.366,24.84994,14.18205,37.22489.836,2.14828.95549,3.13484-1.93724,3.04442-5.49532-.17173-5.5001-.01591-7.46653-5.28073-1.99268-5.33533-1.99275-5.35407-7.59991-5.32784-3.00273.01407-6.65566-.91363-8.81576.46321-1.96371,1.25159-2.4659,4.99716-3.30522,7.73735-.57676,1.88278-1.49144,2.56108-3.41853,2.38027C587.02919,337.64777,585.21459,337.7796,582.8881,337.7796Zm13.81852-16.62095c1.66548.58968,3.17413.30662,4.64968.31386,7.13345.035,7.159.007,4.85607-6.667-1.07042-3.102-2.26186-6.16225-3.60867-9.811C600.46831,310.8477,598.59636,315.97882,596.70662,321.15865Z"/><path class="cls-2" d="M1014.85475,337.7796c-2.92156.9212-4.17962-.83184-5.19092-3.87725-2.23569-6.73315-2.41009-6.69-9.27024-6.66775-2.59641.00841-5.83017-.81619-7.60836.41695-1.76246,1.22208-1.93981,4.61364-3.04832,6.94137-.51308,1.07717-.25808,2.93364-1.902,3.08259a35.823,35.823,0,0,1-6.89691-.05423c-.94512-.09818-.36778-1.13383-.13926-1.73228q7.47469-19.56842,14.94468-39.13839a2.04256,2.04256,0,0,1,2.21039-1.46234c5.43194-.24474,5.42033-.28053,7.36264,4.84324,4.418,11.65495,8.76966,23.3361,13.33559,34.933.91351,2.32038.752,3.07444-1.798,2.7248A18.39652,18.39652,0,0,0,1014.85475,337.7796ZM999.9261,304.91806c-1.99481,5.38152-3.78653,10.19886-5.56385,15.02153-.46322,1.25669.18485,1.568,1.31747,1.55448,2.69509-.03207,5.392-.05812,8.08586.007,1.56849.03792,1.87878-.51207,1.355-1.94729C1003.42058,314.89749,1001.79812,310.213,999.9261,304.91806Z"/><path class="cls-2" d="M656.9748,295.28393c7.13757-.0453,12.22775,2.17139,16.03024,7.196.98,1.2948,1.18512,2.22713-.44933,3.069a10.48987,10.48987,0,0,0-1.97929,1.34726c-1.69739,1.44837-2.6884,2.02423-4.42726-.539-3.33221-4.9121-11.72783-5.14472-16.40317-.98653-6.36126,5.65752-5.96046,17.7231.76285,22.9647a11.48247,11.48247,0,0,0,16.65905-2.41054c.8788-1.22451,1.33732-1.22881,2.5456-.56928,5.92421,3.23349,6.08164,4.39921.40191,8.60182-8.93577,6.61175-23.12943,6.17187-30.52258-7.00064A21.34737,21.34737,0,0,1,651.378,296.11111,16.51754,16.51754,0,0,1,656.9748,295.28393Z"/><path class="cls-2" d="M1135.58566,295.28573c7.13822-.05507,12.28944,2.2207,16.10362,7.38625.9138,1.2378,1.05086,2.04635-.459,2.78237a7.86531,7.86531,0,0,0-1.45718,1.0344c-1.92643,1.57209-3.24919,2.5487-5.39576-.4042-3.29214-4.52873-10.97874-4.78511-15.47937-1.22234-7.19441,5.69508-6.79412,18.615.73836,23.83315,5.19989,3.60224,11.97563,2.75753,15.755-2.35536,1.29541-1.7526,1.96334-1.5147,3.48727-.61275,5.2143,3.0862,5.25033,3.03637.89719,7.24673-8.19453,7.9258-22.46716,6.49484-29.656-2.97332-9.19186-12.1064-4.44256-29.01853,9.48744-33.793A16.26192,16.26192,0,0,1,1135.58566,295.28573Z"/><path class="cls-1" d="M1002.994,166.13173a44.87892,44.87892,0,0,0-.10478-10.53836c-.77-7.45965-2.032-14.81445-5.1508-21.72324h0a2.89527,2.89527,0,0,0-.05463-.85513c-12.52723-32.52119-43.67148-56.57286-83.48366-53.9138-23.48116,1.56827-43.044,11.41129-58.54483,29.0906a75.67241,75.67241,0,0,0-16.12184,29.13088,67.22234,67.22234,0,0,0-3.92618,23.64752l45.98646.00058c.7377-6.52539,1.49966-13.04522,4.18272-19.14656.57281-1.30254,1.13438-2.61005,1.70106-3.91527,4.03365-6.70988,9.22644-12.27874,16.49643-15.43288,13.40023-5.81385,32.2415-4.19472,43.72981,10.26721.47147.59348,1.00242,1.13981,1.50579,1.70815h0c5.94,9.54392,8.2493,19.98254,7.68173,31.1304.55034.14595,1.0929.29866,1.6458.41435-.5529-.11569-1.09559-.2684-1.6458-.41435-.41442,4.3025-.77434,8.61534-2.37458,12.69634-2.54087,10.00659-8.03488,17.84441-16.9984,23.14116-.81492.48148-1.593,1.025-2.38823,1.53974a41.65769,41.65769,0,0,1-25.48433,1.84535c-1.84363-.45111-3.63442-1.11722-5.44958-1.68422-10.76823-5.33765-17.056-14.30054-20.62555-25.46263a4.05333,4.05333,0,0,1-.94191.40478,4.051,4.051,0,0,0,.94191-.40484,100.32741,100.32741,0,0,1-1.97687-16.68667q-22.99311-.00038-45.98646-.00064a57.27143,57.27143,0,0,0,1.614,17.31659,70.70952,70.70952,0,0,0,9.74922,25.98458,54.62069,54.62069,0,0,0,9.2401,13.27177,65.26919,65.26919,0,0,0,17.144,15.09453,41.16941,41.16941,0,0,0,7.80259,4.79075c15.81628,8.37068,32.71028,10.409,50.22406,8.125a74.94013,74.94013,0,0,0,33.67925-12.91191,62.63583,62.63583,0,0,0,16.48124-14.00578,61.37056,61.37056,0,0,0,10.44838-14.298,74.95721,74.95721,0,0,0,9.66958-25.48177,46.36549,46.36549,0,0,0,1.33425-12.72417Z"/><path class="cls-1" d="M1574.62806,243.6766c-1.41389-3.72345-2.182-7.68575-4.14545-11.20453-1.30515-5.53664-3.49683-10.77563-5.413-16.10716q-2.42083-6.97277-4.8418-13.9456-4.19881-12.06484-8.39825-24.12958-4.61061-13.26733-9.22108-26.53467c-1.62551-5.68-3.61145-11.23555-5.78462-16.72642a3.78371,3.78371,0,0,0-.0924-.85462c-6.0746-17.51594-12.19323-35.0167-18.18984-52.55932-.61837-1.809-1.72072-1.71619-3.08127-1.71517-12.00943.00862-24.02014.10313-36.02715-.07128-2.65319-.03854-3.61145.99259-4.34915,3.264-2.06673,6.36406-4.33435,12.663-6.51914,18.98874q-6.08416,17.61375-12.164,35.229-3.899,11.25534-7.79813,22.51066c-1.99576,5.69074-4.07513,11.62061-6.07332,17.31837h-.00025q-.03906.1121-.07837.22412l-.00842.02419h0q-4.37,12.50595-8.73915,25.012-2.1668,6.34751-4.33281,12.69513h-.03013a153.10815,153.10815,0,0,0-5.59725,16.27473c-1.43393,3.93078-2.82537,7.87783-4.3221,11.78455-.63419,1.65576.21455,1.74484,1.46559,1.7437q21.29631-.02058,42.59275.01723a2.25134,2.25134,0,0,0,2.58427-1.993c.96068-3.68835,3.18286-10.98673,3.18286-10.98673,1.553-5.19369,3.51062-11.66247,5.06363-16.85622l-.0984.00006c.84185-2.3546,2.91241-2.56685,5.60644-2.52026q17.16508.29636,34.33784-.00243c3.14023-.056,5.34007.372,5.93573,3.812,1.24683,5.53822,3.18809,10.86541,4.9434,16.24914,1.0282,3.37724,2.22946,6.71492,3.015,10.14762.42526,1.85818,1.27146,2.21082,2.952,2.19666,7.96009-.06688,15.92107-.02974,23.8818-.02974,6.04243,0,12.08524.02323,18.12729-.0328C1573.6924,244.8926,1575.3405,245.55354,1574.62806,243.6766Zm-92.5415-61.43268c.39987-1.58154.77638-3.0708,1.15136-4.5538h0c1.76973-5.55833,3.87168-11.55858,5.03044-17.29521,2.71037-7.37554,4.76179-14.95382,6.92615-22.49726.53235-1.6091,1.0647-3.21815,1.6093-4.86446,1.238.2254.546,1.60311,1.352,1.99124a171.46911,171.46911,0,0,0,4.92847,17.4213,4.43822,4.43822,0,0,1,.461-.2319,4.42512,4.42512,0,0,0-.461.232c2.29978,8.95541,4.827,17.84548,7.67291,26.64385v.00013c.18481,1.02277.36962,2.04561.56988,3.15414Z"/><path class="cls-2" d="M899.03462,295.31979c5.016,0,10.03382.0765,15.0471-.03979,1.86282-.04321,2.59376.32906,2.549,2.40952-.10411,4.85356.01986,4.83788-4.8729,4.86326-2.80252.01459-6.56795-.979-8.15512.436-1.84518,1.645-.5355,5.482-.56484,8.36146-.08066,7.91977-.09912,15.842.019,23.76083.03162,2.1226-.609,2.71517-2.70752,2.69092-5.46172-.06308-5.46282.03733-5.46282-5.503,0-9.02347-.09463-18.04864.06456-27.06932.04139-2.346-.67153-2.879-2.84634-2.73035-2.79589.191-5.62046-.06135-8.4218.08488-1.81055.0945-2.39884-.40174-2.3909-2.30047.02073-4.96346-.08213-4.9639,4.80136-4.9639Q892.56394,295.31977,899.03462,295.31979Z"/><path class="cls-1" d="M1354.5734,188.66593c-.265-4.5406-.9363-9.06212-3.03072-13.21893a33.18161,33.18161,0,0,0-11.56758-15.61348,41.42965,41.42965,0,0,0-10.17563-6.83821c-15.05216-7.79193-31.52357-11.58315-47.51522-16.72559a49.98111,49.98111,0,0,1-5.23784-3.83282c-4.52133-4.2637-2.97393-10.50371,2.96065-12.37925a28.38127,28.38127,0,0,1,12.79934-.75117c13.099,1.90024,24.93488,7.237,36.33041,13.64286,1.85984,1.04555,2.43545.82858,3.35516-.96106q8.79927-17.12584,17.83515-34.12973c.74818-1.409.35775-1.62206-.87057-2.16041-3.85637-1.69009-7.5786-3.68847-11.44607-5.35055-17.66617-7.59244-35.79512-13.1964-55.36248-11.564-16.798,1.40132-31.78087,7.072-43.08336,20.14182-9.5034,10.98967-13.0555,24.01913-12.01441,38.39529.06611,8.57642,2.1927,16.45514,7.8442,23.14038a3.90327,3.90327,0,0,0,.48308,1.0081,58.95286,58.95286,0,0,0,24.44133,15.73843c8.06423,3.80608,16.66771,6.03062,25.15874,8.59058,5.6783,1.71191,11.53682,3.102,16.4492,6.6019,5.22841,3.725,5.10716,8.67093-.04275,12.34179-1.67312.32788-3.33845.70369-5.02075.97478-4.8681.78448-9.69434-.12055-14.53538-.42073a126.69624,126.69624,0,0,1-16.53012-4.6974,150.3149,150.3149,0,0,1-24.29532-11.702c-.76591-.45718-1.64606-1.74772-2.47413-.00728q-4.06556,8.544-8.13749,17.08487h0a141.444,141.444,0,0,0-6.33611,12.85665c-1.95225,2.274-2.50029,5.26223-3.95656,7.79149a1.21326,1.21326,0,0,0,.57778,1.88957c3.57125,1.79986,6.951,3.995,10.80741,5.20339,6.18908,3.31764,12.88473,5.31838,19.57591,7.231,18.50457,5.28934,37.27551,7.95268,56.5072,4.82075,10.60843-1.72768,20.64635-4.929,29.16955-11.82686a39.13,39.13,0,0,0,12.10069-14.67061,32.56959,32.56959,0,0,0,4.46734-13.28823C1355.234,200.26312,1354.91035,194.4464,1354.5734,188.66593Z"/><path class="cls-1" d="M1164.00277,243.18273c-2.39665-3.898-4.67461-7.86915-7.00081-11.81065-2.79716-5.48845-5.895-10.80441-9.19785-16.00269a114.94256,114.94256,0,0,0-7.08173-12.26674c-3.17406-5.65533-6.29068-11.34416-9.56288-16.94224-.81173-1.38856-.7275-2.09545.58327-3.01784a33.74414,33.74414,0,0,0,6.88072-6.45334,44.6768,44.6768,0,0,0,9.41329-14.01081,38.30537,38.30537,0,0,0,3.52759-9.07361c1.9696-7.63437,3.01413-15.353,1.53515-23.2259a53.42726,53.42726,0,0,0-11.08552-27.569c-10.9829-14.52619-25.4006-22.80223-43.94257-22.862-24.2435-.07811-48.48713.02617-72.73025-.08462-2.61158-.01187-3.1752.75143-3.16231,3.21911.10185,19.42135.062,38.8434.08079,58.26526.001,1.05525.07684,3.39843.141,5.00339a144.709,144.709,0,0,0,.04148,16.32189,81.71685,81.71685,0,0,0-.00612,13.31886c-.3372,9.75126-.36043,21.39912-.05054,31.31451a94.407,94.407,0,0,0,.03994,13.11894,145.72125,145.72125,0,0,0,.02808,16.12885c-.06037,1.527-.1649,3.05389-.17281,4.58118-.01953,3.751-.00166,3.75344,3.61745,3.75382q17.27765.00192,34.55506.00051c8.05555,0,8.05555,0,7.18817-8.33545a144.22824,144.22824,0,0,0,.02795-16.13,94.59443,94.59443,0,0,0,.03153-13.27566c.07147-3.39894.16528-7.93794.15226-10.915-.006-1.35295.38953-1.84337,1.79283-1.82015q6.76.11172,13.5225-.00287a2.20745,2.20745,0,0,1,2.16756,1.43189c1.50834,2.64228,3.09505,5.23983,4.65125,7.85492a103.62807,103.62807,0,0,0,6.9296,12.111l9.24227,16.161c2.0061,3.57373,4.09644,7.10375,5.9804,10.74059a3.67888,3.67888,0,0,0,3.8191,2.22346c12.75391-.08353,25.50858-.04359,38.263-.04365,2.8768-.00006,5.75386-.0051,8.63066.00115C1164.09824,244.89343,1165.03046,244.85374,1164.00277,243.18273Zm-58.32045-96.54529c-1.93,5.23791-5.70179,7.99965-11.25169,8-8.06755.00057-16.136-.0554-24.2024.04179-1.8661.02247-2.53718-.464-2.40176-2.38376.15622-2.21433.03522-4.44819.01965-6.67471.01251-7.43183.05846-16.34813-.02476-23.50318-.02208-1.89551.58047-2.43022,2.43928-2.41025,8.14362.08756,16.2912-.08028,24.43291.07671,5.97925.11525,9.07609,4.225,11.47632,9.0461.25169.50522.412,1.05582.61467,1.58537A30.577,30.577,0,0,1,1105.68232,146.63744Z"/><path class="cls-1" d="M830.1036,207.02794c-3.00418-1.66284-5.95845-3.41591-8.932-5.13395q-12.89889-7.78029-25.788-15.57679c-.82284-.4998-1.24134-.62-1.65333.44754-2.68344,6.95487-7.84318,11.62737-14.17648,15.1944-11.75354,5.21807-23.48512,5.62291-35.18811-.161-2.52531-1.99864-5.34021-3.59677-7.67318-5.8746-5.24576-5.12158-8.36353-11.46892-10.83529-18.21805a108.95885,108.95885,0,0,1-2.19238-16.15584c.78167-10.88,3.4006-21.14347,10.22056-29.997,1.76054-1.61721,3.4341-3.34323,5.29649-4.83345,9.15108-7.32193,19.67348-8.46,30.76308-6.45187,11.03472,1.99826,19.57783,7.56826,24.27516,18.06412.99322,2.21912,1.82639.87364,2.67514.27294,10.40014-7.3606,20.74794-14.79555,31.1828-22.10613,1.522-1.06616,1.62652-1.75511.70758-3.334-7.306-12.5548-17.71033-21.89279-31.06052-27.12292-29.92819-11.72443-58.92868-9.998-85.8906,8.58676a75.75878,75.75878,0,0,0-28.12386,35.81363c-4.11706,9.963-6.44881,20.25733-5.90414,31.08516a55.98224,55.98224,0,0,0,1.86685,17.29,73.22109,73.22109,0,0,0,9.20405,24.28351,59.16252,59.16252,0,0,0,9.1004,13.30872,73.59271,73.59271,0,0,0,24.40406,20.10768c.88608.55858,1.73234,1.19641,2.66417,1.66386,16.571,8.31286,34.03624,9.91118,52.07254,6.69922,8.69179-1.54784,17.16509-3.88917,24.94279-8.25925,9.66741-4.57583,18.09322-10.68737,24.26-19.59263a37.96754,37.96754,0,0,0,4.61463-7.86577C831.54072,207.92557,831.06708,207.56125,830.1036,207.02794Z"/><path class="cls-2" d="M1167.14571,316.70458c0,6.21222-.08868,12.42643.05044,18.63553.04558,2.04154-.63734,2.469-2.5373,2.45643-5.63576-.03711-5.63635.044-5.63635-5.71859,0-11.32228.05794-22.64512-.05029-33.96638-.02074-2.16958.41484-2.92585,2.75964-2.85655,5.40974.15983,5.41386.02039,5.41386,5.51819Z"/><path class="cls-2" d="M1531.56132,316.38529c0,6.31242-.0825,12.62653.04824,18.93626.04147,2.0055-.581,2.49244-2.51642,2.47782-5.65444-.04273-5.655.04449-5.655-5.70272,0-11.32228.054-22.645-.04765-33.96641-.01912-2.13336.3594-2.949,2.73847-2.87721,5.428.16384,5.43238.019,5.43238,5.50152Z"/><path class="cls-2" d="M921.99169,316.43971c0-6.21226.06632-12.42562-.04029-18.636-.03213-1.86653.343-2.56923,2.41355-2.54193,5.74877.07573,5.75024-.03362,5.75024,5.81967,0,11.22212-.05838,22.44476.04868,33.66586.02169,2.27768-.475,3.1398-2.94464,3.06647-5.22327-.15506-5.22746-.01268-5.22746-5.14207Q921.99177,324.55569,921.99169,316.43971Z"/><path class="cls-2" d="M578.05747,316.48575c0,6.31245-.06618,12.626.04169,18.93666.031,1.8112-.42154,2.376-2.30929,2.38056-5.856.01415-5.8559.104-5.8559-5.80681.00007-11.32232.07559-22.6456-.06184-33.96626-.02831-2.33368.67065-2.81673,2.85288-2.76364,5.32981.1297,5.33253.01914,5.33253,5.28808Q578.05754,308.52,578.05747,316.48575Z"/><path class="cls-1" d="M1408.03776,236.5583h.00025q-.00267-4.62027-.00536-9.24029h-.00025q.00191-2.59726.00408-5.19439l-.0023-5.76541c.03217-4.22107.04863-8.44234.10709-12.6631.01467-1.05774-.01545-1.79149-1.46151-1.785q-16.56585.075-33.13223.01091c-1.09609-.00268-1.55327.34071-1.52621,1.47854.10364,4.31017.14908,8.62173.21621,12.93272a16.74053,16.74053,0,0,0-.00447,5.76388,13.3956,13.3956,0,0,0,.00855,5.23683,40.39246,40.39246,0,0,0-.0111,9.23122c-.05909,1.81453-.0365,3.6364-.19821,5.44174-.19477,2.17726.51614,2.95868,2.85625,2.91764,8.44036-.14811,16.88494-.0185,25.32747-.08238,2.55211-.01927,5.99151,1.14064,7.4271-.49578C1409.17112,242.60335,1408.098,239.22476,1408.03776,236.5583Z"/><path class="cls-1" d="M1626.86818,236.5583h.00025q-.00267-4.62027-.00536-9.24029h-.00025q.00192-2.59726.00408-5.19439l-.00229-5.76541c.03216-4.22107.04862-8.44234.10708-12.6631.01468-1.05774-.01545-1.79149-1.4615-1.785q-16.56586.075-33.13223.01091c-1.0961-.00268-1.55327.34071-1.52622,1.47854.10364,4.31017.14908,8.62173.21621,12.93272a16.74078,16.74078,0,0,0-.00447,5.76388,13.39541,13.39541,0,0,0,.00856,5.23683,40.39189,40.39189,0,0,0-.01111,9.23122c-.05909,1.81453-.0365,3.6364-.19821,5.44174-.19476,2.17726.51614,2.95868,2.85625,2.91764,8.44037-.14811,16.88494-.0185,25.32747-.08238,2.55211-.01927,5.99151,1.14064,7.4271-.49578C1628.00154,242.60335,1626.92842,239.22476,1626.86818,236.5583Z"/><path class="cls-1" d="M658.39912,175.95989a201.08322,201.08322,0,0,0,.0127-20.752,167.13447,167.13447,0,0,0-.01334-18.49015,2.19414,2.19414,0,0,0,.15029-.55373c.01793-18.0631-.005-36.12639.08047-54.18917.0111-2.33762-1.3437-2.05179-2.79684-2.0509-13.26724.00836-26.53563.095-39.80089-.06975-2.71732-.03369-3.12319.90459-3.10583,3.27482.09713,13.25869.03076,26.51852.05781,39.77785.00939,4.60422.12617,9.20825.19381,13.81235a167.05062,167.05062,0,0,0-.01333,18.48632c-.13083,2.39391-.26178,4.78788-.42106,7.70183l-7.71906-9.56869q-7.72294-9.72949-15.44577-19.459c-2.42154-3.14418-4.81251-6.31256-7.26992-9.42848q-16.881-21.405-33.76694-42.80621a4.10123,4.10123,0,0,0-3.62146-1.77394c-10.28087.06592-20.563.09674-30.843-.01761-2.16232-.02406-2.75159.56361-2.73991,2.72626.08959,16.70874.04945,33.41812.06088,50.12738a15.53634,15.53634,0,0,0,.18366,1.70489,189.247,189.247,0,0,0-.01372,19.6403c-.37039,7.30285-.32521,14.60545.0157,21.90779q-.535,12.70209.00063,25.40424a78.8193,78.8193,0,0,0,.00409,12.72059,160.47251,160.47251,0,0,0-.00115,17.86272c-.054,3.73384-.069,7.46884-.18175,11.20089-.04384,1.44785.63344,1.75684,1.91211,1.75442q20.87733-.03926,41.75466,0c1.27867.00242,1.95581-.30676,1.9121-1.75448-.11289-3.732-.12776-7.467-.18188-11.20083a160.47741,160.47741,0,0,0-.00108-17.8638,78.78362,78.78362,0,0,0,.00408-12.71715q.54189-12.70334.00064-25.40679v-10.745l.75034-.1612q4.76721,5.75919,9.53436,11.51844,11.22986,13.91,22.45973,27.8201v-.00006q4.89566,5.99859,9.7914,11.99718c4.07225,5.36625,8.25989,10.63919,12.71651,15.69433a4.26128,4.26128,0,0,0,1.77764,2.19443c2.47815,3.14993,4.96618,6.292,7.42748,9.455a2.87525,2.87525,0,0,0,2.47387,1.16744c10.95929-.02061,21.91858-.036,32.87768.01264,1.52314.00676,2.02467-.52425,1.96679-2.0077-.11978-3.06621-.11468-6.13733-.16082-9.2064a3.0363,3.0363,0,0,0-.00848-2.38083,113.25662,113.25662,0,0,0-.01168-14.95778,85.876,85.876,0,0,0,.00185-13.26449Q658.94413,189.52785,658.39912,175.95989Z"/><path class="cls-2" d="M581.3249,283.40328c-1.67048,2.67979-3.14457,4.99976-4.56814,7.35023a1.57972,1.57972,0,0,1-2.22708.70791c-1.19049-.4553-2.4301-.78246-3.65933-1.16854C574.177,283.041,574.177,283.041,581.3249,283.40328Z"/><path class="cls-3" d="M308.90779,148.99708a147.08358,147.08358,0,0,1-.58967,21.45991,155.30024,155.30024,0,0,1-46.0848,94.96475c-5.92191,5.76654-12.28272,11.05452-18.72453,16.23562a2.66454,2.66454,0,0,1,.55918-1.97777c.7804-1.31146,1.57255-2.61938,2.278-3.97144a116.49179,116.49179,0,0,0,8.65872-21.33375c1.67259-5.73669,3.16024-11.49952,4.37959-17.34231,1.12377-5.38473,1.586-10.86579,2.42064-16.29263.41348-2.68825.51834-5.424.76282-8.13819a12.82371,12.82371,0,0,0-.96925,2.98936c-1.37709,5.811-3.00843,11.54771-4.70771,17.27523-1.43271,4.829-3.10492,9.56235-4.93648,14.23226a192.40893,192.40893,0,0,1-11.353,24.24444,144.01391,144.01391,0,0,1-13.19695,19.728c-1.4165,1.76059-3.206,3.253-4.14456,5.3851-6.07223,4.266-12.52718,7.90588-18.9526,11.59581a9.56269,9.56269,0,0,0-3.054,1.9764,6.113,6.113,0,0,0-1.77675.64363c-4.5181,2.38464-9.03786,4.77236-13.63221,7.0048q-8.29638,4.03125-16.81556,7.58733c-5.84421,2.43032-11.68752,4.854-17.63,7.0414a35.77145,35.77145,0,0,0-8.78171,4.35414,6.549,6.549,0,0,0-2.05425,8.9435,1.874,1.874,0,0,1,.3131,1.32186c-1.85-1.02442-2.74334-2.84215-3.619-4.59762-3.82886-7.676-6.71189-15.75915-10.06675-23.63994-.98837-2.32172-1.921-4.668-2.83646-7.01962-.932-2.394-.31244-3.646,2.14864-4.37215A295.07284,295.07284,0,0,0,178.45,286.595a237.855,237.855,0,0,0,49.49171-33.4923c10.66571-9.49118,20.35136-19.85947,28.19611-31.8211a120.50991,120.50991,0,0,0,18.12788-46.03646A116.86783,116.86783,0,0,0,276.154,153.5312a120.96444,120.96444,0,0,0-25.3966-73.40591,141.373,141.373,0,0,0-15.82393-16.97762,1.79868,1.79868,0,0,1,1.57432.58087c2.22483,1.71994,4.49281,3.384,6.72426,5.09555a277.51221,277.51221,0,0,1,22.45564,19.18408,216.00422,216.00422,0,0,1,21.10258,23.145,148.002,148.002,0,0,1,22.11752,37.84387Z"/><path class="cls-4" d="M52.1701,38.80507A139.655,139.655,0,0,1,76.66168,21.03879,156.55769,156.55769,0,0,1,127.35074,2.45227a153.81319,153.81319,0,0,1,90.56346,11.154c-.45649.1158-.90689.26021-1.36837.34337A711.61279,711.61279,0,0,0,143.25276,30.697,168.29609,168.29609,0,0,0,126.196,36.23885a136.88644,136.88644,0,0,0-20.47665,6.97993,122.13734,122.13734,0,0,0-71.929,96.81252c-.04153.34549.01581.71384-.29427.9753-.26334-3.44812-.72481-6.89453-.74855-10.34392-.04972-7.22532-.23667-14.44693.19209-21.68153a189.97437,189.97437,0,0,1,2.88052-23.88272A158.17355,158.17355,0,0,1,46.0615,51.49319C47.92513,47.17485,50.1386,43.03632,52.1701,38.80507Z"/><path class="cls-5" d="M52.1701,38.80507c-2.0315,4.23125-4.245,8.36978-6.1086,12.68812A158.17355,158.17355,0,0,0,35.82014,85.09843a189.97437,189.97437,0,0,0-2.88052,23.88272c-.42876,7.2346-.24181,14.45621-.19209,21.68153.02374,3.44939.48521,6.8958.74855,10.34392-.17954,5.10146-.73686,10.18106-.6813,15.29871.08859,8.15951,1.61658,16.09558,3.44681,23.99529,2.512,10.84254,5.734,21.44786,10.93168,31.346a117.29029,117.29029,0,0,0,16.23439,23.40285A159.61252,159.61252,0,0,0,81.5119,253.09654a2.49074,2.49074,0,0,1,.427.72471c-1.13661-.03671-1.89327-.848-2.74867-1.40891a356.49567,356.49567,0,0,1-46.747-35.98657A220.16592,220.16592,0,0,1,6.3669,188.25362c-1.119-1.46922-1.94362-3.19467-3.50371-4.31072A118.008,118.008,0,0,1,.42705,166.205a161.78225,161.78225,0,0,1-.194-20.44237,148.71478,148.71478,0,0,1,4.65529-29.8727A155.93134,155.93134,0,0,1,26.0392,68.67763,152.84138,152.84138,0,0,1,42.15751,48.439C45.34669,45.06086,48.66828,41.846,52.1701,38.80507Z"/><path class="cls-6" d="M2.86319,183.9429c1.56009,1.11605,2.38474,2.8415,3.50371,4.31072a220.16592,220.16592,0,0,0,26.07636,28.17215,356.49567,356.49567,0,0,0,46.747,35.98657c.8554.56089,1.61206,1.3722,2.74867,1.40891l-.01413.03548c.0454.42038.315.488.66789.42458l-.01046-.0052c.04643.3002.26168.3709.52046.38239a153.95091,153.95091,0,0,0,26.74738,16.90067,149.48266,149.48266,0,0,0,46.4971,13.471c2.46557.30818,4.93956.5494,7.83057.868-4.39075,2.14993-8.5244,3.875-12.66465,5.59166a303.09551,303.09551,0,0,1-34.80292,11.84376,6.0631,6.0631,0,0,1-3.44525.11941,155.52225,155.52225,0,0,1-59.62755-31.88559A154.02912,154.02912,0,0,1,2.86319,183.9429Z"/><path class="cls-3" d="M167.79063,389.136a36.06921,36.06921,0,0,1-8.77153-.17005,5.354,5.354,0,0,1-4.25029-3.58368c-2.32963-5.88178-4.56046-11.803-6.78378-17.72619-.84352-2.24724.06058-4.58339,2.16852-6.37428,2.66835-2.26705,6.02828-2.83094,9.20054-3.81594,17.93309-5.5683,35.51155-12.11061,52.9119-19.14461.38806-.15687,1.16721-.07271,1.05564-.90056a9.1441,9.1441,0,0,0,5.04731-1.81794c9.21311-3.52208,18.205-7.5586,27.1635-11.67235,4.48243-2.05834,9.00748-4.03236,13.42192-6.228,4.67327-2.32437,9.54066-4.29916,13.761-7.48546,1.41508-1.06836,2.39015-2.22173,2.30192-4.06238a3.74289,3.74289,0,0,1,2.08147,2.867c1.85713,7.941,3.80453,15.86287,5.517,23.835.8489,3.95207-1.48025,6.70851-4.50992,8.66593-4.93946,3.19137-10.41072,5.40195-15.73025,7.87765-8.51233,3.96161-17.19664,7.52872-25.84375,11.18082q-6.65711,2.70646-13.31442,5.41193a73.56217,73.56217,0,0,0-8.41018,3.48218,6.6488,6.6488,0,0,0-1.38.21487c-7.28021,2.75682-14.54711,5.54859-21.82738,8.30511-6.54734,2.479-13.11457,4.90567-19.65611,7.39979a19.77069,19.77069,0,0,0-4.194,1.77864C166.674,387.8973,166.44142,388.50847,167.79063,389.136Z"/><path class="cls-1" d="M126.196,36.23885A168.29609,168.29609,0,0,1,143.25276,30.697,711.61279,711.61279,0,0,1,216.54583,13.9496c.46148-.08316.91188-.22757,1.36837-.34337a142.95992,142.95992,0,0,1,24.38914,13.63959A149.85538,149.85538,0,0,1,267.258,48.65542a151.96536,151.96536,0,0,1,22.60062,31.095,156.13946,156.13946,0,0,1,16.01037,43.23416c.13219.62835.185,1.27341.27422,1.90974-1.32966-2.0042-2.62347-4.03195-3.99387-6.00661a148.84266,148.84266,0,0,0-24.83913-27.05462,305.39312,305.39312,0,0,0-46.197-32.78844c-.65478-.38565-1.22859-1.13215-2.16721-.88717l.02432.02354c.16434-.68929-.2909-.33823-.54534-.32437a129.39214,129.39214,0,0,0-26.94583-15.46751A122.06513,122.06513,0,0,0,165.21162,33.398a120.66806,120.66806,0,0,0-37.62734,2.60429C127.127,36.10538,126.659,36.16107,126.196,36.23885Z"/><path class="cls-7" d="M218.36894,335.60278a9.14427,9.14427,0,0,1-5.04731,1.818c-7.70471,1.14918-15.405,2.33179-23.11612,3.4395q-18.09513,2.59931-36.20248,5.11411c-3.88625.54435-7.78029,1.0331-11.67084,1.54729a.85349.85349,0,0,0-.86871-.2514l-.09792.01035-.06416-.0751q-.21569-.15116-.43055-.30213l.00479.02105a1.87356,1.87356,0,0,0-.313-1.32178,6.549,6.549,0,0,1,2.05425-8.9435,35.77145,35.77145,0,0,1,8.78171-4.35414c5.94252-2.18736,11.78583-4.61108,17.63-7.0414q8.52318-3.54431,16.81556-7.58733c4.59435-2.23244,9.11411-4.62016,13.63221-7.0048a6.113,6.113,0,0,1,1.77675-.64363,63.88019,63.88019,0,0,1,8.61921-1.27339,6.12463,6.12463,0,0,0,.23049,1.9002c1.066,3.21608,2.04814,6.46,3.116,9.67548C214.912,325.42881,216.64994,330.51266,218.36894,335.60278Z"/><path class="cls-8" d="M214.80723,369.47521a73.56217,73.56217,0,0,1,8.41018-3.48218q6.65948-2.70031,13.31442-5.41193c4.74712.26133,9.50939.36481,14.23761.82082,7.14016.68856,14.32022.92827,21.432,1.90952,3.72269.51359,4.97782,3.57285,2.62068,6.53122-3.21055,4.02933-6.33861,8.12324-9.81683,11.94241-1.93136,2.12064-3.4679,4.57106-6.01306,6.12327a11.963,11.963,0,0,1-6.36707,1.7044c-10.24375-.001-20.48751-.08968-30.73124-.15318a4.15707,4.15707,0,0,1-.69054-.11919Q218.00533,379.40779,214.80723,369.47521Z"/><path class="cls-8" d="M218.36894,335.60278c-1.719-5.09012-3.45691-10.174-5.15015-15.27266-1.06783-3.21546-2.05-6.4594-3.116-9.67548a6.12463,6.12463,0,0,1-.23049-1.9002,75.38213,75.38213,0,0,1,9.36408-1.20522c10.952-1.14573,21.92838-1.94757,32.9448-2.207,6.868-.16172,13.72958-.37128,20.59007.15152a.8651.8651,0,0,0,1.177.2477l.0344-.03583c.08119.714.58084.51534,1.01249.465l.02212-.01581c.08825,1.84048-.88682,2.99385-2.3019,4.06221-4.22034,3.1863-9.08773,5.16109-13.761,7.48546-4.41444,2.1956-8.93949,4.16962-13.42192,6.228C236.574,328.04418,227.58205,332.0807,218.36894,335.60278Z"/><path class="cls-7" d="M214.80723,369.47521q3.19807,9.93258,6.3962,19.86516a26.46975,26.46975,0,0,1-4.92174.13066c-7.882.02209-15.7681.161-23.64515-.03938-7.7012-.1958-15.39919-.06212-23.09777-.15995-.58337-.00738-1.16581-.08848-1.7484-.1355-1.349-.62773-1.11641-1.2389-.0406-1.96258a19.77069,19.77069,0,0,1,4.194-1.77864c6.54154-2.49412,13.10877-4.92077,19.65611-7.39979,7.28027-2.75652,14.54717-5.54829,21.82738-8.30511A6.6488,6.6488,0,0,1,214.80723,369.47521Z"/><path class="cls-8" d="M228.94591,58.1575c.93862-.245,1.51243.50152,2.16721.88717a305.39312,305.39312,0,0,1,46.197,32.78844,148.84266,148.84266,0,0,1,24.83913,27.05462c1.3704,1.97466,2.66421,4.00241,3.99387,6.00661a120.89208,120.89208,0,0,1,2.76458,24.10273,147.9995,147.9995,0,0,0-22.11747-37.84386,216.00422,216.00422,0,0,0-21.10258-23.145,277.51221,277.51221,0,0,0-22.45564-19.18408c-2.23145-1.71154-4.49943-3.37561-6.72426-5.09555a1.79868,1.79868,0,0,0-1.57432-.58087l.02473.00749-.37914-.3786.02745.02477-.42535-.38424A43.29237,43.29237,0,0,1,228.94591,58.1575Z"/><path class="cls-6" d="M223.25976,296.45562c.93855-2.13211,2.72806-3.62451,4.14456-5.3851a144.01391,144.01391,0,0,0,13.19695-19.728,192.40893,192.40893,0,0,0,11.353-24.24444c1.83156-4.66991,3.50377-9.40327,4.93648-14.23226,1.69928-5.72752,3.33062-11.46419,4.70771-17.27523a12.82371,12.82371,0,0,1,.96925-2.98936c-.24448,2.71423-.34934,5.44994-.76282,8.13819-.83466,5.42684-1.29687,10.9079-2.42064,16.29263-1.21935,5.84279-2.707,11.60562-4.37959,17.34231a116.49179,116.49179,0,0,1-8.65872,21.33375c-.70543,1.35206-1.49758,2.66-2.278,3.97144a2.66454,2.66454,0,0,0-.55918,1.97777q-.15754.10809-.315.21551l-.42021.42253A174.38964,174.38964,0,0,1,223.25976,296.45562Z"/><path class="cls-3" d="M274.99514,306.17061c-.43165.05032-.9313.249-1.01249-.465A1.07153,1.07153,0,0,1,274.99514,306.17061Z"/><path class="cls-3" d="M273.94825,305.74142a.8651.8651,0,0,1-1.177-.2477A1.53058,1.53058,0,0,1,273.94825,305.74142Z"/><path class="cls-5" d="M82.59267,254.28131c-.35293.06346-.62249-.0042-.66789-.42458C82.31039,253.7422,82.52614,253.89463,82.59267,254.28131Z"/><path class="cls-8" d="M228.42489,57.85668c.25444-.01387.70968-.36493.54534.32437Z"/><path class="cls-3" d="M141.46348,347.27024a.85349.85349,0,0,1,.86871.2514C141.99634,347.59774,141.67229,347.63285,141.46348,347.27024Z"/><path class="cls-3" d="M234.57906,62.77656l.37914.3786A.39129.39129,0,0,1,234.57906,62.77656Z"/><path class="cls-3" d="M234.18116,62.41709l.42535.38424Z"/><path class="cls-5" d="M83.10267,254.6585c-.25878-.01149-.474-.08219-.52046-.38239Q82.84239,254.46736,83.10267,254.6585Z"/><path class="cls-3" d="M140.87085,346.90336q.21509.151.43055.30213A.357.357,0,0,1,140.87085,346.90336Z"/><path class="cls-3" d="M242.77353,282.2954l.42024-.42253Z"/><path class="cls-5" d="M116.73117,189.12451a4.52845,4.52845,0,0,1-1.81607-5.06445q4.22747-21.42952,8.27573-42.8943,4.85527-25.46537,9.65743-50.94084c.46-2.43145,1.44931-3.52217,3.36269-3.62058,2.05449-.10564,3.09441.67257,3.828,3.08586q6.77391,22.2852,13.50471,44.58349c.01739.05748.01941.11945.034.178,1.312,5.24529,3.91744,5.126,7.40554,2.74,10.79644-7.385,21.7638-14.52024,32.64028-21.78909a4.28048,4.28048,0,0,1,4.425-.55455c1.5842.71849,1.76694,2.1651,1.74955,3.67744-1.218,5.45923-2.46592,10.912-3.64782,16.379q-3.79569,17.55744-7.53729,35.12656-2.80116,13.064-5.60686,26.12692c-1.78091,8.2347-3.594,16.46245-5.38284,24.69547a2.79917,2.79917,0,0,1-3.19257,2.5041c-.60409-.03236-1.21157-.00133-1.81751.00075a5.98,5.98,0,0,1-1.99589-3.7373q-4.2927-21.04152-8.68852-42.06194a11.24239,11.24239,0,0,0-.38584-1.19432c-.06528-3.355-1.98995-4.77152-5.08-3.59618-2.42516.92243-4.7861,2.01645-7.162,3.06484-8.56807,3.7807-17.1083,7.62571-25.71035,11.3273C121.417,188.096,119.33137,189.58093,116.73117,189.12451Z"/><path class="cls-9" d="M172.61316,223.35831c.60594-.00208,1.21342-.03311,1.81751-.00075a2.79917,2.79917,0,0,0,3.19257-2.5041c1.78881-8.233,3.60193-16.46077,5.38284-24.69547q2.82425-13.059,5.60686-26.12692,3.76606-17.56383,7.53729-35.12656c1.1819-5.467,2.42978-10.9198,3.64782-16.379,1.79985.89651,2.24806,2.34489,1.84136,4.23406q-3.5868,16.66058-7.13326,33.3298-6.64391,30.927-13.3101,61.84907-.66771,3.10045-1.37985,6.19136c-.54709,2.37343-1.55939,3.25038-3.65408,3.21125-1.93122-.036-2.92349-.98512-3.42019-3.27547C172.69118,223.83149,172.65572,223.59415,172.61316,223.35831Z"/><path class="cls-9" d="M116.73117,189.12451c2.6002.45642,4.68581-1.02847,6.8594-1.9638,8.60205-3.70159,17.14228-7.5466,25.71035-11.3273,2.37592-1.04839,4.73686-2.14241,7.162-3.06484,3.09-1.17534,5.01469.24114,5.08,3.59618a4.3339,4.3339,0,0,0-3.47432.346q-17.61552,7.78978-35.25721,15.52056c-.27595.1213-.55936.22569-.83951.33742C118.97471,193.76422,116.8484,192.36672,116.73117,189.12451Z"/></g></g></svg>