<svg id="Layer_1" data-name="Layer 1" xmlns="http://www.w3.org/2000/svg" viewBox="0 0 512 512"><defs><style>.cls-1{fill:#1565c0;}.cls-2{fill:#fff;}</style></defs><title>horarioDeAtencion</title><path class="cls-1" d="M512,256c0,141.4-114.6,256-256,256S0,397.4,0,256,114.6,0,256,0,512,114.6,512,256Z"/><path class="cls-2" d="M224.77312,402.46475H120.70317a43.4117,43.4117,0,0,1-43.36249-43.36248V150.96236a43.4117,43.4117,0,0,1,43.36249-43.36248H380.878a43.4117,43.4117,0,0,1,43.36248,43.36248v69.38a8.67249,8.67249,0,1,1-17.345,0v-69.38A26.04925,26.04925,0,0,0,380.878,124.94487H120.70317a26.04925,26.04925,0,0,0-26.01749,26.01749V359.10227a26.04925,26.04925,0,0,0,26.01749,26.01749h104.07a8.6725,8.6725,0,1,1,0,17.345Z"/><path class="cls-2" d="M415.568,194.32484H86.01318a8.6725,8.6725,0,1,1,0-17.345H415.568a8.67249,8.67249,0,0,1,0,17.345Z"/><path class="cls-2" d="M155.39315,124.94487c-4.78722,0-8.6725-2.33117-8.6725-5.2035v-41.628c0-2.87233,3.88528-5.2035,8.6725-5.2035s8.6725,2.33117,8.6725,5.2035v41.628C164.06565,122.6137,160.18037,124.94487,155.39315,124.94487Z"/><path class="cls-2" d="M346.18807,124.94487c-4.78722,0-8.6725-2.33117-8.6725-5.2035v-41.628c0-2.87233,3.88528-5.2035,8.6725-5.2035s8.67249,2.33117,8.67249,5.2035v41.628C354.86056,122.6137,350.97529,124.94487,346.18807,124.94487Z"/><path class="cls-2" d="M354.86056,419.92469a87.79875,87.79875,0,1,1,87.79876-87.79875A87.88712,87.88712,0,0,1,354.86056,419.92469Zm0-160.96438a73.16563,73.16563,0,1,0,73.16563,73.16563A73.24867,73.24867,0,0,0,354.86056,258.96031Z"/><path class="cls-2" d="M384.12681,368.70875a7.349,7.349,0,0,1-5.18012-2.13643l-29.26625-29.26625a7.369,7.369,0,0,1-2.13644-5.18013V288.22656a7.31657,7.31657,0,0,1,14.63313,0v40.87033l27.12981,27.12981a7.30926,7.30926,0,0,1-5.18013,12.48205Z"/></svg>