<svg xmlns="http://www.w3.org/2000/svg" viewBox="0 0 181.87 134.56"><defs><style>.cls-1,.cls-15,.cls-22,.cls-23,.cls-4{fill:none;}.cls-1,.cls-23,.cls-24{stroke:#979797;stroke-miterlimit:10;}.cls-1{stroke-width:0.27px;}.cls-2,.cls-25{fill:#fff;}.cls-24,.cls-3{fill:#6095ec;}.cls-4{stroke:#fff;}.cls-15,.cls-22,.cls-4{stroke-linecap:round;stroke-linejoin:round;}.cls-22,.cls-4{stroke-width:0.77px;}.cls-5{fill:#3b5cb3;}.cls-6{fill:#3d3d3f;}.cls-7{fill:#d15931;}.cls-8{fill:#a9c94e;}.cls-9{fill:#eed24a;}.cls-10{fill:#cb2f33;}.cls-11{fill:#bb3535;}.cls-12{fill:#ad2b33;}.cls-13{fill:#cdb13a;}.cls-14{font-size:8.38px;letter-spacing:-0.04em;}.cls-14,.cls-16,.cls-19,.cls-20,.cls-21{fill:#2a2a2a;}.cls-14,.cls-16,.cls-17,.cls-18,.cls-19,.cls-20,.cls-21,.cls-25{font-family:Cantarell-Regular, Cantarell;}.cls-15,.cls-22{stroke:#2a2a2a;}.cls-15{stroke-width:0.59px;}.cls-16,.cls-17,.cls-18,.cls-19{font-size:6.71px;}.cls-16,.cls-17,.cls-18{letter-spacing:-0.04em;}.cls-17{fill:#979797;}.cls-18{fill:#476c99;}.cls-19{letter-spacing:-0.04em;}.cls-20,.cls-21{font-size:8.69px;}.cls-20{letter-spacing:-0.04em;}.cls-21{letter-spacing:-0.04em;}.cls-23{stroke-width:0.26px;}.cls-24{stroke-width:0.3px;}.cls-25{font-size:9.24px;}</style></defs><title>Recurso 3</title><g id="Capa_2" data-name="Capa 2"><g id="OBJECTS"><circle class="cls-1" cx="26.14" cy="44.53" r="24.83"/><circle class="cls-2" cx="26.14" cy="44.53" r="22.27" transform="translate(-15.23 13.63) rotate(-22.83)"/><path class="cls-3" d="M44.7,67.92h-.24a5.21,5.21,0,0,1-5.21-5.21h0a5.2,5.2,0,0,1,5.21-5.2h.24a5.2,5.2,0,0,1,5.21,5.2h0A5.21,5.21,0,0,1,44.7,67.92Z"/><path class="cls-4" d="M44.5,60s.07,5.58,0,5.51"/><path class="cls-4" d="M47.27,62.72s-5.57.07-5.51,0"/><g id="Capa_2-2" data-name="Capa 2"><g id="Capa_1-2" data-name="Capa 1-2"><path class="cls-5" d="M17.69,45.07a1.69,1.69,0,0,1,0-.23c0-.07,0-.08-.08-.08H15.84c-.06,0-.08,0-.08-.06s0-.37,0-.56,0-.08.08-.08h1.38c.17,0,.17,0,.15-.17a3.09,3.09,0,0,0,0-.43v-.32c0-.06,0-.07-.07-.07H15.91c-.14,0-.14,0-.15-.14v0c0-.11,0-.22,0-.33s0-.1.09-.1h1.72c.06,0,.08,0,.07-.07v-.92c0-.06,0-.08-.07-.08h-3c-.06,0-.07,0-.07.08v1c0,.13,0,.26,0,.39s0,.38,0,.58,0,.28,0,.42,0,.54,0,.81a2.29,2.29,0,0,0,0,.37,2.29,2.29,0,0,0,0,.37c0,.09,0,.19,0,.28s0,.1.09.1h3a0,0,0,0,0,0,0c0-.11,0-.23,0-.34A2.29,2.29,0,0,0,17.69,45.07Z"/><path class="cls-6" d="M46.41,47.82c.11-.2.21-.39.3-.58s.06-.08.12-.07.16,0,.16.16v.91c0,.06,0,.07-.07.07s-.16,0-.16-.16v-.59l-.11.22-.15.28a.09.09,0,0,1-.09.06.11.11,0,0,1-.09-.06l-.24-.47a.09.09,0,0,0,0,.08v.58s0,.06-.05.06-.17,0-.17-.16v-.92s0-.06.07-.06.19,0,.24.15Z"/><path class="cls-6" d="M27.28,47.58v.6c0,.13,0,.13-.14.13h0c-.05,0-.06,0-.06-.07v-1s0-.06.05-.06a.16.16,0,0,1,.17.07l.48.6s0,0,0,0a.17.17,0,0,0,0-.07c0-.19,0-.37,0-.56s0-.08.07-.07.15,0,.15.14c0,.31,0,.61,0,.92,0,0,0,.07-.07.07a.19.19,0,0,1-.18-.09Z"/><path class="cls-6" d="M42,47.6v.63c0,.06,0,.08-.08.08s-.14,0-.14-.14v-.9s0-.09,0-.1.13,0,.18,0l.39.49.15.19s0,0,0-.08v-.56c0-.06,0-.08.07-.07s.15,0,.15.14v.88s0,.1,0,.1-.13,0-.18,0-.35-.42-.52-.64l0,0Z"/><path class="cls-6" d="M15.65,47.58v.64c0,.07,0,.09-.09.09s-.13,0-.13-.13v-.91s0-.09,0-.1.12,0,.17,0l.39.49.15.19s0,0,0-.08v-.55c0-.07,0-.09.08-.08s.14,0,.14.13v.93s0,.07-.07.07a.17.17,0,0,1-.17-.08Z"/><path class="cls-6" d="M44.39,47.59v.63c0,.07,0,.09-.08.09s-.14,0-.14-.14v-.9s0-.09,0-.1.12,0,.17,0l.4.5a.85.85,0,0,0,.16.17v-.64c0-.05,0-.06.06-.06s.16,0,.16.15v.91s0,.07-.07.07a.2.2,0,0,1-.17-.08l-.49-.62Z"/><path class="cls-6" d="M30.47,47.91v-.65c0-.06,0-.09.08-.09s.14,0,.14.15v.89s0,.09,0,.09-.12,0-.17,0l-.36-.44a2.09,2.09,0,0,0-.2-.22v.63c0,.06,0,.07-.07.07s-.15,0-.15-.15v-.9s0-.08,0-.09.12,0,.17,0,.28.36.43.53Z"/><path class="cls-6" d="M39.2,47.73v-.5s0-.06.06-.06h.4a.57.57,0,0,1,0,1.13c-.11,0-.22,0-.33,0s-.08,0-.08-.09Zm.22,0V48c0,.13,0,.13.14.13a.33.33,0,0,0,.38-.35.35.35,0,0,0-.35-.4h-.12s0,0,0,0Z"/><path class="cls-6" d="M37,47.73v-.5s0-.06,0-.06.26,0,.39,0A.56.56,0,0,1,38,48a.52.52,0,0,1-.5.35h-.37c-.05,0-.07,0-.06-.07Zm.22,0V48c0,.15,0,.15.15.15a.38.38,0,0,0,.05-.75h-.16s0,0,0,.06Z"/><path class="cls-6" d="M24.89,48.31h-.22s-.05,0-.06-.05-.1-.16-.14-.24a.17.17,0,0,0-.18-.1c-.08,0-.11,0-.1.11a1.77,1.77,0,0,1,0,.23s0,.05,0,.05-.18,0-.18-.16v-.91c0-.06,0-.07.08-.07h.38a.37.37,0,0,1,.38.27.34.34,0,0,1-.15.42s0,0,0,.07Zm-.69-.76c0,.18,0,.18.18.18h.07a.14.14,0,0,0,.15-.1.19.19,0,0,0-.18-.27c-.08,0-.16,0-.22,0S24.2,47.49,24.2,47.55Z"/><path class="cls-6" d="M26,48.31h-.21s0,0-.07-.05-.09-.16-.13-.24a.17.17,0,0,0-.18-.1c-.08,0-.11,0-.1.11a1.62,1.62,0,0,0,0,.22s0,.06-.06.06-.16,0-.16-.16v-.91c0-.06,0-.07.07-.07h.39a.38.38,0,0,1,.38.27.36.36,0,0,1-.15.42s0,0,0,.07S25.87,48.17,26,48.31Zm-.69-.78v.14s0,.07.06.07h.2a.14.14,0,0,0,.14-.09.19.19,0,0,0-.18-.28c-.07,0-.16,0-.21,0S25.26,47.49,25.26,47.53Z"/><path class="cls-6" d="M18.53,48.31h-.22s0,0-.06-.05L18.09,48c0-.06-.06-.08-.12-.07H17.9c-.06,0-.08,0-.07.07v.25s0,.06,0,.06-.17,0-.17-.16v-.91c0-.06,0-.07.08-.07h.38a.37.37,0,0,1,.38.27.34.34,0,0,1-.15.42s0,0,0,.07Zm-.7-.76h0v.13s0,.06.05,0h.2a.14.14,0,0,0,.16-.1.19.19,0,0,0-.18-.27c-.08,0-.16,0-.22,0s0,.11,0,.17Z"/><path class="cls-6" d="M19.46,48.19a.5.5,0,0,1-.66,0,.61.61,0,0,1-.08-.82.55.55,0,0,1,.75-.11c.16.12.15.15,0,.27a.33.33,0,0,0-.46-.12.42.42,0,0,0-.13.49.34.34,0,0,0,.58.1.1.1,0,0,0,0-.09s-.05,0-.07,0h-.07c-.07,0-.09,0-.09-.09s0-.08.09-.08h.28s.05,0,.05.05v.49s0,.05-.05.05h0C19.5,48.31,19.42,48.32,19.46,48.19Z"/><path class="cls-6" d="M44,47.75a.55.55,0,0,1-.55.56.56.56,0,0,1-.55-.57.57.57,0,0,1,.56-.58A.56.56,0,0,1,44,47.75Zm-.88,0v0a.33.33,0,0,0,.43.32.33.33,0,0,0,.23-.31.34.34,0,1,0-.66,0Z"/><path class="cls-6" d="M34.35,47.75a.56.56,0,1,1-1.11,0,.56.56,0,1,1,1.11,0Zm-.55-.39a.3.3,0,0,0-.24.11.45.45,0,0,0,0,.55A.31.31,0,0,0,34,48h0a.39.39,0,0,0,.13-.29.36.36,0,0,0-.33-.39Z"/><path class="cls-6" d="M23.8,47.75a.55.55,0,0,1-.55.56.56.56,0,0,1-.55-.57.55.55,0,1,1,1.1,0Zm-.88,0a.4.4,0,0,0,0,.15.31.31,0,0,0,.41.21.34.34,0,0,0,.22-.33.35.35,0,0,0-.34-.41.36.36,0,0,0-.32.38Z"/><path class="cls-6" d="M32.72,48.32a.79.79,0,0,1-.42-.12s0,0,0-.07v0c.06-.12.06-.12.17-.06a.58.58,0,0,0,.32.07c.06,0,.12,0,.14-.09a.12.12,0,0,0-.1-.14l-.3-.1a.26.26,0,0,1-.21-.27.32.32,0,0,1,.22-.32.63.63,0,0,1,.55.07s0,0,0,.06h0a.3.3,0,0,1-.07.11s-.07,0-.11-.05a.55.55,0,0,0-.26,0,.14.14,0,0,0-.12.11.11.11,0,0,0,.09.12l.31.1a.31.31,0,0,1,.12.54A.57.57,0,0,1,32.72,48.32Z"/><path class="cls-6" d="M26.1,47.73v-.49c0-.06,0-.07.06-.07h.63c.06,0,.08,0,.07.07v.06q0,.08-.06.06h-.42c-.05,0-.07,0-.07.06,0,.22,0,.22.21.22h.21c.05,0,.06,0,.06.06s0,.11-.11.11h-.32s-.05,0-.05,0a.6.6,0,0,1,0,.19c0,.05,0,.07.07.06h.43c.06,0,.08,0,.07.07v.08s0,.05-.05.05h-.69s0,0,0-.06Z"/><path class="cls-6" d="M16.65,47.74v-.5c0-.06,0-.07.07-.07h.63c.06,0,.08,0,.07.07v0c0,.06,0,.09-.09.08h-.39c-.06,0-.08,0-.07.07s0,.15,0,.19.13,0,.19,0h.21c.06,0,.07,0,.07.06s0,0,0,0,0,.08-.07.08h-.35c-.05,0-.07,0-.06.07s0,.17,0,.22.13,0,.21,0h.27c.05,0,.07,0,.06.07h0c0,.15,0,.13-.11.13s-.4,0-.6,0-.07,0-.07-.07Z"/><path class="cls-6" d="M36.07,47.73v-.49c0-.05,0-.07.06-.07h.65s0,0,0,.06,0,.13-.13.13h-.36c-.05,0-.06,0-.06.06s0,.16,0,.2.13,0,.2,0h.21s.06,0,0,0v.07c0,.05,0,.06,0,.06h-.37s-.06,0-.06.06,0,.18,0,.23.14,0,.22,0h.27c.05,0,.06,0,.06.06s0,.14-.13.14-.38,0-.57,0-.09,0-.08-.09Z"/><path class="cls-6" d="M14.48,47.73v-.5s0-.06.06-.06h.65c.05,0,.06,0,.06.06s0,.13-.13.13h-.36s-.07,0-.06.06,0,.16,0,.21.13,0,.2,0h.21s.06,0,.05.06v0s0,.07-.06.07h-.35s-.07,0-.06.07,0,.18,0,.22.15,0,.22,0h.28s0,0,0,.06,0,.14-.13.14-.38,0-.57,0-.08,0-.08-.08Z"/><path class="cls-6" d="M38.94,48.31c-.08,0-.11,0-.14-.1s-.06-.19-.26-.19-.2,0-.27.19,0,.09-.05.09a.54.54,0,0,1-.18,0s0,0,0-.06l.36-1a.16.16,0,0,1,.22-.11s0,0,0,0c.12.34.25.67.38,1C39.07,48.31,39.07,48.31,38.94,48.31Zm-.4-.89-.14.4s0,0,0,0h.22s.05,0,0,0Z"/><path class="cls-6" d="M41.09,48c-.2,0-.2,0-.27.19s0,.09,0,.09a.54.54,0,0,1-.18,0s0,0,0-.06l.36-1a.16.16,0,0,1,.22-.11s0,0,0,0l.39,1c0,.06,0,.07-.05.07s-.15,0-.2-.13-.06-.16-.23-.16Zm-.16-.15h.28s0,0,0,0-.09-.26-.15-.4Z"/><path class="cls-6" d="M48,48.31c-.08,0-.11,0-.14-.1s-.06-.19-.26-.19-.2,0-.27.19c0,0,0,.09,0,.09a.6.6,0,0,1-.19,0s0,0,0,0l.4-1a.05.05,0,0,1,.06,0c.14,0,.14,0,.2.13.11.31.23.62.35.92,0,.08,0,.1-.06.09Zm-.4-.88q-.07.21-.15.39s0,0,0,0h.21s.06,0,0,0S47.69,47.57,47.64,47.43Z"/><path class="cls-6" d="M20.17,48.31c.07-.18.13-.35.2-.52l.21-.56a.08.08,0,0,1,.11-.06s.1,0,.13.06c.12.33.25.67.38,1,0,.05,0,.08-.05.08s-.15,0-.2-.14-.05-.15-.2-.15-.18,0-.24,0-.07.13-.09.2a.08.08,0,0,1-.09.07A.85.85,0,0,0,20.17,48.31Zm.37-.45a.3.3,0,0,0,.13,0c.19,0,.19,0,.13-.18l-.1-.26-.16.43Z"/><path class="cls-6" d="M31.75,48.31c-.08,0-.11,0-.14-.11s-.06-.18-.25-.18-.15,0-.2,0-.05.12-.08.18,0,.08,0,.08a.6.6,0,0,1-.19,0s0,0,0,0c.13-.35.26-.7.4-1a.05.05,0,0,1,.06,0c.14,0,.14,0,.19.13l.36.93c0,.07,0,.09-.05.08Zm-.4-.88-.15.4s0,0,0,0h.21c.05,0,.05,0,0,0Z"/><path class="cls-6" d="M22.16,47.17a.51.51,0,0,1,.43.19s0,.06,0,.08l-.05,0s-.07.05-.12,0a.31.31,0,0,0-.44,0,.42.42,0,0,0,0,.61.31.31,0,0,0,.44,0v0s0,0,.07,0,.16.12,0,.23a.54.54,0,0,1-.82-.18.57.57,0,0,1,.21-.78l.11-.05A.39.39,0,0,1,22.16,47.17Z"/><path class="cls-6" d="M35,47.17a.49.49,0,0,1,.43.2s0,.05,0,.07l0,0s-.09.07-.15,0a.31.31,0,0,0-.41,0,.42.42,0,0,0,0,.64.29.29,0,0,0,.42-.06s0,0,.09,0,.14.09,0,.2a.55.55,0,0,1-.8-.08.58.58,0,0,1,.26-.91A.41.41,0,0,1,35,47.17Z"/><path class="cls-5" d="M31.43,43.71a1.41,1.41,0,0,0,0-.29,1.7,1.7,0,0,0-.14-.58h0v0a2.22,2.22,0,0,0-2.24-1.45,2.27,2.27,0,0,0-1.57.78,2.13,2.13,0,0,0-.43.78,1.75,1.75,0,0,0-.1.64h1.23a1.86,1.86,0,0,1,.11-.52l.05-.1a.88.88,0,0,1,.44-.41,1,1,0,0,1,1.17.27l0,0h0a1.41,1.41,0,0,1,.21.83h0a1,1,0,0,1-.07.34,1,1,0,0,1-.45.62l-.07,0a1.05,1.05,0,0,1-.68.05l-.15,0a1.16,1.16,0,0,1-.55-.68h0a2.3,2.3,0,0,1-.05-.45H27A1.44,1.44,0,0,0,27,44a1.91,1.91,0,0,0,.26.7,1.24,1.24,0,0,0,.25.35,1.64,1.64,0,0,0,.46.41,1.07,1.07,0,0,0,.21.13,2.21,2.21,0,0,0,1.34.22,2.11,2.11,0,0,0,.91-.35,2,2,0,0,0,.44-.38,1.78,1.78,0,0,0,.28-.38,2.34,2.34,0,0,0,.26-.68,1.31,1.31,0,0,0,0-.34Z"/><path class="cls-5" d="M46.76,45.78a1.88,1.88,0,0,0-.12-.3,4.28,4.28,0,0,0-.14-.43l-.13-.37L46.14,44l-.24-.71c0-.15-.1-.3-.16-.45v0l-.49-1.41s0,0-.08,0h-1c-.07,0-.09,0-.11.09l-.18.51c-.11.31-.22.63-.32.94l-.21.61-.17.46h0l-.23.67-.12.34h0a3.66,3.66,0,0,0-.15.43c0,.11-.07.22-.11.32s0,0,0,0h1.15a.06.06,0,0,0,.06,0h0c0-.09.08-.29.08-.29s.09-.31.14-.45h0c0-.06.08-.07.15-.07h.92c.09,0,.15,0,.16.1s.09.29.14.44.06.18.08.27,0,.06.08.06h1.12S46.77,45.84,46.76,45.78Zm-2.49-1.64,0-.12h0c0-.15.1-.31.13-.47s.13-.4.19-.6l0-.13s0,0,0,0a3.62,3.62,0,0,0,.13.47h0c.06.24.13.48.2.71h0l0,.09Z"/><path class="cls-6" d="M28.65,47.17h.4c.05,0,.07,0,.07.06s0,.13-.13.13-.18,0-.22,0,0,.15,0,.23v.64s0,.07-.07.07-.15,0-.15-.15,0-.48,0-.73c0-.06,0-.07-.08-.07h-.23s-.06,0-.06-.06,0-.13.13-.13Z"/><path class="cls-5" d="M40.86,44.31a1.05,1.05,0,0,0-.08-.35.88.88,0,0,0-.31-.42,1.26,1.26,0,0,0-.28-.19,7.94,7.94,0,0,0-1.27-.44l-.14-.11a.19.19,0,0,1,.08-.33.78.78,0,0,1,.34,0,2.61,2.61,0,0,1,1,.37s.07,0,.09,0l.48-.91s0-.05,0-.06l-.31-.15a3.15,3.15,0,0,0-1.48-.31,1.67,1.67,0,0,0-1.16.54,1.39,1.39,0,0,0-.32,1,.93.93,0,0,0,.21.62l0,0a1.5,1.5,0,0,0,.65.42,4.43,4.43,0,0,0,.67.23,1.77,1.77,0,0,1,.45.18c.14.1.13.23,0,.33l-.13,0a2.54,2.54,0,0,1-.39,0l-.44-.13a3.54,3.54,0,0,1-.65-.31s0,0-.07,0l-.22.45h0c-.06.12-.12.23-.17.35a.81.81,0,0,0-.1.21s0,0,0,0h0a1.92,1.92,0,0,0,.29.14,2.58,2.58,0,0,0,.53.19,3.49,3.49,0,0,0,1.51.13,1.62,1.62,0,0,0,.78-.32,1,1,0,0,0,.33-.39,1.09,1.09,0,0,0,.12-.36A1.76,1.76,0,0,0,40.86,44.31Z"/><path class="cls-5" d="M35.75,45.77a3.37,3.37,0,0,1-.19-.32,4.64,4.64,0,0,0-.25-.42,1.77,1.77,0,0,0-.19-.33c-.08-.15-.16-.31-.25-.46a.05.05,0,0,1,0-.08,1,1,0,0,0,.19-.17,1.19,1.19,0,0,0,.25-.38.85.85,0,0,0,.09-.24,1.3,1.3,0,0,0,.05-.62A1.54,1.54,0,0,0,34,41.4H32c-.07,0-.08,0-.08.09v1.7c0,.14,0,.29,0,.43A2.16,2.16,0,0,0,32,44c0,.26,0,.57,0,.84a2,2,0,0,0,0,.35v.56c0,.1,0,.1.1.1H33c.22,0,.22,0,.2-.23V44.51s0,0,0,0h.36a.07.07,0,0,1,.06,0l.12.21A3.54,3.54,0,0,0,34,45l.25.43.16.29a.11.11,0,0,0,.1.06h1.26S35.78,45.82,35.75,45.77Zm-1.56-2.59a.32.32,0,0,1-.31.22h-.65s-.06,0-.06-.06v-.81c0-.05,0-.07.07-.07h.65c.16,0,.24.12.31.25s0,0,0,0A.9.9,0,0,1,34.19,43.18Z"/><path class="cls-5" d="M26.8,44.8l-.24-.14-.69-.41s0,0-.05,0a.8.8,0,0,1-.38.41,1,1,0,0,1-.94,0,1.46,1.46,0,0,1-.21-.16A1.24,1.24,0,0,1,24,44a3.32,3.32,0,0,1-.06-.44,1.54,1.54,0,0,1,.28-.8l.14-.13a1,1,0,0,1,.83-.17.83.83,0,0,1,.65.48c0,.06.05,0,.07,0l.83-.59s.05-.05,0-.09a1.6,1.6,0,0,0-.83-.73,2.32,2.32,0,0,0-2.3.23,2,2,0,0,0-.76,1,1.83,1.83,0,0,0-.15.83,1.24,1.24,0,0,0,.05.47,1.89,1.89,0,0,0,.24.65,1.48,1.48,0,0,0,.25.35,1.88,1.88,0,0,0,.65.54l.07,0a2.25,2.25,0,0,0,1.4.18,2.29,2.29,0,0,0,.67-.22,1.68,1.68,0,0,0,.65-.53.88.88,0,0,0,.12-.21S26.82,44.82,26.8,44.8Z"/><path class="cls-6" d="M35.83,47.74v.5c0,.06,0,.07-.06.07s-.16,0-.16-.16,0-.6,0-.91c0-.05,0-.07.08-.07s.14,0,.14.15Z"/><path class="cls-6" d="M45.6,47.73v.51c0,.06,0,.07-.07.07s-.15,0-.15-.16v-.91c0-.05,0-.07.08-.07s.14,0,.14.14Z"/><path class="cls-6" d="M29.26,47.74v-.5c0-.05,0-.07.06-.07s.16,0,.16.15v.91c0,.06,0,.08-.08.08s-.14,0-.14-.14Z"/><path class="cls-6" d="M20,47.74v.5s0,.07-.06.07-.16,0-.16-.16,0-.6,0-.91c0-.06,0-.07.08-.07s.14,0,.14.14Z"/><path class="cls-5" d="M42.29,45.59h0v-.24h0v-.64s0,0,0,0h-.88s0,0,0,0,0,.23,0,.34a.43.43,0,0,0,0,.16.33.33,0,0,0,0,.14,1,1,0,0,0,0,.24.76.76,0,0,1,0,.15c0,.06,0,.08.08.08h.68c.07,0,.16,0,.2,0S42.29,45.67,42.29,45.59Z"/><path class="cls-5" d="M48.16,45.59h0v-.24h0v-.64s0,0,0,0h-.89s0,0,0,0,0,.23,0,.34a.43.43,0,0,0,0,.16.33.33,0,0,0,0,.14,1,1,0,0,0,0,.24.76.76,0,0,0,0,.15c0,.06,0,.08.08.08H48c.06,0,.16,0,.2,0S48.16,45.67,48.16,45.59Z"/><path class="cls-5" d="M22.2,44c0-.19,0-.37,0-.56v-2c0-.06,0-.05-.07-.05H21.06c-.07,0-.08,0-.08.09v1.44a4,4,0,0,0,0,.49v.21l-.21-.26-.41-.52-.19-.25c-.31-.38-.61-.77-.91-1.15a.12.12,0,0,0-.1,0h-.82c-.06,0-.08,0-.08.08,0,.44,0,.89,0,1.34a.09.09,0,0,1,0,0,4.51,4.51,0,0,0,0,.52,5.81,5.81,0,0,0,0,.59c0,.23,0,.45,0,.68a1.93,1.93,0,0,0,0,.34,3.84,3.84,0,0,0,0,.48c0,.1,0,.2,0,.3s0,0,.06,0h1.12s.05,0,.05,0,0-.2,0-.3a3.84,3.84,0,0,0,0-.48,1.93,1.93,0,0,0,0-.34c0-.23,0-.45,0-.68v-.29h0l.26.31.6.74h0l.26.32a4.78,4.78,0,0,0,.34.42.1.1,0,0,0,.05.06l.2.26a.09.09,0,0,0,.07,0h.88s.05,0,.05-.06V44.7C22.21,44.45,22.21,44.21,22.2,44Z"/><path class="cls-6" d="M20.13,46.85a1.06,1.06,0,0,0-.12.2,0,0,0,0,1-.06,0h0l-.1,0C19.94,46.84,19.94,46.84,20.13,46.85Z"/><path class="cls-7" d="M12.83,43.25a3.62,3.62,0,0,1,0,.57,4.19,4.19,0,0,1-1.23,2.55c-.16.15-.33.29-.51.43a.08.08,0,0,1,0,0l.06-.11a2.83,2.83,0,0,0,.23-.57,3.9,3.9,0,0,0,.12-.46c0-.15,0-.29.06-.44a.82.82,0,0,0,0-.22.24.24,0,0,0,0,.08c0,.16-.08.31-.13.46s-.08.26-.13.39-.19.44-.3.65a6.18,6.18,0,0,1-.36.53.53.53,0,0,0-.11.14c-.16.11-.33.21-.51.31l-.08.05,0,0-.36.19-.45.2-.48.19a1,1,0,0,0-.23.12.18.18,0,0,0-.06.24,0,0,0,0,1,0,0,.22.22,0,0,1-.09-.12c-.11-.21-.18-.42-.27-.63s-.06-.13-.08-.19,0-.1.06-.12a8.74,8.74,0,0,0,1.39-.55,7.07,7.07,0,0,0,1.33-.9,4.41,4.41,0,0,0,.75-.86A3.21,3.21,0,0,0,11.9,44a3.79,3.79,0,0,0,0-.58,3.26,3.26,0,0,0-.68-2,3.64,3.64,0,0,0-.43-.45,0,0,0,0,1,.05,0l.18.14a7.34,7.34,0,0,1,.6.51,5.5,5.5,0,0,1,.56.62,4,4,0,0,1,.6,1Z"/><path class="cls-8" d="M5.94,40.29a4.19,4.19,0,0,1,.66-.47A3.92,3.92,0,0,1,8,39.32a4.06,4.06,0,0,1,2.43.3h0a16.37,16.37,0,0,0-2,.45l-.46.14a3.58,3.58,0,0,0-.55.19A3.29,3.29,0,0,0,5.45,43s0,0,0,0,0-.18,0-.27,0-.39,0-.59a4.86,4.86,0,0,1,.08-.64,4.06,4.06,0,0,1,.27-.9C5.83,40.52,5.89,40.41,5.94,40.29Z"/><path class="cls-9" d="M5.94,40.29c-.05.12-.11.23-.16.34a4.06,4.06,0,0,0-.27.9,4.86,4.86,0,0,0-.08.64c0,.2,0,.39,0,.59s0,.18,0,.27,0,.28,0,.41a2.91,2.91,0,0,0,.09.65,3.63,3.63,0,0,0,.29.84,3.32,3.32,0,0,0,.44.62,4.45,4.45,0,0,0,.48.49s0,0,0,0,0,0-.07,0a9.72,9.72,0,0,1-1.25-1,5.51,5.51,0,0,1-.7-.75.58.58,0,0,0-.1-.12,3.55,3.55,0,0,1-.06-.47,3.37,3.37,0,0,1,0-.55,4.31,4.31,0,0,1,.13-.8,4.24,4.24,0,0,1,.56-1.27,4.51,4.51,0,0,1,.44-.54Z"/><path class="cls-10" d="M4.62,44.18a.58.58,0,0,1,.1.12,5.51,5.51,0,0,0,.7.75,9.72,9.72,0,0,0,1.25,1s0,0,.07,0h0a4.54,4.54,0,0,0,.72.45,3.9,3.9,0,0,0,1.25.36l.21,0-.34.15a8,8,0,0,1-.94.31.13.13,0,0,1-.09,0A4.29,4.29,0,0,1,6,46.53,4.14,4.14,0,0,1,4.62,44.18Z"/><path class="cls-7" d="M9,49.68H8.81a.14.14,0,0,1-.11-.1c-.07-.15-.13-.31-.19-.47a.15.15,0,0,1,.06-.17.71.71,0,0,1,.25-.11,15.05,15.05,0,0,0,1.42-.51s0,0,0,0a.24.24,0,0,0,.14,0l.73-.31.36-.17a3.35,3.35,0,0,0,.37-.2.15.15,0,0,0,.06-.11.08.08,0,0,1,.05.08c0,.21.11.42.15.64a.22.22,0,0,1-.12.23c-.13.08-.28.14-.42.21l-.69.3-.36.14-.23.1h0l-.59.23-.52.19L9,49.63S9,49.67,9,49.68Z"/><path class="cls-5" d="M7.93,40.22l.46-.14a16.37,16.37,0,0,1,2-.45h0A3.72,3.72,0,0,1,11,40a4.3,4.3,0,0,1,1.28,1.41,4.26,4.26,0,0,1,.43,1.16v.05l-.1-.16a4.65,4.65,0,0,0-.67-.73,7.67,7.67,0,0,0-1.24-.87s0,0-.06,0h0s0,0,0,0a3.94,3.94,0,0,0-.72-.41,3.29,3.29,0,0,0-1-.24,3.11,3.11,0,0,0-1,.07Z"/><path class="cls-11" d="M10.4,48.25a.24.24,0,0,1-.14,0l-.61.09-1,.14-.31,0h0a0,0,0,0,0,0,0,.18.18,0,0,1,.06-.24,1,1,0,0,1,.23-.12L9.08,48l.45-.2.36-.19,0,0,.23,0a.09.09,0,0,0,0,0l.08.26Z"/><path class="cls-12" d="M10.3,49.16l.23-.1.36-.14.38,0,.57.05c.1,0,.14.1.07.18l-.26.32a.81.81,0,0,1-.16.16.34.34,0,0,1-.17.05h-.84Z"/><path class="cls-12" d="M10.4,48.25l-.14-.41-.08-.26a.09.09,0,0,1,0,0l.25,0a8.87,8.87,0,0,1,.89-.06h.55s0,0,0,0h0s0,0,0,0h0a.15.15,0,0,1-.06.11,3.35,3.35,0,0,1-.37.2l-.36.17Z"/><path class="cls-11" d="M10.3,49.16l.18.53a.66.66,0,0,1-.14,0c-.21,0-.42,0-.63,0H9s0,0,0,0l.12-.05.52-.19.59-.23Z"/><path class="cls-12" d="M10.68,40.81s0,0,.06,0a7.67,7.67,0,0,1,1.24.87,4.65,4.65,0,0,1,.67.73l.1.16a3.5,3.5,0,0,1,.08.65,4,4,0,0,0-.6-1,5.5,5.5,0,0,0-.56-.62,7.34,7.34,0,0,0-.6-.51L10.89,41a0,0,0,0,0-.05,0h0Z"/><path class="cls-10" d="M10.53,47.2a.53.53,0,0,1,.11-.14,6.18,6.18,0,0,0,.36-.53c.11-.21.21-.43.3-.65s.09-.26.13-.39.09-.3.13-.46a.24.24,0,0,1,0-.08.82.82,0,0,1,0,.22c0,.15,0,.29-.06.44a3.9,3.9,0,0,1-.12.46,2.83,2.83,0,0,1-.23.57l-.06.11a.08.08,0,0,0,0,0h0A3.85,3.85,0,0,1,10.53,47.2Z"/><path class="cls-7" d="M11.92,47.46s0,0,0,0Z"/><path class="cls-7" d="M11.89,47.45s0,0,0,0Z"/><path class="cls-9" d="M6.76,46.07h0S6.76,46.06,6.76,46.07Z"/><path class="cls-12" d="M10.67,40.8s0,0,0,0Z"/><path class="cls-7" d="M8.34,48.56h0Z"/><path class="cls-7" d="M10.83,40.94h0Z"/><path class="cls-7" d="M10.82,40.93h0Z"/><path class="cls-9" d="M6.77,46.08h0Z"/><path class="cls-7" d="M8.32,48.55h0a0,0,0,0,1,0,0Z"/><path class="cls-7" d="M11.05,46.82h0Z"/><path class="cls-9" d="M7.68,44.32a.1.1,0,0,1,0-.13c.07-.39.15-.77.22-1.15s.17-.91.26-1.37a.11.11,0,0,1,.09-.1c.05,0,.08,0,.1.09l.36,1.19h0c0,.14.11.13.2.07l.88-.58a.11.11,0,0,1,.12,0s0,.06,0,.1-.06.29-.1.44c-.06.31-.13.63-.2.94l-.15.7c0,.22-.09.44-.14.66a.08.08,0,0,1-.08.07H9.17a.14.14,0,0,1-.05-.1C9,44.76,9,44.39,8.89,44a0,0,0,0,1,0,0c0-.09-.06-.13-.14-.1L8.55,44l-.69.3C7.8,44.29,7.75,44.33,7.68,44.32Z"/><path class="cls-13" d="M9.17,45.24h.05a.08.08,0,0,0,.09-.06h0c0-.22.09-.44.14-.66l.15-.7c.07-.31.14-.63.2-.94,0-.15.07-.29.1-.44a.09.09,0,0,1,0,.11c-.06.3-.13.6-.19.9L9.4,45.09l0,.17c0,.06,0,.09-.1.09s-.08,0-.09-.09Z"/><path class="cls-13" d="M7.68,44.32c.07,0,.12,0,.18,0l.69-.3.19-.09c.08,0,.13,0,.14.1a.12.12,0,0,0-.1,0l-.94.42h0C7.74,44.45,7.68,44.41,7.68,44.32Z"/></g></g><text class="cls-14" transform="translate(61.23 7.1)">encorsactes</text><polyline class="cls-15" points="105.1 4.43 106.95 5.52 108.8 4.43"/><text class="cls-16" transform="translate(2.39 78.89)">Energía Correntina SA</text><text class="cls-17" transform="translate(2.39 87.16)">Somos la primera empresa correntina dedicada al desarrollo de <tspan x="0" y="8.06">energías alternativas mediante fuentes renovables</tspan></text><text class="cls-18" transform="translate(2.39 104.76)">www.encorsa.corrientes.gob.ar</text><text class="cls-19" transform="translate(68.06 52.3)">Posts</text><text class="cls-20" transform="translate(71.02 43.13)">34</text><text class="cls-16" transform="translate(98.87 52.3)">Seguidores</text><text class="cls-21" transform="translate(107.25 43.13)">212</text><text class="cls-16" transform="translate(139.8 52.3)">Seguidos</text><text class="cls-21" transform="translate(145.34 43.13)">216</text><polyline class="cls-22" points="167.62 125.89 165.77 127.79 163.92 125.89"/><rect class="cls-23" x="158.27" y="119.18" width="15.23" height="15.23" rx="2.04"/><rect class="cls-24" x="0.15" y="119.18" width="153.11" height="15.23" rx="1.98"/><text class="cls-25" transform="translate(65.81 129.64)">Seguir</text></g></g></svg>