<svg xmlns="http://www.w3.org/2000/svg" viewBox="0 0 557.53 533.92"><defs><style>.cls-1{fill:#f4f4db;}.cls-2{fill:#75bd80;}.cls-3{fill:#83cf8f;}.cls-4{fill:#fefefe;}.cls-5{fill:#e4e7ed;}.cls-6{fill:#8597b1;}.cls-7{fill:#ecf0f1;}.cls-8{fill:#c6cbd6;}.cls-9{fill:#fcd34e;}.cls-10{fill:#ffe356;}.cls-11{fill:#303234;}.cls-12{fill:#2b6100;}</style></defs><title>Recurso 2</title><g id="Capa_2" data-name="Capa 2"><g id="visual"><path class="cls-1" d="M380.94,75.22c32.37,32.37,55.63,67.43,90.47,107.78s81.38,85.87,85.76,132.51S524,409.92,483.44,453.19s-84.18,81.94-130,80.7-94-42.15-143-63.84-98.9-24.39-141-47.76S-7.15,354.74,1.28,313.6,61,234.37,85.12,185.14s21.47-109.81,47.1-145.32S211.68-6.26,259.33,3.4s89.24,39.34,121.61,71.82"/><path class="cls-2" d="M106.7,298.65c67.9,0,123.79,38.76,130.88,88.53A171.48,171.48,0,0,1,88.77,299.57,176,176,0,0,1,106.7,298.65Z"/><path class="cls-3" d="M304,256.74c34.86,0,67.29,7.74,94.39,21A171.57,171.57,0,0,1,136.93,354c18.72-55.84,86.39-97.21,167-97.21Z"/><path class="cls-4" d="M278.77,280.09h21.94v95.43a168.92,168.92,0,0,1-21.94,6.89Z"/><path class="cls-4" d="M138.44,279.55H146v32.7c-.85,1.21-5,1.47-7.52.73Z"/><polygon class="cls-5" points="278.77 280.09 300.71 280.09 300.71 341.86 278.77 307.38 278.77 280.09"/><path class="cls-5" d="M298.09,280.09h2.62v95.43l-2.62,1Z"/><polygon class="cls-4" points="118.86 229.71 175.25 219.73 155.12 283.57 105.96 271.8 118.86 229.71"/><polygon class="cls-6" points="119.63 231.69 116.82 241.59 163.75 237.03 168.05 223.81 119.63 231.69"/><polygon class="cls-6" points="116.41 242.47 113.99 251.07 159.58 250.98 163.41 238.27 116.41 242.47"/><polygon class="cls-6" points="113.74 251.96 111.08 260.99 154.85 266.29 159.1 252.46 113.74 251.96"/><polygon class="cls-6" points="110.65 262.24 108.19 270.3 150.62 279.88 154.26 267.8 110.65 262.24"/><polygon class="cls-7" points="121.09 236.39 122.22 235.39 123.37 231.08 123.71 231.02 122.52 235.4 123.21 236.03 122.03 237.25 119.73 245.86 120.43 246.65 119.24 247.72 116.94 256.33 117.67 257.27 116.44 258.19 114.12 266.92 114.76 268 113.61 268.8 113.02 271.03 112.74 270.96 113.35 268.66 112.74 267.78 113.81 266.95 116.18 258.06 115.58 257.2 116.64 256.34 118.97 247.6 118.36 246.77 119.43 245.87 121.76 237.14 121.09 236.39"/><polygon class="cls-7" points="128.78 235.2 130 233.94 131.12 229.81 131.45 229.76 130.32 233.95 131.07 234.63 129.78 235.96 127.24 245.35 127.99 246.23 126.69 247.37 124.16 256.74 124.89 257.72 123.6 258.78 121.1 268.01 121.81 269.22 120.55 270.06 119.82 272.76 119.52 272.68 120.27 269.91 119.67 268.86 120.77 268.05 123.31 258.64 122.73 257.63 123.83 256.76 126.4 247.24 125.77 246.45 126.91 245.35 129.49 235.84 128.78 235.2"/><polygon class="cls-7" points="136.49 233.9 137.81 232.54 138.84 228.56 139.2 228.5 138.16 232.55 138.92 233.35 137.59 234.72 134.83 245.21 135.66 245.95 134.32 247.16 131.72 257.08 132.59 258.17 131.15 259.28 128.49 269.41 129.24 270.53 127.91 271.62 127.06 274.86 126.73 274.76 127.6 271.45 126.86 270.22 128.13 269.44 130.83 259.13 130.07 258.14 131.36 257.1 134 247.03 133.28 246.1 134.48 245.22 137.27 234.59 136.49 233.9"/><polygon class="cls-7" points="145.85 232.34 147.28 230.88 148.37 227.01 148.78 226.94 147.64 230.9 148.48 231.68 146.97 233.22 143.79 244.29 144.65 245.48 143.11 246.63 140.03 257.34 140.85 258.54 139.34 259.71 136.21 270.57 137.04 271.75 135.53 272.94 134.67 275.94 134.32 275.84 135.21 272.76 134.6 271.37 135.84 270.6 139.02 259.54 138.35 258.56 139.65 257.36 142.78 246.48 142.05 245.57 143.42 244.3 146.64 233.09 145.85 232.34"/><polygon class="cls-7" points="156.15 230.67 157.65 229.33 158.84 225.31 159.26 225.25 158.05 229.35 158.94 230.19 157.37 231.65 153.82 243.62 154.71 244.95 153.08 246.15 149.6 257.89 150.47 259.12 148.85 260.44 145.47 271.86 146.3 273.24 144.71 274.43 143.66 277.95 143.3 277.85 144.37 274.23 143.67 272.81 145.06 271.9 148.5 260.26 147.79 259.12 149.2 257.91 152.72 245.99 152.12 244.95 153.43 243.62 157.02 231.51 156.15 230.67"/><polygon class="cls-7" points="118.01 236.69 166.5 228.48 166.23 229.3 117.9 237.07 118.01 236.69"/><polygon class="cls-7" points="115.07 246.75 161.66 244.13 161.39 244.95 114.96 247.12 115.07 246.75"/><polygon class="cls-7" points="112.2 256.86 157.22 259.04 156.92 260.02 112.1 257.22 112.2 256.86"/><polygon class="cls-7" points="109.2 266.96 152.41 273.92 152.14 274.74 109.08 267.34 109.2 266.96"/><polygon class="cls-4" points="220.85 134.6 382.02 105.49 324.48 291.82 183.97 257.47 220.85 134.6"/><polygon class="cls-8" points="381.49 105.34 389.57 112.34 331.72 304.35 188.08 264.2 183.97 257.47 324.48 291.82 381.49 105.34"/><path class="cls-9" d="M142.77,76.19a47.48,47.48,0,0,1,10.9,2.91,41.34,41.34,0,0,0,15.41-12.66,41.13,41.13,0,0,0-3.25,19.69,49.13,49.13,0,0,1,8,8,41.3,41.3,0,0,0,19.69-3.26,41.11,41.11,0,0,0-12.66,15.42,48.29,48.29,0,0,1,2.91,10.89,41.21,41.21,0,0,0,18.68,7,41.16,41.16,0,0,0-18.68,7,48.29,48.29,0,0,1-2.91,10.89,41.18,41.18,0,0,0,12.66,15.42,41.18,41.18,0,0,0-19.69-3.26,48.34,48.34,0,0,1-8,8,41.32,41.32,0,0,0,3.26,19.7,41.23,41.23,0,0,0-15.41-12.66,49.07,49.07,0,0,1-10.9,2.92,41.17,41.17,0,0,0-7,18.67,41.32,41.32,0,0,0-7-18.68,47.79,47.79,0,0,1-10.89-2.92,41.31,41.31,0,0,0-15.42,12.67,41.2,41.2,0,0,0,3.26-19.7,48.28,48.28,0,0,1-8-8A41.32,41.32,0,0,0,78,157.49,41.27,41.27,0,0,0,90.7,142.08a47.48,47.48,0,0,1-2.91-10.9,41.32,41.32,0,0,0-18.68-7,41.21,41.21,0,0,0,18.68-7,48.29,48.29,0,0,1,2.91-10.89A41.37,41.37,0,0,0,78,90.83a41.3,41.3,0,0,0,19.69,3.26,49.13,49.13,0,0,1,8-8,41.08,41.08,0,0,0-3.26-19.7,41.18,41.18,0,0,0,15.42,12.66,48.29,48.29,0,0,1,10.89-2.91,41.16,41.16,0,0,0,7-18.68,41.28,41.28,0,0,0,7,18.68Z"/><circle class="cls-10" cx="135.75" cy="124.16" r="38.83"/><polygon class="cls-6" points="224.74 140.38 216.33 169.28 356.84 155.98 369.73 117.39 224.74 140.38"/><polygon class="cls-6" points="215.09 171.87 207.84 196.95 344.36 196.69 355.81 159.6 215.09 171.87"/><polygon class="cls-6" points="207.1 199.55 199.14 225.91 330.18 241.39 342.93 201 207.1 199.55"/><polygon class="cls-6" points="197.84 229.56 190.49 253.08 317.54 281.04 328.42 245.78 197.84 229.56"/><polygon class="cls-7" points="229.12 154.11 232.5 151.21 235.94 138.6 236.95 138.45 233.38 151.23 235.46 153.05 231.92 156.6 225.03 181.76 227.12 184.06 223.55 187.18 216.68 212.29 218.86 215.04 215.19 217.75 208.22 243.22 210.16 246.37 206.72 248.71 204.94 255.23 204.1 255 205.94 248.3 204.1 245.72 207.3 243.31 214.4 217.37 212.6 214.84 215.77 212.35 222.75 186.84 220.94 184.41 224.13 181.77 231.1 156.31 229.12 154.11"/><polygon class="cls-7" points="252.12 150.64 255.79 146.96 259.12 134.91 260.13 134.77 256.75 146.99 258.99 148.98 255.13 152.85 247.51 180.25 249.78 182.83 245.88 186.15 238.28 213.51 240.48 216.35 236.63 219.45 229.15 246.41 231.25 249.95 227.48 252.39 225.29 260.28 224.39 260.03 226.63 251.94 224.84 248.88 228.15 246.5 235.77 219.04 234.03 216.11 237.29 213.57 245.01 185.78 243.13 183.48 246.54 180.26 254.24 152.52 252.12 150.64"/><polygon class="cls-7" points="275.23 146.84 279.18 142.87 282.25 131.26 283.32 131.09 280.22 142.91 282.49 145.23 278.52 149.23 270.26 179.87 272.73 182.02 268.71 185.56 260.94 214.5 263.54 217.67 259.22 220.91 251.26 250.48 253.52 253.77 249.52 256.95 246.99 266.38 246 266.12 248.6 256.45 246.4 252.85 250.18 250.59 258.28 220.47 255.99 217.6 259.87 214.56 267.76 185.16 265.61 182.46 269.2 179.88 277.56 148.88 275.23 146.84"/><polygon class="cls-7" points="303.25 142.31 307.52 138.04 310.8 126.74 312.02 126.54 308.62 138.07 311.11 140.37 306.61 144.87 297.06 177.17 299.65 180.64 295.04 183.99 285.8 215.27 288.26 218.75 283.76 222.16 274.39 253.86 276.87 257.33 272.34 260.8 269.76 269.54 268.74 269.25 271.39 260.28 269.55 256.19 273.25 253.97 282.8 221.68 280.79 218.81 284.68 215.33 294.07 183.56 291.86 180.92 295.95 177.18 305.61 144.49 303.25 142.31"/><polygon class="cls-7" points="334.09 137.43 338.59 133.51 342.16 121.76 343.4 121.58 339.77 133.55 342.43 136.03 337.76 140.27 327.12 175.2 329.77 179.1 324.88 182.59 314.48 216.85 317.07 220.45 312.22 224.29 302.1 257.65 304.6 261.66 299.82 265.14 296.7 275.42 295.61 275.11 298.81 264.57 296.71 260.42 300.87 257.77 311.19 223.78 309.05 220.45 313.27 216.92 323.83 182.12 322 179.11 325.93 175.21 336.69 139.86 334.09 137.43"/><polygon class="cls-7" points="219.89 154.99 365.08 131.02 364.27 133.42 219.55 156.09 219.89 154.99"/><polygon class="cls-7" points="211.09 184.35 350.59 176.71 349.77 179.11 210.75 185.45 211.09 184.35"/><polygon class="cls-7" points="202.49 213.84 337.28 220.21 336.39 223.08 202.17 214.91 202.49 213.84"/><polygon class="cls-7" points="193.48 243.33 322.88 263.64 322.06 266.04 193.15 244.43 193.48 243.33"/><polygon class="cls-5" points="138.44 282 145.96 283.85 145.96 289.22 138.44 282"/><polygon class="cls-8" points="175.25 219.73 177.46 221.63 157.09 286.99 107.08 273.63 105.96 271.8 155.12 283.57 175.25 219.73"/><path class="cls-11" d="M177.5,325.81v28.84l19.24-28.84h13.77l-14.75,21.91,18.43,39.47H198.36l-12.25-26.66-8.61,12.59v14.07H163.38V325.81Z"/><path class="cls-11" d="M257.59,341.77v45.42H245.18v-7.73q-3.51,8.67-13.4,8.68-5.13,0-7.87-1.91A10.62,10.62,0,0,1,220,381a29.73,29.73,0,0,1-1.19-9.56V341.77h13v29.68q0,6.12,5,6.12a7.08,7.08,0,0,0,4.45-1.46,6.51,6.51,0,0,0,2.4-3.13,21.42,21.42,0,0,0,.52-5.71v-25.5Z"/><path class="cls-11" d="M308.28,387.19h-13a32.35,32.35,0,0,1-.63-7.1c-2.28,3.23-4.54,5.39-6.8,6.45a17.94,17.94,0,0,1-7.7,1.6q-6.37,0-10.31-3.47a11.78,11.78,0,0,1-3.93-9.31,14.45,14.45,0,0,1,2.29-7.87,15,15,0,0,1,7.37-5.64q5.07-2,18.5-3v-2.6q0-6.61-6.6-6.61-7,0-7.84,6.61L267.26,355q1.22-7.74,7.33-11a29.15,29.15,0,0,1,13.85-3.23,34.57,34.57,0,0,1,8.73,1.07,14.48,14.48,0,0,1,6.38,3.24,11.28,11.28,0,0,1,3.11,4.57q.81,2.4.81,8.39v20.59A31.31,31.31,0,0,0,308.28,387.19Zm-14.21-21.76q-14,1.38-14,8.5a6.16,6.16,0,0,0,1.48,4.11,5.26,5.26,0,0,0,4.22,1.73,7.38,7.38,0,0,0,5.94-2.94,11.15,11.15,0,0,0,2.4-7.27Z"/><path class="cls-11" d="M331.53,387.19h-13V341.77h12.28v8.46q2.83-9.45,9.8-9.45c.66,0,1.47.05,2.43.14v13.22a13.22,13.22,0,0,0-6.36,1.26,9,9,0,0,0-3.71,4.52,22.11,22.11,0,0,0-1.44,8.79Z"/><path class="cls-11" d="M390.13,387.19h-13a32.35,32.35,0,0,1-.63-7.1c-2.28,3.23-4.54,5.39-6.8,6.45a17.94,17.94,0,0,1-7.7,1.6q-6.39,0-10.31-3.47a11.78,11.78,0,0,1-3.93-9.31,14.45,14.45,0,0,1,2.29-7.87,15,15,0,0,1,7.37-5.64q5.07-2,18.49-3v-2.6q0-6.61-6.59-6.61-7,0-7.84,6.61L349.11,355q1.22-7.74,7.33-11a29.15,29.15,0,0,1,13.85-3.23A34.57,34.57,0,0,1,379,341.9a14.54,14.54,0,0,1,6.38,3.24,11.28,11.28,0,0,1,3.11,4.57q.81,2.4.81,8.39v20.59A31.31,31.31,0,0,0,390.13,387.19Zm-14.22-21.76q-14,1.38-14,8.5a6.16,6.16,0,0,0,1.48,4.11,5.26,5.26,0,0,0,4.22,1.73,7.38,7.38,0,0,0,5.94-2.94,11.2,11.2,0,0,0,2.39-7.27Z"/><path class="cls-11" d="M414.1,341.77v43q0,3.6-.09,6.59a14.5,14.5,0,0,1-1.62,6.06,10.09,10.09,0,0,1-4.84,4.65,18.48,18.48,0,0,1-8.12,1.6,47,47,0,0,1-7.33-.76V392.36c1.41.15,2.45.23,3.11.23a4.64,4.64,0,0,0,3.93-1.6q1.25-1.59,1.24-6.23v-43Zm0-17.22v13.53H400.38V324.55Z"/><path class="cls-11" d="M438.11,325.81V348q3.69-7.12,12.28-7.12a14.68,14.68,0,0,1,7.85,2,11,11,0,0,1,4.58,5.15q1.33,3.15,1.33,9.22v30h-13.4V361.57a36.14,36.14,0,0,0-.36-6.3,5.12,5.12,0,0,0-1.64-2.86,4.59,4.59,0,0,0-3.2-1.15,7.94,7.94,0,0,0-5,2c-1.65,1.3-2.47,4.09-2.47,8.35v25.62h-13V325.81Z"/><path class="cls-11" d="M509.53,341.77l-14.25,43.57a78,78,0,0,1-4.07,10.55,13.25,13.25,0,0,1-4.86,5.22c-2.12,1.3-5.06,2-8.84,2a43.69,43.69,0,0,1-6.43-.54v-10.3a37.86,37.86,0,0,0,6.58.63c2.64,0,4.42-.5,5.32-1.49a9.56,9.56,0,0,0,2-4.18l-16.54-45.42h14.16l8.75,27,8.41-27Z"/><path class="cls-12" d="M245.72,421.11h-9.43v8.74H246.8v2.63H233.16V408.22h13.1v2.63h-10v7.67h9.43Z"/><path class="cls-12" d="M258.5,432.48V408.22h3.42l7.78,12.28a68.24,68.24,0,0,1,4.35,7.88l.07,0c-.28-3.24-.36-6.19-.36-10V408.22h2.95v24.26h-3.16l-7.71-12.31a76.38,76.38,0,0,1-4.53-8.1l-.11,0c.18,3.06.25,6,.25,10v10.36Z"/><path class="cls-12" d="M302.38,421.11H293v8.74h10.51v2.63H289.82V408.22h13.1v2.63H293v7.67h9.43Z"/><path class="cls-12" d="M315.16,408.55a32.2,32.2,0,0,1,6-.51c3.34,0,5.5.61,7,2a6,6,0,0,1,1.91,4.61,6.36,6.36,0,0,1-4.57,6.19v.11c1.87.65,3,2.37,3.56,4.89a38.22,38.22,0,0,0,1.88,6.66h-3.24a30.65,30.65,0,0,1-1.62-5.79c-.72-3.35-2-4.61-4.86-4.72H318.3v10.51h-3.14Zm3.14,11.05h3.2c3.35,0,5.47-1.84,5.47-4.61,0-3.13-2.27-4.5-5.58-4.54a13,13,0,0,0-3.09.29Z"/><path class="cls-12" d="M360.63,431.4a22.45,22.45,0,0,1-7.45,1.33c-3.67,0-6.7-.93-9.07-3.2a12.45,12.45,0,0,1-3.39-9c0-7.24,5-12.53,13.14-12.53a14.87,14.87,0,0,1,6.05,1.12l-.76,2.55a12.63,12.63,0,0,0-5.36-1c-5.9,0-9.75,3.67-9.75,9.75s3.7,9.79,9.35,9.79a10.42,10.42,0,0,0,4.18-.64v-7.24h-4.93v-2.52h8Z"/><path class="cls-12" d="M379.89,402.71l-4.61,4.22h-2.55l3.31-4.22Zm-3.71,5.51v24.26h-3.13V408.22Z"/><path class="cls-12" d="M393.21,424.85l-2.52,7.63h-3.24l8.24-24.26h3.78l8.28,24.26H404.4l-2.59-7.63Zm8-2.45-2.38-7c-.54-1.58-.9-3-1.26-4.43h-.07c-.36,1.44-.76,2.92-1.23,4.4l-2.37,7Z"/></g></g></svg>