<svg id="Capa_1" enable-background="new 0 0 512 512" height="512" viewBox="0 0 512 512" width="512" xmlns="http://www.w3.org/2000/svg"><g><path d="m438.857 354.563h-26.109c5.256-12.759 8.172-26.728 8.172-41.383 0-43.378-25.4-80.82-62.136-98.276-3.667 20.692-13.499 39.775-28.587 55.014-14.829 14.978-25.994 32.872-32.328 51.804-1.127-.212-2.246-.319-3.338-.319h-77.063c-1.095 0-2.219.108-3.353.322-6.601-19.438-17.558-37.133-31.726-51.217-9.561-9.505-17.033-20.478-22.223-32.413-39.578 9.124-69.088 44.58-69.088 86.93 0 10.356 1.784 20.291 5.03 29.539h-22.965c-40.229-.001-73.143 32.913-73.143 73.142 0 40.229 32.914 73.143 73.143 73.143h365.714c40.229 0 73.143-32.914 73.143-73.143 0-40.229-32.914-73.143-73.143-73.143z" fill="#c8effe"/><g><g><path d="m185.584 275.29c-1.271-1.382-2.563-2.747-3.898-4.074-9.418-9.363-17.072-20.495-22.431-32.853-38.412 9.383-67.321 43.825-68.155 84.824-.224 11.019 1.574 21.583 5.011 31.376h-22.968c-40.229 0-73.143 32.914-73.143 73.143 0 33.186 22.408 61.375 52.834 70.234-7.028-11.225-11.112-24.458-11.112-38.606 0-40.228 32.914-73.143 73.143-73.143 10.94 0 19.538-9.441 18.412-20.323-.375-3.624-.532-7.313-.456-11.055.719-35.309 22.264-65.755 52.763-79.523z" fill="#99e6fc"/></g></g><g><g><g><g><path d="m253.374 91.125c-55.761 1.356-101.242 46.719-102.736 102.477-.813 30.356 11.218 57.9 31.048 77.614 14.538 14.453 25.309 32.232 31.767 51.672 1.292-.306 2.632-.486 4.016-.486h77.063c1.381 0 2.717.178 4.006.483 6.448-19.754 17.739-37.487 32.37-52.265 18.849-19.038 30.493-45.219 30.493-74.127 0-59.084-48.616-106.813-108.027-105.368z" fill="#fed402"/></g></g><path d="m212.302 271.216c-19.829-19.713-31.861-47.258-31.048-77.614 1.378-51.464 40.231-94.071 90.052-101.394-5.837-.851-11.827-1.231-17.933-1.083-55.761 1.356-101.242 46.719-102.736 102.477-.813 30.356 11.218 57.9 31.048 77.614 14.538 14.453 25.309 32.232 31.767 51.672 1.292-.306 2.632-.486 4.016-.486h26.432c-6.476-19.25-17.182-36.855-31.598-51.186z" fill="#fac600"/><g><circle cx="256" cy="196.494" fill="#fee97d" r="61.11"/></g><path d="m256 127.884c-37.832 0-68.61 30.778-68.61 68.609 0 35.296 26.795 64.443 61.11 68.192v57.321h15v-57.321c34.315-3.749 61.109-32.895 61.109-68.192 0-37.831-30.778-68.609-68.609-68.609zm7.5 121.684v-25.063c-2.394.642-4.907.989-7.5.989s-5.106-.347-7.5-.989v25.063c-26.021-3.66-46.11-26.06-46.11-53.074 0-29.56 24.049-53.609 53.61-53.609s53.609 24.049 53.609 53.609c0 27.014-20.088 49.413-46.109 53.074z" fill="#e8b800"/><path d="m312.65 344.877c.447-1.609.705-3.297.705-5.048 0-10.396-8.428-18.824-18.824-18.824h-77.062c-10.396 0-18.824 8.428-18.824 18.824 0 10.396 8.428 18.824 18.824 18.824l2.418 1h69.925c6.318-6.543 14.107-11.651 22.838-14.776z" fill="#7ca1b1"/><g><path d="m273.047 401.051c0-1.94.101-3.857.283-5.751h-51.938l4.359 20.194c3.091 14.323 15.758 24.548 30.411 24.548 9.45 0 18.064-4.256 23.824-11.111-4.423-8.327-6.939-17.813-6.939-27.88z" fill="#3e5959"/><g><path d="m251.68 415.494-4.444-20.59h-25.929l4.444 20.59c3.091 14.323 15.758 24.548 30.411 24.548 4.596 0 8.996-1.006 12.965-2.828-8.691-3.988-15.325-11.888-17.447-21.72z" fill="#384949"/></g><g><path d="m233.336 339.829c0-10.396 8.428-18.824 18.824-18.824h-34.691c-10.396 0-18.824 8.428-18.824 18.824s8.428 18.824 18.824 18.824h34.691c-10.396 0-18.824-8.428-18.824-18.824z" fill="#678d98"/></g><path d="m290.789 358.653h-73.32c-10.396 0-18.824 8.428-18.824 18.824s8.428 18.824 18.824 18.824h55.784c1.163-14.676 7.648-27.873 17.536-37.648z" fill="#678d98"/><g><path d="m233.336 377.477c0-10.396 8.428-18.824 18.824-18.824h-34.691c-10.396 0-18.824 8.428-18.824 18.824 0 10.396 8.428 18.824 18.824 18.824h34.691c-10.396-.001-18.824-8.428-18.824-18.824z" fill="#537983"/></g></g></g><g><g><path d="m256 63.997c-4.142 0-7.5-3.358-7.5-7.5v-37.846c0-4.142 3.358-7.5 7.5-7.5 4.143 0 7.5 3.358 7.5 7.5v37.845c0 4.143-3.357 7.501-7.5 7.501z" fill="#fed402"/></g><g><path d="m114.942 205.055h-37.845c-4.142 0-7.5-3.358-7.5-7.5s3.358-7.5 7.5-7.5h37.845c4.142 0 7.5 3.358 7.5 7.5s-3.358 7.5-7.5 7.5z" fill="#fed402"/></g><g><path d="m434.903 205.055h-37.846c-4.143 0-7.5-3.358-7.5-7.5s3.357-7.5 7.5-7.5h37.846c4.143 0 7.5 3.358 7.5 7.5s-3.357 7.5-7.5 7.5z" fill="#fed402"/></g><g><path d="m355.743 105.312c-1.92 0-3.839-.732-5.304-2.197-2.929-2.929-2.929-7.678 0-10.606l26.761-26.76c2.931-2.93 7.679-2.929 10.607 0s2.929 7.678 0 10.606l-26.761 26.76c-1.464 1.464-3.384 2.197-5.303 2.197z" fill="#fed402"/></g><g><path d="m156.257 105.312c-1.919 0-3.839-.732-5.303-2.197l-26.76-26.76c-2.929-2.929-2.929-7.678 0-10.606 2.929-2.929 7.678-2.929 10.606 0l26.76 26.76c2.929 2.929 2.929 7.678 0 10.606-1.464 1.464-3.384 2.197-5.303 2.197z" fill="#fed402"/></g></g><g><circle cx="256" cy="196.494" fill="#fe9901" r="30"/></g><path d="m250 196.493c0-12.301 7.406-22.867 18-27.497-3.676-1.606-7.732-2.503-12-2.503-16.569 0-30 13.431-30 30s13.431 30 30 30c4.268 0 8.324-.897 12-2.503-10.594-4.63-18-15.196-18-27.497z" fill="#fb8801"/></g><g><g><path d="m164.314 420h-80.354c-4.142 0-7.5-3.358-7.5-7.5s3.358-7.5 7.5-7.5h80.354c4.142 0 7.5 3.358 7.5 7.5s-3.358 7.5-7.5 7.5z" fill="#7ca1b1"/></g><g><path d="m164.314 447.542h-80.354c-4.142 0-7.5-3.358-7.5-7.5s3.358-7.5 7.5-7.5h80.354c4.142 0 7.5 3.358 7.5 7.5s-3.358 7.5-7.5 7.5z" fill="#7ca1b1"/></g></g><g><g><circle cx="332.697" cy="401.051" fill="#05e39c" r="60.65"/></g><g><path d="m306.74 401.051c0-27.466 18.263-50.655 43.304-58.119-5.497-1.639-11.317-2.531-17.347-2.531-33.496 0-60.65 27.154-60.65 60.65s27.154 60.65 60.65 60.65c6.03 0 11.849-.893 17.347-2.531-25.041-7.463-43.304-30.652-43.304-58.119z" fill="#0ed290"/></g><g><path d="m328.844 425.702c-1.92 0-3.839-.732-5.304-2.197l-23.559-23.559c-2.929-2.929-2.929-7.678 0-10.606 2.931-2.929 7.679-2.929 10.607 0l18.255 18.256 25.963-25.961c2.929-2.929 7.678-2.929 10.606 0s2.929 7.678-.001 10.606l-31.266 31.265c-1.462 1.463-3.382 2.196-5.301 2.196z" fill="#fff"/></g></g></g></svg>