<svg xmlns="http://www.w3.org/2000/svg" xmlns:xlink="http://www.w3.org/1999/xlink" viewBox="0 0 324.47109 289.6212"><defs><style>.cls-1,.cls-5{fill:none;}.cls-2{isolation:isolate;}.cls-3{fill:#6aa049;}.cls-4,.cls-8,.cls-9{fill:#a6db6d;}.cls-5{stroke:#6aa049;stroke-linecap:round;stroke-linejoin:round;stroke-width:0.8275px;}.cls-6{fill:#84a756;}.cls-13,.cls-7{fill:#fff;}.cls-8{opacity:0.35;}.cls-12,.cls-8,.cls-9{mix-blend-mode:multiply;}.cls-9{opacity:0.3;}.cls-10{clip-path:url(#clip-path);}.cls-11,.cls-12{fill:#365f7a;}.cls-12{opacity:0.34;}.cls-13{opacity:0.43;}.cls-14{fill:#96d457;}</style><clipPath id="clip-path"><circle class="cls-1" cx="156.85784" cy="150.9113" r="79.55963" transform="translate(-31.34911 41.5644) rotate(-13.73682)"/></clipPath></defs><title>mundosvg</title><g class="cls-2"><g id="Capa_2" data-name="Capa 2"><g id="OBJECTS"><path class="cls-3" d="M301.06446,197.61077a4.76747,4.76747,0,0,1-.447-1.85217,5.70028,5.70028,0,0,1,.18286-1.6626,4.96927,4.96927,0,0,1,.66748-1.517,4.17533,4.17533,0,0,1,1.34326-1.31384,2.47589,2.47589,0,0,1,3.40186.82971,2.5517,2.5517,0,0,1,.124.23047,4.1723,4.1723,0,0,1,.39575,1.83679,4.964,4.964,0,0,1-.27954,1.63355,5.70771,5.70771,0,0,1-.7644,1.48791,4.77031,4.77031,0,0,1-1.39429,1.29846,2.27352,2.27352,0,0,1-3.12158-.76989C301.13355,197.74724,301.09669,197.67791,301.06446,197.61077Z"/><path class="cls-3" d="M306.54542,181.02422a3.34249,3.34249,0,0,1-.76514-1.29956,2.99676,2.99676,0,0,1-.116-1.19531,2.55119,2.55119,0,0,1,.384-1.115,2.84975,2.84975,0,0,1,1.08056-1.00354,2.98372,2.98372,0,0,1,3.63526.58276,2.84833,2.84833,0,0,1,.71264,1.29114,2.55191,2.55191,0,0,1,.01587,1.17944,3.001,3.001,0,0,1-.48388,1.09937,3.3392,3.3392,0,0,1-1.1333.99512A2.74251,2.74251,0,0,1,306.54542,181.02422Z"/><path class="cls-3" d="M312.92262,187.23a4.85256,4.85256,0,0,1-.29859-1.90185,5.86335,5.86335,0,0,1,.31543-1.66565,5.10278,5.10278,0,0,1,.78809-1.48389,4.24675,4.24675,0,0,1,1.446-1.23059,2.46107,2.46107,0,0,1,3.31714,1.05334,2.73547,2.73547,0,0,1,.11939.26856,4.25429,4.25429,0,0,1,.24853,1.88269,5.109,5.109,0,0,1-.40991,1.62939,5.85407,5.85407,0,0,1-.88233,1.44751,4.84734,4.84734,0,0,1-1.49609,1.21143,2.25946,2.25946,0,0,1-3.043-.975A2.32685,2.32685,0,0,1,312.92262,187.23Z"/><path class="cls-3" d="M6.24561,116.4A4.76728,4.76728,0,0,1,7.761,117.55462a5.694,5.694,0,0,1,.907,1.40515,4.96209,4.96209,0,0,1,.43921,1.5979,4.17245,4.17245,0,0,1-.21338,1.86658A2.47577,2.47577,0,0,1,5.731,123.92657a2.55289,2.55289,0,0,1-.2417-.10059,4.17175,4.17175,0,0,1-1.46582-1.175A4.96511,4.96511,0,0,1,3.21,121.20745a5.70272,5.70272,0,0,1-.3457-1.63635,4.7704,4.7704,0,0,1,.26269-1.88684,2.27376,2.27376,0,0,1,2.908-1.37207C6.10621,116.33782,6.17847,116.36809,6.24561,116.4Z"/><path class="cls-3" d="M12.45753,132.72442a3.33929,3.33929,0,0,1,1.41357.52514,3.00145,3.00145,0,0,1,.84375.854,2.54971,2.54971,0,0,1,.40528,1.10718,2.84834,2.84834,0,0,1-.20533,1.45983,2.98451,2.98451,0,0,1-3.18847,1.84143,2.84954,2.84954,0,0,1-1.36719-.55212,2.54958,2.54958,0,0,1-.75635-.90478,3.0042,3.0042,0,0,1-.31787-1.158,3.34058,3.34058,0,0,1,.25171-1.4867A2.74262,2.74262,0,0,1,12.45753,132.72442Z"/><path class="cls-3" d="M3.60279,131.93767a4.84827,4.84827,0,0,1,1.4314,1.287,5.85071,5.85071,0,0,1,.80615,1.49109,5.0958,5.0958,0,0,1,.32495,1.64819,4.24645,4.24645,0,0,1-.34546,1.86707,2.46107,2.46107,0,0,1-3.23828,1.27551,2.74079,2.74079,0,0,1-.26172-.13293A4.24609,4.24609,0,0,1,.93922,138.07,5.09613,5.09613,0,0,1,.229,136.54754,5.85231,5.85231,0,0,1,.00025,134.868a4.847,4.847,0,0,1,.39649-1.88367,2.25955,2.25955,0,0,1,2.97607-1.16345A2.33566,2.33566,0,0,1,3.60279,131.93767Z"/><path class="cls-3" d="M227.69141,25.85015a4.76959,4.76959,0,0,1-1.80688-.60413,5.70577,5.70577,0,0,1-1.31226-1.03759,4.969,4.969,0,0,1-.93115-1.371,4.17153,4.17153,0,0,1-.40088-1.83569,2.47627,2.47627,0,0,1,2.50879-2.44287,2.59221,2.59221,0,0,1,.26123.01733,4.173,4.173,0,0,1,1.76685.63941,4.96664,4.96664,0,0,1,1.23608,1.104,5.70653,5.70653,0,0,1,.85523,1.4375,4.76819,4.76819,0,0,1,.36035,1.871,2.27329,2.27329,0,0,1-2.30908,2.23706C227.84376,25.86394,227.76539,25.85857,227.69141,25.85015Z"/><path class="cls-3" d="M216.54322,12.40105a3.341,3.341,0,0,1-1.50757-.04113,2.9976,2.9976,0,0,1-1.07446-.53626,2.547,2.547,0,0,1-.74121-.91724,2.85078,2.85078,0,0,1-.2771-1.44836,2.984,2.984,0,0,1,2.42334-2.77185,2.84923,2.84923,0,0,1,1.47241.08142,2.55005,2.55005,0,0,1,1.00806.61243,3.00131,3.00131,0,0,1,.675.99365,3.33941,3.33941,0,0,1,.2417,1.48865A2.74207,2.74207,0,0,1,216.54322,12.40105Z"/><path class="cls-3" d="M225.18751,10.29021a4.85264,4.85264,0,0,1-1.77027-.75634A5.85229,5.85229,0,0,1,222.1731,8.3825a5.0999,5.0999,0,0,1-.83935-1.45545,4.25025,4.25025,0,0,1-.27539-1.87878,2.46093,2.46093,0,0,1,2.65332-2.25208,2.7394,2.7394,0,0,1,.291.04139,4.24927,4.24927,0,0,1,1.72754.78857,5.10471,5.10471,0,0,1,1.16333,1.21216,5.859,5.859,0,0,1,.75855,1.516,4.85257,4.85257,0,0,1,.23242,1.911,2.2595,2.2595,0,0,1-2.44141,2.0614A2.32835,2.32835,0,0,1,225.18751,10.29021Z"/><path class="cls-4" d="M64.53894,0s20.0667,28.135,0,38.8925"/><path class="cls-4" d="M64.53894,0s-.00005,28.135,0,38.8925"/><path class="cls-4" d="M64.53894,0s-20.0668,28.135,0,38.8925"/><line class="cls-5" x1="64.53894" y1="13.0331" x2="64.53894" y2="53.3048"/><polyline class="cls-5" points="68.998 17.102 64.539 22.136 60.08 17.102"/><polyline class="cls-5" points="68.998 23.59 64.539 28.624 60.08 23.59"/><path class="cls-4" d="M39.86194,13.384s20.0668,28.1349,0,38.8924"/><path class="cls-4" d="M39.86194,13.384s0,28.1349,0,38.8924"/><path class="cls-4" d="M39.86194,13.384s-20.0669,28.1349,0,38.8924"/><line class="cls-5" x1="39.86194" y1="26.4171" x2="39.86194" y2="66.6886"/><polyline class="cls-5" points="44.321 30.486 39.862 35.52 35.403 30.486"/><polyline class="cls-5" points="44.321 36.974 39.862 42.008 35.403 36.974"/><path class="cls-4" d="M311.58714,82.0864s20.0667,28.1349,0,38.8923"/><path class="cls-4" d="M311.58714,82.0864s-.0001,28.1349,0,38.8923"/><path class="cls-4" d="M311.58714,82.0864s-20.0669,28.1349,0,38.8923"/><line class="cls-5" x1="311.58714" y1="95.1195" x2="311.58714" y2="135.3911"/><polyline class="cls-5" points="316.046 99.188 311.587 104.222 307.128 99.188"/><polyline class="cls-5" points="316.046 105.677 311.587 110.71 307.128 105.677"/><path class="cls-4" d="M287.49414,59.0412s20.0668,28.135,0,38.8924"/><path class="cls-4" d="M287.49414,59.0412V97.9336"/><path class="cls-4" d="M287.49414,59.0412s-20.0668,28.135,0,38.8924"/><line class="cls-5" x1="287.49414" y1="72.0743" x2="287.49414" y2="112.3458"/><polyline class="cls-5" points="291.953 76.143 287.494 81.177 283.035 76.143"/><polyline class="cls-5" points="291.953 82.631 287.494 87.665 283.035 82.631"/><path class="cls-6" d="M214.26024,130.4489l45.6433-30.3839,22.5841,37.4168s15.8196,21.0542,9.1904,41.7252-28.0956,29.9755-38.4029,30.2638Z"/><path class="cls-6" d="M81.84884,118.6793l28.5345,54.7631L91.64864,162.778l-11.0034,17.2936s-6.2903,14.4114,10.7151,20.1759c0,0-66.8687,6.341-69.7509-35.7401,0,0-.2883-20.7524,14.123-32.8579l-17.4811-12.9702Z"/><path class="cls-6" d="M110.38334,16.0704s-13.6481-2.594-29.7381,26.2287-27.0427,45.2516-27.0427,45.2516l63.6982,35.452L175.448,36.8228S150.735,14.3411,110.38334,16.0704Z"/><path class="cls-7" d="M319.46474,157.8588H162.62334a16.9166,16.9166,0,0,1,2.5216-16.2659,15.04058,15.04058,0,0,1,14.7263-4.6905c-6.0308-10.2977-3.7371-24.7179,5.1911-32.6363s23.5192-8.4727,33.0227-1.2547c-1.6939-7.8884,6.4106-14.1813,13.6446-17.754,8.8944-4.3927,19.4464-8.0758,28.4817-3.9809,10.9782,4.9752,14.3955,18.9728,14.0984,31.0221a16.14368,16.14368,0,0,1,25.5273,18.3705,18.44591,18.44591,0,0,1,20.6548,4.1297c5.0946,5.5087,5.0141,16.5033,1.3656,23.06Z"/><path class="cls-7" d="M127.14714,103.1532H13.80064A12.22564,12.22564,0,0,1,15.623,91.3981a10.87,10.87,0,0,1,10.6425-3.3898A19.42013,19.42013,0,0,1,30.017,64.4227a19.42017,19.42017,0,0,1,23.8648-.9068c-1.2242-5.7008,4.6328-10.2486,9.8608-12.8305,6.4277-3.1745,14.0535-5.8362,20.5831-2.8769,7.9338,3.5956,10.4034,13.7113,10.1888,22.4191a11.66673,11.66673,0,0,1,18.448,13.2761,13.33071,13.33071,0,0,1,14.9269,2.9843c3.6819,3.981,3.6236,11.9268.9869,16.6652Z"/><circle class="cls-8" cx="156.85784" cy="148.6791" r="107.8152"/><circle class="cls-9" cx="156.85784" cy="148.67905" r="92.53535" transform="translate(-15.02724 279.6957) rotate(-80.78252)"/><g class="cls-10"><circle class="cls-11" cx="156.85784" cy="150.9113" r="79.55963" transform="translate(-31.34911 41.5644) rotate(-13.73682)"/><path class="cls-12" d="M162.38724,71.3514c-1.7325.2982-.652,4.5536.7007,5.6764,1.3525,1.1229,3.1844,1.4095,4.875,1.8913,1.6906.4816,3.4859,1.3717,4.0565,3.0343.3766,1.0973.1533,2.3809.7518,3.3747,1.4939,2.4808,6.3685.8894,7.5264,3.5437.5131,1.176-.0596,2.6869.671,3.7417.5354.7729,1.6055,1.0253,2.1587,1.7854,1.4225,1.9544-1.5722,3.9801-3.0173,5.9178a5.19235,5.19235,0,0,0,.3896,6.4708c1.841,1.933,4.7976,2.0912,7.4061,2.6586,2.6083.5674,5.5332,2.3013,5.4175,4.9682-.0939,2.1601-2.19,3.7536-2.5864,5.8791-.8174,4.3839,5.7482,8.1752,3.923,12.2441a14.87584,14.87584,0,0,1-1.5035,2.1557c-2.2959,3.3597-.9454,7.918.6726,11.6516s3.4612,7.9347,1.9284,11.7041c-.6334,1.5576-1.7887,2.843-2.5742,4.3295-2.179,4.1229-1.2538,9.1947.3841,13.5608,1.7821,4.7499,5.537,9.8734,10.5801,9.3202,1.6623-.1824,3.2-.9899,4.8539-1.2377,1.6537-.2476,3.6735.3312,4.185,1.9234a4.729,4.729,0,0,1,.0363,2.0489c-.4328,3.351-.9591,6.9169-3.1865,9.4576-1.3439,1.5327-3.1873,2.5386-4.6497,3.9584s-2.5522,3.584-1.7856,5.4726c.3196.7874.9486,1.6065.6189,2.3897a2.22122,2.22122,0,0,1-1.1649.9777l-19.4563,9.7052c-1.9061.9508-4.5775,1.7484-5.8601.048-1.3725-1.8197.4275-4.2554,1.9127-5.9841a17.40664,17.40664,0,0,0,4.4753-9.7013c.2913-3.6095-1.1694-7.4765-4.1992-9.4596-3.3728-2.2074-7.7493-1.7275-11.774-1.5036-4.0247.2241-8.6509-.1695-11.1005-3.3708-1.039-1.358-1.5814-3.1204-2.9197-4.1848-3.4067-2.7095-8.343,1.072-12.6516.4538-4.4476-.6383-7.4639-5.8932-11.9539-5.7255-2.8678.1071-5.0835,2.4148-7.5366,3.9041s-6.4001,1.7534-7.5112-.8925c-.5028-1.1973-.215-2.642-.8378-3.7814-1.3129-2.4023-5.4186-1.6667-6.9781-3.9169-.6178-.8917-.6775-2.0672-1.2307-3.0003-1.0789-1.8199-3.5254-2.109-5.6085-2.4779-2.0831-.3691-4.5333-1.5246-4.5576-3.6401-.0241-2.1007,2.5803-3.3669,4.6369-2.9379s3.6976,1.9135,5.441,3.0857c2.5902,1.7415,5.7875,2.8812,8.8354,2.2088s5.6975-3.6018,5.2654-6.6929c-.4644-3.3233-4.0844-5.7953-3.8403-9.1421.2733-3.7478,4.8338-5.227,7.8107-7.5202a11.599,11.599,0,0,0,3.7301-12.7624,9.05872,9.05872,0,0,1-.7863-2.7049c-.0867-2.7516,3.002-4.2827,5.3116-5.7812a12.19169,12.19169,0,0,0,5.7579-8.7117c.3411-3.5857-1.7534-7.4566-5.1905-8.5334,1.658-2.1316.2972-5.4897-2.0278-6.8635-2.3251-1.3736-5.191-1.3264-7.89-1.2388-3.2935.1068-6.7943.2793-9.4963,2.1655-2.6282,1.8346-5.0777,5.3414-8.0952,4.2606a5.6369,5.6369,0,0,1-2.4239-2.0711,23.45453,23.45453,0,0,1-4.2651-9.4315s-30.0772,25.0365-22.8461,70.3703c7.2312,45.334,43.387,75.9274,92.0585,67.8618,48.6713-8.0655,63.4117-33.0965,70.6429-60.3525S226.447,60.3258,162.38724,71.3514Z"/><path class="cls-4" d="M91.60434,105.2433a12.442,12.442,0,0,1,13.2768,6.1652,19.81811,19.81811,0,0,0,2.2141,4.1613c1.0364,1.1883,2.9685,1.8345,4.1901.8374.947-.7729,1.0688-2.159,1.0256-3.3803a22.80494,22.80494,0,0,1,.0311-5.1918,4.81689,4.81689,0,0,1,3.0767-3.8673c1.8293-.5084,3.7272.5721,5.6251.5192,1.5685-.0438,3.0122-.8556,4.5596-1.1154,1.5475-.2596,3.512.374,3.7655,1.9224.1903,1.1607-.6824,2.3356-.3744,3.4706.6178,2.2757,4.5978,1.4013,5.8658,3.3894,1.1616,1.8212-.9402,3.9398-2.7776,5.076q-5.80665,3.59085-11.6135,7.1818c1.7298.9868,3.7372,2.6284,3.1171,4.5209-.326.9951-1.2923,1.6074-2.0149,2.3653-1.9872,2.0836-2.1289,5.2841-3.4113,7.862-1.8192,3.6571-5.8228,5.8471-7.6478,9.5014a9.73252,9.73252,0,0,0,1.2523,10.3869,5.30791,5.30791,0,0,1,1.3583,2.0258c.1909.7992-.3663,1.8323-1.1822,1.7344a2.07637,2.07637,0,0,1-1.0005-.5722c-3.4601-2.8466-8.345-2.9559-12.8257-2.9291a10.46183,10.46183,0,0,0-3.9866.5432c-3.0052,1.252-4.1573,4.9548-4.1492,8.2104a20.37466,20.37466,0,0,0,2.9526,10.4795,3.65477,3.65477,0,0,0,1.5942,1.6172,1.42857,1.42857,0,0,0,1.9082-.7351,3.24983,3.24983,0,0,1,6.4302-.9471c.2072,1.3602-.4441,2.8305.118,4.0864,1.1301,2.5258,5.1796,1.2144,7.4986,2.7241,2.3516,1.5312,1.9268,5.1481,3.471,7.4912a5.16181,5.16181,0,0,0,7.6501.7317c.602-.6167,1.0402-1.3883,1.6997-1.943a3.75207,3.75207,0,0,1,5.4295.9693c1.7482-1.4979,3.8268-2.9626,6.1212-2.7726,3.6913.3057,5.9717,4.6672,9.6375,5.1984,1.8229.2641,3.6863-.4867,5.5034-.1845,4.1027.6822,6.1311,6.2508,10.2722,6.639,2.6776.2512,5.6585-1.7849,7.8596-.2394.9948.6987,1.5344,2.0105,2.6766,2.4271a9.89894,9.89894,0,0,0,2.3553.1757,3.47529,3.47529,0,0,1,.8668,6.7012c-3.0974,1.1843-4.5621,5.9975-3.61,9.1741.3688,1.2304,1.0514,2.5209.6029,3.7247-.6207,1.6667-2.8143,1.886-4.511,2.4199-1.8809.5922-4.0555,3.1211-3.8302,2.871a6.74324,6.74324,0,0,0-.8701,2.4024s-10.6157.6887-18.6604-1.1064a5.86978,5.86978,0,0,0-1.9174-5.2957,14.84645,14.84645,0,0,0-4.8816-2.0919c-4.4059-1.3106-9.0189-2.9461-11.8916-6.5345-3.0356-3.7921-3.5047-8.97-3.7869-13.8191-.0727-1.2492-.2287-2.6682-1.2376-3.4082-1.1753-.8621-2.8322-.331-4.2624-.612a7.5091,7.5091,0,0,1-3.7069-2.5751c-2.8614-3.0174-5.9535-6.1542-9.979-7.1958-1.4095-.3647-2.9353-.4742-4.1486-1.2788-1.0027-.665-1.696-1.7507-2.7654-2.3021-1.8669-.9625-4.4109-.0691-6.0641-1.3646a6.821,6.821,0,0,1-1.6459-2.5884,15.20088,15.20088,0,0,0-4.5605-5.5483,19.73333,19.73333,0,0,1-1.9515-1.3648s-5.0333-14.8552-3.6703-28.37c1.363-13.5146,4.8163-27.987,13.7736-39.0486Z"/><path class="cls-4" d="M232.41244,120.2107c2.2578,3.8086,4.0053,14.943,4.0053,14.943,3.1795,14.0156,2.4088,25.0163-2.4767,41.7705-4.8854,16.7545-19.8914,29.2938-19.8914,29.2938-2.4386-4.4408.1093-8.1763,2.6655-10.5534.9666-.8988,2.1715-1.7165,2.4838-2.9987.2764-1.1342-.2376-2.2927-.3991-3.449-.684-4.8976,4.858-8.7807,4.911-13.7256a3.75731,3.75731,0,0,0-.6113-2.2635c-1.0955-1.5035-3.323-1.4233-5.1685-1.1897-3.8455.4869-8.3308,1.4205-9.9409,4.9467a5.23884,5.23884,0,0,1-.8251,1.5487c-1.2786,1.3272-3.6102-.0455-4.3069-1.7517-.6965-1.7064-.6387-3.7164-1.6793-5.2375-1.2407-1.8136-4.0225-3.2856-3.2137-5.3286.5132-1.2958,2.3565-1.8345,2.5444-3.2153a5.2582,5.2582,0,0,0-.2977-1.7349c-.3389-1.6348.4233-3.2658.9469-4.8512a17.72307,17.72307,0,0,0-.489-12.3096c-1.006-2.3899-2.5816-4.8629-1.9157-7.369.3591-1.3519,1.3387-2.4714,1.7155-3.8184a8.32016,8.32016,0,0,0-.6769-5.1028,13.29465,13.29465,0,0,1-1.2942-5.0375c.0576-1.7454,1.201-3.6081,2.9371-3.7984a6.00492,6.00492,0,0,1,3.3863,1.1219c4.6969,2.579,10.6193,3.7688,15.3758,1.3018,1.5699-.8143,2.9553-1.9951,4.6235-2.5822,1.6682-.5868,4.2276-.7988,5.1647.7009Z"/><path class="cls-4" d="M166.19874,71.8921c-.9289,2.1852,1.3821,3.7967,3.125,4.3537,1.9327.6175,4.2193.6895,5.5735,2.2001.9992,1.1148,1.2054,2.7423,2.0703,3.9643,2.5052,3.54,8.4081,1.7156,11.9913,4.1582a2.098,2.098,0,0,1,1.1094,2.0566c-.1644.6386-.7912,1.0376-1.1342,1.6008-1.5321,2.5149,3.2447,5.3222,2.2133,8.0805-.8268,2.2112-4.2939,1.7405-5.9654,3.4074a1.38447,1.38447,0,0,0-.4713.9618c.0147.7337.8461,1.1314,1.5455,1.3538q6.15435,1.9566,12.4781,3.3129c1.2592.27,2.7006.6574,3.2335,1.8297.9325,2.051-1.723,4.6767-.4095,6.5073a2.5819,2.5819,0,0,0,2.9531.6509,9.97861,9.97861,0,0,0,2.681-1.8057,22.23342,22.23342,0,0,1,18.2962-3.8844s-11.7223-26.4406-41.4906-36.1443C183.99794,74.4957,171.37674,71.6912,166.19874,71.8921Z"/><path class="cls-13" d="M101.74774,105.2896c1.3319,1.1643,1.5041,3.2341,1.059,4.9464s-1.691,3.097-2.3394,4.7433c-2.3159,5.8794-4.32,10.4998-5.1458,16.2555-.548,3.8206-1.2579,8.0343-3.4859,11.186a4.09848,4.09848,0,0,1-2.0687,1.6902c-1.5977.4669-3.2976-.7686-3.9234-2.311a9.59616,9.59616,0,0,1-.2183-4.9288,97.35056,97.35056,0,0,1,7.6961-26.6024c.94-2.079,2.149-4.3083,4.2955-5.0822C97.61684,105.1866,100.38914,104.1017,101.74774,105.2896Z"/><path class="cls-13" d="M107.96674,93.6353a3.22037,3.22037,0,0,1,3.352,2.2169,4.086,4.086,0,0,1-.6344,3.3148,9.69124,9.69124,0,0,1-2.4883,2.4098,7.16546,7.16546,0,0,1-2.3854,1.2735,2.55841,2.55841,0,0,1-3.2224-1.3824,5.14512,5.14512,0,0,1,.8324-5.3898,7.85534,7.85534,0,0,1,5.0146-2.5671"/></g><path class="cls-14" d="M21.73844,165.9078s-3.5879,17.6225,11.6882,39.8161l21.617,40.9281s9.9867,22.1936,25.6016,23.0582h67.784V200.5875l-57.0689-.34S28.49684,207.0836,21.73844,165.9078Z"/><path class="cls-14" d="M110.38334,16.0704s25.6521,4.3235,41.7929,27.6698c16.1406,23.3464,26.805,42.9459,26.805,42.9459l-17.87,10.088,65.2773,5.4763,26.8866-59.6631-18.3777,10.088-13.835-22.4817s-9.9997-13.8349-26.9051-15.2761S110.38334,16.0704,110.38334,16.0704Z"/><path class="cls-14" d="M291.85814,157.463c1.1342,8.2118.6341,18.2962-8.6978,28.6389,0,0-17.3589,17.0031-31.3432,18.5033l-13.9843,1.5004-39.0073-2.0003V186.1019l-33.0062,51.5096,33.0062,52.0097V268.1173h22.5042s19.9672,3.5006,30.4874-15.503l10.5203-19.0035,18.0034-28.5054,6.5012-10.4568s12.715-19.5234,5.0161-37.1856"/></g></g></g></svg>