<svg xmlns="http://www.w3.org/2000/svg" xmlns:xlink="http://www.w3.org/1999/xlink" viewBox="0 0 2864.93 2760.17"><defs><style>.cls-1{fill:none;}.cls-2{isolation:isolate;}.cls-3{fill:#eeefe4;}.cls-4{clip-path:url(#clip-path);}.cls-5{clip-path:url(#clip-path-2);}.cls-6{fill:#009e01;}.cls-7{opacity:0.5;mix-blend-mode:soft-light;}.cls-8{fill:#fff;}.cls-9{fill:#009000;}.cls-10{clip-path:url(#clip-path-3);}.cls-11{fill:#fcfdfe;}.cls-12{fill:#006b52;}.cls-13{clip-path:url(#clip-path-4);}.cls-14{fill:url(#linear-gradient);}.cls-15{fill:url(#linear-gradient-2);}.cls-16{fill:url(#linear-gradient-3);}.cls-17{opacity:0.4;fill:url(#linear-gradient-4);}.cls-17,.cls-60,.cls-61,.cls-62,.cls-63,.cls-64,.cls-65,.cls-66,.cls-67,.cls-68,.cls-69,.cls-70,.cls-71,.cls-72,.cls-73,.cls-74,.cls-75,.cls-76,.cls-77,.cls-78,.cls-79,.cls-80,.cls-81,.cls-82,.cls-83{mix-blend-mode:multiply;}.cls-18{fill:url(#linear-gradient-5);}.cls-19{fill:url(#linear-gradient-6);}.cls-20{fill:url(#linear-gradient-7);}.cls-21{fill:url(#linear-gradient-8);}.cls-22{fill:url(#linear-gradient-9);}.cls-23{fill:url(#linear-gradient-10);}.cls-24{fill:url(#linear-gradient-11);}.cls-25{fill:url(#linear-gradient-12);}.cls-26{fill:url(#linear-gradient-13);}.cls-27{fill:url(#linear-gradient-14);}.cls-28{fill:url(#linear-gradient-15);}.cls-29{fill:url(#linear-gradient-16);}.cls-30{fill:url(#linear-gradient-17);}.cls-31{fill:url(#linear-gradient-18);}.cls-32{fill:url(#linear-gradient-19);}.cls-33{fill:url(#linear-gradient-20);}.cls-34{fill:url(#linear-gradient-21);}.cls-35{fill:url(#linear-gradient-22);}.cls-36{fill:url(#linear-gradient-23);}.cls-37{fill:url(#linear-gradient-24);}.cls-38{fill:url(#linear-gradient-25);}.cls-39{fill:url(#linear-gradient-26);}.cls-40{fill:url(#linear-gradient-27);}.cls-41{fill:url(#linear-gradient-28);}.cls-42{fill:url(#linear-gradient-29);}.cls-43{fill:url(#linear-gradient-30);}.cls-44{fill:url(#linear-gradient-31);}.cls-45{fill:url(#linear-gradient-32);}.cls-46{fill:url(#linear-gradient-33);}.cls-47{fill:url(#linear-gradient-34);}.cls-48{fill:url(#linear-gradient-35);}.cls-49{fill:url(#linear-gradient-36);}.cls-50{fill:url(#linear-gradient-37);}.cls-51{fill:url(#linear-gradient-38);}.cls-52{fill:url(#linear-gradient-39);}.cls-53{fill:url(#linear-gradient-40);}.cls-54{fill:url(#linear-gradient-41);}.cls-55{fill:url(#linear-gradient-42);}.cls-56{fill:url(#linear-gradient-43);}.cls-57{fill:url(#linear-gradient-44);}.cls-58{fill:url(#linear-gradient-45);}.cls-59{fill:url(#linear-gradient-46);}.cls-60,.cls-61,.cls-62,.cls-63,.cls-64,.cls-65,.cls-66,.cls-67,.cls-68,.cls-69,.cls-70,.cls-71,.cls-72,.cls-73,.cls-74,.cls-75,.cls-76,.cls-77,.cls-78,.cls-79,.cls-80,.cls-81,.cls-82,.cls-83{opacity:0.2;}.cls-60{fill:url(#linear-gradient-47);}.cls-61{fill:url(#linear-gradient-48);}.cls-62{fill:url(#linear-gradient-49);}.cls-63{fill:url(#linear-gradient-50);}.cls-64{fill:url(#linear-gradient-51);}.cls-65{fill:url(#linear-gradient-52);}.cls-66{fill:url(#linear-gradient-53);}.cls-67{fill:url(#linear-gradient-54);}.cls-68{fill:url(#linear-gradient-55);}.cls-69{fill:url(#linear-gradient-56);}.cls-70{fill:url(#linear-gradient-57);}.cls-71{fill:url(#linear-gradient-58);}.cls-72{fill:url(#linear-gradient-59);}.cls-73{fill:url(#linear-gradient-60);}.cls-74{fill:url(#linear-gradient-61);}.cls-75{fill:url(#linear-gradient-62);}.cls-76{fill:url(#linear-gradient-63);}.cls-77{fill:url(#linear-gradient-64);}.cls-78{fill:url(#linear-gradient-65);}.cls-79{fill:url(#linear-gradient-66);}.cls-80{fill:url(#linear-gradient-67);}.cls-81{fill:url(#linear-gradient-68);}.cls-82{fill:url(#linear-gradient-69);}.cls-83{fill:url(#linear-gradient-70);}</style><clipPath id="clip-path"><rect class="cls-1" x="220.83" y="430.63" width="1266.23" height="1307.86"/></clipPath><clipPath id="clip-path-2"><path class="cls-1" d="M946.37,2096.06l257.72-22.18s37.14-136.38-34-224.24c-145.25-179.27,21.9-294,84.72-352.49,94.75-88.24,139.75-207.32-13.9-244.25s-23.47-281.33,150.07-401.79c169.82-117.88,58.27-487.79-332.72-266.4C824.71,716.92,885,971.37,884.85,1107.09s-199.52,164.12-116.78,322.79c70.67,135.54,190.78,228.46,114.17,332.41S806.17,1975.37,946.37,2096.06Z"/></clipPath><clipPath id="clip-path-3"><path class="cls-1" d="M1053.88,2142l241.57-45.53s72.92-173.9-11.76-227.12-39.8-221.88-26.29-314.59c36.64-251.54-238.13-246.57-216.88-573.58,5.65-87,45.52-250.95-23.24-325.06-78.33-84.42-144.42-11-193.78-80.56-77.15-108.68-211-154.66-299.15-53.87-87.05,99.49-3.42,314.46,227.62,498,150.83,150.47,150.57,192.53,131.25,293.71-13.53,70.87-94,252.51-1.88,333.24s160.92,165.92,118.23,244.16C934.62,2009.87,1053.88,2142,1053.88,2142Z"/></clipPath><clipPath id="clip-path-4"><path class="cls-1" d="M1069.8,1792.93c44.31-1.25,93.45-27.15,112.75-68.55,12.61-27.06,17-70.44-4.49-92.45-8.79-9-18-11.64-25.26-13.35-79.61-18.87-89.47-156.39-70.83-206.32,23.06-61.8,73.8-206.79-48.81-237.91-102.06-25.91-173.23-21.76-187.71-150.41S755.86,818.85,639.26,833.3c-122.7,15.21-233.19-142.9-330.92-82.22C138.05,856.81,313.8,1132,532.4,1202s100.4,154.17,100.74,260.11c0,10.93,4.26,35.31,16.29,60.47,36.58,76.52,114.22,71,224.05,137.58C990.16,1730.88,998,1795,1069.8,1792.93Z"/></clipPath><linearGradient id="linear-gradient" x1="1747.53" y1="2784.32" x2="1727.98" y2="2711.69" gradientUnits="userSpaceOnUse"><stop offset="0" stop-color="#ebeff2"/><stop offset="0.47" stop-color="#d2d9e1"/><stop offset="0.99" stop-color="#b7c0ce"/></linearGradient><linearGradient id="linear-gradient-2" x1="1913.94" y1="1979.44" x2="1733.83" y2="3028.76" xlink:href="#linear-gradient"/><linearGradient id="linear-gradient-3" x1="1897.44" y1="2628.38" x2="1864.34" y2="2821.21" xlink:href="#linear-gradient"/><linearGradient id="linear-gradient-4" x1="1881.6" y1="2453.7" x2="1850.18" y2="2336.99" xlink:href="#linear-gradient"/><linearGradient id="linear-gradient-5" x1="2476.99" y1="1138.87" x2="883.13" y2="2348.49" xlink:href="#linear-gradient"/><linearGradient id="linear-gradient-6" x1="778.94" y1="1717.95" x2="2864.93" y2="1717.95" xlink:href="#linear-gradient"/><linearGradient id="linear-gradient-7" x1="2440.34" y1="100.49" x2="747.71" y2="1385.07" gradientUnits="userSpaceOnUse"><stop offset="0" stop-color="#aa80f9"/><stop offset="1" stop-color="#6165d7"/></linearGradient><linearGradient id="linear-gradient-8" x1="2614.2" y1="230.2" x2="881.52" y2="1545.18" xlink:href="#linear-gradient-7"/><linearGradient id="linear-gradient-9" x1="2795.21" y1="361.03" x2="1021.01" y2="1707.53" xlink:href="#linear-gradient-7"/><linearGradient id="linear-gradient-10" x1="2983.77" y1="492.92" x2="1166.48" y2="1872.12" xlink:href="#linear-gradient-7"/><linearGradient id="linear-gradient-11" x1="3180.28" y1="625.83" x2="1318.25" y2="2038.97" xlink:href="#linear-gradient-7"/><linearGradient id="linear-gradient-12" x1="2495.46" y1="255.48" x2="863.11" y2="1494.31" xlink:href="#linear-gradient-7"/><linearGradient id="linear-gradient-13" x1="2662.94" y1="387.91" x2="992.66" y2="1655.54" xlink:href="#linear-gradient-7"/><linearGradient id="linear-gradient-14" x1="2837.17" y1="521.61" x2="1127.56" y2="1819.08" xlink:href="#linear-gradient-7"/><linearGradient id="linear-gradient-15" x1="3018.48" y1="656.55" x2="1268.1" y2="1984.96" xlink:href="#linear-gradient-7"/><linearGradient id="linear-gradient-16" x1="3207.24" y1="792.68" x2="1414.56" y2="2153.2" xlink:href="#linear-gradient-7"/><linearGradient id="linear-gradient-17" x1="2552.7" y1="402.74" x2="981.48" y2="1595.19" xlink:href="#linear-gradient-7"/><linearGradient id="linear-gradient-18" x1="2714.34" y1="537.59" x2="1106.79" y2="1757.61" xlink:href="#linear-gradient-7"/><linearGradient id="linear-gradient-19" x1="2881.94" y1="674.18" x2="1237.36" y2="1922.3" xlink:href="#linear-gradient-7"/><linearGradient id="linear-gradient-20" x1="3056.4" y1="811.73" x2="1373.02" y2="2089.29" xlink:href="#linear-gradient-7"/><linearGradient id="linear-gradient-21" x1="3237.77" y1="950.85" x2="1514.38" y2="2258.78" xlink:href="#linear-gradient-7"/><linearGradient id="linear-gradient-22" x1="2612" y1="542.49" x2="1102.71" y2="1687.93" xlink:href="#linear-gradient-7"/><linearGradient id="linear-gradient-23" x1="2767.37" y1="679.89" x2="1224.02" y2="1851.18" xlink:href="#linear-gradient-7"/><linearGradient id="linear-gradient-24" x1="2928.72" y1="818.82" x2="1350.11" y2="2016.87" xlink:href="#linear-gradient-7"/><linearGradient id="linear-gradient-25" x1="3097.35" y1="958.48" x2="1480.96" y2="2185.21" xlink:href="#linear-gradient-7"/><linearGradient id="linear-gradient-26" x1="3271.63" y1="1100.37" x2="1617.39" y2="2355.82" xlink:href="#linear-gradient-7"/><linearGradient id="linear-gradient-27" x1="2692.72" y1="659.66" x2="1210.42" y2="1784.62" xlink:href="#linear-gradient-7"/><linearGradient id="linear-gradient-28" x1="2844.59" y1="797.6" x2="1329.77" y2="1947.23" xlink:href="#linear-gradient-7"/><linearGradient id="linear-gradient-29" x1="3002.13" y1="937.14" x2="1453.67" y2="2112.31" xlink:href="#linear-gradient-7"/><linearGradient id="linear-gradient-30" x1="3162.13" y1="1080.92" x2="1583.35" y2="2279.11" xlink:href="#linear-gradient-7"/><linearGradient id="linear-gradient-31" x1="3334.74" y1="1221.49" x2="1716.15" y2="2449.88" xlink:href="#linear-gradient-7"/><linearGradient id="linear-gradient-32" x1="2753.01" y1="785.81" x2="1333.88" y2="1862.83" xlink:href="#linear-gradient-7"/><linearGradient id="linear-gradient-33" x1="2899.22" y1="925.91" x2="1449.28" y2="2026.31" xlink:href="#linear-gradient-7"/><linearGradient id="linear-gradient-34" x1="3050.79" y1="1067.71" x2="1568.98" y2="2192.3" xlink:href="#linear-gradient-7"/><linearGradient id="linear-gradient-35" x1="3208.37" y1="1211.14" x2="1693.06" y2="2361.16" xlink:href="#linear-gradient-7"/><linearGradient id="linear-gradient-36" x1="3371.31" y1="1356.39" x2="1822.02" y2="2532.19" xlink:href="#linear-gradient-7"/><linearGradient id="linear-gradient-37" x1="2826.97" y1="898.56" x2="1453.24" y2="1941.11" xlink:href="#linear-gradient-7"/><linearGradient id="linear-gradient-38" x1="2968.88" y1="1039.84" x2="1565.83" y2="2104.65" xlink:href="#linear-gradient-7"/><linearGradient id="linear-gradient-39" x1="3115.85" y1="1182.9" x2="1682.5" y2="2270.71" xlink:href="#linear-gradient-7"/><linearGradient id="linear-gradient-40" x1="3268.28" y1="1327.42" x2="1803.26" y2="2439.27" xlink:href="#linear-gradient-7"/><linearGradient id="linear-gradient-41" x1="3426.13" y1="1474.06" x2="1928.71" y2="2610.49" xlink:href="#linear-gradient-7"/><linearGradient id="linear-gradient-42" x1="2899.64" y1="1005.42" x2="1571.78" y2="2013.17" xlink:href="#linear-gradient-7"/><linearGradient id="linear-gradient-43" x1="3037.34" y1="1147.8" x2="1681.58" y2="2176.73" xlink:href="#linear-gradient-7"/><linearGradient id="linear-gradient-44" x1="3179.85" y1="1292.01" x2="1795.26" y2="2342.82" xlink:href="#linear-gradient-7"/><linearGradient id="linear-gradient-45" x1="3327.29" y1="1437.74" x2="1912.76" y2="2511.26" xlink:href="#linear-gradient-7"/><linearGradient id="linear-gradient-46" x1="3480.43" y1="1585.63" x2="2034.71" y2="2682.83" xlink:href="#linear-gradient-7"/><linearGradient id="linear-gradient-47" x1="1050.17" y1="1155.53" x2="864.46" y2="1296.46" xlink:href="#linear-gradient-7"/><linearGradient id="linear-gradient-48" x1="1096.65" y1="1381.91" x2="896.74" y2="1533.63" xlink:href="#linear-gradient-7"/><linearGradient id="linear-gradient-49" x1="1134.5" y1="1621.39" x2="929.8" y2="1776.75" xlink:href="#linear-gradient-7"/><linearGradient id="linear-gradient-50" x1="1173.33" y1="1866.92" x2="963.66" y2="2026.04" xlink:href="#linear-gradient-7"/><linearGradient id="linear-gradient-51" x1="1213.19" y1="2118.71" x2="998.35" y2="2281.75" xlink:href="#linear-gradient-7"/><linearGradient id="linear-gradient-52" x1="1208.89" y1="1248.85" x2="1117.96" y2="1317.86" xlink:href="#linear-gradient-7"/><linearGradient id="linear-gradient-53" x1="1332.88" y1="1397.28" x2="1144.52" y2="1540.23" xlink:href="#linear-gradient-7"/><linearGradient id="linear-gradient-54" x1="1377.36" y1="1629.5" x2="1180.11" y2="1779.2" xlink:href="#linear-gradient-7"/><linearGradient id="linear-gradient-55" x1="1418.49" y1="1870.82" x2="1216.54" y2="2024.09" xlink:href="#linear-gradient-7"/><linearGradient id="linear-gradient-56" x1="1460.68" y1="2118.2" x2="1253.85" y2="2275.17" xlink:href="#linear-gradient-7"/><linearGradient id="linear-gradient-57" x1="1424.96" y1="1509.29" x2="1381.76" y2="1542.07" xlink:href="#linear-gradient-7"/><linearGradient id="linear-gradient-58" x1="1549.07" y1="1685.87" x2="1423.11" y2="1781.47" xlink:href="#linear-gradient-7"/><linearGradient id="linear-gradient-59" x1="1655.94" y1="1874.57" x2="1461.72" y2="2021.98" xlink:href="#linear-gradient-7"/><linearGradient id="linear-gradient-60" x1="1700.29" y1="2117.69" x2="1501.45" y2="2268.59" xlink:href="#linear-gradient-7"/><linearGradient id="linear-gradient-61" x1="1877.98" y1="1883.8" x2="1698.86" y2="2019.73" xlink:href="#linear-gradient-7"/><linearGradient id="linear-gradient-62" x1="1931.74" y1="2117.26" x2="1740.88" y2="2262.11" xlink:href="#linear-gradient-7"/><linearGradient id="linear-gradient-63" x1="2113.83" y1="1890.95" x2="1932.88" y2="2028.27" xlink:href="#linear-gradient-7"/><linearGradient id="linear-gradient-64" x1="2156.69" y1="2115.54" x2="1969.94" y2="2257.27" xlink:href="#linear-gradient-7"/><linearGradient id="linear-gradient-65" x1="2322.23" y1="1885.84" x2="2147.4" y2="2018.53" xlink:href="#linear-gradient-7"/><linearGradient id="linear-gradient-66" x1="2370.97" y1="2115.58" x2="2192.22" y2="2251.24" xlink:href="#linear-gradient-7"/><linearGradient id="linear-gradient-67" x1="2530.88" y1="1887.05" x2="2361.85" y2="2015.33" xlink:href="#linear-gradient-7"/><linearGradient id="linear-gradient-68" x1="2582.29" y1="2114.47" x2="2409.52" y2="2245.59" xlink:href="#linear-gradient-7"/><linearGradient id="linear-gradient-69" x1="2687.39" y1="1926.24" x2="2569.68" y2="2015.57" xlink:href="#linear-gradient-7"/><linearGradient id="linear-gradient-70" x1="2784.49" y1="2113.8" x2="2617.69" y2="2240.39" xlink:href="#linear-gradient-7"/></defs><title>Recurso 1</title><g class="cls-2"><g id="Capa_2" data-name="Capa 2"><g id="Illustration"><path class="cls-3" d="M1448.32,42.86C1144.14,163.8,1115,473,841.12,499.51c-238.64,23.12-329.35-200.68-496.8-160.58C89.25,400-71.12,1008.13,31.33,1508.16c105.78,516.31,550.22,1202.68,1286.51,1249.52C2144.5,2810.26,2770,2020.54,2808.18,1327.5c4.13-75,28.52-702.92-451.58-1073.88C2332.61,235.08,1859.52-120.65,1448.32,42.86Z"/><g class="cls-4"><g class="cls-5"><path class="cls-6" d="M946.37,2096.06l257.72-22.18s37.14-136.38-34-224.24c-145.25-179.27,21.9-294,84.72-352.49,94.75-88.24,130.67-194.81,2.77-250.93-144.7-63.49-40.14-274.65,133.4-395.11,169.82-117.88,58.27-487.79-332.72-266.4C824.71,716.92,885,971.37,884.85,1107.09s-199.52,164.12-116.78,322.79c70.67,135.54,190.78,228.46,114.17,332.41S806.17,1975.37,946.37,2096.06Z"/><g class="cls-7"><path class="cls-8" d="M1057.46,2111.07c-.89-3.27-89.4-331.28-79.11-682.94,6-206.87,44.59-381.42,114.56-518.8,87.7-172.2,225.17-286.1,408.58-338.52l2.94,10.25c-408.87,116.86-506,525.2-515.42,847.17-10.28,350.1,77.85,676.77,78.74,680Z"/><path class="cls-8" d="M1059.27,984.31c-38.17-179.3,8.6-442,9.08-444.65l10.49,1.9c-.47,2.61-46.87,263.3-9.14,440.54Z"/><path class="cls-8" d="M1124.72,873.15l-6.4-8.53c176.42-132.19,355.82-91.23,357.63-90.82l-2.48,10.37C1471.73,783.73,1297,744.08,1124.72,873.15Z"/><path class="cls-8" d="M984.2,1656.58c39.35-265.8,389.33-361.86,392.77-362.15l.91,10.62-.46-5.31.89,5.25c-3.41.7-345.34,95-383.56,353.15Z"/><path class="cls-8" d="M978.65,1550C931.19,1391.46,745.83,1295.1,744,1294.14l4.85-9.49c1.91,1,191.31,99.44,240.05,262.24Z"/><path class="cls-8" d="M1044.43,2057.25c-.78-104.87,134.22-195.71,140-199.53l5.9,8.88c-1.36.9-136,91.48-135.21,190.57Z"/><path class="cls-8" d="M1028.05,1980.7c-19.23-73.76-142.62-149.29-183.17-174.1-8.83-5.41-11.69-7.18-13-8.39l7.25-7.82c.93.77,6,3.85,11.29,7.11,41.45,25.37,167.6,102.59,187.91,180.51Z"/></g></g><path class="cls-9" d="M999.57,1890.83c-16.53,30.3-30.73,64.91-16.08,102.39,6.91,17.67,20,31.23,52.18,51.09,60.33,37.26,157.94,97.57,233.29,55.05,7-3.94,35.45-14.56,43.53-43.25,14.66-52.06,31.72-148.74-28.8-186.77-84.68-53.22-39.8-221.88-26.29-314.59,36.64-251.54-238.13-246.57-216.88-573.58,5.65-87,45.52-250.95-23.24-325.06-78.33-84.42-144.42-11-193.78-80.56-77.15-108.68-211-154.66-299.15-53.87-87.05,99.49-3.42,314.46,227.62,498,150.83,150.47,150.57,192.53,131.25,293.71-13.53,70.87-94,252.51-1.88,333.24S1042.26,1812.59,999.57,1890.83Z"/><g class="cls-10"><g class="cls-7"><path class="cls-11" d="M1157.59,2110.14c-1.69-28.94-3.74-58.09-6.11-86.65-17.57-211.48-54.24-413.65-109-600.91C996.12,1264,936.15,1113.85,864.25,976.35,806.46,865.82,740.68,762.82,668.74,670.21,618.2,605.15,565.17,545.86,511.12,494c-9.31-8.94-19.42-17.63-29.19-26-13.25-11.4-27-23.19-39.17-36l6.88-6.57c11.89,12.45,25.42,24.08,38.5,35.34,9.87,8.49,20.07,17.26,29.57,26.38C572.09,539.31,625.43,599,676.26,664.37c72.28,93.06,138.37,196.54,196.43,307.57,72.18,138,132.38,288.77,178.93,448,54.94,187.87,91.72,390.68,109.34,602.79,2.37,28.64,4.44,57.87,6.13,86.89Z"/><path class="cls-11" d="M944.94,1147.52c-77.1-197.1,24.46-543.43,25.5-546.9l9.12,2.71c-1,3.45-101.67,346.67-25.76,540.73Z"/><path class="cls-11" d="M1110.24,1710.9c-35.45-135.25-279.22-255.11-281.68-256.3l4.16-8.56c10.19,5,250.16,123,286.73,262.44Z"/><path class="cls-11" d="M1124,1790.82c-7.45-94.53,32.62-226.91,112.83-372.74,1.86-3.39,3-5.52,3.36-6.23l3.85,1.72,5.34-.35c.1,1.6.1,1.6-4.22,9.45-79.32,144.22-119,274.7-111.68,367.41Z"/><path class="cls-11" d="M1153.91,2058c-35.87-92.79-178-138.23-179.38-138.68l2.84-9.08c6,1.88,147.91,47.3,185.42,144.33Z"/><path class="cls-11" d="M1160.34,2108.82c24-80.68,71.82-157,146.22-233.33l6.82,6.64c-73.31,75.2-120.38,150.23-143.92,229.4Z"/><path class="cls-11" d="M710.08,725.19C661.35,618.52,634.94,495.42,626.26,455c-1.4-6.53-2.61-12.17-3-13.19l8.85-3.52c.54,1.34,1.21,4.38,3.42,14.71,8.63,40.2,34.88,162.54,83.18,268.26Z"/><path class="cls-11" d="M519.65,794.82l.48-9.51c9.28.47,228.35,12.45,301.62,94.75l-7.11,6.33C744,807.06,521.88,794.93,519.65,794.82Z"/></g></g><path class="cls-12" d="M1092.16,1788.72c41-6.85,81.5-38.8,96.77-77.7,3.67-9.33,16.8-46.88-1.23-71.69-10.17-14-24.44-18.27-34.9-20.75-79.61-18.87-89.47-156.39-70.83-206.32,23.06-61.8,73.8-206.79-48.81-237.91-102.06-25.91-173.23-21.76-187.71-150.41S755.86,818.85,639.26,833.3c-122.7,15.21-233.19-142.9-330.92-82.22C138.05,856.81,313.8,1132,532.4,1202s100.4,154.17,100.74,260.11c0,10.44,4.26,35.23,16.29,60.47,34.84,73.1,109.17,74.18,217,132.24C1003,1728.34,1021.26,1800.56,1092.16,1788.72Z"/><g class="cls-13"><g class="cls-7"><path class="cls-11" d="M1058.35,1791.93C941.86,1354.15,602.67,940.48,233.49,786l4.4-10.49c187.44,78.44,367.93,221.73,522,414.36,145,181.37,254.94,394.16,309.49,599.17Z"/><path class="cls-11" d="M955.17,1490.56c-10.49-170.91,127.21-312.59,128.61-314l8.1,8c-1.36,1.37-135.53,139.54-125.36,305.31Z"/><path class="cls-11" d="M617.88,1493.68l0-11.38c12.76,0,313.68,2.24,404.06,147.66l-9.66,6C925.26,1495.9,620.94,1493.68,617.88,1493.68Z"/><path class="cls-11" d="M726.76,1142.44c-62.7-123.27,5.14-315.24,8.06-323.35l10.71,3.85c-.7,1.94-69.09,195.48-8.63,314.34Z"/><path class="cls-11" d="M200.23,944.6l-3.18-10.93c8.2-2.38,202.39-57.59,338.73,15.12l-5.35,10C398.13,888.28,202.19,944,200.23,944.6Z"/></g></g></g><polygon class="cls-14" points="1874.33 2687.56 1689.92 2690.58 1690.5 2682.92 1579.45 2692.66 1579.45 2727.71 1691.4 2729.34 1690.57 2725.07 1874.33 2721.99 1874.33 2687.56"/><polygon class="cls-15" points="1964.52 2075.46 1964.52 2686.12 1725.15 2690.08 1725.15 2077.93 1964.52 2075.46"/><polygon class="cls-16" points="2079.01 2722.84 1690.46 2729.4 1690.46 2681.97 2079.01 2675.59 2079.01 2722.84"/><path class="cls-17" d="M1964.52,2262.64V2385.8c-27.75,8.85-61.38,14.27-98.67,14.78-58.4.78-109.47-10.74-140.7-28.94V2283c31.23-19.14,82.3-31.89,140.7-32.59C1903.14,2249.92,1936.77,2254.46,1964.52,2262.64Z"/><path class="cls-18" d="M2778.28,2275.74,2533.71,1221.87c-6.1-26.29-32.06-47.13-57.26-48.79l-1719.26-113c-32.7-2.15-56.28,18.23-52.17,48.18L871.14,2318.58c4.67,34,36.68,61.66,71.21,60.73l1800-48.38C2768.52,2330.22,2785.09,2305.09,2778.28,2275.74Z"/><path class="cls-19" d="M2560,1172.81,831.84,1060.05c-32.86-2.14-56.56,18.19-52.43,48l167,1207.3c4.69,33.91,36.87,61.51,71.57,60.59l1809.34-48.07c26.31-.7,43-25.77,36.12-55.05L2617.52,1221.48C2611.38,1195.26,2585.29,1174.46,2560,1172.81Z"/><path class="cls-20" d="M1054.72,1145.92l24.91,163.37c1.64,10.77-5.85,19.1-16.77,18.58l-169.53-8c-11.2-.53-21.92-9.84-23.47-20.76L846.4,1133.42c-1.52-10.73,6.63-18.86,17.74-18.18L1032,1125.56C1042.86,1126.23,1053.1,1135.34,1054.72,1145.92Z"/><path class="cls-21" d="M1090.05,1377.65,1115.58,1545c1.69,11-5.86,19.73-16.88,19.39l-171.22-5.26c-11.32-.35-22.16-9.73-23.75-20.94l-24.05-169.81c-1.56-11,6.66-19.49,17.88-19l169.54,7.68C1078,1357.62,1088.4,1366.8,1090.05,1377.65Z"/><path class="cls-22" d="M1126.27,1615.09l26.16,171.57c1.73,11.32-5.87,20.39-17,20.24l-172.94-2.36c-11.43-.16-22.41-9.62-24-21.11L913.8,1609.32c-1.6-11.28,6.69-20.14,18-19.82l171.24,4.91C1114.08,1594.72,1124.57,1604,1126.27,1615.09Z"/><path class="cls-23" d="M1163.38,1858.48l26.83,175.9c1.77,11.61-5.88,21.07-17.12,21.12l-174.69.69c-11.54,0-22.66-9.5-24.33-21.28l-25.29-178.58c-1.64-11.57,6.72-20.82,18.16-20.68l173,2C1151,1837.75,1161.65,1847.09,1163.38,1858.48Z"/><path class="cls-24" d="M1201.44,2108,1229,2288.44c1.81,11.9-5.89,21.77-17.25,22l-176.47,3.9c-11.66.26-22.91-9.36-24.62-21.46l-26-183.22c-1.68-11.86,6.74-21.52,18.3-21.59l174.69-1.09C1188.92,2086.94,1199.66,2096.35,1201.44,2108Z"/><path class="cls-25" d="M1292,1160.26l26.5,160.71c1.75,10.6-4.91,18.8-15.47,18.3l-163.84-7.75c-10.82-.51-21.36-9.66-23-20.41L1091,1148.18c-1.63-10.56,6.4-18.57,17.13-17.91l162,10C1280.51,1140.89,1290.24,1149.85,1292,1160.26Z"/><path class="cls-26" d="M1329.54,1388.2l27.13,164.61c1.79,10.85-4.91,19.41-15.56,19.08l-165.4-5.08c-10.92-.33-21.59-9.55-23.29-20.57l-25.77-166.94c-1.67-10.82,6.41-19.17,17.24-18.68l163.49,7.42C1317.94,1368.52,1327.78,1377.54,1329.54,1388.2Z"/><path class="cls-27" d="M1368,1621.68l27.8,168.64c1.84,11.13-4.9,20-15.65,19.91l-167-2.28c-11-.15-21.82-9.45-23.56-20.74l-26.42-171.1c-1.71-11.08,6.43-19.79,17.37-19.48l165,4.73C1356.28,1601.67,1366.23,1610.76,1368,1621.68Z"/><path class="cls-28" d="M1407.47,1860.9,1436,2033.73c1.88,11.4-4.89,20.71-15.75,20.75l-168.6.67c-11.13,0-22.06-9.33-23.84-20.91l-27.09-175.41c-1.75-11.36,6.46-20.44,17.5-20.31l166.61,1.9C1395.56,1840.54,1405.62,1849.71,1407.47,1860.9Z"/><path class="cls-29" d="M1447.89,2106.07l29.21,177.17c1.93,11.69-4.89,21.4-15.84,21.64L1291,2308.65c-11.25.25-22.31-9.21-24.14-21.08l-27.77-179.89c-1.8-11.65,6.46-21.12,17.61-21.19l168.23-1.06C1435.81,2085.36,1446,2094.59,1447.89,2106.07Z"/><path class="cls-30" d="M1522,1174.14c-1.82-10.26-11-19.07-21.09-19.69l-156.59-9.65c-10.38-.64-17.29,7.26-15.55,17.66l26.73,160.27c1.76,10.59,11.85,19.58,22.31,20.08l157.48,7.48c10.21.48,16.51-7.6,14.67-18Z"/><path class="cls-31" d="M1561.7,1398.42l28.63,161.91c1.89,10.67-4.36,19.1-14.65,18.78l-159.3-4.9c-10.55-.33-20.46-9.38-22.27-20.21l-27.38-164.18c-1.78-10.64,5.44-18.87,15.9-18.39l157.7,7.17C1550.54,1379.06,1559.84,1387.93,1561.7,1398.42Z"/><path class="cls-32" d="M1602.31,1628.06l29.32,165.82c.16.88.84,1.78.87,2.62.48,9.7-5.77,17.09-15.31,17l-160.9-2.2c-10.65-.14-20.81-9.27-22.66-20.36l-28.06-168.2c-1.82-10.9,5.44-19.47,16-19.17l159.12,4.56C1591,1608.39,1600.41,1617.32,1602.31,1628.06Z"/><path class="cls-33" d="M1643.9,1863.26l30,169.86c2,11.2-4.32,20.35-14.8,20.39l-162.24.66c-10.74,0-20.89-9.14-22.79-20.52l-28.74-172.36c-1.87-11.16,5.44-20.1,16.1-20l160.58,1.83C1632.45,1843.26,1642,1852.25,1643.9,1863.26Z"/><path class="cls-34" d="M1686.51,2104.2l30.79,174.06c2,11.48-4.31,21-14.89,21.25l-163.73,3.65c-10.85.25-21.12-9-23.06-20.68l-29.47-176.68c-1.91-11.45,5.44-20.76,16.2-20.83l162.06-1C1674.9,2083.87,1684.52,2092.93,1686.51,2104.2Z"/><path class="cls-35" d="M1744.51,1187.55c-1.9-10.1-10.7-18.76-20.51-19.37l-150.63-9.33c-10-.62-15.73,7.17-13.9,17.41L1587.68,1334c1.86,10.41,10.92,19.25,21,19.73l151.75,7.23c9.88.47,15.29-7.5,13.35-17.78Z"/><path class="cls-36" d="M1786.1,1408.31c-1.94-10.34-10.84-19.06-20.73-19.51l-151.92-6.92c-10.14-.46-15.84,7.66-14,18.14l28.87,161.47c1.91,10.67,11.07,19.56,21.29,19.88l153.06,4.72c10,.31,15.39-8,13.41-18.52Z"/><path class="cls-37" d="M1828.67,1634.25c-2-10.58-11-19.37-21-19.65l-153.24-4.4c-10.22-.3-16,8.17-14,18.9L1670,1794.46c2,10.92,11.23,19.88,21.53,20l154.4,2.09c10,.14,15.49-8.51,13.46-19.28Z"/><path class="cls-38" d="M1872.25,1865.53l31.46,167c2.08,11-3.72,20-13.85,20.06l-155.8.66c-10.38.05-19.39-9-21.39-20.14l-30.29-169.42c-2-11,4.13-19.79,14.44-19.67l154.6,1.76C1861.47,1845.88,1870.21,1854.71,1872.25,1865.53Z"/><path class="cls-39" d="M1916.87,2102.39l32.23,171.05c2.13,11.28-3.69,20.65-13.91,20.88L1778,2297.89c-10.47.23-19.58-8.84-21.63-20.29l-31-173.6c-2-11.24,4.11-20.42,14.5-20.49l156-1C1906,2082.42,1914.79,2091.31,1916.87,2102.39Z"/><path class="cls-40" d="M1962.75,1200.54c-2-9.94-11.91-18.47-21.41-19l-147.62-9c-9.72-.6-16.89,7.07-15,17.14l29.53,155.25c1.94,10.25,12,19,21.79,19.41l148.74,7c9.56.45,16.57-7.38,14.55-17.5Z"/><path class="cls-41" d="M2006.17,1417.9c-2-10.18-12.07-18.77-21.64-19.21L1835.69,1392c-9.81-.44-17,7.54-15.06,17.85l30.22,158.87c2,10.49,12.16,19.26,22,19.56l150,4.6c9.64.3,16.68-7.85,14.62-18.2Z"/><path class="cls-42" d="M2050.58,1640.26c-2.08-10.4-12.22-19.07-21.87-19.35l-150.08-4.29c-9.89-.28-17.14,8-15.13,18.57l30.93,162.63c2,10.74,12.32,19.58,22.28,19.71l151.23,2.07c9.72.14,16.8-8.33,14.68-18.92Z"/><path class="cls-43" d="M2096,1867.81l32.8,164.23c2.17,10.84-4.66,19.64-14.45,19.68l-152.49.58c-10,0-20.75-8.87-22.84-19.85l-31.68-166.56c-2-10.79,4.91-19.43,14.87-19.31L2073,1848.3c8.82.11,18.3,7.27,21.42,16.57C2094.77,1865.81,2095.83,1866.82,2096,1867.81Z"/><path class="cls-44" d="M2142.56,2100.75l33.58,168.15c2.22,11.09-4.64,20.25-14.52,20.47l-153.78,3.37c-10.11.22-20.95-8.77-23.09-20l-32.45-170.59c-2.1-11.05,4.9-20,14.94-20.1l152.7-.92C2129.74,2081.05,2140.38,2089.85,2142.56,2100.75Z"/><path class="cls-45" d="M2168.76,1213.1c-2.06-9.79-10.4-18.18-19.6-18.74l-142.1-8.75c-9.41-.58-15.38,7-13.38,16.9l30.77,152.85c2,10.1,11.71,18.65,21.19,19.1l142.52,6.78c9.27.44,14.44-7.3,12.34-17.25Z"/><path class="cls-46" d="M2213.79,1427.12c-2.11-10-10.53-18.46-19.8-18.88l-143.22-6.5c-9.49-.43-15.48,7.44-13.44,17.59l31.48,156.36c2.08,10.33,11.86,19,21.42,19.24l143.65,4.43c9.33.29,14.52-7.76,12.37-17.94Z"/><path class="cls-47" d="M2259.84,1646c-2.16-10.25-10.66-18.75-20-19l-144.36-4.14c-9.57-.27-15.58,7.91-13.49,18.3l32.21,160c2.13,10.56,12,19.25,21.65,19.38l144.79,2c9.41.12,14.6-8.24,12.41-18.66Z"/><path class="cls-48" d="M2307,1869.87l34,161.54c2.24,10.65-2.79,19.35-12.26,19.39l-146.56.59c-9.7,0-19.28-8.69-21.46-19.49l-33-163.81a18.73,18.73,0,0,1,.36-8,13.49,13.49,0,0,1,13.74-11l144.89,1.65C2296.07,1850.85,2304.74,1859.4,2307,1869.87Z"/><path class="cls-49" d="M2355.15,2099l34.79,165.33c2.3,10.9-2.74,19.95-12.28,20.17l-147.74,3.29c-9.78.22-19.47-8.58-21.69-19.64l-33.77-167.71c-2.19-10.86,4.27-19.7,14-19.76l146.13-1C2344.05,2079.64,2352.9,2088.25,2355.15,2099Z"/><path class="cls-50" d="M2373.7,1225.3c-2.14-9.65-11.59-17.91-20.51-18.46l-137.1-8.47c-9.12-.57-14.18,6.9-12.1,16.67l32,150.54c2.11,9.94,10.34,18.34,19.52,18.78l138.73,6.57c9,.43,14.52-7.19,12.36-17Z"/><path class="cls-51" d="M2420.29,1436.11c-2.18-9.86-11.73-18.19-20.72-18.6l-138.13-6.28c-9.19-.42-14.26,7.34-12.14,17.34L2282,1582.51c2.15,10.16,10.47,18.63,19.73,18.91l139.77,4.3c9,.28,14.61-7.64,12.39-17.66Z"/><path class="cls-52" d="M2467.92,1651.63c-2.22-10.09-11.88-18.47-20.93-18.73l-139.17-4c-9.26-.26-14.34,7.81-12.17,18l33.42,157.47c2.21,10.4,10.61,18.91,19.94,19l140.83,1.92c9.11.12,14.69-8.1,12.43-18.36Z"/><path class="cls-53" d="M2516.63,1872l35.14,159c2.31,10.48-3.76,19-12.93,19l-141.19.59c-9.39,0-18.14-8.53-20.39-19.16l-34.21-161.15c-2.21-10.44,2.61-18.84,11.93-18.73l141,1.61C2505.09,1853.27,2514.35,1861.7,2516.63,1872Z"/><path class="cls-54" d="M2566.46,2097.43l35.94,162.63c2.37,10.72-3.72,19.57-13,19.78l-142.27,3.21c-9.46.21-18.3-8.42-20.61-19.3l-35-164.92c-2.27-10.69,2.56-19.42,12-19.48l142.08-.9C2554.77,2078.4,2564.13,2086.89,2566.46,2097.43Z"/><path class="cls-55" d="M2569.52,1237.11c-2.2-9.51-11.31-17.64-20-18.17l-132.76-8.22c-8.84-.54-13.47,6.82-11.32,16.44l33,148.29c2.18,9.79,10.19,18.06,19.09,18.48l134.25,6.37c8.7.42,13.77-7.09,11.53-16.76Z"/><path class="cls-56" d="M2617.52,1444.79c-2.24-9.71-11.45-17.91-20.16-18.3l-133.71-6.09c-8.9-.41-13.53,7.25-11.34,17.09l33.75,151.59c2.23,10,10.31,18.33,19.28,18.6l135.22,4.16c8.76.27,13.83-7.52,11.55-17.4Z"/><path class="cls-57" d="M2666.58,1657c-2.29-9.93-11.59-18.18-20.36-18.43l-134.67-3.87c-9-.26-13.61,7.7-11.37,17.76l34.52,155c2.28,10.23,10.44,18.61,19.47,18.73l136.2,1.86c8.82.12,13.9-8,11.57-18.08Z"/><path class="cls-58" d="M2716.73,1874l36.16,156.45c2.39,10.31-3.22,18.7-12.09,18.73l-136.53.59c-9.09,0-17.5-8.4-19.83-18.85l-35.3-158.57c-.53-2.38-1.68-4.71-1.38-6.8.84-6.88,5.13-11.73,12.07-11.65l136.6,1.56C2705.25,1855.55,2714.39,1863.85,2716.73,1874Z"/><path class="cls-59" d="M2768,2095.84l37,160c2.44,10.55-3.17,19.26-12.11,19.46l-137.52,3.11c-9.15.2-17.65-8.28-20-19l-36.12-162.23c-2.34-10.51,2.12-19.11,11.21-19.16l137.34-.87C2756.65,2077.12,2765.61,2085.47,2768,2095.84Z"/><path class="cls-60" d="M985.5,1122.69c23.48,13,48.32,27.21,72.19,42.75l21.94,143.85c1.64,10.77-5.85,19.1-16.77,18.58l-169.53-8c-11.2-.53-21.92-9.84-23.47-20.76L846.4,1133.42c-1.52-10.73,6.62-18.86,17.73-18.18Z"/><path class="cls-61" d="M1090.05,1377.65,1115.58,1545c1.69,11-5.86,19.73-16.88,19.39l-171.22-5.26c-11.32-.35-22.16-9.73-23.75-20.94l-24.05-169.81c-1.56-11,6.66-19.49,17.88-19l169.54,7.68C1078,1357.62,1088.4,1366.8,1090.05,1377.65Z"/><path class="cls-62" d="M1126.27,1615.09l26.16,171.57c1.73,11.32-5.87,20.39-17,20.24l-172.94-2.36c-11.43-.16-22.41-9.62-24-21.11L913.8,1609.32c-1.6-11.28,6.69-20.14,18-19.82l171.24,4.91C1114.08,1594.72,1124.57,1604,1126.27,1615.09Z"/><path class="cls-63" d="M1163.38,1858.48l26.83,175.9c1.77,11.61-5.88,21.07-17.12,21.12l-174.69.69c-11.54,0-22.66-9.5-24.33-21.28l-25.29-178.58c-1.64-11.57,6.72-20.82,18.16-20.68l173,2C1151,1837.75,1161.65,1847.09,1163.38,1858.48Z"/><path class="cls-64" d="M1201.44,2108,1229,2288.44c1.81,11.9-5.89,21.77-17.25,22l-176.47,3.9c-11.66.26-22.91-9.36-24.62-21.46l-26-183.22c-1.68-11.86,6.74-21.52,18.3-21.59l174.69-1.09C1188.92,2086.94,1199.66,2096.35,1201.44,2108Z"/><path class="cls-65" d="M1116.12,1311.11l-18.3-118.51C1158.31,1233,1218,1281,1276.57,1338l-137.52-6.5C1128.23,1331,1117.78,1321.86,1116.12,1311.11Z"/><path class="cls-66" d="M1306.52,1368c8.2,8.54,15.16,17.28,24,26.19l26.15,158.63c1.79,10.85-4.91,19.41-15.56,19.08l-165.4-5.08c-10.92-.33-21.59-9.55-23.29-20.57l-25.77-166.94c-1.67-10.82,6.18-19.17,17-18.68Z"/><path class="cls-67" d="M1368,1621.68l27.8,168.64c1.84,11.13-4.9,20-15.65,19.91l-167-2.28c-11-.15-21.82-9.45-23.56-20.74l-26.42-171.1c-1.71-11.08,6.43-19.79,17.37-19.48l165,4.73C1356.28,1601.67,1366.23,1610.76,1368,1621.68Z"/><path class="cls-68" d="M1407.47,1860.9,1436,2033.73c1.88,11.4-4.89,20.71-15.75,20.75l-168.6.67c-11.13,0-22.06-9.33-23.84-20.91l-27.09-175.41c-1.75-11.36,6.46-20.44,17.5-20.31l166.61,1.9C1395.56,1840.54,1405.62,1849.71,1407.47,1860.9Z"/><path class="cls-69" d="M1447.89,2106.07l29.21,177.17c1.93,11.69-4.89,21.4-15.84,21.64L1291,2308.65c-11.25.25-22.31-9.21-24.14-21.08l-27.77-179.89c-1.8-11.65,6.46-21.12,17.61-21.19l168.23-1.06C1435.81,2085.36,1446,2094.59,1447.89,2106.07Z"/><path class="cls-70" d="M1394.11,1554l-17.92-107.48a1211,1211,0,0,1,92.58,129.3l-52.19-1.61C1406,1573.89,1395.92,1564.83,1394.11,1554Z"/><path class="cls-71" d="M1433.63,1790.9l-28.06-168.2c-1.82-10.9,5.44-19.47,16-19.17l65.22,1.87q11,18.64,21.62,38c36.78,67.5,78.73,117.15,124.62,153.08.48,9.7-6,17.07-15.58,16.94l-161-2.19C1445.78,1811.12,1435.48,1802,1433.63,1790.9Z"/><path class="cls-72" d="M1643.9,1863.26l30,169.86c2,11.2-4.32,20.35-14.8,20.39l-162.24.66c-10.74,0-20.89-9.14-22.79-20.52l-28.74-172.36c-1.87-11.16,5.44-20.1,16.1-20l160.58,1.83C1632.45,1843.26,1642,1852.25,1643.9,1863.26Z"/><path class="cls-73" d="M1686.51,2104.2l30.79,174.06c2,11.48-4.31,21-14.89,21.25l-163.73,3.65c-10.85.25-21.12-9-23.06-20.68l-29.47-176.68c-1.91-11.45,5.44-20.76,16.2-20.83l162.06-1C1674.9,2083.87,1684.52,2092.93,1686.51,2104.2Z"/><path class="cls-74" d="M1711.91,1844.17c51.78,22.77,108.12,33,163,35.62l28.78,152.73c2.08,11-3.72,20-13.85,20.06l-155.8.66c-10.38.05-19.39-9-21.39-20.14l-30.29-169.42c-2-11,3.78-19.79,14.09-19.68Z"/><path class="cls-75" d="M1916.87,2102.39l32.23,171.05c2.13,11.28-3.69,20.65-13.91,20.88L1778,2297.89c-10.47.23-19.58-8.84-21.63-20.29l-31-173.6c-2-11.24,4.11-20.42,14.5-20.49l156-1C1906,2082.42,1914.79,2091.31,1916.87,2102.39Z"/><path class="cls-76" d="M2094,1864.86c.34.94,1.81,2,2,3l32.8,164.23c2.17,10.84-4.66,19.64-14.45,19.68l-152.49.58c-10,0-20.75-8.87-22.84-19.85l-28.89-151.92C1972.71,1880.47,2032.31,1873.3,2094,1864.86Z"/><path class="cls-77" d="M2142.56,2100.75l33.58,168.15c2.22,11.09-4.64,20.25-14.52,20.47l-153.78,3.37c-10.11.22-20.95-8.77-23.09-20l-32.45-170.59c-2.1-11.05,4.9-20,14.94-20.1l152.7-.92C2129.74,2081.05,2140.38,2089.85,2142.56,2100.75Z"/><path class="cls-78" d="M2307,1869.87l34,161.54c2.24,10.65-2.79,19.35-12.26,19.39l-146.56.59c-9.7,0-19.28-8.69-21.46-19.49l-33-163.81a18.73,18.73,0,0,1,.36-8c24.79-3.53,49.75-7,74.52-10.25l84.11,1C2296.07,1850.85,2304.74,1859.4,2307,1869.87Z"/><path class="cls-79" d="M2355.15,2099l34.79,165.33c2.3,10.9-2.74,19.95-12.28,20.17l-147.74,3.29c-9.78.22-19.47-8.58-21.69-19.64l-33.77-167.71c-2.19-10.86,4.27-19.7,14-19.76l146.13-1C2344.05,2079.64,2352.9,2088.25,2355.15,2099Z"/><path class="cls-80" d="M2516.63,1872l35.14,159c2.31,10.48-3.76,19-12.93,19l-141.19.59c-9.39,0-18.14-8.53-20.39-19.16l-34.21-161.15c-2.21-10.44,2.61-18.84,11.93-18.73l141,1.61C2505.09,1853.27,2514.35,1861.7,2516.63,1872Z"/><path class="cls-81" d="M2566.46,2097.43l35.94,162.63c2.37,10.72-3.72,19.57-13,19.78l-142.27,3.21c-9.46.21-18.3-8.42-20.61-19.3l-35-164.92c-2.27-10.69,2.56-19.42,12-19.48l142.08-.9C2554.77,2078.4,2564.13,2086.89,2566.46,2097.43Z"/><path class="cls-82" d="M2747,2004.72l5.94,25.72c2.39,10.31-3.22,18.7-12.09,18.73l-136.53.59c-9.09,0-17.5-8.4-19.83-18.85l-35.3-158.57c-.53-2.38-1.68-4.71-1.38-6.8,61.12,21.67,120.26,57.93,176.91,116C2732.33,1989.4,2736.92,1997,2747,2004.72Z"/><path class="cls-83" d="M2768,2095.84l37,160c2.44,10.55-3.17,19.26-12.11,19.46l-137.52,3.11c-9.15.2-17.65-8.28-20-19l-36.12-162.23c-2.34-10.51,2.12-19.11,11.21-19.16l137.34-.87C2756.65,2077.12,2765.61,2085.47,2768,2095.84Z"/></g></g></g></svg>