<?xml version="1.0" encoding="utf-8"?>
<!-- Generator: Adobe Illustrator 24.0.1, SVG Export Plug-In . SVG Version: 6.00 Build 0)  -->
<svg version="1.1" id="Capa_1" xmlns="http://www.w3.org/2000/svg" xmlns:xlink="http://www.w3.org/1999/xlink" x="0px" y="0px"
	 viewBox="0 0 1770.8 1521" style="enable-background:new 0 0 1770.8 1521;" xml:space="preserve">
<style type="text/css">
	.st0{fill:#F9EFD1;}
	.st1{fill:url(#SVGID_1_);}
	.st2{fill:url(#SVGID_2_);}
	.st3{fill:#FFFFFF;}
	.st4{fill:#94BEFF;}
	.st5{opacity:0.3;fill:#FFFFFF;enable-background:new    ;}
	.st6{fill:url(#SVGID_3_);}
	.st7{opacity:0.25;fill:url(#SVGID_4_);enable-background:new    ;}
	.st8{opacity:0.56;fill:#FFFFFF;enable-background:new    ;}
	.st9{fill:url(#SVGID_5_);}
	.st10{fill:url(#SVGID_6_);}
	.st11{opacity:0.3;fill:url(#SVGID_7_);enable-background:new    ;}
	.st12{fill:url(#SVGID_8_);}
	.st13{fill:url(#SVGID_9_);}
	.st14{clip-path:url(#SVGID_11_);}
	.st15{fill:#7ED890;}
	.st16{fill:#7EFF90;}
	.st17{fill:url(#SVGID_12_);}
	.st18{fill:url(#SVGID_13_);}
	.st19{fill:url(#SVGID_14_);}
	.st20{fill:url(#SVGID_15_);}
	.st21{fill:url(#SVGID_16_);}
	.st22{fill:url(#SVGID_17_);}
	.st23{fill:url(#SVGID_18_);}
	.st24{fill:url(#SVGID_19_);}
	.st25{fill:url(#SVGID_20_);}
	.st26{fill:url(#SVGID_21_);}
	.st27{fill:url(#SVGID_22_);}
	.st28{fill:url(#SVGID_23_);}
	.st29{fill:url(#SVGID_24_);}
	.st30{fill:url(#SVGID_25_);}
	.st31{fill:url(#SVGID_26_);}
	.st32{opacity:0.3;fill:url(#SVGID_27_);enable-background:new    ;}
</style>
<title>Proveedores</title>
<g>
	<g id="Illustration">
		<path class="st0" d="M892,0.3C457.8-11.5,81.8,279.1,25,660.5c-62.1,416.9,279.8,792,700.5,852.1
			c523.3,74.7,1030.8-357.6,985.2-826.6C1676.3,332.6,1333.3,12.4,892,0.3z"/>
		
			<linearGradient id="SVGID_1_" gradientUnits="userSpaceOnUse" x1="134.3856" y1="149.2082" x2="1782.129" y2="149.2082" gradientTransform="matrix(1 0 0 -1 -11.3649 1391.6174)">
			<stop  offset="0" style="stop-color:#96888E"/>
			<stop  offset="1" style="stop-color:#706369"/>
		</linearGradient>
		<path class="st1" d="M1770.8,1182.1L123,1167.9v42.1c0,11.4,7.2,21.2,16.9,22.9l465.9,83c5.5,1,11.1,1.2,16.7,0.8l1130.3-94.6
			c10.1-0.8,17.9-10.6,17.9-22.4V1182.1z"/>
		
			<linearGradient id="SVGID_2_" gradientUnits="userSpaceOnUse" x1="94.5056" y1="623.8082" x2="1203.6792" y2="623.8082" gradientTransform="matrix(1 0 0 -1 -11.3649 1391.6174)">
			<stop  offset="0" style="stop-color:#96888E"/>
			<stop  offset="1" style="stop-color:#706369"/>
		</linearGradient>
		<path class="st2" d="M1164.4,1114.6l-1047.3,77.1c-18.7,1.4-34-13.3-34-32.7V379.1c0-19.5,15.2-35.2,34-35.2h1047.3
			c15.4,0,27.9,14.3,27.9,31.9v705C1192.3,1098.3,1179.8,1113.5,1164.4,1114.6z"/>
		<path class="st3" d="M1181.1,1114.6l-1047.3,77.1c-18.7,1.4-34-13.3-34-32.7V379.1c0-19.5,15.2-35.2,34-35.2h1047.3
			c15.4,0,27.9,14.3,27.9,31.9v705C1209,1098.3,1196.5,1113.5,1181.1,1114.6z"/>
		<path class="st4" d="M1148.5,1064.9l-975.4,67c-15.3,1-27.6-11-27.6-26.9V422.2c0-15.9,12.4-28.8,27.6-28.9l975.4-4.2
			c12.7-0.1,23,11.6,23,26.1v621.9C1171.5,1051.6,1161.2,1064,1148.5,1064.9z"/>
		<path class="st3" d="M694.4,365.2c0,7.2-5.4,13.1-12,13.2c-6.7,0-12.1-5.8-12.1-13.1s5.4-13.2,12.1-13.2
			C689.1,352,694.4,357.9,694.4,365.2z"/>
		<path class="st5" d="M133.8,1191.7l1042-76.7l5.3-0.4c7.1-0.7,13.7-4,18.4-9.3c-75-4.1-121.6-30.7-151.6-58.2
			c-60.3-55.2-49.9-109.7-114.9-146c-81.1-45.3-145,12.1-206.5-44.5c-37.3-34.3-19-59.9-64.9-111.2c-50.9-56.8-84-37.7-135.1-88.8
			c-64.7-64.6-32.3-114.9-88-161.4C370.8,438.9,298,491,233.7,437c-27.7-23.3-43-57.1-50.9-93.2h-48.9c-18.7,0-34,15.8-34,35.2V1159
			C99.8,1178.4,115.1,1193.1,133.8,1191.7z"/>
		
			<linearGradient id="SVGID_3_" gradientUnits="userSpaceOnUse" x1="134.3856" y1="197.3278" x2="1782.129" y2="197.3278" gradientTransform="matrix(1 0 0 -1 -11.3649 1391.6174)">
			<stop  offset="0" style="stop-color:#D3C5CB"/>
			<stop  offset="1" style="stop-color:#ADA0A6"/>
		</linearGradient>
		<path class="st6" d="M1230.4,1110.3L123,1191.5l482.9,86c5.5,1,11.1,1.2,16.7,0.8l1148.2-96.1l-522.7-71.3
			C1242.2,1110.1,1236.3,1109.9,1230.4,1110.3z"/>
		
			<linearGradient id="SVGID_4_" gradientUnits="userSpaceOnUse" x1="284.609" y1="342.4525" x2="1491.901" y2="342.4525" gradientTransform="matrix(1 0 0 -1 0 1522)">
			<stop  offset="0" style="stop-color:#D3C5CB"/>
			<stop  offset="1" style="stop-color:#ADA0A6"/>
		</linearGradient>
		<polygon class="st7" points="284.6,1192.2 1206.6,1123.6 1491.9,1162.2 577.9,1235.5 		"/>
		<path class="st8" d="M1038.3,1003.8c-136.8,108-335.8,81.3-444.5-63.8c-111-148.1-83.5-359.1,61.5-467
			c142.7-106.2,341.7-68.9,444.5,79C1200.5,696.9,1173,897.4,1038.3,1003.8z"/>
		
			<linearGradient id="SVGID_5_" gradientUnits="userSpaceOnUse" x1="1526.8116" y1="445.6012" x2="2234.0857" y2="445.6012" gradientTransform="matrix(-0.937 0.3494 -0.3494 -0.937 2217.7434 922.3712)">
			<stop  offset="0" style="stop-color:#5D535A"/>
			<stop  offset="1" style="stop-color:#464143"/>
		</linearGradient>
		<path class="st9" d="M13.8,1391.5l-6.9-8.5c-11-13.5-8.5-33.2,5.6-43.9l552.2-422l43,57.3L59,1396.3
			C45,1407.1,24.7,1405,13.8,1391.5z"/>
		
			<linearGradient id="SVGID_6_" gradientUnits="userSpaceOnUse" x1="874.5116" y1="668.8461" x2="1604.2852" y2="668.8461" gradientTransform="matrix(-0.937 0.3494 -0.3494 -0.937 2217.7434 922.3712)">
			<stop  offset="0" style="stop-color:#3B3138"/>
			<stop  offset="1" style="stop-color:#241F21"/>
		</linearGradient>
		<path class="st10" d="M1047.9,1030.5c-156.9,124.4-385.9,94.6-511.5-72.1c-128.7-170.7-97-414.5,70.8-538.7
			c164.8-122,393.7-78.2,511.5,92.2C1233.7,678.5,1202.1,908.3,1047.9,1030.5z M1014,983.5c130.3-102.8,156.9-296.7,59.4-436.8
			C973.9,403.8,781.7,368,643.9,470.6c-139.9,104.2-166.5,307.9-59.4,451C689.4,1061.8,881.7,1087.8,1014,983.5z"/>
		
			<linearGradient id="SVGID_7_" gradientUnits="userSpaceOnUse" x1="11.3649" y1="231.4719" x2="618.9414" y2="231.4719" gradientTransform="matrix(1 0 0 -1 -11.3649 1391.6174)">
			<stop  offset="0" style="stop-color:#5D535A"/>
			<stop  offset="1" style="stop-color:#464143"/>
		</linearGradient>
		<path class="st11" d="M564.6,917.1l-70.4,53.8c4,27.4-1.2,45.8-8.6,58.6c-27.7,48.2-94.8,31.9-155,98.8
			c-30.2,33.6-18.4,43.3-48.5,70.1c-49.7,44.2-88,22.9-131.7,62.6c-44.3,40.2-32.7,87-62.8,96.4c-12.9,4-32.6,0.9-63.7-27.2
			l-11.5,8.8c-14.1,10.8-16.6,30.5-5.6,43.9l6.9,8.5c11,13.4,31.2,15.6,45.2,4.8l548.6-422L564.6,917.1z"/>
		
			<linearGradient id="SVGID_8_" gradientUnits="userSpaceOnUse" x1="-7496.0063" y1="-872.9003" x2="-7863.4731" y2="-461.4631" gradientTransform="matrix(0.9876 0.157 0.157 -0.9876 8598.4473 1393.3979)">
			<stop  offset="0" style="stop-color:#5D535A"/>
			<stop  offset="1" style="stop-color:#464143"/>
		</linearGradient>
		<path class="st12" d="M1066,1042.2c-156.9,124.4-385.8,94.6-511.5-72.1c-128.7-170.7-97-414.5,70.8-538.7
			c164.8-122,393.7-78.2,511.5,92.2C1251.8,690.1,1220.2,919.9,1066,1042.2z M1032.1,995.1c130.3-102.8,156.9-296.7,59.4-436.8
			C992,415.4,799.8,379.6,661.9,482.2c-139.9,104.2-166.5,307.9-59.4,451C707.5,1073.5,899.8,1099.4,1032.1,995.1z"/>
		
			<linearGradient id="SVGID_9_" gradientUnits="userSpaceOnUse" x1="-8036.1855" y1="-272.1786" x2="-7537.8096" y2="-820.8111" gradientTransform="matrix(0.9876 0.157 0.157 -0.9876 8598.4473 1393.3979)">
			<stop  offset="0" style="stop-color:#96888E"/>
			<stop  offset="1" style="stop-color:#706369"/>
		</linearGradient>
		<path class="st13" d="M1054,1025.6c-148.2,117.3-364.2,88.8-482.5-68.6c-121-160.9-91.1-390.5,66.8-507.6
			c155.2-115.1,371.2-74.2,482.5,86.5C1229.7,693.1,1199.8,910.2,1054,1025.6z M1032.1,995.1c130.3-102.8,156.9-296.7,59.4-436.8
			C992,415.4,799.8,379.6,661.9,482.2c-139.9,104.2-166.5,307.9-59.4,451C707.5,1073.5,899.8,1099.4,1032.1,995.1L1032.1,995.1z"/>
		<g>
			<defs>
				<path id="SVGID_10_" d="M1225.5,442.9l-6.4,75.9l-271.7-76.5c-85.7-34.5-184.9-29.2-269.4,24.2
					c-147.5,93.2-189.6,294.3-93.7,445.1c94,147.9,283.7,188.4,423.6,94.5c2.8-1.9,5.5-3.8,8.3-5.8l115.8,69.2l498-250l40.4-475.7
					L1225.5,442.9z"/>
			</defs>
			<clipPath id="SVGID_11_">
				<use xlink:href="#SVGID_10_"  style="overflow:visible;"/>
			</clipPath>
			<g class="st14">
				<path class="st15" d="M265.2,1209.9c-24.5-1.2-48.6-10.1-67.4-26.8c-41.6-36.8-41.3-97.4,0.8-134.7l615-550.5
					c20.1-17.9,47.7-26.3,75.6-23.2c27.7,3.1,53.1,17.4,69.4,39.1l171,226.7l234.7-217.8c35.1-32.6,90.9-30,124.6,5.4
					c33.5,35.2,32.8,89.8-1.6,122.3L1182.4,939c-38.4,35.8-98.5,33.6-134.3-4.8c-1.8-1.9-3.5-3.9-5.1-5.9L869.7,703.3l-522.6,478.2
					C324.7,1201.9,294.6,1211.4,265.2,1209.9z"/>
				<polygon class="st15" points="1543.4,701 1324.6,473.5 1636.6,397.4 1657.8,399.2 1562.6,700.7 				"/>
				<path class="st16" d="M286.4,1211.7c-24.5-1.2-48.6-10.1-67.4-26.8c-41.6-36.8-41.3-97.4,0.8-134.7l615-550.5
					c20.1-17.9,47.7-26.3,75.6-23.2c27.7,3.1,53.1,17.4,69.4,39.1l171,226.7l234.7-217.8c35.1-32.6,90.9-30,124.6,5.4
					c33.5,35.2,32.8,89.8-1.6,122.3l-304.8,288.5c-38.4,35.8-98.5,33.6-134.3-4.8c-1.8-1.9-3.5-3.9-5.1-5.9L890.9,705.1
					l-522.6,478.2C345.8,1203.7,315.8,1213.2,286.4,1211.7z"/>
				<polygon class="st16" points="1562.6,700.7 1345.8,475.3 1657.8,399.2 				"/>
			</g>
		</g>
		
			<linearGradient id="SVGID_12_" gradientUnits="userSpaceOnUse" x1="1270.1993" y1="858.4543" x2="1369.0846" y2="764.2408" gradientTransform="matrix(1 0 0 -1 -11.3649 1391.6174)">
			<stop  offset="0" style="stop-color:#CBAF85"/>
			<stop  offset="1" style="stop-color:#BA7C44"/>
		</linearGradient>
		<path class="st17" d="M1380.3,663c2-3.3,3-21.9,0-31.4c-3-9.6-9.3-25.9-11.3-20.4c-2,5.5,0,17.6,0,17.6s-15.6,4.3-9.8,18.6
			s7.3,20.9,12.6,20.9S1380.3,663,1380.3,663z"/>
		
			<linearGradient id="SVGID_13_" gradientUnits="userSpaceOnUse" x1="1410.2596" y1="653.9714" x2="1573.6565" y2="279.5203" gradientTransform="matrix(1 0 0 -1 -11.3649 1391.6174)">
			<stop  offset="0" style="stop-color:#95AFC7"/>
			<stop  offset="1" style="stop-color:#7595B6"/>
		</linearGradient>
		<path class="st18" d="M1434.1,858c-1.4,0.2-2.9,0.4-4.3,0.6c-1.9,0.2-3.8,0.4-5.7,0.6c-70.7,6.7-101.7-30.8-109.2-75.4
			c-9.5-55.8,17.5-123,49.2-129.6c57.6-12.1,17.4,85.2,27.5,100.4c7.4,11.2,64,1.4,93.6-4.6c10.7-2.2,17.9-3.9,17.9-3.9
			S1593.8,836.4,1434.1,858z"/>
		
			<linearGradient id="SVGID_14_" gradientUnits="userSpaceOnUse" x1="322.3671" y1="-6.3094" x2="322.3671" y2="27.634" gradientTransform="matrix(1 0 0 -1 1304.4133 1391.6174)">
			<stop  offset="0" style="stop-color:#CBAF85"/>
			<stop  offset="1" style="stop-color:#BA7C44"/>
		</linearGradient>
		<path class="st19" d="M1617.5,1366.6c0,0,7.4,18.6,5.5,26.9c4.4,0,8.8-0.4,13.1-1.2c0,0-3.2-8.5-3.8-12.7
			c-0.6-4.9-0.8-9.9-0.8-14.9L1617.5,1366.6z"/>
		
			<linearGradient id="SVGID_15_" gradientUnits="userSpaceOnUse" x1="1469.1868" y1="-32.4599" x2="1493.145" y2="-32.4599" gradientTransform="matrix(1 0 0 -1 -11.3649 1391.6174)">
			<stop  offset="0" style="stop-color:#3B3138"/>
			<stop  offset="1" style="stop-color:#241F21"/>
		</linearGradient>
		<path class="st20" d="M1480.4,1415.5c0.8,0.9,1.3,2.1,1.3,3.3c0,0.7-0.1,1.5-0.4,2.2c-1.2,3.2-3.1,3.6-5.1,6.9
			c-1.2,2.1-1,2.7-2.2,3.6c-1.4,1-3.2,1.5-4.9,1.3c-3.8,0-7.6-0.2-11.4-0.6c2.5-3.3,5.2-6.6,8.1-9.9c1.3-1.5,2.5-2.9,3.8-4.3
			l7.5-2.5C1478.2,1415.4,1479.3,1415.4,1480.4,1415.5z"/>
		
			<linearGradient id="SVGID_16_" gradientUnits="userSpaceOnUse" x1="164.129" y1="-21.3071" x2="164.129" y2="17.6748" gradientTransform="matrix(1 0 0 -1 1304.4133 1391.6174)">
			<stop  offset="0" style="stop-color:#CBAF85"/>
			<stop  offset="1" style="stop-color:#BA7C44"/>
		</linearGradient>
		<path class="st21" d="M1474.2,1379.3c0,0-4.3,22.2,1.2,28.4c4.6,6.2-2.2,1.8-2.2,1.8l-8.2,7.1l-4.9,8.5c0,0,4.5-21.8,3.3-30.4
			s-1.8-14.5-1.8-14.5L1474.2,1379.3z"/>
		
			<linearGradient id="SVGID_17_" gradientUnits="userSpaceOnUse" x1="370.7552" y1="-39.183" x2="224.8463" y2="549.9227" gradientTransform="matrix(-1 0 0 -1 1837.1084 1391.6174)">
			<stop  offset="0" style="stop-color:#3B3138"/>
			<stop  offset="1" style="stop-color:#241F21"/>
		</linearGradient>
		<path class="st22" d="M1432.5,961.9c-8.3,27.3-14.4,55.2-18.2,83.5c-14.3,104,16.1,107.3,10.4,222.5
			c-1.8,36.8,31.9,121.6,34.8,123.4c1.5,0.2,3.1,0.2,4.7,0.2c4-0.1,8-0.8,11.9-2c5.3-0.9,24.6-53,20.1-84
			c-3.2-21.9-2.2-45.4-0.4-92.5c0.3-7.6,19.8-148.3,19.8-148.3l0,0c5.9,52.1,12.8,96.3,18.7,130.6c19,110.2,80.8,176.9,84,178
			c0.6,0.3,6.4,2.4,11.2-0.8c1.2-0.8,2.2-1.9,2.8-3.2c1.7-1.3-0.5-110-19.3-191.9c-27.4-118.8-15.4-146.6-24.1-199.6
			C1581.3,932,1432.5,961.9,1432.5,961.9z"/>
		
			<linearGradient id="SVGID_18_" gradientUnits="userSpaceOnUse" x1="1630.6671" y1="-15.7402" x2="1650.4128" y2="-15.7402" gradientTransform="matrix(1 0 0 -1 -11.3649 1391.6174)">
			<stop  offset="0" style="stop-color:#3B3138"/>
			<stop  offset="1" style="stop-color:#241F21"/>
		</linearGradient>
		<path class="st23" d="M1621,1400.6c0,0-1.8,0-1.7,2.4s-0.8,10.6,8.6,11s10.8-0.7,11.2-0.7s-2.5-7.9-2.5-7.9l-3-3.8l-8.1-0.8
			L1621,1400.6z"/>
		
			<linearGradient id="SVGID_19_" gradientUnits="userSpaceOnUse" x1="1630.9846" y1="-8.4599" x2="1653.2671" y2="-8.4599" gradientTransform="matrix(1 0 0 -1 -11.3649 1391.6174)">
			<stop  offset="0" style="stop-color:#5D535A"/>
			<stop  offset="1" style="stop-color:#464143"/>
		</linearGradient>
		<path class="st24" d="M1641.8,1408.9c-0.5-2.6-1.3-5.2-2.4-7.6c-1.7-3.7-0.3-5.1-1.9-8.5c-0.5-1.3-1.3-2.4-2.2-3.4
			c-1.8-1.6-4.2-2.6-6.6-2.5c-1.1,0-2.2,0.2-3.1,0.7c-1.2,0.7-2.2,1.7-2.8,3c-1,1.6-0.8,2.1-2.3,6.7c-0.5,1.4-0.8,2.9-0.8,4.3
			c2.5,0,11.9,0.4,13.9,1.8c2,1.5,3.1,3.9,3,6.4c0,2.5,1.2,3.6,2.5,3.5C1640.1,1413.3,1642.3,1411.2,1641.8,1408.9z"/>
		
			<linearGradient id="SVGID_20_" gradientUnits="userSpaceOnUse" x1="1468.2054" y1="-26.7977" x2="1492.2725" y2="-26.7977" gradientTransform="matrix(1 0 0 -1 -11.3649 1391.6174)">
			<stop  offset="0" style="stop-color:#5D535A"/>
			<stop  offset="1" style="stop-color:#464143"/>
		</linearGradient>
		<path class="st25" d="M1473.1,1404.6c2,0,3.5,1.6,4.6,5.5s6.5,7.3,0.2,6.5s-10.8,8-13,11.3s-8.2,6.2-8.1,3s2.8-4.7,3.5-8
			S1468.5,1404.5,1473.1,1404.6z"/>
		
			<linearGradient id="SVGID_21_" gradientUnits="userSpaceOnUse" x1="1477.0283" y1="654.3439" x2="1614.8937" y2="338.4019" gradientTransform="matrix(1 0 0 -1 -11.3649 1391.6174)">
			<stop  offset="0" style="stop-color:#95AFC7"/>
			<stop  offset="1" style="stop-color:#7595B6"/>
		</linearGradient>
		<path class="st26" d="M1629.5,788.4c-27,55.5-29.2,70.6-38.7,109.2c-4.2,17-12.6,35.3-6,65.9c1.1,4.9,2.4,9.7,4,14.5
			c-17,9-35.4,15.1-54.4,17.9c-50.4,7.5-92.7-7.6-109.1-16c-3.8-17.3-7.9-42.8-3.7-98.1c0.4-4.8,1.1-12.7,2.6-22.5
			c1.7-10.7,4-21.3,6.8-31.8c0.4-1.5,0.9-3,1.3-4.5c4.4-15,8.8-25.1,13.6-33.7c4.7-8.3,10.1-16.1,16.2-23.3c2.3-2.7,4.2-4.8,4.6-5.1
			c5.4-4.8,11.7-8.5,18.5-10.8c20.6-7.3,44.1-3.8,57.9-3.4c16.3,0.5,47.6,1.2,64.9,21.8C1619.3,781.7,1637,773.1,1629.5,788.4z"/>
		
			<linearGradient id="SVGID_22_" gradientUnits="userSpaceOnUse" x1="257.5388" y1="676.9605" x2="221.8878" y2="619.2899" gradientTransform="matrix(1 0 0 -1 1304.4133 1391.6174)">
			<stop  offset="0" style="stop-color:#CBAF85"/>
			<stop  offset="1" style="stop-color:#BA7C44"/>
		</linearGradient>
		<path class="st27" d="M1528.8,722.7c1.4-11,10.1-18,12-19.5c7.9-6.3,9.5-6.9,12.2-7.4l3.7-0.6c0,0,0.2,0,0.4,0
			c2.2,0.1,8.7,2.7,9.9,3.5c3.8,2.7,1,21.5-10.5,44.9c-0.5,2-0.9,4-1.4,6c10,1.8,12.5,3.6,12.6,5c0.2,3.1-10.8,7.1-20.9,7.4
			c-12.7,0.3-26.2-5.1-26-9.2c0.1-1.7,2.5-3.7,11.7-5.7c1.4-2,2.9-4.1,4.3-6.1C1535.6,739.3,1527.8,730.7,1528.8,722.7z"/>
		
			<linearGradient id="SVGID_23_" gradientUnits="userSpaceOnUse" x1="1550.6334" y1="675.3899" x2="1604.0634" y2="675.3899" gradientTransform="matrix(1 0 0 -1 -11.3649 1391.6174)">
			<stop  offset="0" style="stop-color:#3B3138"/>
			<stop  offset="1" style="stop-color:#241F21"/>
		</linearGradient>
		<path class="st28" d="M1553,688c-4,3.9-5,10.7-3.8,15.6c0.7,2.9,1.6,3.2,1.5,5.1c-0.4,5.4-10.2,7.7-9.6,10.4
			c0.4,1.9,5.5,1.2,6.4,3.7c1,2.7-4.6,4.9-7,11.6c-0.4,1-2.6,7.4,0.3,11.1c2.7,3.5,8.8,2.7,15.7,1.8c5-0.6,9.9-1.9,14.6-3.9
			c5-2.2,10.4-4.6,14.9-10c4.6-5.7,7-12.8,6.8-20c-0.7-14.3-12.7-26.6-25-28.5C1565.7,684.5,1557.9,683.2,1553,688z"/>
		
			<linearGradient id="SVGID_24_" gradientUnits="userSpaceOnUse" x1="-244.3627" y1="1261.3909" x2="-278.8622" y2="1205.5828" gradientTransform="matrix(0.9717 -0.2361 -0.2361 -0.9717 2084.4502 1874.8939)">
			<stop  offset="0" style="stop-color:#CBAF85"/>
			<stop  offset="1" style="stop-color:#BA7C44"/>
		</linearGradient>
		<path class="st29" d="M1544.6,718.5c2.9-1.7,5.1,2,3.7,5.2c-1.4,3.2-5.9,5.3-8.7,3.3S1540.7,720.9,1544.6,718.5z"/>
		
			<linearGradient id="SVGID_25_" gradientUnits="userSpaceOnUse" x1="251.6188" y1="490.6956" x2="279.6656" y2="379.184" gradientTransform="matrix(-1 0 0 -1 1837.1084 1391.6174)">
			<stop  offset="0" style="stop-color:#CBAF85"/>
			<stop  offset="1" style="stop-color:#BA7C44"/>
		</linearGradient>
		<path class="st30" d="M1585.1,932.9c-2,1.1-4.3,1.4-6.4,0.8c-3.9-0.8-8.6-4.1-12.8-5.4s-4.6,4.9,1.7,8.1c6,3.4,10.9,8.4,14,14.5
			c2.4,4.9,8.3-5.9,8.3-5.9L1585.1,932.9z"/>
		
			<linearGradient id="SVGID_26_" gradientUnits="userSpaceOnUse" x1="1575.3411" y1="697.2385" x2="1713.2023" y2="381.3065" gradientTransform="matrix(1 0 0 -1 -11.3649 1391.6174)">
			<stop  offset="0" style="stop-color:#95AFC7"/>
			<stop  offset="1" style="stop-color:#7595B6"/>
		</linearGradient>
		<path class="st31" d="M1587.8,754.6c9.6-0.4,53.2-1.1,89.3,31.6c7.2,6.6,41.7,37.9,38.8,82.6c-3.5,53.6-59,99.1-101.6,92.6
			c-8.7-1.4-16.9-4.8-24.1-9.8l0,0l-7.1-20.1c-0.1-14.3,7.7-24.4,11.8-29.9c9.9-13.7,24.1-16,26.2-28.1c1.2-6.7-2.1-12.2-5-17.1
			c-9.9-16.7-25.8-18.7-34-27.3C1573.6,820.3,1563.9,798.3,1587.8,754.6z"/>
		
			<linearGradient id="SVGID_27_" gradientUnits="userSpaceOnUse" x1="1326.224" y1="500.807" x2="1600.1429" y2="500.807" gradientTransform="matrix(1 0 0 -1 -11.3649 1391.6174)">
			<stop  offset="0" style="stop-color:#A6B2C7"/>
			<stop  offset="1" style="stop-color:#7595B6"/>
		</linearGradient>
		<path class="st32" d="M1588.8,977.9c-17,9-35.4,15.1-54.4,17.9c-50.4,7.5-92.7-7.6-109.1-16c-3.8-17.3-7.9-42.8-3.7-98.1
			c0.4-4.8,1.1-12.7,2.6-22.5c-70.7,6.7-101.7-30.8-109.2-75.4c13.7,22.5,37.1,50.2,67.4,46c37.7-5.2,45.5-13.1,48.7-2.4
			c1,3.5,1.6,9,2.5,17.2c0.4,4.5,0.7,8.9,0.7,13.4c0.4,40.1-7.7,114.9,18.6,111.8c28.2-3.3,98.6,15.1,132.1-6.3
			C1585.9,968.4,1587.2,973.2,1588.8,977.9z"/>
	</g>
</g>
</svg>
