<svg xmlns="http://www.w3.org/2000/svg" viewBox="0 0 1627.29032 389.61274"><defs><style>.cls-1{fill:#1d5cb8;}.cls-2{fill:#f0592a;}.cls-3{fill:#9dcb40;}.cls-4{fill:#fad439;}.cls-5{fill:#ed2b30;}.cls-6{fill:#da3232;}.cls-7{fill:#cb2730;}.cls-8{fill:#d9b327;}</style></defs><title>Recurso 3</title><g id="Capa_2" data-name="Capa 2"><g id="Capa_1-2" data-name="Capa 1"><path class="cls-1" d="M490.4267,263.96586c.06834-2.8708-.00823-5.75469.24939-8.60845.2164-2.39653-.53943-3.0246-2.96825-3.01337-22.19317.10172-44.38718.0337-66.58067.10689-1.86851.00613-2.8983-.356-2.85446-2.35485.50452-6.89386.18193-13.79806.14862-20.69466-.01148-2.35677.52884-3.03794,2.9754-3.02147,17.18544.11589,34.372.06139,51.55831.06139,6.11614,0,6.11614,0,5.34589-6.32813a126.95363,126.95363,0,0,0,.02355-16.27091c.03982-3.90666.03388-7.81567.24237-11.71327.11882-2.2218-.61442-2.67527-2.72984-2.66436-17.28582.08934-34.57242.05035-51.85875.05035-5.38437,0-5.37882-.00019-5.4972-5.253a16.25853,16.25853,0,0,0-.21122-1.69723c.06726-4.12261.32316-8.2539.13522-12.36489-.12393-2.71158.5439-3.54648,3.418-3.5283,21.33671.13485,42.67494.03478,64.01222.12827,2.31025.01015,2.831-.65742,2.80954-2.87233q-.16617-17.14479-.00453-34.29208c.01647-2.02257-.31735-2.77-2.60584-2.76487q-55.218.12378-110.43639-.00089c-2.44419-.00562-2.80022.89444-2.78854,2.9842.07147,12.77541.01736,25.5514.04435,38.32713.01015,4.79523.12533,9.59019.19266,14.38529-.35705,7.22372-.31755,14.4475-.04812,21.67129a128.06962,128.06962,0,0,0,.04946,15.87537q-.53021,14.99035-.00428,29.98071A94.38247,94.38247,0,0,0,373.044,263.967a101.09265,101.09265,0,0,0,.00012,13.829c-.0536,3.54942.05393,7.1109-.2132,10.6441-.20389,2.69831.50223,3.57016,3.39785,3.56187q55.545-.15967,111.0905-.07039c.57714,0,1.1557-.029,1.73093.00287,1.06763.059,1.60432-.35864,1.58147-1.4899-.08525-4.2191-.13854-8.4389-.20389-12.65838A95.18714,95.18714,0,0,0,490.4267,263.96586Z"/><path class="cls-1" d="M1002.994,213.13173a44.87892,44.87892,0,0,0-.10478-10.53836c-.77-7.45965-2.032-14.81445-5.1508-21.72324h0a2.89527,2.89527,0,0,0-.05463-.85513c-12.52723-32.52119-43.67148-56.57286-83.48366-53.9138-23.48116,1.56827-43.044,11.41129-58.54483,29.0906a75.67241,75.67241,0,0,0-16.12184,29.13088,67.22234,67.22234,0,0,0-3.92618,23.64752l45.98646.00058c.7377-6.52539,1.49966-13.04522,4.18272-19.14656.57281-1.30254,1.13438-2.61005,1.70106-3.91527,4.03365-6.70988,9.22644-12.27874,16.49643-15.43288,13.40023-5.81385,32.2415-4.19472,43.72981,10.26721.47147.59348,1.00242,1.13981,1.50579,1.70815h0c5.94,9.54392,8.2493,19.98254,7.68173,31.1304.55034.14595,1.0929.29866,1.6458.41435-.5529-.11569-1.09559-.2684-1.6458-.41435-.41442,4.3025-.77434,8.61534-2.37458,12.69634-2.54087,10.00659-8.03488,17.84441-16.9984,23.14116-.81492.48148-1.593,1.025-2.38823,1.53974a41.65769,41.65769,0,0,1-25.48433,1.84535c-1.84363-.45111-3.63442-1.11722-5.44958-1.68422-10.76823-5.33765-17.056-14.30054-20.62555-25.46263a4.05333,4.05333,0,0,1-.94191.40478,4.051,4.051,0,0,0,.94191-.40484,100.32741,100.32741,0,0,1-1.97687-16.68667q-22.99311-.00038-45.98646-.00064a57.27143,57.27143,0,0,0,1.614,17.31659,70.70952,70.70952,0,0,0,9.74922,25.98458,54.62069,54.62069,0,0,0,9.2401,13.27177,65.26919,65.26919,0,0,0,17.144,15.09453,41.16941,41.16941,0,0,0,7.80259,4.79075c15.81628,8.37068,32.71028,10.409,50.22406,8.125a74.94013,74.94013,0,0,0,33.67925-12.91191,62.63583,62.63583,0,0,0,16.48124-14.00578,61.37056,61.37056,0,0,0,10.44838-14.298,74.95721,74.95721,0,0,0,9.66958-25.48177,46.36549,46.36549,0,0,0,1.33425-12.72417Z"/><path class="cls-1" d="M1574.62806,290.6766c-1.41389-3.72345-2.182-7.68575-4.14545-11.20453-1.30515-5.53664-3.49683-10.77563-5.413-16.10716q-2.42083-6.97276-4.8418-13.9456-4.19881-12.06484-8.39825-24.12958-4.61061-13.26733-9.22108-26.53467c-1.62551-5.68-3.61145-11.23555-5.78462-16.72642a3.78371,3.78371,0,0,0-.0924-.85462c-6.0746-17.51594-12.19323-35.0167-18.18984-52.55932-.61837-1.809-1.72072-1.71619-3.08127-1.71517-12.00943.00862-24.02014.10313-36.02715-.07128-2.65319-.03854-3.61145.99259-4.34915,3.264-2.06673,6.36406-4.33435,12.663-6.51914,18.98874q-6.08416,17.61375-12.164,35.229-3.899,11.25534-7.79813,22.51066c-1.99576,5.69074-4.07513,11.62061-6.07332,17.31837h-.00025q-.03906.1121-.07837.22412l-.00842.02419h0q-4.37,12.50595-8.73915,25.012-2.1668,6.34751-4.33281,12.69513h-.03013a153.10815,153.10815,0,0,0-5.59725,16.27473c-1.43393,3.93078-2.82537,7.87783-4.3221,11.78455-.63419,1.65576.21455,1.74484,1.46559,1.7437q21.29631-.02058,42.59275.01723a2.25134,2.25134,0,0,0,2.58427-1.993c.96068-3.68835,3.18286-10.98673,3.18286-10.98673,1.553-5.19369,3.51062-11.66247,5.06363-16.85622l-.0984.00006c.84185-2.3546,2.91241-2.56685,5.60644-2.52026q17.16508.29635,34.33784-.00243c3.14023-.056,5.34007.372,5.93573,3.812,1.24683,5.53822,3.18809,10.86541,4.9434,16.24914,1.0282,3.37724,2.22946,6.71492,3.015,10.14762.42526,1.85818,1.27146,2.21082,2.952,2.19666,7.96009-.06688,15.92107-.02974,23.8818-.02974,6.04243,0,12.08524.02323,18.12729-.0328C1573.6924,291.8926,1575.3405,292.55354,1574.62806,290.6766Zm-92.5415-61.43268c.39987-1.58154.77638-3.0708,1.15136-4.5538h0c1.76973-5.55833,3.87168-11.55858,5.03044-17.29521,2.71037-7.37554,4.76179-14.95382,6.92615-22.49726.53235-1.6091,1.0647-3.21815,1.6093-4.86446,1.238.2254.546,1.60311,1.352,1.99124a171.46911,171.46911,0,0,0,4.92847,17.4213,4.43822,4.43822,0,0,1,.461-.2319,4.42512,4.42512,0,0,0-.461.232c2.29978,8.95541,4.827,17.84548,7.67291,26.64385v.00013c.18481,1.02277.36962,2.04561.56988,3.15414Z"/><path class="cls-1" d="M1354.5734,235.66593c-.265-4.5406-.9363-9.06212-3.03072-13.21893a33.18161,33.18161,0,0,0-11.56758-15.61348,41.42965,41.42965,0,0,0-10.17563-6.83821c-15.05216-7.79193-31.52357-11.58315-47.51522-16.72559a49.98111,49.98111,0,0,1-5.23784-3.83282c-4.52133-4.2637-2.97393-10.50371,2.96065-12.37925a28.38127,28.38127,0,0,1,12.79934-.75117c13.099,1.90024,24.93488,7.237,36.33041,13.64286,1.85984,1.04555,2.43545.82858,3.35516-.96106q8.79927-17.12584,17.83515-34.12973c.74818-1.409.35775-1.62206-.87057-2.16041-3.85637-1.69009-7.5786-3.68847-11.44607-5.35055-17.66617-7.59244-35.79512-13.1964-55.36248-11.564-16.798,1.40132-31.78087,7.072-43.08336,20.14182-9.5034,10.98967-13.0555,24.01913-12.01441,38.39529.06611,8.57642,2.1927,16.45514,7.8442,23.14038a3.90327,3.90327,0,0,0,.48308,1.0081,58.95286,58.95286,0,0,0,24.44133,15.73843c8.06423,3.80608,16.66771,6.03062,25.15874,8.59058,5.6783,1.71191,11.53682,3.102,16.4492,6.6019,5.22841,3.725,5.10716,8.67093-.04275,12.34179-1.67312.32788-3.33845.70369-5.02075.97478-4.8681.78448-9.69434-.12055-14.53538-.42073a126.69624,126.69624,0,0,1-16.53012-4.6974,150.3149,150.3149,0,0,1-24.29532-11.702c-.76591-.45718-1.64606-1.74772-2.47413-.00728q-4.06556,8.544-8.13749,17.08487h0a141.444,141.444,0,0,0-6.33611,12.85665c-1.95225,2.274-2.50029,5.26223-3.95656,7.79149a1.21326,1.21326,0,0,0,.57778,1.88957c3.57125,1.79986,6.951,3.995,10.80741,5.20339,6.18908,3.31764,12.88473,5.31838,19.57591,7.231,18.50457,5.28934,37.27551,7.95268,56.5072,4.82075,10.60843-1.72768,20.64635-4.929,29.16955-11.82686a39.13,39.13,0,0,0,12.10069-14.67061,32.56959,32.56959,0,0,0,4.46734-13.28823C1355.234,247.26312,1354.91035,241.4464,1354.5734,235.66593Z"/><path class="cls-1" d="M1164.00277,290.18273c-2.39665-3.898-4.67461-7.86915-7.00081-11.81065-2.79716-5.48845-5.895-10.80441-9.19785-16.00269a114.94256,114.94256,0,0,0-7.08173-12.26674c-3.17406-5.65533-6.29068-11.34416-9.56288-16.94224-.81173-1.38856-.7275-2.09545.58327-3.01784a33.74414,33.74414,0,0,0,6.88072-6.45334,44.6768,44.6768,0,0,0,9.41329-14.01081,38.30537,38.30537,0,0,0,3.52759-9.07361c1.9696-7.63437,3.01413-15.353,1.53515-23.2259a53.42726,53.42726,0,0,0-11.08552-27.569c-10.9829-14.52619-25.4006-22.80223-43.94257-22.862-24.2435-.07811-48.48713.02617-72.73025-.08462-2.61158-.01187-3.1752.75143-3.16231,3.21911.10185,19.42135.062,38.8434.08079,58.26526.001,1.05525.07684,3.39843.141,5.00339a144.709,144.709,0,0,0,.04148,16.32189,81.71685,81.71685,0,0,0-.00612,13.31886c-.3372,9.75126-.36043,21.39912-.05054,31.31451a94.407,94.407,0,0,0,.03994,13.11894,145.72125,145.72125,0,0,0,.02808,16.12885c-.06037,1.527-.1649,3.05389-.17281,4.58118-.01953,3.75095-.00166,3.75344,3.61745,3.75382q17.27765.00192,34.55506.00051c8.05555,0,8.05555,0,7.18817-8.33545a144.22824,144.22824,0,0,0,.02795-16.13,94.59443,94.59443,0,0,0,.03153-13.27566c.07147-3.39894.16528-7.93794.15226-10.915-.006-1.35295.38953-1.84337,1.79283-1.82015q6.76.11172,13.5225-.00287a2.20745,2.20745,0,0,1,2.16756,1.43189c1.50834,2.64228,3.09505,5.23983,4.65125,7.85492a103.62807,103.62807,0,0,0,6.9296,12.111l9.24227,16.161c2.0061,3.57373,4.09644,7.10375,5.9804,10.74059a3.67888,3.67888,0,0,0,3.8191,2.22346c12.75391-.08353,25.50858-.04359,38.263-.04365,2.8768-.00006,5.75386-.0051,8.63066.00115C1164.09824,291.89343,1165.03046,291.85374,1164.00277,290.18273Zm-58.32045-96.54529c-1.93,5.23791-5.70179,7.99965-11.25169,8-8.06755.00057-16.136-.0554-24.2024.04179-1.8661.02247-2.53718-.464-2.40176-2.38376.15622-2.21433.03522-4.44819.01965-6.67471.01251-7.43183.05846-16.34813-.02476-23.50318-.02208-1.89551.58047-2.43022,2.43928-2.41025,8.14362.08756,16.2912-.08028,24.43291.07671,5.97925.11525,9.07609,4.225,11.47632,9.0461.25169.50522.412,1.05582.61467,1.58537A30.577,30.577,0,0,1,1105.68232,193.63744Z"/><path class="cls-1" d="M830.1036,254.02794c-3.00418-1.66284-5.95845-3.41591-8.932-5.13395q-12.89889-7.78029-25.788-15.57679c-.82284-.4998-1.24134-.62-1.65333.44754-2.68344,6.95487-7.84318,11.62737-14.17648,15.1944-11.75354,5.21807-23.48512,5.62291-35.18811-.161-2.52531-1.99864-5.34021-3.59677-7.67318-5.8746-5.24576-5.12158-8.36353-11.46892-10.83529-18.21805a108.95885,108.95885,0,0,1-2.19238-16.15584c.78167-10.88,3.4006-21.14347,10.22056-29.997,1.76054-1.61721,3.4341-3.34323,5.29649-4.83345,9.15108-7.32193,19.67348-8.46,30.76308-6.45187,11.03472,1.99826,19.57783,7.56826,24.27516,18.06412.99322,2.21912,1.82639.87364,2.67514.27294,10.40014-7.3606,20.74794-14.79555,31.1828-22.10613,1.522-1.06616,1.62652-1.75511.70758-3.334-7.306-12.5548-17.71033-21.89279-31.06052-27.12292-29.92819-11.72443-58.92868-9.998-85.8906,8.58676a75.75878,75.75878,0,0,0-28.12386,35.81363c-4.11706,9.963-6.44881,20.25733-5.90414,31.08516a55.98224,55.98224,0,0,0,1.86685,17.29,73.22109,73.22109,0,0,0,9.20405,24.28351,59.16252,59.16252,0,0,0,9.1004,13.30872,73.59271,73.59271,0,0,0,24.40406,20.10768c.88608.55858,1.73234,1.19641,2.66417,1.66386,16.571,8.31286,34.03624,9.91118,52.07254,6.69922,8.69179-1.54784,17.16509-3.88917,24.94279-8.25925,9.66741-4.57583,18.09322-10.68737,24.26-19.59263a37.96754,37.96754,0,0,0,4.61463-7.86577C831.54072,254.92557,831.06708,254.56125,830.1036,254.02794Z"/><path class="cls-1" d="M1408.03776,283.5583h.00025q-.00267-4.62027-.00536-9.24029h-.00025q.00191-2.59727.00408-5.19439l-.0023-5.76541c.03217-4.22107.04863-8.44234.10709-12.6631.01467-1.05774-.01545-1.79149-1.46151-1.785q-16.56585.075-33.13223.01091c-1.09609-.00268-1.55327.34071-1.52621,1.47854.10364,4.31017.14908,8.62173.21621,12.93272a16.74053,16.74053,0,0,0-.00447,5.76388,13.3956,13.3956,0,0,0,.00855,5.23683,40.39246,40.39246,0,0,0-.0111,9.23122c-.05909,1.81453-.0365,3.6364-.19821,5.44174-.19477,2.17726.51614,2.95868,2.85625,2.91764,8.44036-.14811,16.88494-.0185,25.32747-.08238,2.55211-.01927,5.99151,1.14064,7.4271-.49578C1409.17112,289.60335,1408.098,286.22476,1408.03776,283.5583Z"/><path class="cls-1" d="M1626.86818,283.5583h.00025q-.00267-4.62027-.00536-9.24029h-.00025q.00192-2.59727.00408-5.19439l-.00229-5.76541c.03216-4.22107.04862-8.44234.10708-12.6631.01468-1.05774-.01545-1.79149-1.4615-1.785q-16.56586.075-33.13223.01091c-1.0961-.00268-1.55327.34071-1.52622,1.47854.10364,4.31017.14908,8.62173.21621,12.93272a16.74078,16.74078,0,0,0-.00447,5.76388,13.39541,13.39541,0,0,0,.00856,5.23683,40.39189,40.39189,0,0,0-.01111,9.23122c-.05909,1.81453-.0365,3.6364-.19821,5.44174-.19476,2.17726.51614,2.95868,2.85625,2.91764,8.44037-.14811,16.88494-.0185,25.32747-.08238,2.55211-.01927,5.99151,1.14064,7.4271-.49578C1628.00154,289.60335,1626.92842,286.22476,1626.86818,283.5583Z"/><path class="cls-1" d="M658.39912,222.95989a201.08322,201.08322,0,0,0,.0127-20.752,167.13447,167.13447,0,0,0-.01334-18.49015,2.19414,2.19414,0,0,0,.15029-.55373c.01793-18.0631-.005-36.12639.08047-54.18917.0111-2.33762-1.3437-2.05179-2.79684-2.0509-13.26724.00836-26.53563.095-39.80089-.06975-2.71732-.03369-3.12319.90459-3.10583,3.27482.09713,13.25869.03076,26.51852.05781,39.77785.00939,4.60422.12617,9.20825.19381,13.81235a167.05062,167.05062,0,0,0-.01333,18.48632c-.13083,2.39391-.26178,4.78788-.42106,7.70183l-7.71906-9.56869q-7.72294-9.72949-15.44577-19.459c-2.42154-3.14418-4.81251-6.31256-7.26992-9.42848q-16.881-21.405-33.76694-42.80621a4.10123,4.10123,0,0,0-3.62146-1.77394c-10.28087.06592-20.563.09674-30.843-.01761-2.16232-.02406-2.75159.56361-2.73991,2.72626.08959,16.70874.04945,33.41812.06088,50.12738a15.53634,15.53634,0,0,0,.18366,1.70489,189.247,189.247,0,0,0-.01372,19.6403c-.37039,7.30285-.32521,14.60545.0157,21.90779q-.535,12.70209.00063,25.40424a78.8193,78.8193,0,0,0,.00409,12.72059,160.47251,160.47251,0,0,0-.00115,17.86272c-.054,3.73384-.069,7.46884-.18175,11.20089-.04384,1.44785.63344,1.75684,1.91211,1.75442q20.87733-.03925,41.75466,0c1.27867.00242,1.95581-.30676,1.9121-1.75448-.11289-3.732-.12776-7.467-.18188-11.20083a160.47741,160.47741,0,0,0-.00108-17.8638,78.78362,78.78362,0,0,0,.00408-12.71715q.54189-12.70334.00064-25.40679v-10.745l.75034-.1612q4.76721,5.75919,9.53436,11.51844,11.22986,13.91,22.45973,27.8201v-.00006q4.89566,5.99859,9.7914,11.99718c4.07225,5.36625,8.25989,10.63919,12.71651,15.69433a4.26128,4.26128,0,0,0,1.77764,2.19443c2.47815,3.14993,4.96618,6.292,7.42748,9.455a2.87525,2.87525,0,0,0,2.47387,1.16744c10.95929-.02061,21.91858-.036,32.87768.01264,1.52314.00676,2.02467-.52425,1.96679-2.0077-.11978-3.06621-.11468-6.13733-.16082-9.2064a3.0363,3.0363,0,0,0-.00848-2.38083,113.25662,113.25662,0,0,0-.01168-14.95778,85.876,85.876,0,0,0,.00185-13.26449Q658.94413,236.52785,658.39912,222.95989Z"/><path class="cls-2" d="M308.90779,148.99708a147.08358,147.08358,0,0,1-.58967,21.45991,155.30024,155.30024,0,0,1-46.0848,94.96475c-5.92191,5.76654-12.28272,11.05452-18.72453,16.23562a2.66454,2.66454,0,0,1,.55918-1.97777c.7804-1.31146,1.57255-2.61938,2.278-3.97144a116.49179,116.49179,0,0,0,8.65872-21.33375c1.67259-5.73669,3.16024-11.49952,4.37959-17.34231,1.12377-5.38473,1.586-10.86579,2.42064-16.29263.41348-2.68825.51834-5.424.76282-8.13819a12.82371,12.82371,0,0,0-.96925,2.98936c-1.37709,5.811-3.00843,11.54771-4.70771,17.27523-1.43271,4.829-3.10492,9.56235-4.93648,14.23226a192.40893,192.40893,0,0,1-11.353,24.24444,144.01391,144.01391,0,0,1-13.19695,19.728c-1.4165,1.76059-3.206,3.253-4.14456,5.3851-6.07223,4.266-12.52718,7.90588-18.9526,11.59581a9.56269,9.56269,0,0,0-3.054,1.9764,6.113,6.113,0,0,0-1.77675.64363c-4.5181,2.38464-9.03786,4.77236-13.63221,7.0048q-8.29638,4.03125-16.81556,7.58733c-5.84421,2.43032-11.68752,4.854-17.63,7.0414a35.77145,35.77145,0,0,0-8.78171,4.35414,6.549,6.549,0,0,0-2.05425,8.9435,1.874,1.874,0,0,1,.3131,1.32186c-1.85-1.02442-2.74334-2.84215-3.619-4.59762-3.82886-7.676-6.71189-15.75915-10.06675-23.63994-.98837-2.32172-1.921-4.668-2.83646-7.01962-.932-2.394-.31244-3.646,2.14864-4.37215A295.07284,295.07284,0,0,0,178.45,286.595a237.855,237.855,0,0,0,49.49171-33.4923c10.66571-9.49118,20.35136-19.85947,28.19611-31.8211a120.50991,120.50991,0,0,0,18.12788-46.03646A116.86783,116.86783,0,0,0,276.154,153.5312a120.96444,120.96444,0,0,0-25.3966-73.40591,141.373,141.373,0,0,0-15.82393-16.97762,1.79868,1.79868,0,0,1,1.57432.58087c2.22483,1.71994,4.49281,3.384,6.72426,5.09555a277.51221,277.51221,0,0,1,22.45564,19.18408,216.00422,216.00422,0,0,1,21.10258,23.145,148.002,148.002,0,0,1,22.11752,37.84387Z"/><path class="cls-3" d="M52.1701,38.80507A139.655,139.655,0,0,1,76.66168,21.03879,156.55769,156.55769,0,0,1,127.35074,2.45227a153.81319,153.81319,0,0,1,90.56346,11.154c-.45649.1158-.90689.26021-1.36837.34337A711.61279,711.61279,0,0,0,143.25276,30.697,168.29609,168.29609,0,0,0,126.196,36.23885a136.88644,136.88644,0,0,0-20.47665,6.97993,122.13734,122.13734,0,0,0-71.929,96.81252c-.04153.34549.01581.71384-.29427.9753-.26334-3.44812-.72481-6.89453-.74855-10.34392-.04972-7.22532-.23667-14.44693.19209-21.68153a189.97437,189.97437,0,0,1,2.88052-23.88272A158.17355,158.17355,0,0,1,46.0615,51.49319C47.92513,47.17485,50.1386,43.03632,52.1701,38.80507Z"/><path class="cls-4" d="M52.1701,38.80507c-2.0315,4.23125-4.245,8.36978-6.1086,12.68812A158.17355,158.17355,0,0,0,35.82014,85.09843a189.97437,189.97437,0,0,0-2.88052,23.88272c-.42876,7.2346-.24181,14.45621-.19209,21.68153.02374,3.44939.48521,6.8958.74855,10.34392-.17954,5.10146-.73686,10.18106-.6813,15.29871.08859,8.15951,1.61658,16.09558,3.44681,23.99529,2.512,10.84254,5.734,21.44786,10.93168,31.346a117.29029,117.29029,0,0,0,16.23439,23.40285A159.61252,159.61252,0,0,0,81.5119,253.09654a2.49074,2.49074,0,0,1,.427.72471c-1.13661-.03671-1.89327-.848-2.74867-1.40891a356.49567,356.49567,0,0,1-46.747-35.98657A220.16592,220.16592,0,0,1,6.3669,188.25362c-1.119-1.46922-1.94362-3.19467-3.50371-4.31072A118.008,118.008,0,0,1,.42705,166.205a161.78225,161.78225,0,0,1-.194-20.44237,148.71478,148.71478,0,0,1,4.65529-29.8727A155.93134,155.93134,0,0,1,26.0392,68.67763,152.84138,152.84138,0,0,1,42.15751,48.439C45.34669,45.06086,48.66828,41.846,52.1701,38.80507Z"/><path class="cls-5" d="M2.86319,183.9429c1.56009,1.11605,2.38474,2.8415,3.50371,4.31072a220.16592,220.16592,0,0,0,26.07636,28.17215,356.49567,356.49567,0,0,0,46.747,35.98657c.8554.56089,1.61206,1.3722,2.74867,1.40891l-.01413.03548c.0454.42038.315.488.66789.42458l-.01046-.0052c.04643.3002.26168.3709.52046.38239a153.95091,153.95091,0,0,0,26.74738,16.90067,149.48266,149.48266,0,0,0,46.4971,13.471c2.46557.30818,4.93956.5494,7.83057.868-4.39075,2.14993-8.5244,3.875-12.66465,5.59166a303.09551,303.09551,0,0,1-34.80292,11.84376,6.0631,6.0631,0,0,1-3.44525.11941,155.52225,155.52225,0,0,1-59.62755-31.88559A154.02912,154.02912,0,0,1,2.86319,183.9429Z"/><path class="cls-2" d="M167.79063,389.136a36.06921,36.06921,0,0,1-8.77153-.17005,5.354,5.354,0,0,1-4.25029-3.58368c-2.32963-5.88178-4.56046-11.803-6.78378-17.72619-.84352-2.24724.06058-4.58339,2.16852-6.37428,2.66835-2.26705,6.02828-2.83094,9.20054-3.81594,17.93309-5.5683,35.51155-12.11061,52.9119-19.14461.38806-.15687,1.16721-.07271,1.05564-.90056a9.1441,9.1441,0,0,0,5.04731-1.81794c9.21311-3.52208,18.205-7.5586,27.1635-11.67235,4.48243-2.05834,9.00748-4.03236,13.42192-6.228,4.67327-2.32437,9.54066-4.29916,13.761-7.48546,1.41508-1.06836,2.39015-2.22173,2.30192-4.06238a3.74289,3.74289,0,0,1,2.08147,2.867c1.85713,7.941,3.80453,15.86287,5.517,23.835.8489,3.95207-1.48025,6.70851-4.50992,8.66593-4.93946,3.19137-10.41072,5.40195-15.73025,7.87765-8.51233,3.96161-17.19664,7.52872-25.84375,11.18082q-6.65711,2.70646-13.31442,5.41193a73.56217,73.56217,0,0,0-8.41018,3.48218,6.6488,6.6488,0,0,0-1.38.21487c-7.28021,2.75682-14.54711,5.54859-21.82738,8.30511-6.54734,2.479-13.11457,4.90567-19.65611,7.39979a19.77069,19.77069,0,0,0-4.194,1.77864C166.674,387.8973,166.44142,388.50847,167.79063,389.136Z"/><path class="cls-1" d="M126.196,36.23885A168.29609,168.29609,0,0,1,143.25276,30.697,711.61279,711.61279,0,0,1,216.54583,13.9496c.46148-.08316.91188-.22757,1.36837-.34337a142.95992,142.95992,0,0,1,24.38914,13.63959A149.85538,149.85538,0,0,1,267.258,48.65542a151.96536,151.96536,0,0,1,22.60062,31.095,156.13946,156.13946,0,0,1,16.01037,43.23416c.13219.62835.185,1.27341.27422,1.90974-1.32966-2.0042-2.62347-4.03195-3.99387-6.00661a148.84266,148.84266,0,0,0-24.83913-27.05462,305.39312,305.39312,0,0,0-46.197-32.78844c-.65478-.38565-1.22859-1.13215-2.16721-.88717l.02432.02354c.16434-.68929-.2909-.33823-.54534-.32437a129.39214,129.39214,0,0,0-26.94583-15.46751A122.06513,122.06513,0,0,0,165.21162,33.398a120.66806,120.66806,0,0,0-37.62734,2.60429C127.127,36.10538,126.659,36.16107,126.196,36.23885Z"/><path class="cls-6" d="M218.36894,335.60278a9.14427,9.14427,0,0,1-5.04731,1.818c-7.70471,1.14918-15.405,2.33179-23.11612,3.4395q-18.09513,2.59931-36.20248,5.11411c-3.88625.54435-7.78029,1.0331-11.67084,1.54729a.85349.85349,0,0,0-.86871-.2514l-.09792.01035-.06416-.0751q-.21569-.15116-.43055-.30213l.00479.02105a1.87356,1.87356,0,0,0-.313-1.32178,6.549,6.549,0,0,1,2.05425-8.9435,35.77145,35.77145,0,0,1,8.78171-4.35414c5.94252-2.18736,11.78583-4.61108,17.63-7.0414q8.52318-3.54431,16.81556-7.58733c4.59435-2.23244,9.11411-4.62016,13.63221-7.0048a6.113,6.113,0,0,1,1.77675-.64363,63.88019,63.88019,0,0,1,8.61921-1.27339,6.12463,6.12463,0,0,0,.23049,1.9002c1.066,3.21608,2.04814,6.46,3.116,9.67548C214.912,325.42881,216.64994,330.51266,218.36894,335.60278Z"/><path class="cls-7" d="M214.80723,369.47521a73.56217,73.56217,0,0,1,8.41018-3.48218q6.65948-2.70031,13.31442-5.41193c4.74712.26133,9.50939.36481,14.23761.82082,7.14016.68856,14.32022.92827,21.432,1.90952,3.72269.51359,4.97782,3.57285,2.62068,6.53122-3.21055,4.02933-6.33861,8.12324-9.81683,11.94241-1.93136,2.12064-3.4679,4.57106-6.01306,6.12327a11.963,11.963,0,0,1-6.36707,1.7044c-10.24375-.001-20.48751-.08968-30.73124-.15318a4.15707,4.15707,0,0,1-.69054-.11919Q218.00533,379.40779,214.80723,369.47521Z"/><path class="cls-7" d="M218.36894,335.60278c-1.719-5.09012-3.45691-10.174-5.15015-15.27266-1.06783-3.21546-2.05-6.4594-3.116-9.67548a6.12463,6.12463,0,0,1-.23049-1.9002,75.38213,75.38213,0,0,1,9.36408-1.20522c10.952-1.14573,21.92838-1.94757,32.9448-2.207,6.868-.16172,13.72958-.37128,20.59007.15152a.8651.8651,0,0,0,1.177.2477l.0344-.03583c.08119.714.58084.51534,1.01249.465l.02212-.01581c.08825,1.84048-.88682,2.99385-2.3019,4.06221-4.22034,3.1863-9.08773,5.16109-13.761,7.48546-4.41444,2.1956-8.93949,4.16962-13.42192,6.228C236.574,328.04418,227.58205,332.0807,218.36894,335.60278Z"/><path class="cls-6" d="M214.80723,369.47521q3.19807,9.93258,6.3962,19.86516a26.46975,26.46975,0,0,1-4.92174.13066c-7.882.02209-15.7681.161-23.64515-.03938-7.7012-.1958-15.39919-.06212-23.09777-.15995-.58337-.00738-1.16581-.08848-1.7484-.1355-1.349-.62773-1.11641-1.2389-.0406-1.96258a19.77069,19.77069,0,0,1,4.194-1.77864c6.54154-2.49412,13.10877-4.92077,19.65611-7.39979,7.28027-2.75652,14.54717-5.54829,21.82738-8.30511A6.6488,6.6488,0,0,1,214.80723,369.47521Z"/><path class="cls-7" d="M228.94591,58.1575c.93862-.245,1.51243.50152,2.16721.88717a305.39312,305.39312,0,0,1,46.197,32.78844,148.84266,148.84266,0,0,1,24.83913,27.05462c1.3704,1.97466,2.66421,4.00241,3.99387,6.00661a120.89208,120.89208,0,0,1,2.76458,24.10273,147.9995,147.9995,0,0,0-22.11747-37.84386,216.00422,216.00422,0,0,0-21.10258-23.145,277.51221,277.51221,0,0,0-22.45564-19.18408c-2.23145-1.71154-4.49943-3.37561-6.72426-5.09555a1.79868,1.79868,0,0,0-1.57432-.58087l.02473.00749-.37914-.3786.02745.02477-.42535-.38424A43.29237,43.29237,0,0,1,228.94591,58.1575Z"/><path class="cls-5" d="M223.25976,296.45562c.93855-2.13211,2.72806-3.62451,4.14456-5.3851a144.01391,144.01391,0,0,0,13.19695-19.728,192.40893,192.40893,0,0,0,11.353-24.24444c1.83156-4.66991,3.50377-9.40327,4.93648-14.23226,1.69928-5.72752,3.33062-11.46419,4.70771-17.27523a12.82371,12.82371,0,0,1,.96925-2.98936c-.24448,2.71423-.34934,5.44994-.76282,8.13819-.83466,5.42684-1.29687,10.9079-2.42064,16.29263-1.21935,5.84279-2.707,11.60562-4.37959,17.34231a116.49179,116.49179,0,0,1-8.65872,21.33375c-.70543,1.35206-1.49758,2.66-2.278,3.97144a2.66454,2.66454,0,0,0-.55918,1.97777q-.15754.10809-.315.21551l-.42021.42253A174.38964,174.38964,0,0,1,223.25976,296.45562Z"/><path class="cls-2" d="M274.99514,306.17061c-.43165.05032-.9313.249-1.01249-.465A1.07153,1.07153,0,0,1,274.99514,306.17061Z"/><path class="cls-2" d="M273.94825,305.74142a.8651.8651,0,0,1-1.177-.2477A1.53058,1.53058,0,0,1,273.94825,305.74142Z"/><path class="cls-4" d="M82.59267,254.28131c-.35293.06346-.62249-.0042-.66789-.42458C82.31039,253.7422,82.52614,253.89463,82.59267,254.28131Z"/><path class="cls-7" d="M228.42489,57.85668c.25444-.01387.70968-.36493.54534.32437Z"/><path class="cls-2" d="M141.46348,347.27024a.85349.85349,0,0,1,.86871.2514C141.99634,347.59774,141.67229,347.63285,141.46348,347.27024Z"/><path class="cls-2" d="M234.57906,62.77656l.37914.3786A.39129.39129,0,0,1,234.57906,62.77656Z"/><path class="cls-2" d="M234.18116,62.41709l.42535.38424Z"/><path class="cls-4" d="M83.10267,254.6585c-.25878-.01149-.474-.08219-.52046-.38239Q82.84239,254.46736,83.10267,254.6585Z"/><path class="cls-2" d="M140.87085,346.90336q.21509.151.43055.30213A.357.357,0,0,1,140.87085,346.90336Z"/><path class="cls-2" d="M242.77353,282.2954l.42024-.42253Z"/><path class="cls-4" d="M116.73117,189.12451a4.52845,4.52845,0,0,1-1.81607-5.06445q4.22747-21.42952,8.27573-42.8943,4.85527-25.46537,9.65743-50.94084c.46-2.43145,1.44931-3.52217,3.36269-3.62058,2.05449-.10564,3.09441.67257,3.828,3.08586q6.77391,22.2852,13.50471,44.58349c.01739.05748.01941.11945.034.178,1.312,5.24529,3.91744,5.126,7.40554,2.74,10.79644-7.385,21.7638-14.52024,32.64028-21.78909a4.28048,4.28048,0,0,1,4.425-.55455c1.5842.71849,1.76694,2.1651,1.74955,3.67744-1.218,5.45923-2.46592,10.912-3.64782,16.379q-3.79569,17.55744-7.53729,35.12656-2.80116,13.064-5.60686,26.12692c-1.78091,8.2347-3.594,16.46245-5.38284,24.69547a2.79917,2.79917,0,0,1-3.19257,2.5041c-.60409-.03236-1.21157-.00133-1.81751.00075a5.98,5.98,0,0,1-1.99589-3.7373q-4.2927-21.04152-8.68852-42.06194a11.24239,11.24239,0,0,0-.38584-1.19432c-.06528-3.355-1.98995-4.77152-5.08-3.59618-2.42516.92243-4.7861,2.01645-7.162,3.06484-8.56807,3.7807-17.1083,7.62571-25.71035,11.3273C121.417,188.096,119.33137,189.58093,116.73117,189.12451Z"/><path class="cls-8" d="M172.61316,223.35831c.60594-.00208,1.21342-.03311,1.81751-.00075a2.79917,2.79917,0,0,0,3.19257-2.5041c1.78881-8.233,3.60193-16.46077,5.38284-24.69547q2.82425-13.059,5.60686-26.12692,3.76606-17.56383,7.53729-35.12656c1.1819-5.467,2.42978-10.9198,3.64782-16.379,1.79985.89651,2.24806,2.34489,1.84136,4.23406q-3.5868,16.66058-7.13326,33.3298-6.64391,30.927-13.3101,61.84907-.66771,3.10045-1.37985,6.19136c-.54709,2.37343-1.55939,3.25038-3.65408,3.21125-1.93122-.036-2.92349-.98512-3.42019-3.27547C172.69118,223.83149,172.65572,223.59415,172.61316,223.35831Z"/><path class="cls-8" d="M116.73117,189.12451c2.6002.45642,4.68581-1.02847,6.8594-1.9638,8.60205-3.70159,17.14228-7.5466,25.71035-11.3273,2.37592-1.04839,4.73686-2.14241,7.162-3.06484,3.09-1.17534,5.01469.24114,5.08,3.59618a4.3339,4.3339,0,0,0-3.47432.346q-17.61552,7.78978-35.25721,15.52056c-.27595.1213-.55936.22569-.83951.33742C118.97471,193.76422,116.8484,192.36672,116.73117,189.12451Z"/></g></g></svg>