<?xml version="1.0" encoding="utf-8"?>
<!-- Generator: Adobe Illustrator 24.0.1, SVG Export Plug-In . SVG Version: 6.00 Build 0)  -->
<svg version="1.1" id="Layer_1" xmlns="http://www.w3.org/2000/svg" xmlns:xlink="http://www.w3.org/1999/xlink" x="0px" y="0px"
	 viewBox="0 0 512 512" style="enable-background:new 0 0 512 512;" xml:space="preserve">
<style type="text/css">
	.st0{fill:#F8333C;}
	.st1{fill:#F6F6F6;}
</style>
<path class="st0" d="M512,256c0,141.4-114.6,256-256,256S0,397.4,0,256S114.6,0,256,0S512,114.6,512,256z"/>
<path class="st1" d="M434.2,364c-0.6-10.3-5.7-19.8-13.8-26.2l-47.6-37.1c-13.1-10.2-31.3-10.2-44.4,0.2l-10.6,8.4
	c-8.4,6.6-20.4,5.9-28-1.6l-85.1-85.2c-7.6-7.6-8.3-19.6-1.6-28.1l8.4-10.6c10.3-13,10.3-31.3,0.2-44.4l-37-47.7
	c-6.3-8.1-15.8-13.2-26.1-13.8c-10.3-0.7-20.4,3.2-27.6,10.5l-30.4,30.4c-13,13-44.5,66.5,95.9,207.3
	c89.2,89.4,143.5,108.1,173.3,108.1c17.8,0,28-6.6,33.5-12.1l30.4-30.4C431,384.4,434.8,374.3,434.2,364z M413.2,381.2l-30.4,30.4
	c-3.5,3.5-10.3,7.7-23,7.7c-22.1,0-72.7-13.5-162.8-103.8C93,211.4,80.4,150.1,101.1,129.3l30.4-30.4c4-4,9.3-6.2,14.9-6.2
	c0.4,0,0.9,0,1.3,0c6,0.4,11.6,3.3,15.3,8.1l37,47.7c6,7.7,5.9,18.4-0.1,26.1l-8.4,10.6c-11.3,14.3-10.1,34.8,2.8,47.7l85.1,85.2
	c12.9,12.9,33.4,14.1,47.7,2.8l10.6-8.4c7.6-6.1,18.3-6.1,26-0.1l47.6,37.1c4.8,3.7,7.7,9.3,8.1,15.4
	C419.8,371,417.5,376.9,413.2,381.2z"/>
</svg>
