<?xml version="1.0" encoding="utf-8"?>
<!-- Generator: Adobe Illustrator 24.0.1, SVG Export Plug-In . SVG Version: 6.00 Build 0)  -->
<svg version="1.1" id="Capa_1" xmlns="http://www.w3.org/2000/svg" xmlns:xlink="http://www.w3.org/1999/xlink" x="0px" y="0px"
	 viewBox="0 0 512 512" style="enable-background:new 0 0 512 512;" xml:space="preserve">
<style type="text/css">
	.st0{fill:#F8333C;}
	.st1{fill:#F4F6F9;}
</style>
<path class="st0" d="M0,256c0,141.4,114.6,256,256,256s256-114.6,256-256S397.4,0,256,0S0,114.6,0,256z"/>
<g>
	<path class="st1" d="M480,259.3c0-15.5-12.4-26.4-30-26.4h-26l-15.5-37.4c-0.2-1.1-0.6-2.1-1.2-3l-6.3-15.1c-0.3-0.6-0.6-1.2-1-1.8
		c-6.3-8.7-15.5-13.9-24.5-13.9H320V153c0-4.9-4-8.9-8.9-8.9H75.6c-12.2-0.1-22.1,9.7-22.2,21.8v155.9c0,4.9,4,8.9,8.9,8.9h9.1
		c2.6,26.9,26.4,46.6,53.3,44c23.3-2.2,41.8-20.7,44-44h18.2c2.6,26.9,26.4,46.6,53.3,44c23.3-2.2,41.8-20.7,44-44h71.3
		c0.1,0,0.1,0,0.2,0c2.6,26.9,26.4,46.6,53.3,44c23.3-2.2,41.8-20.7,44-44h9.1c9.8,0,17.8-8,17.8-17.8v-53.3c0,0,0-0.1,0-0.1
		S480,259.4,480,259.3z M404.8,233h-39.6c-0.3-0.2-0.5-0.5-0.7-0.7v-25.1c0.2-0.3,0.5-0.6,0.9-0.9h28.4L404.8,233z M235.6,277.4
		c-21.9-0.1-41.2,14.4-47,35.5H167c-7.4-25.9-34.5-40.9-60.5-33.5c-16.2,4.6-28.9,17.3-33.5,33.5h-1.9v-71.1h231.1V313h-19.7
		C276.6,291.9,257.4,277.4,235.6,277.4z M151.2,224.1v-62.2h71.1v62.2H151.2z M302.3,224.1H240v-62.2h62.2V224.1z M75.6,161.9h57.8
		v62.2H71.2v-58.2C71.3,163.6,73.3,161.8,75.6,161.9z M120.1,357.4c-17.2,0-31.1-13.9-31.1-31.1s13.9-31.1,31.1-31.1
		s31.1,13.9,31.1,31.1C151.2,343.5,137.2,357.4,120.1,357.4L120.1,357.4z M235.6,357.4c-17.2,0-31.1-13.9-31.1-31.1l0,0
		c0-0.9,0-1.9,0.1-2.8c1.6-17.1,16.7-29.7,33.8-28.1c17.1,1.6,29.7,16.7,28.1,33.8C265.1,345.1,251.7,357.4,235.6,357.4z
		 M404.5,357.4c-17.2,0-31.1-13.9-31.1-31.1s13.9-31.1,31.1-31.1s31.1,13.9,31.1,31.1S421.6,357.4,404.5,357.4L404.5,357.4z
		 M462.2,313h-10.8C444,287,416.9,272,391,279.5c-16.3,4.7-29,17.5-33.6,33.8c-0.6-0.2-1.2-0.3-1.8-0.4H320V179.6h55.5
		c3,0,6.8,2.3,9.6,5.8l1.3,3.1h-21.9c-8.8,0-17.8,9-17.8,17.8V233c0,9,8.8,17.8,17.8,17.8H450c2.9,0,12.2,0.6,12.2,8.6
		c0,0,0,0.1,0,0.1c0,0.1,0,0.1,0,0.1L462.2,313L462.2,313z"/>
	<path class="st1" d="M346.7,259.6h-8.9c-4.9,0-8.9,4-8.9,8.9c0,4.9,4,8.9,8.9,8.9h8.9c4.9,0,8.9-4,8.9-8.9
		C355.6,263.6,351.6,259.6,346.7,259.6z"/>
</g>
</svg>
