<svg xmlns="http://www.w3.org/2000/svg" viewBox="0 0 557.54 533.94"><defs><style>.cls-1{fill:#f4f4db;}.cls-2{fill:#edbca4;}.cls-3{fill:#eaab92;}.cls-4{fill:#ffd6bd;}.cls-5{fill:#f9c6aa;}.cls-6{fill:#fedf30;}.cls-7{fill:#fac600;}.cls-8{fill:#baafb9;}.cls-9{fill:#aa9ea9;}.cls-10{fill:#22b37f;}.cls-11{fill:#02905d;}.cls-12{fill:#1d5cb8;}.cls-13{fill:#f0592a;}.cls-14{fill:#9dcb40;}.cls-15{fill:#fad439;}.cls-16{fill:#ed2b30;}.cls-17{fill:#da3232;}.cls-18{fill:#cb2730;}.cls-19{fill:#d9b327;}</style></defs><title>Recurso 3</title><g id="Capa_2" data-name="Capa 2"><g id="visual"><path class="cls-1" d="M380.87,75.22c32.4,32.4,55.6,67.4,90.5,107.8,34.8,40.2,81.4,85.9,85.8,132.5s-33.2,94.4-73.7,137.7-84.2,81.9-130,80.7-94-42.1-143-63.8-98.9-24.4-141.1-47.8-76.5-67.5-68.1-108.7,59.7-79.2,83.8-128.5c24.3-49.2,21.5-109.8,47.1-145.3s79.5-46.1,127.1-36.4,89.2,39.3,121.6,71.8"/><path class="cls-2" d="M161.41,179.52l6.58,47.6a3.06,3.06,0,0,0,4,2c2.4-.85,13-6,13-6V187.1a13,13,0,0,0-23.59-7.58Z"/><path class="cls-2" d="M171.49,249.4h0A14,14,0,0,1,185,232.35V187.1a13,13,0,0,0-26,0v17.72Z"/><path class="cls-3" d="M185,223.15a23.12,23.12,0,0,0-7.53,1.32,3.06,3.06,0,0,1-4-2.05l-12.06-42.9A13,13,0,0,0,159,187.1v28.47l11.82,44.13L185,232.35v-9.2Z"/><path class="cls-4" d="M256.68,311.13c-2.51-28.93-34.47-43.6-34.47-43.6l-26.4-30.36A14,14,0,0,0,171.5,249.4h0l-19.56-69.61a15.94,15.94,0,0,0-16.41-11.59c-7.34,2.35-10,8.8-8.81,13.92L142,249.37a96.93,96.93,0,0,0,12.51,30.21l28.68,45.53a47.74,47.74,0,0,1,7.35,25.45v23.59l5.35,5.13h47a3.06,3.06,0,0,0,3.07-3.07V358.36a42.65,42.65,0,0,1,4.89-19.86,49.9,49.9,0,0,0,5.84-27.37Z"/><path class="cls-5" d="M181.28,245.23a14,14,0,0,1-3.19-10.93,13.58,13.58,0,0,0-2,1.42,14,14,0,0,0-1.58,19.74l25.1,29.65a11.34,11.34,0,0,0,1.69-16.3Z"/><path class="cls-5" d="M184.82,376.21V356.08a47.77,47.77,0,0,0-7.35-25.45L148.8,285.1a96.93,96.93,0,0,1-12.51-30.21L121,187.64a15.94,15.94,0,0,1,11.84-19,15.45,15.45,0,0,1,2.66-.41,15.94,15.94,0,0,0-3.46,13.93l15.27,67.25a96.93,96.93,0,0,0,12.51,30.21l28.68,45.53a47.74,47.74,0,0,1,7.35,25.45v28.72h-8a3.06,3.06,0,0,1-3.07-3.07Z"/><path class="cls-2" d="M384.15,179.52l-6.57,47.6a3.07,3.07,0,0,1-4,2c-2.41-.85-13-6-13-6V187.1a13,13,0,0,1,23.59-7.58Z"/><path class="cls-2" d="M374.07,249.4h0a14,14,0,0,0-13.5-17.05V187.1a13,13,0,0,1,26,0v17.72Z"/><path class="cls-3" d="M360.57,223.15a23.17,23.17,0,0,1,7.54,1.32,3.06,3.06,0,0,0,4-2.05l12.06-42.9a12.92,12.92,0,0,1,2.45,7.58v28.47L374.78,259.7l-14.21-27.35v-9.2Z"/><path class="cls-4" d="M288.89,311.13c2.51-28.93,34.47-43.6,34.47-43.6l26.4-30.36a14,14,0,0,1,24.31,12.23h0l19.56-69.61a16,16,0,0,1,16.42-11.59c7.34,2.35,10,8.8,8.8,13.92l-15.27,67.25a96.93,96.93,0,0,1-12.51,30.21L362.4,325.11a47.74,47.74,0,0,0-7.35,25.45v23.59l-5.35,5.13h-47a3.06,3.06,0,0,1-3.06-3.07V358.36a42.65,42.65,0,0,0-4.89-19.86,49.81,49.81,0,0,1-5.84-27.37Z"/><path class="cls-5" d="M364.29,245.23a14,14,0,0,0,3.19-10.93,13.5,13.5,0,0,1,2,1.42,14,14,0,0,1,1.59,19.74L346,285.11a11.35,11.35,0,0,1-1.68-16.3Z"/><path class="cls-5" d="M360.75,376.21V356.08a47.76,47.76,0,0,1,7.34-25.45l28.68-45.53a96.93,96.93,0,0,0,12.51-30.21l15.27-67.25a16,16,0,0,0-11.84-19,15.45,15.45,0,0,0-2.66-.41,15.93,15.93,0,0,1,3.45,13.93l-15.27,67.25a96.93,96.93,0,0,1-12.51,30.21l-28.67,45.53a47.74,47.74,0,0,0-7.35,25.45v28.72h8a3.07,3.07,0,0,0,3.07-3.07Z"/><path class="cls-6" d="M342.28,142.2c0-36.69-30.63-66.43-68.41-66.43s-68.35,29.61-68.42,66.29a65.82,65.82,0,0,0,29.09,54.51,38.65,38.65,0,0,1,17,31.92v.16h44.73v-.16a39.25,39.25,0,0,1,17.3-32.16,65.79,65.79,0,0,0,28.75-54.13Z"/><path class="cls-7" d="M273.87,75.77a71.66,71.66,0,0,0-7.66.41C300.4,79.87,327,108,327,142.2a65.77,65.77,0,0,1-28.76,54.13,39.24,39.24,0,0,0-17.29,32.16v.16h15.29v-.16a39.25,39.25,0,0,1,17.3-32.16,65.79,65.79,0,0,0,28.75-54.13C342.28,105.51,311.65,75.77,273.87,75.77Z"/><path class="cls-8" d="M284.23,283.09H263.5a4.32,4.32,0,0,1-4.38-4.26V267h29.49v11.86A4.32,4.32,0,0,1,284.23,283.09Z"/><path class="cls-9" d="M273.31,267v11.86a4.32,4.32,0,0,1-4.38,4.26h15.3a4.32,4.32,0,0,0,4.38-4.26V267Z"/><path class="cls-10" d="M271.45,188.14l-22-21.34a34.19,34.19,0,0,1,0-49.33l22-21.34a3.48,3.48,0,0,1,4.83,0l22,21.34a34.19,34.19,0,0,1,0,49.33l-22,21.34A3.5,3.5,0,0,1,271.45,188.14Z"/><path class="cls-11" d="M281.11,152.33l-3.42,3.32v-4.42l8.83-8.58a3.65,3.65,0,0,0,0-5.26,3.91,3.91,0,0,0-5.41,0l-3.42,3.33v-8.55a3.83,3.83,0,0,0-7.65,0V145.7l-3.42-3.33a3.91,3.91,0,0,0-5.41,0,3.65,3.65,0,0,0,0,5.26l8.83,8.58v4.42l-3.42-3.32a3.91,3.91,0,0,0-5.41,0,3.64,3.64,0,0,0,0,5.25l8.83,8.58v57.5a3.83,3.83,0,0,0,7.65,0V166.16l8.83-8.58a3.64,3.64,0,0,0,0-5.25A3.91,3.91,0,0,0,281.11,152.33Z"/><path class="cls-6" d="M273.86,58.28A3.77,3.77,0,0,1,270,54.57V36.79a3.83,3.83,0,0,1,7.65,0V54.57A3.77,3.77,0,0,1,273.86,58.28Z"/><path class="cls-6" d="M228.82,70a3.85,3.85,0,0,1-3.32-1.85l-9.14-15.4a3.66,3.66,0,0,1,1.4-5.08A3.88,3.88,0,0,1,223,49l9.15,15.4a3.67,3.67,0,0,1-1.4,5.08A4,4,0,0,1,228.82,70Z"/><path class="cls-6" d="M195.83,102.07a3.89,3.89,0,0,1-1.91-.5l-15.84-8.89a3.66,3.66,0,0,1-1.4-5.08,3.88,3.88,0,0,1,5.22-1.36l15.85,8.89a3.67,3.67,0,0,1,1.4,5.08A3.86,3.86,0,0,1,195.83,102.07Z"/><path class="cls-6" d="M183.76,145.85H165.47a3.72,3.72,0,1,1,0-7.43h18.29a3.72,3.72,0,1,1,0,7.43Z"/><path class="cls-6" d="M382.26,145.85H364a3.72,3.72,0,1,1,0-7.43h18.29a3.72,3.72,0,1,1,0,7.43Z"/><path class="cls-6" d="M351.9,102.07a3.86,3.86,0,0,1-3.32-1.86,3.67,3.67,0,0,1,1.4-5.08l15.84-8.89a3.89,3.89,0,0,1,5.23,1.36,3.67,3.67,0,0,1-1.4,5.08l-15.84,8.89a3.89,3.89,0,0,1-1.91.5Z"/><path class="cls-6" d="M318.91,70a4,4,0,0,1-1.91-.49,3.67,3.67,0,0,1-1.4-5.08L324.75,49A3.88,3.88,0,0,1,330,47.68a3.66,3.66,0,0,1,1.4,5.08l-9.14,15.4A3.85,3.85,0,0,1,318.91,70Z"/><path class="cls-8" d="M296.23,247.81H251.5a6.48,6.48,0,0,1-6.58-6.39V235a6.48,6.48,0,0,1,6.58-6.38h44.73a6.47,6.47,0,0,1,6.58,6.38v6.39A6.48,6.48,0,0,1,296.23,247.81Z"/><path class="cls-9" d="M296.24,228.65h-8.73a11.9,11.9,0,0,1-12.06,11.72H244.92v1a6.48,6.48,0,0,0,6.58,6.4h44.73a6.48,6.48,0,0,0,6.58-6.4V235a6.48,6.48,0,0,0-6.57-6.38Z"/><path class="cls-8" d="M296.23,267H251.5a6.48,6.48,0,0,1-6.58-6.39V254.2a6.48,6.48,0,0,1,6.58-6.39h44.73a6.48,6.48,0,0,1,6.58,6.39v6.38A6.48,6.48,0,0,1,296.23,267Z"/><path class="cls-9" d="M296.24,247.81h-8.73a11.9,11.9,0,0,1-12.06,11.73H244.92v1A6.48,6.48,0,0,0,251.5,267h44.73a6.48,6.48,0,0,0,6.58-6.39V254.2a6.48,6.48,0,0,0-6.57-6.39Z"/><g id="Capa_2-2" data-name="Capa 2"><g id="Capa_1-2" data-name="Capa 1-2"><path class="cls-12" d="M201.79,390.39c0-.79,0-1.58.07-2.36s-.14-.83-.81-.82c-6.07,0-12.15,0-18.22,0-.51,0-.79-.1-.78-.65.14-1.89,0-3.77,0-5.66,0-.65.14-.83.81-.83,4.71,0,9.41,0,14.11,0,1.68,0,1.68,0,1.47-1.73a34.93,34.93,0,0,0,0-4.46c0-1.07,0-2.13.07-3.2,0-.61-.17-.73-.75-.73-4.73,0-9.46,0-14.19,0-1.47,0-1.47,0-1.5-1.43a3.78,3.78,0,0,0-.06-.47c0-1.13.09-2.26,0-3.38,0-.74.14-1,.93-1,5.84,0,11.68,0,17.52,0,.63,0,.77-.18.77-.79,0-3.13,0-6.25,0-9.38,0-.56-.09-.76-.72-.76q-15.1,0-30.22,0c-.67,0-.76.25-.76.82,0,3.49,0,7,0,10.49,0,1.31,0,2.62,0,3.93-.09,2-.08,4,0,5.93a35.08,35.08,0,0,0,0,4.35c-.09,2.73-.09,5.47,0,8.2a26.77,26.77,0,0,0,0,3.8,29.8,29.8,0,0,0,0,3.78c0,1,0,1.95-.06,2.91-.05.74.14,1,.93,1q15.21,0,30.4,0c.16,0,.32,0,.48,0s.44-.1.43-.41l-.06-3.46A23.85,23.85,0,0,0,201.79,390.39Z"/><path class="cls-12" d="M342.06,376.48a12.7,12.7,0,0,0,0-2.89,19,19,0,0,0-1.41-5.94h0a.65.65,0,0,0,0-.24,22.94,22.94,0,0,0-38.86-6.79,20.65,20.65,0,0,0-4.41,8,18.32,18.32,0,0,0-1.08,6.47h12.59a17.81,17.81,0,0,1,1.14-5.24c.16-.35.31-.71.47-1.07a9.91,9.91,0,0,1,4.51-4.22,10.15,10.15,0,0,1,12,2.81c.13.16.27.31.41.47h0a14.25,14.25,0,0,1,2.1,8.52l.45.11-.45-.11a12.52,12.52,0,0,1-.65,3.47,9.83,9.83,0,0,1-4.65,6.33c-.22.13-.44.28-.65.42a11.36,11.36,0,0,1-7,.51c-.5-.12-1-.31-1.49-.46a11.06,11.06,0,0,1-5.64-7,1.19,1.19,0,0,1-.26.11,1.19,1.19,0,0,0,.26-.11,26.9,26.9,0,0,1-.54-4.57H296.25a16.07,16.07,0,0,0,.44,4.74,19.47,19.47,0,0,0,2.67,7.11,14.78,14.78,0,0,0,2.53,3.63,18,18,0,0,0,4.69,4.14,11.68,11.68,0,0,0,2.14,1.31,22.47,22.47,0,0,0,13.74,2.22,20.5,20.5,0,0,0,9.22-3.53,17.3,17.3,0,0,0,4.51-3.84,17,17,0,0,0,2.86-3.91,20.56,20.56,0,0,0,2.64-7,12.76,12.76,0,0,0,.37-3.48Z"/><path class="cls-12" d="M498.49,397.7a22.16,22.16,0,0,0-1.14-3.07,42.27,42.27,0,0,0-1.48-4.41c-.44-1.27-.88-2.54-1.33-3.81l-2.29-6.61-2.53-7.26c-.44-1.55-1-3.07-1.58-4.58a1,1,0,0,0,0-.23c-1.66-4.79-3.33-9.58-5-14.38-.17-.5-.47-.47-.85-.47-3.28,0-6.57,0-9.85,0a1,1,0,0,0-1.19.89c-.57,1.74-1.19,3.47-1.79,5.2l-3.33,9.64L464,374.75c-.55,1.56-1.12,3.18-1.66,4.74h0l0,.06h0q-1.19,3.42-2.39,6.84c-.39,1.16-.79,2.32-1.18,3.47h0a39.77,39.77,0,0,0-1.53,4.46c-.4,1.07-.78,2.15-1.19,3.22-.17.46.06.48.4.48h11.66a.6.6,0,0,0,.7-.51v0c.26-1,.87-3,.87-3,.42-1.42,1-3.19,1.38-4.61h0c.23-.64.79-.7,1.53-.69q4.69.07,9.4,0c.86,0,1.46.1,1.62,1,.34,1.52.87,3,1.35,4.45.29.92.61,1.84.83,2.78.12.51.35.6.81.6,2.18,0,4.35,0,6.53,0,1.66,0,3.31,0,5,0C498.23,398,498.68,398.21,498.49,397.7Zm-25.33-16.81.32-1.25h0a45.65,45.65,0,0,0,1.37-4.73c.74-2,1.31-4.1,1.9-6.16.14-.44.29-.88.44-1.33.34.06.15.44.37.54a43.26,43.26,0,0,0,1.35,4.77l.12-.06-.12.06c.63,2.45,1.32,4.88,2.1,7.29h0l.15.87Z"/><path class="cls-12" d="M438.27,382.64a9,9,0,0,0-.83-3.61,9.14,9.14,0,0,0-3.17-4.28,11.31,11.31,0,0,0-2.78-1.87c-4.12-2.13-8.63-3.17-13-4.58a13.13,13.13,0,0,1-1.44-1,1.93,1.93,0,0,1,.81-3.39,7.72,7.72,0,0,1,3.51-.21,28.68,28.68,0,0,1,9.94,3.74c.51.28.66.22.91-.27q2.41-4.68,4.89-9.34c.2-.38.09-.44-.24-.59-1.06-.46-2.08-1-3.13-1.46-4.84-2.08-9.8-3.61-15.15-3.17-4.6.39-8.7,1.94-11.79,5.52a13.82,13.82,0,0,0-3.29,10.5,9.57,9.57,0,0,0,2.14,6.33,1,1,0,0,0,.14.28,16.17,16.17,0,0,0,6.68,4.31,49.51,49.51,0,0,0,6.89,2.35,15.05,15.05,0,0,1,4.5,1.8c1.43,1,1.4,2.38,0,3.38-.46.09-.91.19-1.37.27a17.65,17.65,0,0,1-4-.12,33.86,33.86,0,0,1-4.53-1.28,41.83,41.83,0,0,1-6.64-3.2c-.21-.13-.45-.48-.68,0l-2.23,4.68h0a38.25,38.25,0,0,0-1.73,3.52,11.52,11.52,0,0,0-1.08,2.13.32.32,0,0,0,.06.46l.09.06a20.62,20.62,0,0,0,3,1.42,26.34,26.34,0,0,0,5.36,2,35,35,0,0,0,15.46,1.32,16.45,16.45,0,0,0,8-3.24,10.56,10.56,0,0,0,3.31-4,8.9,8.9,0,0,0,1.23-3.64A15.71,15.71,0,0,0,438.27,382.64Z"/><path class="cls-12" d="M386.12,397.56c-.66-1.07-1.28-2.15-1.92-3.23-.76-1.5-1.61-3-2.51-4.38a32.91,32.91,0,0,0-1.94-3.36c-.87-1.54-1.72-3.1-2.62-4.63-.22-.38-.2-.58.16-.83a9.25,9.25,0,0,0,1.88-1.76,12.3,12.3,0,0,0,2.58-3.84,10.12,10.12,0,0,0,1-2.48,15.84,15.84,0,0,0-14.63-20.16c-6.64,0-13.27,0-19.91,0-.71,0-.87.2-.86.88,0,5.31,0,10.63,0,15.94,0,.29,0,.93,0,1.37a39.21,39.21,0,0,0,0,4.47,22.12,22.12,0,0,0,0,3.64c-.09,2.67-.1,5.86,0,8.57a25.3,25.3,0,0,0,0,3.59,40.73,40.73,0,0,0,0,4.42c0,.41,0,.83,0,1.25,0,1,0,1,1,1h9.45c2.21,0,2.21,0,2-2.28a40.73,40.73,0,0,0,0-4.42,27.48,27.48,0,0,0,0-3.63c0-.93,0-2.17,0-3,0-.37.1-.5.49-.49,1.23,0,2.46,0,3.7,0a.6.6,0,0,1,.59.4c.41.72.85,1.43,1.27,2.15a28.61,28.61,0,0,0,1.9,3.31l2.53,4.42c.55,1,1.12,1.95,1.64,2.94a1,1,0,0,0,1,.61c3.49,0,7,0,10.47,0h2.36C386.14,398,386.4,398,386.12,397.56Zm-16-26.42a3.06,3.06,0,0,1-3.08,2.19c-2.21,0-4.42,0-6.62,0-.51,0-.7-.12-.66-.65s0-1.22,0-1.83c0-2,0-4.47,0-6.43,0-.52.16-.66.67-.66,2.22,0,4.45,0,6.68,0,1.64,0,2.49,1.16,3.14,2.48.07.14.11.29.17.43a8.38,8.38,0,0,1-.3,4.44Z"/><path class="cls-12" d="M294.75,387.67c-.83-.46-1.63-.94-2.45-1.41L285.25,382c-.23-.14-.34-.17-.46.12a8.11,8.11,0,0,1-3.88,4.16,10.83,10.83,0,0,1-9.63,0c-.69-.55-1.46-1-2.1-1.61a13,13,0,0,1-3-5,29.73,29.73,0,0,1-.6-4.42,14.67,14.67,0,0,1,2.8-8.21c.48-.44.94-.91,1.45-1.32a9.94,9.94,0,0,1,8.41-1.76,8.43,8.43,0,0,1,6.65,4.94c.27.61.5.24.73.07,2.85-2,5.68-4.05,8.53-6.05.42-.29.45-.48.2-.91a16.86,16.86,0,0,0-8.5-7.42c-8.19-3.21-16.13-2.74-23.51,2.35a20.71,20.71,0,0,0-7.69,9.8,19.45,19.45,0,0,0-1.62,8.51,15.41,15.41,0,0,0,.51,4.73,20.05,20.05,0,0,0,2.52,6.64,16.19,16.19,0,0,0,2.49,3.64,20.11,20.11,0,0,0,6.68,5.51c.24.15.47.32.73.45A22.26,22.26,0,0,0,280.25,398a21.66,21.66,0,0,0,6.82-2.26,16.27,16.27,0,0,0,6.64-5.37,9.85,9.85,0,0,0,1.26-2.15C295.14,387.91,295,387.81,294.75,387.67Z"/><path class="cls-12" d="M452.9,395.75h0v-2.53h0v-3c0-1.15,0-2.31,0-3.46,0-.29,0-.5-.4-.49h-9.07c-.3,0-.43.09-.42.4,0,1.18,0,2.36.06,3.54a4.66,4.66,0,0,0,0,1.58,3.82,3.82,0,0,0,0,1.43,10.71,10.71,0,0,0,0,2.53c0,.5,0,1-.05,1.49s.14.81.78.8c2.31,0,4.62,0,6.93,0,.7,0,1.64.32,2-.13S452.91,396.48,452.9,395.75Z"/><path class="cls-12" d="M512.78,395.75h0v-2.53h0v-3c0-1.15,0-2.31,0-3.46,0-.29,0-.5-.4-.49h-9.07c-.3,0-.42.09-.42.4q0,1.77.06,3.54a4.66,4.66,0,0,0,0,1.58,3.62,3.62,0,0,0,0,1.43,11.27,11.27,0,0,0,0,2.53c0,.5,0,1-.05,1.49s.14.81.78.8c2.31,0,4.62,0,6.93,0,.7,0,1.64.32,2-.13S512.8,396.48,512.78,395.75Z"/><path class="cls-12" d="M247.76,379.17a53.81,53.81,0,0,0,0-5.68,45,45,0,0,0,0-5.06.83.83,0,0,0,0-.15c0-4.95,0-9.89,0-14.83,0-.64-.36-.56-.76-.56-3.63,0-7.26,0-10.89,0-.75,0-.86.24-.85.89,0,3.63,0,7.26,0,10.89,0,1.26,0,2.52.06,3.78a45,45,0,0,0,0,5.06l-.11,2.1L233.15,373l-4.22-5.33c-.67-.86-1.32-1.73-2-2.58l-9.24-11.71a1.13,1.13,0,0,0-1-.49c-2.82,0-5.63,0-8.44,0-.6,0-.76.15-.75.74,0,4.57,0,9.15,0,13.72,0,.16,0,.31.05.47a53.44,53.44,0,0,0,0,5.37c-.1,2-.09,4,0,6q-.14,3.46,0,6.95a21.28,21.28,0,0,0,0,3.48,42,42,0,0,0,0,4.89c0,1,0,2,0,3.06,0,.4.17.48.52.48h11.42c.35,0,.54-.08.53-.48,0-1,0-2,0-3.06a44.32,44.32,0,0,0,0-4.89,22.46,22.46,0,0,0,0-3.48q.15-3.48,0-6.95v-2.94l.2-.05,2.61,3.15,6.15,7.62h0c.89,1.09,1.79,2.18,2.68,3.28,1.11,1.47,2.26,2.91,3.48,4.29a1.12,1.12,0,0,0,.49.6c.67.87,1.35,1.73,2,2.59a.76.76,0,0,0,.67.32h9c.42,0,.56-.14.54-.54,0-.84,0-1.68,0-2.52a.89.89,0,0,0,0-.66,31,31,0,0,0,0-4.09,24.44,24.44,0,0,0,0-3.63C247.86,384.12,247.86,381.64,247.76,379.17Z"/><path class="cls-13" d="M152.12,358.93a39.7,39.7,0,0,1-.16,5.87,42.51,42.51,0,0,1-12.61,26c-1.62,1.57-3.36,3-5.12,4.44a.69.69,0,0,1,.15-.54c.21-.36.43-.72.62-1.09a31.49,31.49,0,0,0,2.37-5.84c.46-1.57.87-3.14,1.2-4.74s.43-3,.66-4.46c.12-.74.14-1.49.21-2.23a3.4,3.4,0,0,0-.26.82c-.38,1.59-.83,3.16-1.29,4.73-.39,1.32-.85,2.61-1.35,3.89a52.75,52.75,0,0,1-3.11,6.64,39,39,0,0,1-3.61,5.39,7.12,7.12,0,0,0-1.14,1.48c-1.66,1.16-3.42,2.16-5.18,3.17a2.75,2.75,0,0,0-.84.54,1.4,1.4,0,0,0-.48.18c-1.24.65-2.48,1.3-3.73,1.91-1.52.74-3,1.43-4.61,2.08s-3.19,1.33-4.82,1.93a9.43,9.43,0,0,0-2.4,1.19,1.79,1.79,0,0,0-.57,2.45.46.46,0,0,1,.09.36,2.61,2.61,0,0,1-1-1.26c-1.05-2.1-1.84-4.31-2.75-6.47-.28-.63-.53-1.28-.78-1.92s-.09-1,.59-1.2a80.94,80.94,0,0,0,14.21-5.66A65,65,0,0,0,130,387.41a44.36,44.36,0,0,0,7.71-8.7,32.84,32.84,0,0,0,5-12.6,32,32,0,0,0,.52-5.94,33.15,33.15,0,0,0-6.95-20.09,38.1,38.1,0,0,0-4.33-4.65.5.5,0,0,1,.43.16l1.84,1.4a74.89,74.89,0,0,1,6.14,5.25,57.78,57.78,0,0,1,5.78,6.33,40.3,40.3,0,0,1,6.05,10.36Z"/><path class="cls-14" d="M81.87,328.77a37.67,37.67,0,0,1,6.7-4.86,42.76,42.76,0,0,1,13.87-5.09,42.11,42.11,0,0,1,24.78,3.06l-.37.09a194,194,0,0,0-20.06,4.58,48,48,0,0,0-4.67,1.52,38.1,38.1,0,0,0-5.6,1.91,33.41,33.41,0,0,0-19.68,26.49c0,.1,0,.2-.08.27-.08-.94-.2-1.89-.21-2.83,0-2-.06-4,0-5.93a53.07,53.07,0,0,1,.79-6.54,43.63,43.63,0,0,1,2.8-9.2C80.7,331.06,81.31,329.93,81.87,328.77Z"/><path class="cls-15" d="M81.87,328.77c-.56,1.16-1.17,2.29-1.68,3.47a43.63,43.63,0,0,0-2.8,9.2A53.07,53.07,0,0,0,76.6,348c-.11,2-.06,3.95,0,5.93,0,.94.13,1.89.21,2.83-.05,1.39-.21,2.79-.19,4.19a30.27,30.27,0,0,0,.94,6.56,35.66,35.66,0,0,0,3,8.58,31.86,31.86,0,0,0,4.45,6.4,42.77,42.77,0,0,0,5,4.94.78.78,0,0,1,.11.2,1.49,1.49,0,0,1-.75-.38,97.75,97.75,0,0,1-12.79-9.85,60.58,60.58,0,0,1-7.14-7.71,4.74,4.74,0,0,0-1-1.18,33,33,0,0,1-.66-4.86,43.45,43.45,0,0,1-.06-5.59,41,41,0,0,1,1.28-8.17A42.35,42.35,0,0,1,74.72,337a41.24,41.24,0,0,1,4.41-5.54A35.92,35.92,0,0,1,81.87,328.77Z"/><path class="cls-16" d="M68.37,368.49a4.74,4.74,0,0,1,1,1.18,60.58,60.58,0,0,0,7.14,7.71,97.75,97.75,0,0,0,12.79,9.85,1.49,1.49,0,0,0,.75.38h0c0,.12.08.13.18.12h0c0,.08.07.1.14.1a42,42,0,0,0,7.32,4.62,40.7,40.7,0,0,0,12.72,3.69c.68.09,1.36.15,2.15.24-1.2.59-2.34,1.06-3.47,1.53a84.69,84.69,0,0,1-9.52,3.24,1.7,1.7,0,0,1-1,0,42.28,42.28,0,0,1-30.21-32.7Z"/><path class="cls-13" d="M113.51,424.64a9.63,9.63,0,0,1-2.4-.05,1.46,1.46,0,0,1-1.17-1c-.64-1.61-1.25-3.23-1.85-4.85a1.53,1.53,0,0,1,.59-1.74,6.66,6.66,0,0,1,2.52-1c4.9-1.52,9.71-3.31,14.48-5.24.1,0,.32,0,.28-.24a2.58,2.58,0,0,0,1.39-.5c2.52-1,5-2.07,7.43-3.19,1.23-.57,2.46-1.11,3.67-1.71a22.22,22.22,0,0,0,3.77-2,1.25,1.25,0,0,0,.63-1.11,1,1,0,0,1,.57.79c.51,2.17,1,4.34,1.51,6.52a2.23,2.23,0,0,1-1.24,2.37,36,36,0,0,1-4.3,2.16c-2.33,1.08-4.71,2.06-7.07,3.06l-3.65,1.48a19.89,19.89,0,0,0-2.3.95,2.5,2.5,0,0,0-.38.06l-6,2.27c-1.79.68-3.59,1.34-5.38,2a5.49,5.49,0,0,0-1.15.48C113.2,424.3,113.14,424.47,113.51,424.64Z"/><path class="cls-12" d="M102.12,328.07a48,48,0,0,1,4.67-1.52A194,194,0,0,1,126.85,322l.37-.09a39,39,0,0,1,6.68,3.73,40.53,40.53,0,0,1,6.82,5.86,41.09,41.09,0,0,1,6.19,8.51,42.67,42.67,0,0,1,4.38,11.83c0,.17.05.35.08.52-.37-.55-.72-1.1-1.1-1.64a40.82,40.82,0,0,0-6.79-7.41,83.66,83.66,0,0,0-12.65-9c-.18-.11-.33-.31-.59-.24h0c0-.18-.08-.09-.15-.08a35.14,35.14,0,0,0-7.38-4.24A33.07,33.07,0,0,0,102.5,328Z"/><path class="cls-17" d="M127.35,410a2.58,2.58,0,0,1-1.39.5c-2.1.31-4.21.64-6.32.94l-9.91,1.4c-1.06.15-2.13.28-3.19.42a.26.26,0,0,0-.24-.07h0v0l-.12-.09h0a.46.46,0,0,0-.09-.36,1.79,1.79,0,0,1,.57-2.45,9.43,9.43,0,0,1,2.4-1.19c1.63-.6,3.22-1.26,4.82-1.93s3.09-1.34,4.61-2.08c1.25-.61,2.49-1.26,3.73-1.91a1.4,1.4,0,0,1,.48-.18,18.92,18.92,0,0,1,2.36-.35,1.81,1.81,0,0,0,.06.52c.3.88.56,1.77.86,2.65C126.4,407.21,126.88,408.6,127.35,410Z"/><path class="cls-18" d="M126.37,419.26a19.89,19.89,0,0,1,2.3-.95l3.65-1.48c1.3.07,2.6.1,3.89.22,2,.19,3.92.25,5.87.52a1,1,0,0,1,.71,1.79c-.87,1.1-1.73,2.22-2.68,3.27a7.92,7.92,0,0,1-1.65,1.67,3.23,3.23,0,0,1-1.74.47c-2.8,0-5.61,0-8.41,0l-.19,0C127.54,422.88,127,421.07,126.37,419.26Z"/><path class="cls-18" d="M127.35,410c-.47-1.39-.95-2.78-1.41-4.18-.3-.88-.56-1.77-.86-2.65a1.81,1.81,0,0,1-.06-.52,22.13,22.13,0,0,1,2.56-.33c3-.31,6-.53,9-.6,1.88,0,3.76-.1,5.63,0a.24.24,0,0,0,.33.07h0c0,.19.16.14.28.13h0a1.25,1.25,0,0,1-.63,1.11,22.22,22.22,0,0,1-3.77,2c-1.21.6-2.44,1.14-3.67,1.71C132.33,407.92,129.87,409,127.35,410Z"/><path class="cls-17" d="M126.37,419.26l1.75,5.44a7.61,7.61,0,0,1-1.35,0c-2.15,0-4.31,0-6.47,0s-4.21,0-6.32,0l-.47,0c-.37-.17-.31-.34,0-.54a5.49,5.49,0,0,1,1.15-.48c1.79-.69,3.59-1.35,5.38-2l6-2.27A2.5,2.5,0,0,1,126.37,419.26Z"/><path class="cls-18" d="M130.24,334.07c.26-.07.41.13.59.24a83.66,83.66,0,0,1,12.65,9,40.82,40.82,0,0,1,6.79,7.41c.38.54.73,1.09,1.1,1.64a33.3,33.3,0,0,1,.75,6.6,40.3,40.3,0,0,0-6.05-10.36,57.78,57.78,0,0,0-5.78-6.33,74.89,74.89,0,0,0-6.14-5.25l-1.84-1.4a.5.5,0,0,0-.43-.16h0l-.11-.1h0l-.12-.11A13.18,13.18,0,0,1,130.24,334.07Z"/><path class="cls-16" d="M128.68,399.28a7.12,7.12,0,0,1,1.14-1.48,39,39,0,0,0,3.61-5.39,52.75,52.75,0,0,0,3.11-6.64c.5-1.28,1-2.57,1.35-3.89.46-1.57.91-3.14,1.29-4.73a3.4,3.4,0,0,1,.26-.82c-.07.74-.09,1.49-.21,2.23-.23,1.48-.35,3-.66,4.46s-.74,3.17-1.2,4.74A31.49,31.49,0,0,1,135,393.6c-.19.37-.41.73-.62,1.09a.69.69,0,0,0-.15.54l-.09.06-.12.11A46.32,46.32,0,0,1,128.68,399.28Z"/><path class="cls-13" d="M142.84,401.94c-.12,0-.25.06-.28-.13A.31.31,0,0,1,142.84,401.94Z"/><path class="cls-13" d="M142.56,401.82a.24.24,0,0,1-.33-.07A.43.43,0,0,1,142.56,401.82Z"/><path class="cls-15" d="M90.19,387.74c-.1,0-.17,0-.18-.12S90.17,387.63,90.19,387.74Z"/><path class="cls-18" d="M130.1,334c.07,0,.19-.1.15.08Z"/><path class="cls-13" d="M106.3,413.18a.26.26,0,0,1,.24.07C106.45,413.27,106.36,413.28,106.3,413.18Z"/><path class="cls-13" d="M131.78,335.33l.11.1A.1.1,0,0,1,131.78,335.33Z"/><path class="cls-13" d="M131.67,335.23l.12.11Z"/><path class="cls-15" d="M90.33,387.84c-.07,0-.13,0-.14-.1Z"/><path class="cls-13" d="M106.14,413.08l.12.09a.1.1,0,0,1-.12-.08Z"/><path class="cls-13" d="M134,395.4l.12-.11Z"/><path class="cls-15" d="M99.53,369.91a1.24,1.24,0,0,1-.49-1.39q1.15-5.86,2.26-11.74,1.33-7,2.64-13.94c.13-.66.4-1,.92-1s.85.19,1,.85q1.86,6.09,3.7,12.2a.11.11,0,0,0,0,.05c.36,1.43,1.07,1.4,2,.75,3-2,6-4,8.93-6a1.2,1.2,0,0,1,1.22-.15c.43.2.48.59.47,1-.33,1.49-.67,3-1,4.48-.7,3.2-1.38,6.41-2.07,9.61l-1.53,7.15-1.47,6.76a.77.77,0,0,1-.84.69h-.53a1.57,1.57,0,0,1-.55-1q-1.17-5.76-2.38-11.51c0-.11-.06-.22-.1-.33,0-.91-.55-1.3-1.39-1-.67.25-1.31.55-2,.84-2.35,1-4.69,2.09-7,3.1A3.35,3.35,0,0,1,99.53,369.91Z"/><path class="cls-19" d="M114.83,379.27h.49a.75.75,0,0,0,.87-.64v0l1.47-6.76c.51-2.38,1-4.76,1.53-7.15l2.07-9.61c.32-1.5.66-3,1-4.48a.92.92,0,0,1,.51,1.16q-1,4.56-2,9.12-1.83,8.46-3.65,16.92c-.12.57-.24,1.13-.37,1.7s-.43.89-1,.87-.8-.27-.94-.89Z"/><path class="cls-19" d="M99.53,369.91a3.35,3.35,0,0,0,1.88-.54c2.35-1,4.69-2.07,7-3.1.65-.29,1.29-.59,2-.84.84-.32,1.37.07,1.39,1a1.24,1.24,0,0,0-1,.1l-9.64,4.25-.23.09A1,1,0,0,1,99.53,369.91Z"/></g></g></g></g></svg>