<svg id="Capa_1" enable-background="new 0 0 496.6 496.6" height="512" viewBox="0 0 496.6 496.6" width="512" xmlns="http://www.w3.org/2000/svg"><g><path d="m72.589 336.625-37.386 39.174c8.57 14.291 18.531 27.652 29.707 39.887l.51-.05 17.323 18.976 32.659-35.38-16.222-22.767c-10.4-12.09-19.348-25.462-26.591-39.84z" fill="#badafb"/><path d="m240.3 297.095v101.371c0 4.142 3.357 7.5 7.5 7.5s7.5-3.358 7.5-7.5v-101.371z" fill="#a6d786"/><g><g id="XMLID_165_"><g><path d="m431.12 80.285-18.304-16.457-32.807 33.553 19.241 24.904c28.52 34.12 45.68 78.06 45.68 126.01 0 108.6-88.03 196.63-196.63 196.63-43.1 0-82.95-13.86-115.36-37.38l18.4-18.56c3.25-3.28 1.15-8.86-3.46-9.18l-48.7-3.34-31.18-2.14c-3.31-.23-6.04 2.55-5.74 5.86l3.16 35.45 3.88 43.52c.41 4.57 5.98 6.58 9.21 3.32l17.73-17.89c42.01 32.59 94.77 52.01 152.06 52.01 137.13 0 248.3-111.17 248.3-248.3 0-64.79-24.83-123.8-65.48-168.01z" fill="#f5c374"/><path d="m434.34 116.415-3.22-36.13-3.82-42.84c-.41-4.58-5.98-6.58-9.21-3.32l-17.73 17.89c-42.01-32.6-94.77-52.01-152.06-52.01-137.13 0-248.3 111.16-248.3 248.29 0 46.617 12.86 90.221 35.205 127.485l.331-.331 37.053-38.825c-13.378-26.558-20.919-56.56-20.919-88.33 0-108.59 88.03-196.63 196.63-196.63 43.1 0 82.95 13.87 115.36 37.38l-18.4 18.56c-3.25 3.28-1.15 8.87 3.46 9.18l50.67 3.48 29.21 2.01c3.31.231 6.04-2.559 5.74-5.859z" fill="#badafb"/></g></g><g id="XMLID_164_"><g><path d="m336.68 255.225c0 49.09-39.79 88.88-88.88 88.88s-88.88-39.79-88.88-88.88c0-41.89 64.73-117.79 83.71-139.15 2.76-3.11 7.58-3.11 10.34 0 18.98 21.36 83.71 97.26 83.71 139.15z" fill="#b8de9c"/></g></g><g fill="#a6d786"><path d="m194.233 258.012c0-35.582 46.699-95.696 72.396-126.086-5.566-6.647-10.322-12.095-13.659-15.851-2.76-3.11-7.58-3.11-10.34 0-18.98 21.36-83.71 97.26-83.71 139.15 0 49.09 39.79 88.88 88.88 88.88 3.642 0 7.232-.224 10.76-.65-37.147-10.653-64.327-44.871-64.327-85.443z"/><path d="m240.3 343.787c2.473.207 4.973.318 7.5.318s5.027-.111 7.5-.318v-225.074c-.835-.95-1.618-1.837-2.33-2.638-2.76-3.11-7.58-3.11-10.34 0-.712.801-1.495 1.688-2.33 2.638z"/><path d="m298.948 173.666-55.833 44.687c-3.234 2.587-3.76 7.307-1.173 10.542 1.481 1.852 3.662 2.816 5.862 2.816 1.643 0 3.297-.538 4.68-1.644l54.958-43.954c-2.759-4.197-5.607-8.359-8.494-12.447z"/><path d="m333.52 236.987c-1.436-4.658-3.316-9.513-5.552-14.494l-84.852 67.481c-3.234 2.587-3.76 7.307-1.173 10.542 1.481 1.852 3.662 2.816 5.862 2.816 1.643 0 3.297-.538 4.68-1.644z"/><path d="m252.485 218.353-55.838-44.68c-2.885 4.086-5.731 8.245-8.489 12.439l54.958 43.954c1.383 1.106 3.037 1.644 4.68 1.644 2.2 0 4.381-.964 5.862-2.816 2.586-3.234 2.061-7.954-1.173-10.541z"/><path d="m252.485 289.974-84.847-67.492c-2.237 4.983-4.119 9.841-5.556 14.501l81.034 64.705c1.383 1.106 3.037 1.644 4.68 1.644 2.2 0 4.381-.964 5.862-2.816 2.586-3.235 2.061-7.955-1.173-10.542z"/></g><g><path d="m327.566 182.547c-2.941 0-5.732-1.741-6.931-4.627-1.587-3.826.228-8.214 4.054-9.802l12.97-5.382-1.215-1.448c-1.954-2.329-2.577-5.454-1.664-8.357s3.212-5.11 6.151-5.902l25.564-6.883c3.999-1.077 8.115 1.292 9.192 5.292s-1.293 8.115-5.292 9.192l-16.283 4.384.408.487c1.808 2.157 2.486 5.074 1.818 7.805-.668 2.73-2.616 5.004-5.213 6.082l-20.689 8.584c-.939.39-1.912.575-2.87.575z" fill="#fbe372"/></g><g><path d="m168.034 182.547c-.958 0-1.932-.185-2.871-.575l-20.688-8.584c-2.599-1.079-4.547-3.352-5.215-6.083s.011-5.647 1.816-7.802l.41-.489-16.283-4.384c-3.999-1.077-6.369-5.192-5.292-9.192s5.19-6.369 9.192-5.292l25.563 6.882c2.94.792 5.239 2.999 6.152 5.902s.29 6.028-1.666 8.36l-1.213 1.445 12.97 5.382c3.826 1.587 5.641 5.976 4.054 9.802-1.196 2.886-3.987 4.628-6.929 4.628zm-17.267-21.035h.01z" fill="#fbe372"/></g></g><g fill="#94cf6f"><g><path d="m255.3 118.713c-.835-.95-1.618-1.837-2.33-2.638-2.76-3.11-7.58-3.11-10.34 0-.712.801-1.495 1.688-2.33 2.638v46.265c5.12-6.865 10.21-13.378 15-19.326z"/><path d="m252.039 343.994c.953-.046 1.902-.106 2.848-.181.138-.011.276-.02.413-.031v-1.334c-5.234-1.723-10.246-3.931-15-6.549v7.889c1.188.099 2.384.174 3.584.227.124.005.248.009.371.014 1.176.047 2.357.077 3.544.077 1.149 0 2.291-.03 3.428-.074.272-.011.542-.025.812-.038z"/></g><path d="m188.158 186.113 24.778 19.817c2.478-4.302 5.119-8.625 7.87-12.925l-24.158-19.331c-2.887 4.085-5.732 8.244-8.49 12.439z"/><path d="m167.637 222.482c-2.237 4.983-4.119 9.841-5.556 14.501l32.291 25.784c-.083-1.576-.14-3.159-.14-4.755 0-4.045.609-8.41 1.717-13.009z"/></g></g></svg>