<svg id="Capa_1" enable-background="new 0 0 512 512" height="512" viewBox="0 0 512 512" width="512" xmlns="http://www.w3.org/2000/svg"><g><g><path d="m298.854 107.743c48.407 5.257 89.726 34.093 112.253 74.781 13.183 3.188 25.958 7.96 38.233 14.291 5.918 3.053 11.659 6.462 17.191 10.19-19.382-77.013-85.917-135.281-167.125-142.31-1.803-.156-3.347 1.287-3.347 3.097v36.865c0 1.596 1.21 2.914 2.795 3.086z" fill="#fed402"/><path d="m115.148 312.169c.441-.339.97-.518 1.53-.518.683 0 1.325.266 1.808.749l11.769 11.769c.854.854 1.992 1.325 3.203 1.325.754 0 1.506-.19 2.173-.549 3.116-1.678 6.419-3.045 9.817-4.064 1.945-.583 3.251-2.331 3.251-4.349v-4.27c-5.877-13.373-9.834-27.781-11.474-42.89-.172-1.585-1.49-2.795-3.085-2.795h-36.865c-1.81 0-3.253 1.544-3.097 3.347 1.536 17.744 5.522 34.785 11.61 50.79 2.873-3.103 6.002-5.965 9.36-8.545z" fill="#fd5426"/><path d="m115.148 312.169c.441-.339.97-.518 1.53-.518.683 0 1.325.266 1.808.749l2.845 2.845c-4.975-14.399-8.267-29.583-9.629-45.321-.156-1.803 1.287-3.347 3.097-3.347h-17.524c-1.81 0-3.253 1.544-3.097 3.347 1.536 17.744 5.522 34.785 11.61 50.79 2.874-3.103 6.002-5.965 9.36-8.545z" fill="#ef4424"/><g><path d="m137.225 237.384c7.399-68.135 61.506-122.242 129.641-129.641 1.585-.172 2.795-1.49 2.795-3.084v-36.866c0-1.81-1.544-3.253-3.347-3.097-91.403 7.911-164.224 80.733-172.136 172.136-.156 1.803 1.287 3.347 3.097 3.347h36.865c1.595 0 2.913-1.21 3.085-2.795z" fill="#01d0fb"/></g><g fill="#01c0fa"><path d="m120.575 236.832c1.536-17.745 5.527-34.784 11.617-50.788l-19.804-15.259c-9.835 20.263-16.174 42.538-18.209 66.047-.156 1.803 1.287 3.347 3.097 3.347h26.396c-1.811 0-3.253-1.544-3.097-3.347z"/><path d="m266.314 64.696c-62.588 5.417-116.458 41.273-146.746 92.685l18.721 14.425c24.99-52.278 73.245-91.301 131.372-103.665v-.348c0-1.81-1.544-3.253-3.347-3.097z"/></g><path d="m449.34 309.94c-12.274 6.332-25.049 11.103-38.233 14.291-22.527 40.689-63.846 69.525-112.253 74.782-1.585.172-2.795 1.49-2.795 3.084v36.865c0 1.81 1.544 3.253 3.347 3.097 81.208-7.029 147.743-65.297 167.125-142.31-5.532 3.73-11.273 7.138-17.191 10.191z" fill="#05e39c"/><g><path d="m266.866 399.013c-18.346-1.992-35.664-7.385-51.338-15.512-1.961.056-3.647 1.339-4.218 3.241-1.018 3.396-2.385 6.7-4.063 9.817-.963 1.789-.651 3.949.775 5.376l11.769 11.769c.901.901 1 2.336.231 3.337-3.093 4.026-6.591 7.724-10.425 11.043 17.7 7.429 36.766 12.248 56.718 13.974 1.803.156 3.347-1.287 3.347-3.097v-36.865c-.001-1.593-1.211-2.911-2.796-3.083z" fill="#fd5426"/></g></g><g><g><path d="m370.421 176.73c-57.212 0-107.949 27.711-139.531 70.441-2.731 3.695-2.731 8.719 0 12.414 31.582 42.73 82.318 70.441 139.531 70.441 57.212 0 107.949-27.711 139.531-70.441 2.731-3.695 2.731-8.719 0-12.414-31.582-42.73-82.318-70.441-139.531-70.441z" fill="#c8effe"/></g><g><ellipse cx="370.421" cy="253.378" fill="#fff" rx="94.988" ry="76.648"/></g><g><path d="m301.666 253.378c18.251-41.048 47.789-69.606 81.872-75.5-4.305-.745-8.68-1.148-13.117-1.148-39.561 0-74.432 30.414-94.988 76.648 20.556 46.234 55.427 76.648 94.988 76.648 4.437 0 8.811-.403 13.117-1.148-34.083-5.894-63.621-34.452-81.872-75.5z" fill="#eef5f6"/></g><g><circle cx="370.421" cy="253.378" fill="#01d0fb" r="45.081"/></g><path d="m345.918 253.378c0-21.357 14.856-39.232 34.794-43.888-3.306-.775-6.749-1.193-10.291-1.193-24.898 0-45.081 20.184-45.081 45.081s20.184 45.081 45.081 45.081c3.542 0 6.985-.419 10.291-1.193-19.938-4.657-34.794-22.532-34.794-43.888z" fill="#01c0fa"/><g><circle cx="370.421" cy="253.378" fill="#3e5959" r="20.5"/></g><path d="m366 253.378c0-8.468 5.135-15.734 12.461-18.86-2.469-1.054-5.185-1.64-8.039-1.64-11.322 0-20.5 9.178-20.5 20.5s9.178 20.5 20.5 20.5c2.854 0 5.57-.586 8.039-1.64-7.326-3.127-12.461-10.392-12.461-18.86z" fill="#384949"/></g><g><g fill="#99e6fc"><path d="m59.528 139.435-34.248 33.125c4.869 1.885 8.702 5.837 10.428 10.782l34.248-33.126c-4.868-1.884-8.702-5.836-10.428-10.781z"/><path d="m232.287 169.215-34.999 36.146c4.944 1.729 8.894 5.564 10.776 10.434l34.999-36.147c-4.944-1.728-8.894-5.563-10.776-10.433z"/><path d="m183.167 206.384-89.384-68.869c-1.17 5.166-4.579 9.485-9.156 11.881l89.384 68.869c1.17-5.166 4.578-9.485 9.156-11.881z"/></g><g><circle cx="18.859" cy="189.205" fill="#fd5426" r="18.859"/></g><g><circle cx="76.378" cy="133.572" fill="#fed402" r="18.859"/></g><g><circle cx="191.416" cy="222.208" fill="#fd5426" r="18.859"/></g><g><circle cx="248.935" cy="162.803" fill="#fed402" r="18.859"/></g></g><g><g><path d="m208.728 341.808 11.769-11.769c1.254-1.254 1.397-3.248.317-4.654-4.039-5.257-8.751-9.97-14.009-14.009-1.406-1.08-3.401-.937-4.654.317l-11.769 11.769c-1.11 1.11-2.812 1.346-4.195.602-3.158-1.7-6.507-3.093-10.004-4.141-1.503-.451-2.539-1.822-2.539-3.391v-16.651c0-1.772-1.308-3.284-3.065-3.515-3.243-.425-6.549-.645-9.908-.645-3.358 0-6.665.221-9.908.645-1.757.23-3.065 1.742-3.065 3.515v16.651c0 1.569-1.036 2.94-2.539 3.391-3.497 1.049-6.846 2.441-10.004 4.141-1.382.744-3.085.508-4.195-.602l-11.769-11.769c-1.254-1.254-3.248-1.397-4.654-.317-5.257 4.039-9.97 8.751-14.009 14.009-1.08 1.406-.937 3.401.317 4.654l11.769 11.769c1.11 1.11 1.346 2.812.602 4.195-1.7 3.158-3.093 6.507-4.141 10.004-.451 1.503-1.822 2.539-3.391 2.539h-16.649c-1.772 0-3.284 1.308-3.515 3.065-.425 3.243-.645 6.549-.645 9.908 0 3.358.221 6.665.645 9.908.23 1.757 1.742 3.065 3.515 3.065h16.651c1.569 0 2.94 1.036 3.391 2.539 1.049 3.497 2.441 6.846 4.141 10.004.744 1.382.508 3.085-.602 4.195l-11.769 11.769c-1.254 1.254-1.397 3.248-.317 4.654 4.039 5.257 8.751 9.97 14.009 14.009 1.406 1.08 3.401.937 4.654-.317l11.769-11.769c1.11-1.11 2.812-1.346 4.195-.602 3.158 1.7 6.507 3.093 10.004 4.141 1.503.451 2.539 1.822 2.539 3.391v16.651c0 1.772 1.308 3.284 3.065 3.515 3.243.425 6.549.645 9.908.645 3.358 0 6.665-.221 9.908-.645 1.757-.23 3.065-1.742 3.065-3.515v-16.651c0-1.569 1.036-2.94 2.539-3.391 3.497-1.049 6.846-2.441 10.004-4.141 1.382-.744 3.085-.508 4.195.602l11.769 11.769c1.254 1.254 3.248 1.397 4.654.317 5.257-4.039 9.97-8.751 14.009-14.009 1.08-1.406.937-3.401-.317-4.654l-11.769-11.769c-1.11-1.11-1.346-2.812-.602-4.195 1.7-3.159 3.093-6.507 4.141-10.004.451-1.503 1.822-2.539 3.391-2.539h16.651c1.772 0 3.284-1.308 3.515-3.065.425-3.243.645-6.549.645-9.908 0-3.358-.221-6.665-.645-9.908-.23-1.757-1.742-3.065-3.515-3.065h-16.651c-1.569 0-2.94-1.036-3.391-2.539-1.049-3.497-2.441-6.846-4.141-10.004-.746-1.383-.51-3.085.6-4.195z" fill="#7ca1b1"/></g><g><g><path d="m126.772 371.518c0-27.72 20.325-50.69 46.885-54.828-.002-.053-.013-.105-.013-.159v-16.651c0-1.772-1.308-3.284-3.065-3.514-3.243-.425-6.549-.645-9.908-.645-3.358 0-6.665.221-9.908.645-1.757.23-3.065 1.742-3.065 3.514v16.651c0 1.569-1.036 2.94-2.539 3.391-3.497 1.049-6.846 2.441-10.004 4.141-1.382.744-3.085.508-4.195-.602l-11.769-11.769c-1.254-1.254-3.248-1.397-4.654-.317-5.257 4.039-9.97 8.751-14.009 14.009-1.08 1.406-.937 3.401.317 4.654l11.769 11.769c1.11 1.11 1.346 2.812.602 4.195-1.7 3.159-3.093 6.507-4.141 10.004-.451 1.503-1.822 2.539-3.391 2.539h-16.649c-1.772 0-3.284 1.308-3.515 3.065-.425 3.243-.645 6.549-.645 9.908 0 3.358.221 6.665.645 9.908.23 1.757 1.742 3.065 3.515 3.065h16.651c1.569 0 2.94 1.036 3.391 2.539 1.049 3.497 2.441 6.846 4.141 10.004.744 1.382.508 3.085-.602 4.195l-11.769 11.769c-1.254 1.254-1.397 3.248-.317 4.654 4.039 5.257 8.751 9.97 14.009 14.009 1.406 1.08 3.401.937 4.654-.317l11.769-11.769c1.11-1.11 2.812-1.346 4.195-.602 3.158 1.7 6.507 3.093 10.004 4.141 1.503.451 2.539 1.822 2.539 3.391v16.651c0 1.772 1.308 3.284 3.065 3.514 3.243.425 6.549.645 9.908.645 3.358 0 6.665-.221 9.908-.645 1.757-.23 3.065-1.742 3.065-3.514v-16.651c0-.054.011-.105.013-.159-26.561-4.138-46.887-27.107-46.887-54.828z" fill="#678d98"/></g></g><g><circle cx="160.672" cy="371.518" fill="#fff" r="23.285"/></g><g><path d="m154.714 371.518c0-9.797 6.053-18.175 14.621-21.613-2.679-1.075-5.6-1.672-8.663-1.672-12.86 0-23.285 10.425-23.285 23.285s10.425 23.285 23.285 23.285c3.063 0 5.985-.597 8.663-1.672-8.568-3.438-14.621-11.816-14.621-21.613z" fill="#eef5f6"/></g><g><path d="m160.672 402.303c-16.975 0-30.785-13.81-30.785-30.785s13.81-30.785 30.785-30.785 30.785 13.81 30.785 30.785-13.811 30.785-30.785 30.785zm0-46.57c-8.704 0-15.785 7.081-15.785 15.785s7.081 15.785 15.785 15.785 15.785-7.081 15.785-15.785-7.082-15.785-15.785-15.785z" fill="#8ebac5"/></g></g></g></svg>