<?xml version="1.0" encoding="utf-8"?>
<!-- Generator: Adobe Illustrator 24.0.1, SVG Export Plug-In . SVG Version: 6.00 Build 0)  -->
<svg version="1.1" id="Capa_1" xmlns="http://www.w3.org/2000/svg" xmlns:xlink="http://www.w3.org/1999/xlink" x="0px" y="0px"
	 viewBox="0 0 1440 103.8" style="enable-background:new 0 0 1440 103.8;" xml:space="preserve">
<style type="text/css">
	.st0{fill:#388E3C;}
</style>
<path class="st0" d="M0,35.6l48-2.9c48-3.2,144-8.7,240,8.9c96,18,192,59.1,288,56.3c96-2.8,192-50.6,288-74.1
	C960,0,1056,0,1152,8.9s192,26.7,240,35.6l48,8.9V0h-48c-48,0-144,0-240,0S960,0,864,0S672,0,576,0S384,0,288,0S96,0,48,0H0V35.6z"
	/>
</svg>
