<?xml version="1.0" standalone="no"?>
<!DOCTYPE svg PUBLIC "-//W3C//DTD SVG 20010904//EN"
 "http://www.w3.org/TR/2001/REC-SVG-20010904/DTD/svg10.dtd">
<svg version="1.0" xmlns="http://www.w3.org/2000/svg"
 width="1085.000000pt" height="1085.000000pt" viewBox="0 0 1085.000000 1085.000000"
 preserveAspectRatio="xMidYMid meet">
<metadata>
Created by potrace 1.11, written by Peter Selinger 2001-2013
</metadata>
<g transform="translate(0.000000,1085.000000) scale(0.100000,-0.100000)"
fill="#000000" stroke="none">
<path d="M5277 10843 c-1 0 -74 -4 -162 -8 -88 -3 -171 -8 -185 -9 -14 -2 -70
-7 -125 -11 -55 -4 -102 -8 -105 -10 -3 -1 -36 -6 -75 -10 -73 -7 -379 -52
-405 -60 -8 -3 -33 -7 -55 -11 -41 -6 -292 -61 -400 -88 -120 -29 -461 -131
-520 -155 -11 -5 -83 -32 -160 -61 -541 -203 -959 -432 -1420 -779 -55 -42
-102 -78 -105 -81 -3 -3 -34 -30 -70 -60 -387 -324 -710 -698 -954 -1102 -78
-130 -200 -368 -237 -460 -11 -28 -29 -71 -40 -94 -59 -130 -177 -535 -195
-671 -3 -27 -8 -51 -10 -54 -2 -4 -6 -28 -9 -55 -3 -27 -8 -56 -10 -64 -4 -16
-13 -107 -21 -220 -6 -94 -6 -405 1 -475 3 -33 7 -82 10 -110 11 -121 18 -166
36 -265 109 -568 353 -1112 717 -1593 213 -283 497 -573 802 -821 12 -10 76
-58 142 -107 183 -137 345 -241 608 -392 46 -26 387 -197 394 -197 3 0 33 -13
68 -29 165 -75 243 -106 503 -195 138 -48 425 -135 465 -141 32 -5 170 -39
188 -46 44 -17 132 -9 284 26 175 41 147 34 348 86 85 22 162 42 170 44 8 2
40 11 70 20 30 9 78 22 105 30 147 40 586 182 735 237 86 32 111 44 88 45 -28
0 -195 14 -223 18 -16 3 -59 7 -95 10 -36 4 -76 8 -90 10 -14 2 -47 6 -75 9
-65 8 -135 18 -160 22 -11 2 -49 9 -85 14 -36 6 -74 13 -85 15 -587 113 -1063
269 -1530 501 -188 93 -426 227 -511 289 -30 22 -108 78 -172 124 -64 46 -140
103 -168 125 -28 23 -66 53 -85 68 -100 78 -353 311 -452 415 -141 150 -289
339 -386 493 -44 70 -175 326 -204 400 -10 25 -22 54 -27 65 -24 55 -84 237
-124 375 -93 324 -116 472 -111 720 5 243 15 331 62 545 95 433 283 825 580
1210 122 158 353 396 518 533 277 231 526 392 860 557 278 136 453 205 755
295 243 73 405 110 635 146 17 2 41 6 55 9 14 3 45 7 70 10 25 3 61 8 80 10
19 3 60 7 90 11 30 3 69 7 85 9 192 24 730 24 940 0 22 -2 63 -6 90 -9 203
-19 515 -75 750 -136 66 -17 127 -33 135 -35 58 -12 384 -125 475 -164 11 -5
65 -28 120 -51 514 -218 945 -508 1328 -895 431 -435 727 -974 837 -1525 45
-223 54 -315 53 -545 0 -194 -8 -287 -38 -455 -68 -377 -208 -735 -414 -1059
-62 -98 -186 -270 -237 -331 -91 -106 -130 -149 -233 -254 -97 -99 -251 -241
-387 -356 -89 -75 -373 -282 -531 -388 -677 -449 -1404 -793 -2318 -1098 -288
-95 -787 -239 -937 -269 -74 -15 -214 -58 -220 -68 -29 -43 -26 -50 162 -412
177 -341 204 -393 256 -480 63 -105 94 -142 147 -174 35 -21 45 -23 120 -17
45 4 96 9 112 11 30 4 123 14 180 20 81 8 163 17 185 20 14 2 54 7 90 10 36 3
74 7 85 9 11 2 54 7 95 11 41 3 82 8 90 10 8 2 47 7 85 10 39 3 81 8 95 10 14
2 54 6 90 10 36 4 76 8 90 10 14 2 54 6 90 10 36 4 76 8 90 10 14 2 50 6 80
10 30 3 71 8 90 10 19 2 64 7 100 10 36 3 72 8 80 10 8 2 46 6 83 10 37 3 77
8 87 10 10 2 50 7 87 10 37 4 75 9 83 10 8 2 44 6 80 10 36 3 76 8 90 10 14 2
50 6 80 10 30 3 67 8 83 11 15 3 27 2 27 -3 0 -4 -39 -20 -88 -35 -48 -14
-168 -52 -266 -83 -366 -114 -780 -234 -1146 -331 -181 -48 -355 -93 -380 -97
-14 -3 -72 -17 -130 -31 -179 -46 -284 -121 -283 -204 0 -40 7 -56 158 -368
112 -232 129 -253 220 -274 36 -9 384 -13 1215 -16 2389 -7 2167 -9 2260 21
87 29 172 100 463 385 146 143 185 189 182 215 -7 67 -56 99 -165 110 -36 3
-85 8 -110 10 -25 3 -85 7 -135 10 -49 3 -121 8 -160 10 -38 2 -117 7 -175 10
-58 4 -121 8 -140 10 -19 2 -107 7 -195 11 -206 9 -257 12 -275 13 -8 1 118
46 280 100 277 92 551 187 665 231 28 10 112 42 189 70 342 127 466 216 458
330 -2 24 -57 226 -100 370 -11 36 -37 121 -57 190 -50 172 -60 190 -120 220
l-50 25 -410 0 c-356 -1 -655 -7 -870 -20 -33 -2 -105 -6 -160 -9 -139 -8
-298 -20 -430 -31 -27 -2 -90 -7 -140 -11 -49 -4 -97 -8 -105 -9 -26 -3 -133
-16 -175 -20 -22 -2 -80 -9 -129 -15 -49 -6 -90 -9 -92 -7 -2 2 15 12 38 22
189 80 527 240 640 303 29 16 96 51 148 78 228 114 722 418 1015 624 50 35
104 73 120 84 302 209 711 593 948 890 396 497 661 1042 776 1598 29 141 33
165 46 263 4 28 8 60 10 72 7 46 18 251 18 338 0 102 -12 382 -17 411 -2 10
-7 46 -10 79 -10 84 -27 179 -52 288 -2 9 -6 25 -8 35 -112 494 -348 995 -675
1432 -149 200 -400 474 -591 645 -406 364 -949 706 -1480 930 -74 31 -144 61
-155 65 -48 21 -379 137 -410 144 -5 1 -55 16 -110 33 -95 30 -273 79 -324 89
-12 3 -53 12 -90 20 -36 9 -75 18 -86 20 -57 11 -68 14 -83 18 -9 3 -33 7 -52
10 -19 3 -46 8 -60 11 -43 9 -133 24 -180 30 -25 4 -61 9 -80 11 -19 3 -46 7
-60 9 -14 2 -43 6 -65 10 -22 3 -60 7 -85 9 -25 2 -74 7 -110 10 -171 17 -393
28 -615 30 -92 0 -167 0 -168 -1z"/>
<path d="M4733 8425 c-32 -14 -61 -48 -68 -81 -8 -39 -37 -163 -72 -304 -19
-79 -36 -151 -38 -160 -2 -8 -26 -109 -53 -225 -28 -115 -65 -268 -82 -340
-17 -71 -42 -175 -55 -230 -14 -55 -39 -158 -56 -230 -32 -138 -32 -136 -48
-205 -19 -83 -141 -583 -186 -763 -25 -98 -45 -189 -45 -203 0 -32 29 -82 50
-89 9 -3 21 -22 26 -42 21 -85 98 -96 264 -38 58 20 299 104 535 186 237 83
437 153 445 156 107 42 244 83 276 83 49 0 49 1 93 -170 16 -63 41 -158 55
-210 41 -157 105 -403 163 -629 55 -218 69 -257 98 -281 9 -8 24 -31 32 -52
20 -49 60 -78 111 -78 59 0 101 18 118 53 9 17 45 136 81 266 65 240 132 484
138 511 2 8 19 71 38 140 19 69 58 213 87 320 49 182 80 295 131 480 12 41 23
84 25 95 2 11 10 43 19 70 15 50 63 227 70 255 1 8 15 60 30 115 15 55 28 107
30 115 2 8 31 114 65 235 34 121 64 243 67 271 5 47 3 53 -23 78 -16 14 -32
26 -36 26 -4 0 -8 14 -10 32 -4 45 -55 78 -118 78 -49 0 -55 -3 -295 -130 -49
-26 -139 -73 -200 -105 -107 -56 -207 -109 -350 -185 -38 -20 -128 -68 -200
-105 -71 -38 -146 -78 -165 -90 -82 -51 -164 -69 -208 -48 -31 15 -82 87 -82
116 0 8 -6 27 -14 43 -13 28 -112 285 -162 424 -13 36 -28 74 -33 85 -5 11
-42 106 -81 210 -197 520 -199 523 -233 544 -29 19 -97 21 -134 6z"/>
</g>
</svg>
